<svg width="240" height="248" viewBox="0 0 240 248" fill="none" xmlns="http://www.w3.org/2000/svg">
<path d="M240 220.601C240 211.678 204.492 204.129 155.599 201.613C155.334 202.466 154.996 203.295 154.588 204.09C162.562 206.683 169.78 211.19 175.61 217.216C176.375 217.994 177.166 218.798 177.945 219.615C179.04 216.916 181.051 214.689 183.625 213.325C188.278 211.439 193.381 210.957 198.306 211.937C201.392 212.767 203.234 214.401 203.662 217.125C203.724 217.215 203.765 217.318 203.781 217.426C203.797 217.534 203.787 217.644 203.752 217.748C203.783 218.18 203.783 218.613 203.752 219.045C203.402 224.077 200.147 230.887 195.971 235.906C222.842 232.326 240 226.801 240 220.601Z" fill="#CED881"/>
<path d="M164.496 224.091C163.536 223.455 162.551 222.871 161.552 222.301C161.395 222.301 161.242 222.256 161.111 222.171C160.979 222.086 160.876 221.964 160.813 221.821C158.61 220.597 156.331 219.514 153.991 218.578L153.797 218.5C149.65 216.876 145.383 215.575 141.035 214.609C132.885 217.316 124.293 218.443 115.72 217.93C111.674 217.718 107.648 217.22 103.673 216.438C95.0483 217.735 86.3074 219.292 78.2019 222.482C78.1155 222.585 78.0053 222.664 77.8809 222.714C77.7565 222.764 77.6218 222.782 77.4886 222.768C75.2652 223.676 73.0996 224.72 71.0043 225.894C70.9471 226.077 70.8241 226.233 70.6589 226.331C70.4936 226.429 70.2979 226.463 70.1094 226.425C69.1368 226.996 68.1771 227.593 67.2433 228.241C63.2393 231.063 59.3866 234.094 55.7012 237.32C77.0714 239.451 98.5371 240.481 120.013 240.407C140.841 240.407 160.411 239.538 177.478 237.982C176.777 236.456 176.305 234.834 176.077 233.17C172.417 229.896 168.548 226.864 164.496 224.091Z" fill="#CED881"/>
<path d="M27.9736 221.899C27.9343 221.788 27.9232 221.67 27.9413 221.555C27.9594 221.439 28.0062 221.33 28.0773 221.237C28.2579 219.863 28.9102 218.594 29.9227 217.648C30.9352 216.702 32.2449 216.136 33.6279 216.049C37.752 215.608 44.2623 215.271 48.0881 217.463C48.3085 217.592 48.516 217.748 48.7235 217.891C48.863 217.927 48.9862 218.01 49.0737 218.124C51.0443 219.724 52.5751 221.8 53.522 224.155C54.3318 223.172 55.1978 222.237 56.1157 221.354C57.4904 220.057 58.9299 218.76 60.4084 217.605C60.4921 217.452 60.6312 217.336 60.7974 217.281C67.7876 211.691 75.8023 207.528 84.7247 206.775C83.4513 205.278 82.4307 203.582 81.703 201.756C34.1986 204.35 0 211.847 0 220.601C0 225.79 11.9831 230.498 31.6178 234.039C29.6698 230.722 28.4249 227.04 27.9606 223.221C27.9327 222.781 27.9371 222.339 27.9736 221.899Z" fill="#CED881"/>
<path d="M159.27 207.553C157.498 206.727 155.669 206.03 153.797 205.465C151.134 209.261 147.4 212.178 143.072 213.844C146.629 214.785 150.125 215.946 153.538 217.32C154.731 213.429 155.782 209.758 159.27 207.553Z" fill="#CED881"/>
<path d="M177.257 221.276C176.419 220.22 175.514 219.219 174.546 218.28C173.241 217.043 171.892 215.863 170.5 214.739C167.154 215.893 163.471 217.994 162.291 221.509C166.902 224.101 171.246 227.142 175.26 230.588L175.804 231.042C175.642 227.723 176.136 224.404 177.257 221.276Z" fill="#CED881"/>
<path d="M154.925 217.929C156.974 218.794 158.988 219.758 160.968 220.822C162.265 217.294 165.689 215.024 169.126 213.675C166.551 211.662 163.799 209.887 160.903 208.37C157 210.342 156.118 214.038 154.925 217.929Z" fill="#CED881"/>
<path d="M201.288 222.858C201.832 221.36 202.07 219.768 201.988 218.176C198.724 217.712 195.419 217.603 192.132 217.852C188.435 218.098 186.944 218.344 185.077 221.743C182.418 226.593 178.255 235.011 181.186 240.536C182.846 241.652 185.077 241.834 188.046 240.731C194.155 237.8 199.225 229.019 201.288 222.858Z" fill="#CED881"/>
<path d="M185.776 215.53C186.25 216.026 186.757 216.49 187.293 216.918C188.408 216.602 189.558 216.432 190.717 216.412C194.345 216.113 197.995 216.178 201.611 216.606C200.69 214.22 198.109 212.962 193.635 213.338C190.665 213.572 187.306 213.157 184.557 214.505C184.985 214.843 185.451 215.18 185.776 215.53Z" fill="#CED881"/>
<path d="M183.779 220.938C184.366 219.79 185.099 218.722 185.958 217.761C185.024 216.995 184.194 216.1 183.196 215.413C178.151 219.473 175.907 231.314 178.786 237.553C178.164 231.95 181.237 225.244 183.779 220.938Z" fill="#CED881"/>
<path d="M203.751 217.709C203.785 217.605 203.795 217.495 203.779 217.387C203.763 217.279 203.723 217.176 203.66 217.087C203.232 214.402 201.39 212.768 198.304 211.898C193.38 210.918 188.276 211.4 183.623 213.286C181.05 214.651 179.039 216.878 177.943 219.577C177.165 218.76 176.374 217.956 175.609 217.177C169.778 211.151 162.56 206.644 154.586 204.052C154.994 203.256 155.333 202.428 155.598 201.574C155.753 201.081 155.896 200.563 156.013 200.031C157.426 199.603 158.827 199.149 160.228 198.734C164.468 197.242 165.286 192.651 165.675 188.358C173.56 189.175 184.233 187.904 188.915 181.769C188.973 181.728 189.025 181.68 189.07 181.626C199.627 166.671 190.743 152.223 177.022 147.372C176.915 147.295 176.79 147.246 176.659 147.229C172.338 145.778 167.742 145.335 163.223 145.932C162.838 143.707 161.789 141.65 160.215 140.031C158.681 138.538 156.767 137.495 154.681 137.017C152.595 136.539 150.418 136.644 148.387 137.32C146.932 136.138 145.369 135.096 143.718 134.207C144.135 132.66 144.219 131.042 143.965 129.46C143.979 129.383 143.977 129.305 143.959 129.229C143.941 129.153 143.908 129.081 143.861 129.019C148.232 126.425 151.007 121.807 152.719 116.58C156.882 114.995 160.298 111.902 162.29 107.916C166.18 99.3301 166.284 88.5908 166.401 79.382C166.569 68.0891 165.731 56.8038 163.898 45.6594C162.718 40.212 156.687 37.7865 151.954 36.2431C144.315 33.7398 136.028 32.9876 127.949 32.7022C127.986 32.5841 127.986 32.4572 127.949 32.3391C126.496 28.5647 122.515 26.1134 118.235 25.3222C118.232 23.9186 118.159 22.516 118.014 21.1198C118.014 19.6801 118.287 16.8916 118.442 13.9862C121.581 12.8967 123.163 10.0952 122.826 6.58024C122.489 3.06532 120.012 -0.358814 116.225 0.0302923C111.893 0.211875 107.639 3.75274 107.743 8.26637C107.779 9.68433 108.306 11.046 109.232 12.1196C110.159 13.1932 111.43 13.9124 112.827 14.1548C112.671 20.4584 112.619 18.9668 112.658 25.2833C108.508 25.9707 105.046 28.5647 104.397 33.1173C104.397 33.1951 104.397 33.2599 104.397 33.3248C100.507 33.7009 96.5512 34.2068 92.6606 34.8682C86.254 35.9448 77.9411 37.3066 72.7925 41.6906C70.4711 43.688 70.1987 45.7502 69.6541 48.7464C69.1094 51.7425 68.6166 54.7645 68.2534 57.8255C64.1294 55.5168 66.0228 47.9552 67.8125 44.4013C68.9811 42.1403 70.3992 40.0172 72.0403 38.0719C72.1195 37.99 72.1795 37.8915 72.2158 37.7836C72.2521 37.6756 72.2639 37.5608 72.2502 37.4477C72.2366 37.3346 72.1978 37.226 72.1368 37.1298C72.0758 37.0336 71.9941 36.9522 71.8976 36.8916C69.6411 35.2184 67.2419 33.8955 64.8427 32.4558C64.6698 32.3601 64.4666 32.335 64.2756 32.3858C64.0846 32.4365 63.9207 32.5592 63.8181 32.7282C58.2027 41.3533 52.9892 52.9228 57.4894 62.1316C55.2791 64.2678 53.7957 67.0444 53.2486 70.0694C53.2169 70.3279 53.2386 70.5902 53.3122 70.84C53.3858 71.0899 53.5098 71.322 53.6766 71.522C49.408 79.349 46.2438 87.7296 44.2742 96.4248C42.1066 105.753 42.0445 115.448 44.0927 124.804C44.0638 125.027 44.1192 125.254 44.2483 125.439C44.994 128.49 46.023 131.464 47.3219 134.324C51.9388 144.415 61.0688 154.726 71.9625 158.695C70.9898 164.959 71.0936 171.483 75.8531 173.092C75.7364 174.726 75.6586 176.36 75.6197 177.981C75.5641 181.445 75.6983 184.909 76.0217 188.358L74.232 188.098C74.1175 188.066 73.9964 188.066 73.8819 188.098C71.4697 188.643 72.4812 192.132 72.7925 193.844C73.83 199.356 75.8401 198.954 81.3389 200.588C81.4686 201.004 81.5983 201.393 81.7539 201.782C82.4751 203.616 83.4914 205.321 84.7626 206.827C75.8401 207.579 67.8255 211.743 60.8353 217.333C60.6691 217.388 60.5299 217.504 60.4463 217.657C58.9678 218.851 57.5283 220.109 56.1536 221.406C55.2357 222.289 54.3697 223.224 53.5599 224.207C52.613 221.852 51.0822 219.776 49.1116 218.176C49.0241 218.061 48.9008 217.979 48.7614 217.943C48.5539 217.8 48.3464 217.644 48.126 217.515C44.3002 215.323 37.751 215.66 33.6658 216.101C32.2828 216.188 30.973 216.753 29.9606 217.7C28.9481 218.646 28.2958 219.915 28.1152 221.289C28.0441 221.382 27.9973 221.491 27.9792 221.606C27.961 221.722 27.9721 221.84 28.0114 221.95C27.9805 222.382 27.9805 222.816 28.0114 223.247C28.4758 227.066 29.7206 230.748 31.6686 234.065C34.5866 239.356 38.8403 244.298 43.0292 246.27H43.133H43.2108C50.8624 249.318 54.74 244.259 55.557 237.476L55.7386 237.32C59.424 234.093 63.2768 231.063 67.2808 228.241C68.2145 227.592 69.1742 226.944 70.1469 226.425C70.3354 226.463 70.5311 226.429 70.6963 226.331C70.8615 226.233 70.9845 226.077 71.0417 225.893C73.1371 224.719 75.3026 223.676 77.5261 222.768C77.6592 222.782 77.794 222.764 77.9183 222.714C78.0427 222.664 78.153 222.585 78.2394 222.482C86.3448 219.292 95.0987 217.722 103.71 216.438C107.673 217.218 111.686 217.716 115.719 217.93C124.274 218.441 132.847 217.318 140.982 214.622C145.33 215.588 149.596 216.889 153.743 218.513L153.938 218.591C156.295 219.52 158.591 220.599 160.811 221.821C160.882 221.968 160.995 222.09 161.136 222.171C161.278 222.252 161.44 222.288 161.602 222.275C162.601 222.845 163.587 223.429 164.546 224.065C168.594 226.838 172.459 229.871 176.114 233.144C176.342 234.808 176.814 236.429 177.515 237.956C178.101 239.24 178.959 240.382 180.031 241.302C180.093 241.38 180.173 241.442 180.264 241.484C182.3 243.053 185.076 243.481 188.616 242.067C188.616 242.067 188.616 242.067 188.694 242.067C188.772 242.067 188.694 242.067 188.798 242.067C191.609 240.568 194.071 238.491 196.021 235.971C200.21 230.9 203.465 224.09 203.803 219.11C203.821 218.642 203.803 218.174 203.751 217.709ZM188.046 240.731C185.102 241.873 182.858 241.652 181.185 240.537C178.254 235.011 182.417 226.594 185.076 221.743C186.904 218.384 188.435 218.137 192.131 217.852C195.418 217.603 198.723 217.712 201.987 218.176C202.069 219.768 201.831 221.36 201.287 222.858C199.225 229.019 194.154 237.8 188.046 240.731ZM183.182 215.413C184.181 216.101 185.011 216.996 185.945 217.761C185.085 218.722 184.353 219.79 183.766 220.939C181.172 225.245 178.15 231.95 178.773 237.554C175.907 231.315 178.15 219.473 183.195 215.413H183.182ZM43.6517 244.895C37.8677 242.119 33.8214 234.583 31.2407 229.032C30.1723 226.975 29.5994 224.696 29.5677 222.378C32.8885 221.918 36.2477 221.801 39.5925 222.028C43.3664 222.21 44.7152 222.599 46.6475 225.919C49.3839 230.589 53.3134 239.136 50.603 244.557C48.9041 245.738 46.6086 246.049 43.6517 244.895ZM44.3521 221.159C43.6935 220.931 43.0099 220.783 42.316 220.718C38.1775 220.251 33.9983 220.277 29.866 220.796C30.5663 218.786 32.5375 217.424 36.5578 217.437C39.9427 217.437 43.8981 217.346 47.0885 218.734C46.6864 219.032 46.3103 219.356 45.9472 219.681C45.4655 220.178 44.9545 220.645 44.4169 221.081C44.4169 221.081 44.378 221.133 44.3521 221.159ZM48.541 226.205C47.907 224.61 46.9587 223.158 45.7527 221.937C46.6994 221.159 47.5424 220.251 48.5669 219.551C54.0786 223.351 55.998 235.219 52.9374 241.6C53.4302 236.36 50.6808 230.407 48.541 226.205ZM70.8472 212.521C74.5173 214.415 75.503 217.865 76.6183 221.496C76.2941 221.639 75.9569 221.756 75.6456 221.899C73.8948 222.69 72.2089 223.559 70.5748 224.493C69.1223 221.185 65.8023 219.058 62.4564 217.761C65.0437 215.723 67.8235 213.942 70.7564 212.443L70.8472 212.521ZM61.0947 218.863C64.3369 219.979 67.9422 221.963 69.265 225.284C64.7418 228.116 60.4449 231.294 56.413 234.791L55.6608 235.426C55.7466 232.107 55.219 228.801 54.1045 225.673C54.6492 225.089 55.1809 224.493 55.7256 223.922C57.41 222.127 59.203 220.438 61.0947 218.863ZM72.3905 211.665C76.6838 209.665 81.318 208.499 86.0465 208.228C89.9669 211.78 94.7159 214.29 99.8582 215.53C92.4019 216.519 85.0777 218.328 78.0189 220.926C76.8776 217.242 75.7623 213.792 72.3905 211.665ZM115.719 216.438C103.619 215.971 87.6547 212.819 83.0897 201.094C98.9893 205.725 115.901 206.555 132.371 204.83C139.831 204.067 147.209 202.643 154.418 200.576C150.436 214.713 128.286 216.931 115.719 216.438ZM74.7508 195.686C74.5044 194.791 73.1037 190.096 74.1542 189.59C93.9575 192.469 113.903 194.778 133.927 193.481C143.124 192.837 152.215 191.131 161.019 188.396C161.396 188.264 161.76 188.099 162.108 187.904C162.744 188.033 163.405 188.163 164.118 188.254C163.95 189.551 163.742 190.848 163.483 192.054C163.055 194.116 162.368 196.386 160.254 197.164C148.789 201.139 136.814 203.45 124.693 204.026C114.467 204.616 104.206 203.993 94.1261 202.171C88.375 201.104 82.7098 199.617 77.1759 197.722C74.8415 196.892 75.2176 197.502 74.7508 195.66V195.686ZM77.3445 186.71C75.9439 169.032 79.0564 143.727 97.6665 135.569C100.032 134.677 102.448 133.927 104.903 133.325C107.354 137.086 115.706 137.994 119.571 138.059C121.904 138.036 124.218 137.629 126.418 136.853C126.451 136.95 126.49 137.046 126.535 137.138C126.706 137.429 126.934 137.681 127.206 137.879C127.479 138.078 127.788 138.219 128.117 138.293C128.117 148.669 129.323 159.849 135.237 168.448C140.995 176.801 149.503 184.22 159.476 187.203C132.916 195.167 104.734 192.391 77.565 188.578C77.5001 187.968 77.4223 187.346 77.3705 186.684L77.3445 186.71ZM72.9741 162.923C73.6201 156.821 74.8048 150.788 76.5145 144.894C77.98 139.252 84.2958 136.944 89.4833 139.097C84.8163 143.646 81.2884 149.231 79.1861 155.4C77.36 160.587 76.2475 165.997 75.879 171.483C72.8314 170.238 72.7276 166.295 73 162.897L72.9741 162.923ZM58.1897 46.3209C58.5528 45.0239 63.2086 33.2599 65.8672 34.8293C68.1627 36.1912 71.6123 36.1264 69.9005 38.3443C66.9259 41.9428 64.9214 46.2425 64.0775 50.8346C63.4809 55.0369 65.3744 57.6309 68.1627 58.7723C67.7606 62.2354 67.4883 65.6984 67.2937 69.1485C58.2545 66.6971 55.9072 54.6997 58.1897 46.3209ZM93.0756 36.3468C104.066 34.498 115.216 33.7723 126.353 34.1808C134.965 34.4273 159.916 34.4532 162.458 46.1004C164.706 59.9311 165.424 73.9674 164.598 87.9553C164.028 97.8775 163.133 109.836 153.38 114.363C154.455 110.085 155.033 105.698 155.105 101.289V101.159C155.12 101.07 155.116 100.979 155.092 100.892C155.068 100.805 155.026 100.724 154.968 100.655C154.91 100.586 154.838 100.53 154.756 100.492C154.675 100.453 154.586 100.433 154.496 100.433L143.952 99.9008C143.838 99.8868 143.723 99.8983 143.615 99.9347C143.506 99.971 143.407 100.031 143.325 100.111C143.243 100.191 143.18 100.288 143.14 100.395C143.101 100.502 143.085 100.617 143.096 100.731C143.239 102.934 143.161 105.145 142.863 107.333C142.448 110.225 140.554 116.088 137.455 118.422C135.937 118.643 134.394 118.824 132.864 118.98C132.046 118.589 131.301 118.063 130.659 117.424C126.172 113.156 127.041 105.27 128.234 99.7711C128.249 99.6731 128.244 99.5732 128.22 99.4771C128.196 99.381 128.153 99.2906 128.094 99.2111C128.035 99.1315 127.961 99.0644 127.876 99.0136C127.791 98.9629 127.696 98.9294 127.598 98.9151C126.6 98.7724 125.601 98.6816 124.603 98.6038C123.688 97.6573 122.563 96.9406 121.319 96.5123C120.075 96.084 118.747 95.9562 117.444 96.1395C116.338 96.1821 115.253 96.45 114.254 96.9267C113.256 97.4034 112.365 98.0789 111.637 98.9118C110.908 99.7448 110.358 100.718 110.018 101.771C109.679 102.824 109.558 103.935 109.663 105.037C110.233 109.097 114.733 110.744 118.455 110.627C118.723 113.751 119.372 116.831 120.388 119.797C109.368 120.411 98.3156 119.486 87.5509 117.047C83.3006 116.096 79.261 114.373 75.6326 111.963C70.0561 108.072 69.9523 100.562 69.2391 94.4404C68.3748 85.999 68.2056 77.5008 68.7333 69.0317C68.9797 64.2847 69.4855 59.5505 70.1339 54.8423C70.5748 51.6646 70.6916 47.4104 72.1959 44.531C75.3473 38.6555 87.4212 37.3326 93.0756 36.3468ZM118.507 98.9281C118.195 102.326 118.147 105.743 118.365 109.149C117.067 109.267 115.761 109.041 114.579 108.492C113.397 107.943 112.381 107.091 111.634 106.023C109.325 102.248 113.722 97.6829 117.496 97.6051C119.085 97.3896 120.702 97.6704 122.126 98.4092L119.311 98.2795C119.121 98.2676 118.932 98.3276 118.783 98.4476C118.635 98.5676 118.536 98.739 118.507 98.9281ZM126.418 128.435C126.327 128.76 126.25 129.097 126.172 129.421C123.868 130.008 121.515 130.381 119.143 130.536C114.641 130.781 110.15 129.889 106.083 127.942C106.083 126.373 106.083 124.791 106.187 123.221C111.617 125.471 117.556 126.206 123.371 125.348C124.23 126.521 125.256 127.561 126.418 128.435ZM118.274 136.464C115.72 136.361 113.201 135.84 110.817 134.92C107.588 133.766 106.382 132.677 106.135 129.654C110.835 131.77 116.027 132.546 121.14 131.898C122.67 131.652 124.317 131.431 125.886 131.055C125.654 132.488 125.676 133.95 125.951 135.374C123.494 136.262 120.883 136.646 118.274 136.503V136.464ZM106.407 121.769C106.407 121.769 106.317 121.769 106.278 121.769C106.239 121.769 106.278 121.405 106.278 121.211C111.167 121.483 116.082 121.47 120.958 121.211C121.375 122.191 121.86 123.14 122.411 124.051C116.969 124.665 111.461 123.88 106.407 121.769ZM63.0919 68.7723C64.3401 69.7186 65.7268 70.4666 67.203 70.9902C67.203 71.7685 67.1122 72.5467 67.0862 73.3249C67.0603 74.1031 67.0862 74.9591 67.0862 75.7763C65.0242 76.5285 62.5212 75.1148 60.6019 74.1679C58.8857 73.3029 57.242 72.3009 55.6867 71.1718L54.6233 70.3806C54.97 69.2381 55.4036 68.1238 55.9202 67.0473C56.6212 65.7972 57.4009 64.5929 58.2545 63.4416C59.5131 65.5102 61.155 67.3195 63.0919 68.7723ZM57.3338 74.1031C59.2968 75.3865 61.3819 76.4727 63.5587 77.3456C63.2086 77.8774 62.8714 78.3962 62.5342 78.941C59.8898 77.0465 56.9491 75.6045 53.8322 74.6738C54.1694 73.9993 54.5195 73.3768 54.8827 72.7023C55.6867 73.2081 56.6983 73.6751 57.3338 74.0772V74.1031ZM64.9075 77.7477C65.5989 77.9478 66.3368 77.9159 67.0084 77.6569C66.9462 84.5964 67.3796 91.5315 68.3053 98.4092C68.8241 102.3 69.1483 107.177 71.8587 110.381C76.9555 116.438 85.7353 118.422 93.1534 119.745C97.0147 120.43 100.911 120.898 104.825 121.146C104.501 124.064 103.632 128.993 104.319 131.911C101.927 132.513 99.5713 133.254 97.2645 134.129H97.1737H97.0829C94.8629 135.1 92.786 136.37 90.9098 137.904C88.9831 136.877 86.7965 136.442 84.6236 136.652C82.4507 136.862 80.3879 137.708 78.6933 139.084C77.3662 140.107 76.3144 141.444 75.6326 142.975C64.1942 136.49 58.2027 124.44 57.2689 110.977C56.4519 100.031 58.2286 87.0863 64.9075 77.7218V77.7477ZM142.72 136.451C142.858 136.238 142.983 136.017 143.096 135.789C150.592 140.031 155.598 147.463 158.256 156.101C159.574 160.709 160.328 165.461 160.5 170.251C158.087 169.145 155.86 167.67 153.899 165.88C151.388 163.569 149.206 160.925 147.415 158.02C147.401 157.917 147.366 157.818 147.309 157.731C147.253 157.643 147.179 157.569 147.09 157.514C143.602 151.466 141.635 144.66 141.358 137.683C141.923 137.387 142.404 136.955 142.759 136.425L142.72 136.451ZM160.967 144.233C162.568 149.977 163.777 155.822 164.585 161.73C165 165.063 165.688 169.136 162.445 171.133L162.134 171.016C161.693 159.849 158.905 148.967 151.5 140.446C150.981 139.849 150.423 139.291 149.853 138.747C154.508 137.631 159.735 139.408 161.006 144.142L160.967 144.233ZM162.77 172.975C162.062 177.257 160.468 181.343 158.088 184.972L158.023 185.102C155.798 184.276 153.653 183.247 151.616 182.028C155.068 179.248 157.881 175.758 159.865 171.795C160.824 172.215 161.807 172.579 162.808 172.884L162.77 172.975ZM146.39 159.421C147.328 160.847 148.35 162.215 149.451 163.52C146.183 166.684 141.994 169.084 137.351 168.293C136.504 166.985 135.734 165.629 135.042 164.233C139.323 164.104 143.394 162.351 146.429 159.33L146.39 159.421ZM134.316 162.651C133.627 161.121 133.025 159.553 132.514 157.955C136.522 158.316 140.511 157.081 143.615 154.518C144.203 155.754 144.857 156.958 145.573 158.124C144.115 159.603 142.364 160.762 140.432 161.526C138.5 162.29 136.431 162.642 134.355 162.56L134.316 162.651ZM150.462 164.648C150.761 164.972 151.059 165.31 151.37 165.634C152.242 166.558 153.173 167.425 154.158 168.228C151.72 171.955 148.097 174.751 143.874 176.166C141.898 174.3 140.104 172.25 138.518 170.044C143.096 170.134 147.22 167.683 150.501 164.557L150.462 164.648ZM155.364 169.071C156.374 169.814 157.431 170.49 158.529 171.094C156.576 175.052 153.741 178.508 150.242 181.198C149.451 180.679 148.66 180.134 147.907 179.551C146.922 178.812 146.001 178.033 145.106 177.242C149.334 175.661 152.943 172.765 155.403 168.98L155.364 169.071ZM141.669 149.188C142.028 150.466 142.461 151.721 142.966 152.949C141.478 154.248 139.729 155.212 137.836 155.776C135.943 156.34 133.951 156.49 131.995 156.217C131.489 154.415 131.074 152.547 130.698 150.653C134.416 151.413 138.281 150.897 141.669 149.188ZM130.542 149.084C130.257 147.203 130.049 145.284 129.907 143.325C133.395 142.962 136.923 143.727 140.282 142.534C140.437 143.623 140.593 144.7 140.801 145.802C140.93 146.438 141.086 147.099 141.241 147.683C138.064 149.706 134.161 149.758 130.542 149.188V149.084ZM129.803 141.82C129.803 140.718 129.699 139.603 129.673 138.487C130.477 138.487 131.269 138.487 131.917 138.487C134.553 138.787 137.22 138.691 139.828 138.202C139.906 139.123 140.009 140.044 140.113 140.951C136.806 142.365 133.253 141.522 129.803 141.859V141.82ZM153.795 205.374C155.667 205.939 157.496 206.637 159.268 207.463C155.779 209.694 154.729 213.364 153.536 217.229C150.122 215.856 146.627 214.695 143.07 213.753C147.389 212.105 151.122 209.212 153.795 205.439V205.374ZM160.902 208.267C163.797 209.783 166.549 211.559 169.124 213.572C165.688 214.869 162.277 217.19 160.967 220.718C158.978 219.655 156.964 218.691 154.923 217.826C156.117 213.935 156.998 210.277 160.876 208.28L160.902 208.267ZM162.29 221.445C163.47 217.93 167.153 215.828 170.499 214.674C171.882 215.807 173.231 216.987 174.545 218.215C175.512 219.154 176.418 220.155 177.256 221.211C176.149 224.351 175.673 227.679 175.855 231.004L175.31 230.55C171.279 227.114 166.917 224.086 162.29 221.509V221.445ZM201.637 216.633C198.021 216.205 194.372 216.139 190.743 216.438C189.585 216.458 188.434 216.628 187.319 216.944C186.783 216.516 186.276 216.052 185.802 215.556C185.413 215.206 185.011 214.869 184.596 214.557C187.358 213.26 190.717 213.624 193.674 213.39C198.135 212.988 200.716 214.246 201.637 216.633ZM167.477 187.112C164.77 186.883 162.098 186.343 159.514 185.504C161.89 181.805 163.503 177.669 164.261 173.338C164.957 173.522 165.663 173.669 166.375 173.779L167.166 173.883C169.474 177.839 168.865 182.91 167.477 187.112ZM175.66 186.633C174.3 186.969 172.91 187.169 171.51 187.229C170.68 187.229 169.851 187.229 169.008 187.229C170.304 182.975 170.81 178.15 168.891 174.077C169.996 174.133 171.103 174.081 172.198 173.922C174.675 177.709 176.374 181.898 175.648 186.49L175.66 186.633ZM183.221 183.662C181.292 184.713 179.269 185.582 177.178 186.256C177.761 181.691 176.179 177.463 173.78 173.636C175.416 173.197 176.999 172.579 178.501 171.795C180.098 173.212 181.36 174.967 182.197 176.932C183.033 178.896 183.423 181.023 183.338 183.157C183.329 183.311 183.365 183.464 183.442 183.598L183.221 183.662ZM184.842 182.832C184.873 180.632 184.453 178.448 183.607 176.416C182.762 174.384 181.51 172.546 179.927 171.016L182.002 169.888C187.501 168.28 191.08 174.492 189.109 178.526C188.298 180.46 186.769 182.004 184.842 182.832ZM191.106 161.795C192.465 165.971 192.415 170.477 190.964 174.622C190.869 173.569 190.541 172.55 190.005 171.638C189.469 170.727 188.737 169.946 187.862 169.352C186.988 168.757 185.992 168.364 184.947 168.201C183.903 168.039 182.835 168.11 181.821 168.409C181.695 168.4 181.569 168.427 181.458 168.487H181.38C181.653 167.839 181.788 167.14 181.774 166.436C181.761 165.732 181.6 165.039 181.302 164.402L181.548 164.272C184.324 162.041 187.657 161.795 191.093 161.678L191.106 161.795ZM186.165 154.012C188.015 155.796 189.492 157.93 190.51 160.29C186.878 160.368 183.52 160.848 180.589 163.156C179.801 162.039 178.806 161.084 177.658 160.342L177.8 160.147C178.589 158.644 179.71 157.34 181.079 156.335C182.447 155.33 184.027 154.651 185.698 154.35C185.794 154.335 185.886 154.3 185.966 154.246C186.047 154.192 186.115 154.121 186.165 154.038V154.012ZM177.087 148.643C179.983 149.569 182.673 151.044 185.011 152.988C183.216 153.368 181.525 154.138 180.06 155.243C178.594 156.347 177.389 157.761 176.529 159.382V159.629C176.296 159.512 176.063 159.382 175.816 159.278C174.848 158.869 173.839 158.56 172.807 158.357C173.573 154.791 174.377 151.302 177.048 148.669L177.087 148.643ZM167.464 146.983C170.164 146.97 172.85 147.372 175.427 148.176C173.015 150.913 172.12 154.376 171.29 157.917V158.137C169.948 157.969 168.597 157.878 167.244 157.865C167.425 154.233 167.01 150.614 167.425 147.009L167.464 146.983ZM178.41 169.94C178.297 170.04 178.208 170.164 178.15 170.303C174.947 171.924 171.783 173.092 168.009 172.599C167.863 172.54 167.701 172.54 167.555 172.599C167.235 172.547 166.911 172.482 166.582 172.404C165.778 172.223 164.987 171.989 164.209 171.743C166.595 169.149 166.569 164.272 165.895 159.486H166.712C169.98 159.356 187.28 163.247 178.41 169.94ZM165.908 147.203C165.519 150.757 165.908 154.324 165.752 157.891H165.649C165.221 155.297 164.65 152.858 164.222 150.9C163.976 149.771 163.768 148.591 163.535 147.411L165.908 147.203ZM134.783 137.216C132.748 137.229 130.714 137.086 128.701 136.788C127.404 136.568 127.534 135.491 127.404 133.896C127.404 133.377 127.404 131.12 127.663 129.356C129.681 130.477 131.932 131.112 134.238 131.211C137.058 131.426 139.887 130.94 142.474 129.797C142.671 130.987 142.627 132.204 142.344 133.377C141.358 137.022 137.986 137.164 134.731 137.164L134.783 137.216ZM137.701 129.693C127.443 130.472 119.999 120.614 119.545 111.094C119.311 105.18 118.014 99.0188 125.407 100.069C127.002 100.303 126.846 98.9929 126.574 100.679C126.405 101.665 126.25 102.663 126.159 103.662C125.796 107.994 125.822 112.352 127.845 116.308C132.228 124.907 141.514 118.163 143.524 111.95C144.516 108.537 144.911 104.979 144.691 101.431C145.028 101.413 145.366 101.413 145.703 101.431L149.736 101.652L153.627 101.859C153.276 112.248 150.735 128.63 137.649 129.641L137.701 129.693ZM125.121 32.6763H123.824C117.882 32.5619 111.939 32.7654 106.018 33.2859C107.639 23.9084 123.202 24.959 126.379 32.5855V32.6633L125.121 32.6763ZM114.461 20.2897C114.461 18.3572 114.461 16.3987 114.461 14.4791C115.215 14.5634 115.976 14.5634 116.731 14.4791C116.731 20.6529 116.731 19.0187 116.731 25.1925C115.945 25.1407 115.156 25.1407 114.37 25.1925C114.215 20.8734 114.292 24.4791 114.409 20.2379L114.461 20.2897ZM116.277 1.62563C121.853 1.00306 123.578 10.7048 118.429 12.5076C114.889 13.7139 111.063 13.234 109.546 9.38181C108.029 5.52966 112.697 1.69048 116.225 1.57375L116.277 1.62563ZM53.093 75.9708C56.2145 76.8607 59.1555 78.2919 61.782 80.1991C61.2762 81.0681 60.7964 81.963 60.3555 82.8709C57.5383 81.3794 54.5511 80.2341 51.4589 79.4598C51.9777 78.2925 52.5224 77.1251 53.093 75.9708ZM50.8624 80.8606C53.9203 81.6265 56.8731 82.7633 59.6552 84.2458C59.1494 85.3742 58.6825 86.5156 58.2545 87.6829C55.4243 86.1945 52.3492 85.2279 49.1764 84.8294C49.747 83.4892 50.309 82.1662 50.8624 80.8606ZM48.7614 86.2691C51.9005 86.6199 54.9428 87.5711 57.7228 89.0707H57.8395C57.3289 90.6043 56.896 92.1627 56.5427 93.74C53.7985 91.9 50.6375 90.7763 47.3478 90.4715C47.8017 89.0707 48.2556 87.6699 48.7614 86.2691ZM46.9458 91.9501C50.0967 92.1803 53.1346 93.2213 55.7645 94.9721C55.8472 95.0341 55.9415 95.0786 56.0417 95.1032C56.142 95.1277 56.2463 95.1316 56.3481 95.1148C56.1277 96.4118 55.9461 97.5921 55.8424 98.8113V99.3301C52.7551 97.7289 49.3666 96.7922 45.8953 96.5805C46.1288 95.024 46.5178 93.4806 46.9458 91.9501ZM45.4933 98.0331H45.6878C49.1548 98.2372 52.5318 99.2168 55.57 100.9C55.57 102.015 55.4663 103.117 55.4403 104.233C51.9981 102.781 48.1855 102.455 44.5466 103.299C44.8449 101.574 45.1302 99.7841 45.4933 98.0331ZM44.4039 104.933C48.0822 103.944 51.9917 104.289 55.4403 105.906C55.4403 107.579 55.5441 109.252 55.6867 110.913C51.7961 110.005 48.0092 109.019 44.0149 109.538C44.0927 108.007 44.2353 106.464 44.4039 104.933ZM44.0019 111.055C48.087 110.497 51.9388 111.587 55.8813 112.495C56.0109 113.662 56.1795 114.817 56.3741 115.958C52.3538 114.972 48.1519 115.802 44.1575 116.71C44.0079 114.829 43.956 112.942 44.0019 111.055ZM44.3521 118.215C48.3205 117.307 52.5353 116.399 56.5556 117.54H56.6983C56.9706 118.902 57.3078 120.238 57.6839 121.561C53.4172 120.874 49.2802 122.326 45.3247 123.87C44.8894 122.006 44.5646 120.117 44.3521 118.215ZM45.6489 125.348C49.5395 123.805 53.7025 122.248 57.9563 123.13H58.1378C58.4491 124.09 58.7992 125.05 59.1753 125.984C55.0738 127.232 51.2669 129.297 47.9833 132.054C47.0578 129.877 46.2906 127.636 45.6878 125.348H45.6489ZM50.7197 137.722C49.9156 136.334 49.2024 134.92 48.541 133.481C51.7849 130.683 55.5933 128.617 59.707 127.424C60.122 128.357 60.563 129.278 61.0039 130.173C57.5542 132.845 53.7803 135.258 51.2774 138.876C51.1995 138.461 50.9661 138.098 50.7586 137.722H50.7197ZM52.263 140.225C54.5844 136.477 58.4231 134.103 61.8469 131.457C62.4564 132.495 63.1437 133.507 63.8052 134.479C60.505 137.412 57.7403 140.897 55.6349 144.778C54.4466 143.318 53.3341 141.799 52.3019 140.225H52.263ZM56.6853 146.01C58.7108 142.09 61.4358 138.573 64.7259 135.634C65.6073 136.746 66.5512 137.807 67.5531 138.811L67.4364 138.889C64.3866 141.885 61.7678 145.29 59.6552 149.006C58.6177 148.046 57.645 147.047 56.7242 146.01H56.6853ZM64.6352 153.156C63.276 152.204 61.9767 151.169 60.7445 150.057C62.8389 146.324 65.4595 142.913 68.5258 139.927V139.823C69.5195 140.754 70.5722 141.621 71.6772 142.417C68.772 145.556 66.4135 149.16 64.7 153.079L64.6352 153.156ZM69.5373 156.049C68.261 155.426 67.0225 154.729 65.8283 153.961L65.9839 153.727C67.6934 149.854 70.0581 146.304 72.9741 143.234C73.6225 143.649 74.2709 144.038 75.0101 144.428C74.7767 145.141 74.6081 145.893 74.4265 146.684C72.5964 149.549 70.9962 152.555 69.6411 155.673C69.5822 155.789 69.5596 155.92 69.5762 156.049H69.5373ZM70.8342 156.607L70.9898 156.386C71.7161 154.713 72.5331 153.092 73.402 151.509C73 153.195 72.5591 155.141 72.183 157.151C71.7031 156.97 71.327 156.801 70.8083 156.607H70.8342Z" fill="#121212"/>
<path d="M86.0477 208.228C81.3191 208.498 76.685 209.665 72.3916 211.665C75.7635 213.792 76.8788 217.242 78.02 220.926C85.0788 218.328 92.4031 216.518 99.8594 215.53C94.717 214.29 89.968 211.779 86.0477 208.228Z" fill="#CED881"/>
<path d="M55.6619 235.413L56.4141 234.778C60.4465 231.286 64.7433 228.111 69.2661 225.283C67.9692 221.963 64.338 219.979 61.0958 218.863C59.2179 220.435 57.4378 222.12 55.7656 223.909C55.2209 224.479 54.6892 225.076 54.1445 225.66C55.2458 228.79 55.7602 232.096 55.6619 235.413Z" fill="#CED881"/>
<path d="M70.5764 224.493C72.2105 223.559 73.8964 222.69 75.6472 221.899C75.9585 221.756 76.2957 221.639 76.6199 221.497C75.5046 217.865 74.5189 214.415 70.8488 212.521L70.758 212.443C67.8251 213.942 65.0453 215.723 62.458 217.761C65.8039 219.058 69.1239 221.185 70.5764 224.493Z" fill="#CED881"/>
<path d="M181.303 164.454C181.601 165.091 181.762 165.784 181.775 166.488C181.788 167.192 181.654 167.891 181.381 168.539H181.458C181.569 168.479 181.695 168.452 181.821 168.461C182.836 168.162 183.903 168.091 184.948 168.253C185.993 168.416 186.989 168.809 187.863 169.403C188.738 169.998 189.47 170.779 190.006 171.69C190.542 172.602 190.87 173.621 190.964 174.674C192.416 170.529 192.466 166.023 191.107 161.847C187.67 161.847 184.337 162.145 181.562 164.441L181.303 164.454Z" fill="#CED881"/>
<path d="M165.65 157.877H165.754C165.922 154.31 165.52 150.743 165.909 147.189L163.536 147.436C163.77 148.616 163.977 149.796 164.223 150.925C164.703 152.844 165.222 155.309 165.65 157.877Z" fill="#CED881"/>
<path d="M172.717 158.383C173.749 158.586 174.758 158.894 175.726 159.304C175.972 159.408 176.206 159.538 176.439 159.654V159.408C177.299 157.786 178.504 156.373 179.97 155.268C181.435 154.163 183.125 153.394 184.921 153.014C182.583 151.07 179.893 149.595 176.997 148.668C174.325 151.263 173.521 154.79 172.691 158.331L172.717 158.383Z" fill="#CED881"/>
<path d="M167.296 157.838C168.649 157.852 170 157.943 171.342 158.111V157.89C172.172 154.349 173.067 150.886 175.479 148.15C172.902 147.346 170.216 146.944 167.517 146.956C167.011 150.614 167.426 154.233 167.296 157.838Z" fill="#CED881"/>
<path d="M177.802 160.173L177.659 160.367C178.807 161.109 179.802 162.064 180.59 163.182C183.521 160.873 186.88 160.393 190.511 160.315C189.494 157.956 188.017 155.822 186.167 154.039C186.119 154.126 186.053 154.202 185.972 154.261C185.891 154.319 185.798 154.358 185.7 154.376C184.029 154.677 182.449 155.356 181.08 156.361C179.712 157.365 178.59 158.669 177.802 160.173Z" fill="#CED881"/>
<path d="M55.4932 104.284C55.4932 103.169 55.5581 102.066 55.6229 100.951C52.5847 99.2685 49.2077 98.2891 45.7407 98.085H45.5462C45.1831 99.8357 44.8978 101.625 44.6514 103.402C48.2684 102.553 52.061 102.861 55.4932 104.284Z" fill="#CED881"/>
<path d="M55.7647 98.8104C55.8685 97.5913 56.05 96.3593 56.2705 95.1143C56.0903 95.1279 55.9112 95.0774 55.7647 94.9716C53.1636 93.2424 50.1637 92.2067 47.0497 91.9629C46.6218 93.4932 46.2327 95.0365 45.8955 96.5927C49.3393 96.8112 52.7001 97.743 55.7647 99.3291V98.8104Z" fill="#CED881"/>
<path d="M57.8408 89.0962H57.724C54.9441 87.5967 51.9017 86.6457 48.7627 86.2949C48.2569 87.6955 47.803 89.0962 47.375 90.5227C50.6647 90.8275 53.8257 91.9511 56.5698 93.7908C56.9138 92.2055 57.338 90.6386 57.8408 89.0962Z" fill="#CED881"/>
<path d="M55.7658 110.913C55.6231 109.252 55.5453 107.579 55.5194 105.906C52.0707 104.289 48.1612 103.944 44.483 104.933C44.3144 106.464 44.1977 108.007 44.1328 109.538C48.0623 108.98 51.8751 110.005 55.7658 110.913Z" fill="#CED881"/>
<path d="M56.4001 115.958C56.2055 114.816 56.0369 113.662 55.9072 112.495C52.0166 111.587 48.126 110.498 44.0279 111.055C43.9802 112.959 44.0321 114.864 44.1835 116.762C48.1779 115.802 52.3798 114.972 56.4001 115.958Z" fill="#CED881"/>
<path d="M59.7211 84.2452C56.9226 82.7589 53.9521 81.6222 50.8764 80.8604C50.3231 82.1659 49.7914 83.4887 49.2812 84.8288C52.454 85.2272 55.5291 86.1937 58.3594 87.6819C58.7484 86.5147 59.2153 85.3735 59.7211 84.2452Z" fill="#CED881"/>
<path d="M68.6055 139.823V139.927C65.5392 142.913 62.9186 146.324 60.8242 150.057C62.0564 151.169 63.3557 152.204 64.7148 153.156V153.014C66.4533 149.094 68.8381 145.494 71.7698 142.365C70.6619 141.586 69.6049 140.737 68.6055 139.823Z" fill="#CED881"/>
<path d="M75.05 144.427C74.3497 144.038 73.6624 143.649 73.0139 143.234C70.098 146.304 67.7333 149.853 66.0238 153.727L65.8682 153.961C67.0624 154.729 68.3009 155.426 69.5772 156.049C69.5606 155.92 69.5832 155.789 69.6421 155.673C71.0097 152.553 72.6229 149.548 74.4664 146.684C74.648 145.893 74.8166 145.141 75.05 144.427Z" fill="#CED881"/>
<path d="M57.6854 121.56C57.3093 120.263 56.9721 118.967 56.6998 117.54H56.5571C52.5368 116.399 48.3219 117.307 44.3535 118.214C44.5874 120.118 44.9339 122.006 45.391 123.869C49.2816 122.325 53.4187 120.873 57.6854 121.56Z" fill="#CED881"/>
<path d="M63.8449 134.479C63.1446 133.506 62.548 132.495 61.8866 131.457C58.4629 134.051 54.6241 136.477 52.3027 140.225C53.3476 141.8 54.4731 143.319 55.6746 144.778C57.7801 140.897 60.5447 137.412 63.8449 134.479Z" fill="#CED881"/>
<path d="M58.1793 123.143H57.9978C53.744 122.261 49.607 123.817 45.6904 125.361C46.2938 127.644 47.061 129.881 47.9859 132.054C51.2898 129.294 55.1193 127.233 59.2428 125.996C58.8407 125.063 58.4906 124.103 58.1793 123.143Z" fill="#CED881"/>
<path d="M70.9632 156.385L70.8076 156.606C71.2615 156.8 71.7025 156.982 72.1045 157.15C72.4806 155.14 72.9215 153.26 73.3236 151.509C72.5065 153.078 71.6895 154.712 70.9632 156.385Z" fill="#CED881"/>
<path d="M61.1475 130.134C60.6547 129.239 60.2138 128.318 59.8506 127.384C55.7369 128.578 51.9286 130.644 48.6846 133.442C49.346 134.881 50.0593 136.295 50.8633 137.683C51.0708 138.059 51.3043 138.422 51.5247 138.798C53.9239 135.218 57.6978 132.806 61.1475 130.134Z" fill="#CED881"/>
<path d="M67.5545 138.811C66.567 137.818 65.6361 136.77 64.7662 135.672C61.4761 138.612 58.7511 142.129 56.7256 146.049C57.6464 147.086 58.619 148.085 59.6306 149.058C61.7433 145.341 64.362 141.936 67.4118 138.941L67.5545 138.811Z" fill="#CED881"/>
<path d="M61.7831 80.1985C59.1565 78.2915 56.2155 76.8605 53.094 75.9707C52.5234 77.1249 51.9787 78.2921 51.46 79.4593C54.5521 80.2335 57.5393 81.3787 60.3565 82.8701C60.7975 81.9623 61.2773 81.0674 61.7831 80.1985Z" fill="#CED881"/>
<path d="M62.4834 78.8621C62.8206 78.3174 63.1578 77.7987 63.5079 77.2669C61.3311 76.3941 59.246 75.3081 57.2829 74.0248C56.6475 73.6227 55.6359 73.1559 54.78 72.5723C54.4168 73.2207 54.0667 73.8691 53.7295 74.5435C56.8679 75.4847 59.8267 76.9444 62.4834 78.8621Z" fill="#CED881"/>
<path d="M54.5605 70.3545L55.624 71.1457C57.1793 72.2748 58.823 73.2767 60.5391 74.1418C62.4844 75.0886 64.9874 76.5024 67.0235 75.7501C67.0235 74.933 67.0235 74.1159 67.0235 73.2987C67.0235 72.4816 67.1013 71.7423 67.1402 70.9641C65.6883 70.4425 64.324 69.7034 63.094 68.7722C61.1291 67.3268 59.4604 65.517 58.1788 63.4414C57.3252 64.5927 56.5455 65.797 55.8445 67.0471C55.3335 68.1156 54.9043 69.2212 54.5605 70.3545ZM56.2076 69.5893C56.843 69.9913 57.4266 70.4712 58.0621 70.8863C58.4771 71.1457 58.0621 71.8072 57.686 71.5478C57.0376 71.1457 56.467 70.6658 55.8185 70.2508C55.4165 69.9913 55.7666 69.3299 56.2076 69.5893Z" fill="#CED881"/>
<path d="M67.2944 69.1746C67.4889 65.6985 67.7613 62.2355 68.1633 58.7984C65.388 57.657 63.4816 55.0629 64.0782 50.8606C64.922 46.2685 66.9266 41.9688 69.9011 38.3703C71.613 36.1394 68.1633 36.2172 65.8678 34.8553C63.2741 33.2859 58.5535 44.998 58.1904 46.347C55.9079 54.6998 58.2552 66.6972 67.2944 69.1746ZM62.885 45.2575C63.0925 44.8165 63.741 45.2575 63.5335 45.6336C61.4066 50.2121 60.7971 56.0098 65.3621 59.2912C65.7511 59.5766 65.3621 60.2251 64.986 59.9398C60.0708 56.3989 60.5507 50.251 62.885 45.2575Z" fill="#CED881"/>
<path d="M64.9863 59.9398C65.3753 60.2251 65.7514 59.5766 65.3624 59.2913C60.7974 55.9968 61.4718 50.212 63.5338 45.6335C63.7413 45.2055 63.0929 44.8164 62.8854 45.2574C60.551 50.2509 60.0711 56.3989 64.9863 59.9398Z" fill="#121212"/>
<path d="M58.0608 70.86C57.4253 70.4709 56.8417 69.9911 56.2063 69.5631C55.7913 69.3037 55.4152 69.9651 55.8172 70.2245C56.4656 70.6136 57.0363 71.0934 57.6847 71.5214C58.0867 71.7808 58.4758 71.1194 58.0608 70.86Z" fill="#121212"/>
<path d="M154.329 200.575C147.12 202.643 139.742 204.066 132.282 204.829C115.876 206.555 98.9651 205.724 83.0654 201.094C87.6304 212.767 103.595 215.971 115.695 216.438C128.287 216.931 150.438 214.713 154.329 200.575Z" fill="#CED881"/>
<path d="M75.958 171.483C76.3264 165.997 77.439 160.586 79.265 155.4C81.3673 149.231 84.8953 143.645 89.5622 139.097C84.3747 136.944 78.0071 139.252 76.5935 144.894C74.8853 150.779 73.7005 156.803 73.053 162.897C72.7288 166.295 72.8325 170.238 75.958 171.483Z" fill="#CED881"/>
<path d="M151.54 140.355C158.945 148.85 161.733 159.81 162.174 170.925L162.485 171.042C165.727 169.045 165.079 164.972 164.625 161.639C163.816 155.731 162.608 149.886 161.007 144.142C159.71 139.408 154.522 137.657 149.893 138.655C150.437 139.2 151.021 139.758 151.54 140.355Z" fill="#CED881"/>
<path d="M159.515 187.177C149.607 184.194 141.035 176.801 135.277 168.422C129.363 159.823 128.222 148.578 128.157 138.266C127.828 138.192 127.518 138.052 127.246 137.853C126.974 137.655 126.746 137.402 126.575 137.112C126.53 137.019 126.491 136.924 126.458 136.827C124.257 137.602 121.944 138.01 119.611 138.033C115.72 137.968 107.394 137.06 104.943 133.299C102.488 133.901 100.071 134.651 97.7063 135.543C79.0962 143.701 75.9837 169.006 77.3843 186.684C77.3843 187.346 77.514 187.981 77.6048 188.552C104.761 192.417 132.942 195.141 159.515 187.177ZM103.439 136.905C97.421 138.578 91.7667 142.093 88.5893 147.618C88.3559 148.046 87.7074 147.618 87.9409 147.242C91.1831 141.561 97.019 137.903 103.244 136.178C103.339 136.156 103.439 136.171 103.523 136.221C103.607 136.272 103.668 136.352 103.694 136.447C103.719 136.541 103.707 136.642 103.659 136.727C103.611 136.813 103.532 136.876 103.439 136.905Z" fill="#CED881"/>
<path d="M147.13 157.488C147.218 157.543 147.293 157.617 147.349 157.705C147.405 157.792 147.441 157.891 147.454 157.994C149.246 160.899 151.428 163.543 153.939 165.854C155.899 167.644 158.126 169.119 160.54 170.225C160.367 165.435 159.614 160.683 158.296 156.075C155.703 147.436 150.632 140.004 143.136 135.763C143.023 135.991 142.898 136.212 142.76 136.425C142.414 136.967 141.937 137.413 141.372 137.722C141.667 144.679 143.643 151.461 147.13 157.488Z" fill="#CED881"/>
<path d="M106.344 121.185C106.344 121.379 106.344 121.561 106.344 121.742C106.344 121.924 106.422 121.742 106.473 121.742C111.532 123.866 117.05 124.661 122.503 124.051C121.952 123.14 121.467 122.19 121.05 121.211C116.109 121.444 111.194 121.457 106.344 121.185Z" fill="#CED881"/>
<path d="M106.187 123.247C106.187 124.816 106.07 126.398 106.083 127.968C110.15 129.914 114.641 130.806 119.143 130.561C121.515 130.406 123.868 130.033 126.172 129.446C126.249 129.122 126.327 128.785 126.418 128.46C125.258 127.595 124.231 126.563 123.37 125.4C117.553 126.249 111.615 125.505 106.187 123.247Z" fill="#CED881"/>
<path d="M125.887 131.03C124.318 131.406 122.671 131.626 121.141 131.873C116.028 132.52 110.835 131.744 106.136 129.629C106.343 132.664 107.64 133.753 110.817 134.92C113.199 135.857 115.718 136.396 118.274 136.515C120.884 136.654 123.495 136.266 125.952 135.374C125.673 133.941 125.651 132.47 125.887 131.03Z" fill="#CED881"/>
<path d="M116.551 25.1147C116.551 18.9409 116.654 20.5752 116.551 14.4014C115.796 14.4856 115.035 14.4856 114.281 14.4014C114.281 16.3469 114.398 18.2924 114.281 20.212C114.164 24.4533 114.086 20.8476 114.061 25.0629C114.891 25.0225 115.723 25.0398 116.551 25.1147Z" fill="#CED881"/>
<path d="M105.915 33.1944C111.835 32.674 117.779 32.4706 123.721 32.5849H125.018H126.315C123.202 24.9593 107.64 23.9088 105.915 33.1944Z" fill="#CED881"/>
<path d="M70.1883 54.8424C69.5398 59.5506 69.034 64.2847 68.7876 69.0318C68.2535 77.4873 68.414 85.9723 69.2675 94.4015C69.9808 100.523 70.0845 108.033 75.6611 111.924C79.2894 114.334 83.329 116.057 87.5793 117.008C98.344 119.447 109.396 120.372 120.416 119.758C119.401 116.792 118.752 113.712 118.484 110.588C114.762 110.705 110.262 109.058 109.691 104.998C109.586 103.897 109.707 102.785 110.046 101.732C110.386 100.679 110.937 99.7059 111.665 98.8729C112.394 98.04 113.284 97.3645 114.283 96.8878C115.281 96.4111 116.367 96.1432 117.472 96.1006C118.783 95.9179 120.117 96.0497 121.367 96.485C122.616 96.9202 123.744 97.6465 124.657 98.6038C125.656 98.6816 126.654 98.7724 127.653 98.9151C127.751 98.9294 127.845 98.9629 127.93 99.0137C128.015 99.0645 128.089 99.1316 128.148 99.2111C128.207 99.2906 128.25 99.381 128.274 99.4771C128.298 99.5733 128.303 99.6732 128.288 99.7711C127.095 105.27 126.226 113.156 130.713 117.424C131.355 118.063 132.101 118.589 132.918 118.98C134.448 118.824 135.992 118.643 137.509 118.422C140.608 116.088 142.502 110.225 142.917 107.333C143.215 105.145 143.293 102.934 143.15 100.731C143.141 100.622 143.155 100.512 143.192 100.409C143.228 100.305 143.287 100.211 143.363 100.132C143.439 100.054 143.532 99.9924 143.634 99.9524C143.736 99.9124 143.845 99.8949 143.954 99.9008L154.42 100.446C154.51 100.446 154.599 100.466 154.681 100.505C154.762 100.543 154.835 100.599 154.893 100.668C154.951 100.737 154.993 100.818 155.017 100.905C155.04 100.992 155.045 101.083 155.03 101.172V101.302C154.958 105.711 154.379 110.098 153.305 114.376C163.057 109.849 163.952 97.8905 164.523 87.9683C165.349 73.9804 164.631 59.9442 162.383 46.1135C159.789 34.4403 134.889 34.4403 126.278 34.1939C115.167 33.7864 104.043 34.5077 93.0781 36.347C87.4237 37.3586 75.3498 38.6816 72.2503 44.5571C70.7459 47.4105 70.6292 51.6647 70.1883 54.8424ZM123.204 51.6388C129.364 51.4983 135.527 51.7279 141.659 52.3262H141.879C142.8 52.43 143.721 52.5467 144.629 52.6894C147.223 53.0785 152.41 53.4806 153.551 56.5804C154.819 61.6753 155.515 66.8956 155.626 72.1446V72.3392C155.626 72.5338 155.626 72.7283 155.626 72.9229C155.626 76.1395 156.093 82.5467 153.162 84.9332C151.191 86.5286 148.091 86.762 145.679 87.1382C144.123 87.3846 142.567 87.5921 141.011 87.7997C140.86 87.8564 140.694 87.8564 140.544 87.7997C137.859 88.1239 135.175 88.4093 132.464 88.6297C123.568 89.3561 114.606 89.7711 105.658 89.6285C98.8492 89.5247 91.47 89.5377 84.9078 87.5532C78.8643 85.7244 78.2289 80.8476 78.1381 74.7906C78.0032 68.9594 78.8808 63.1491 80.7318 57.618C80.9458 57.1985 81.2439 56.8277 81.6076 56.5286C81.9713 56.2296 82.3928 56.0088 82.8457 55.88C87.6182 53.9086 93.3764 53.4935 98.5639 52.9618C106.708 52.1317 114.956 51.6907 123.204 51.6388Z" fill="#CED881"/>
<path d="M151.19 84.4012C154.186 83.3246 154.432 77.9159 154.276 73.9209C150.282 78.0326 146.184 82.0405 142.371 86.3079C145.373 86.0061 148.331 85.3665 151.19 84.4012Z" fill="#CED881"/>
<path d="M105.124 88.2275H105.656C108.885 88.2275 112.14 88.2275 115.343 88.1497C115.365 88.0027 115.433 87.8664 115.538 87.7606C127.067 76.8139 138 65.1927 150.787 55.6727C148.903 54.9231 146.919 54.4555 144.899 54.2849C143.901 54.1292 142.902 53.9995 141.89 53.8828C128.105 63.5844 117.263 76.5545 105.124 88.2275Z" fill="#CED881"/>
<path d="M122.97 53.0659C108.704 62.0022 96.7728 73.9217 85.2695 86.1266C91.0017 87.8256 97.2786 88.0721 103.283 88.1499C103.286 88.0661 103.305 87.9836 103.341 87.9078C103.377 87.8319 103.428 87.7642 103.491 87.7089C115.539 76.2823 126.29 63.4419 139.803 53.5847C134.289 53.0165 128.746 52.7696 123.203 52.8454L122.97 53.0659Z" fill="#CED881"/>
<path d="M82.2093 57.8899C80.705 59.4463 80.3807 64.0118 80.1084 66.087C79.5878 69.4543 79.4356 72.8683 79.6545 76.2686C79.9787 80.004 80.0565 84.0507 83.7397 85.6331C95.0224 73.6486 106.655 61.9236 120.519 52.9482C112.829 53.065 105.047 53.7005 97.6292 54.5047C93.8942 54.9586 85.1403 54.8678 82.2093 57.8899Z" fill="#CED881"/>
<path d="M154.068 70.4976C153.832 65.9248 153.177 61.3835 152.11 56.9308C152.054 56.7626 151.97 56.6049 151.863 56.4639C151.814 56.6144 151.718 56.7459 151.591 56.84C139.154 66.1007 128.506 77.3717 117.314 88.0461C122.372 87.8905 127.421 87.6008 132.462 87.1771C134.952 86.9567 137.572 86.801 140.243 86.5546C144.653 81.4443 149.555 76.7881 154.223 71.9243C154.133 71.3666 154.094 70.8996 154.068 70.4976Z" fill="#CED881"/>
<path d="M82.767 55.9061C82.3141 56.0348 81.8926 56.2556 81.5289 56.5547C81.1652 56.8537 80.8671 57.2246 80.6531 57.6441C78.8021 63.1752 77.9245 68.9856 78.0594 74.8167C78.1502 80.8738 78.7857 85.7507 84.8291 87.5795C91.4172 89.5639 98.7964 89.5509 105.579 89.6547C114.527 89.7974 123.489 89.3823 132.385 88.656C135.096 88.4355 137.78 88.1502 140.465 87.8259C140.615 87.8827 140.781 87.8827 140.932 87.8259C142.488 87.6184 144.044 87.4109 145.601 87.1644C148.013 86.7883 151.112 86.5548 153.084 84.9595C156.014 82.5729 155.586 76.1656 155.548 72.949C155.548 72.7544 155.548 72.5599 155.548 72.3653V72.1708C155.436 66.9217 154.74 61.7014 153.473 56.6065C152.396 53.5714 147.131 53.1693 144.55 52.7154C143.642 52.5727 142.722 52.456 141.801 52.3522H141.58C135.474 51.7483 129.338 51.5101 123.204 51.6389C114.968 51.6389 106.72 52.1317 98.563 52.9359C93.3755 53.4936 87.6174 53.9087 82.767 55.9061ZM144.9 54.2329C146.92 54.4035 148.904 54.8712 150.788 55.6207C138.001 65.1409 127.094 76.7623 115.539 87.7092C115.435 87.8149 115.366 87.9512 115.345 88.0983C112.115 88.1761 108.86 88.215 105.657 88.1761H105.125C117.264 76.5547 128.106 63.5845 141.892 53.8308C142.903 53.9476 143.954 54.0773 144.9 54.2329ZM151.19 84.4018C148.332 85.3671 145.373 86.0067 142.371 86.3084C146.184 82.0412 150.282 78.0333 154.277 73.9218C154.432 77.9426 154.186 83.3252 151.19 84.4018ZM132.463 87.1774C127.431 87.6097 122.382 87.8994 117.316 88.0464C128.508 77.3719 139.155 66.1007 151.592 56.8399C151.72 56.7458 151.815 56.6144 151.864 56.4638C151.972 56.6048 152.055 56.7626 152.111 56.9307C153.178 61.3834 153.833 65.9249 154.069 70.4976C154.069 70.8997 154.069 71.3796 154.16 71.9244C149.491 76.7882 144.589 81.4445 140.18 86.5548C137.573 86.8012 134.953 86.931 132.463 87.1774ZM103.491 87.7092C103.428 87.7644 103.377 87.8321 103.341 87.908C103.306 87.9839 103.286 88.0663 103.284 88.1502C97.2791 88.0723 91.0022 87.8259 85.27 86.1268C96.7733 73.9218 108.614 62.0021 122.97 53.0656L123.204 52.8451C128.725 52.7719 134.246 53.0187 139.739 53.5844C126.29 63.4418 115.539 76.2824 103.491 87.7092ZM83.7656 85.6339C80.0825 84.1034 80.0047 80.0048 79.6805 76.2694C79.4616 72.8691 79.6138 69.4551 80.1344 66.0877C80.4067 64.0125 80.731 59.447 82.2353 57.8905C85.1663 54.8685 93.9072 54.9592 97.6552 54.5312C105.047 53.7011 112.829 53.0656 120.61 52.884C106.681 61.8594 95.0484 73.5845 83.7656 85.6339Z" fill="#121212"/>
<path d="M118.379 12.456C123.566 10.705 121.802 0.951369 116.226 1.57394C112.698 1.69068 107.913 5.32236 109.495 9.35612C111.077 13.3899 114.838 13.6623 118.379 12.456ZM116.861 3.15632C119.26 3.83077 120.168 6.9177 119.157 9.03186C118.949 9.47285 118.288 9.03186 118.508 8.64275C118.71 8.21671 118.824 7.75428 118.843 7.28316C118.862 6.81205 118.786 6.34197 118.618 5.90109C118.451 5.46022 118.197 5.05764 117.87 4.71749C117.544 4.37734 117.152 4.10662 116.719 3.92157C116.617 3.90265 116.527 3.84419 116.469 3.75906C116.411 3.67392 116.388 3.56908 116.407 3.46761C116.426 3.36613 116.485 3.27632 116.57 3.21794C116.655 3.15957 116.76 3.1374 116.861 3.15632Z" fill="#CED881"/>
<path d="M116.718 3.92088C117.161 4.10052 117.563 4.36901 117.898 4.7098C118.234 5.05059 118.496 5.45645 118.668 5.90238C118.841 6.34831 118.92 6.82485 118.902 7.30263C118.883 7.78041 118.767 8.2493 118.56 8.68041C118.339 9.12135 119.001 9.51041 119.208 9.06947C120.22 6.95557 119.312 3.88198 116.913 3.19463C116.818 3.17216 116.717 3.18765 116.633 3.23782C116.549 3.28799 116.488 3.36888 116.463 3.46336C116.438 3.55783 116.45 3.65844 116.498 3.74385C116.545 3.82927 116.625 3.89277 116.718 3.92088Z" fill="#121212"/>
<path d="M94.1282 202.106C104.208 203.928 114.469 204.55 124.696 203.96C136.816 203.385 148.791 201.074 160.256 197.099C162.37 196.321 163.057 194.051 163.485 191.989C163.744 190.692 163.952 189.46 164.12 188.189C163.42 188.098 162.746 187.968 162.11 187.838C161.762 188.034 161.398 188.199 161.021 188.331C152.217 191.065 143.126 192.772 133.929 193.416C113.906 194.713 93.9596 192.443 74.1564 189.525C73.1059 190.03 74.5065 194.713 74.7529 195.62C75.2717 197.462 74.8437 196.853 77.1781 197.618C82.7109 199.526 88.3762 201.026 94.1282 202.106ZM159.919 195.426C157.701 195.841 155.6 196.658 153.434 197.073C152.954 197.151 152.76 196.438 153.24 196.347C155.444 195.932 157.545 195.05 159.724 194.713C160.191 194.583 160.385 195.348 159.919 195.426ZM160.295 193.299C157.008 194.375 153.65 195.215 150.244 195.815C149.764 195.88 149.557 195.154 150.036 195.089C153.443 194.492 156.802 193.651 160.087 192.572C160.554 192.43 160.813 193.156 160.295 193.286V193.299ZM147.637 193.441C151.811 193.005 155.912 192.038 159.841 190.562C160.295 190.381 160.489 191.107 160.035 191.288C156.045 192.786 151.878 193.762 147.637 194.194C147.144 194.246 147.157 193.493 147.637 193.441Z" fill="#CED881"/>
<path d="M147.635 194.193C151.876 193.762 156.043 192.785 160.033 191.288C160.487 191.107 160.293 190.381 159.839 190.562C155.91 192.037 151.809 193.005 147.635 193.441C147.155 193.493 147.142 194.245 147.635 194.193Z" fill="#121212"/>
<path d="M160.086 192.572C156.8 193.651 153.441 194.492 150.035 195.088C149.555 195.153 149.763 195.879 150.243 195.814C153.649 195.211 157.007 194.365 160.293 193.285C160.812 193.156 160.553 192.43 160.086 192.572Z" fill="#121212"/>
<path d="M159.71 194.713C157.492 195.115 155.391 195.932 153.225 196.347C152.745 196.438 152.94 197.151 153.42 197.073C155.637 196.658 157.738 195.841 159.904 195.426C160.384 195.348 160.189 194.583 159.71 194.713Z" fill="#121212"/>
<path d="M103.245 136.218C97.0456 137.943 91.1837 141.6 87.9415 147.281C87.7081 147.709 88.3565 148.085 88.5899 147.657C91.7413 142.145 97.4216 138.578 103.439 136.944C103.533 136.916 103.612 136.852 103.659 136.767C103.707 136.681 103.72 136.581 103.694 136.486C103.669 136.392 103.608 136.311 103.524 136.261C103.44 136.211 103.34 136.195 103.245 136.218Z" fill="#121212"/>
<path d="M122.127 98.4089C120.703 97.6701 119.086 97.3892 117.497 97.6048C113.723 97.6826 109.327 102.248 111.635 106.022C112.382 107.091 113.398 107.942 114.58 108.491C115.762 109.04 117.068 109.267 118.366 109.148C118.148 105.743 118.196 102.326 118.509 98.9277C118.538 98.7289 118.644 98.5494 118.804 98.4281C118.964 98.3068 119.165 98.2533 119.365 98.2792L122.127 98.4089Z" fill="#CED881"/>
<path d="M130.79 150.692C131.127 152.585 131.542 154.453 132.087 156.256C134.043 156.529 136.035 156.378 137.928 155.814C139.821 155.25 141.571 154.286 143.058 152.987C142.553 151.76 142.12 150.504 141.762 149.227C138.374 150.936 134.508 151.452 130.79 150.692Z" fill="#CED881"/>
<path d="M149.49 163.454C148.39 162.15 147.368 160.781 146.43 159.356C143.39 162.335 139.336 164.053 135.082 164.167C135.773 165.563 136.544 166.919 137.39 168.227C142.033 168.992 146.222 166.593 149.49 163.454Z" fill="#CED881"/>
<path d="M143.953 176.01C148.176 174.596 151.799 171.799 154.237 168.072C153.252 167.269 152.321 166.402 151.449 165.478C151.137 165.154 150.839 164.816 150.541 164.492C147.26 167.618 143.136 170.069 138.597 169.823C140.179 172.052 141.973 174.124 143.953 176.01Z" fill="#CED881"/>
<path d="M131.918 138.591C131.27 138.591 130.479 138.591 129.675 138.591C129.675 139.706 129.74 140.821 129.804 141.924C133.254 141.586 136.808 142.429 140.179 141.119C140.076 140.212 139.972 139.291 139.894 138.37C137.262 138.844 134.573 138.918 131.918 138.591Z" fill="#CED881"/>
<path d="M140.296 142.572C136.924 143.765 133.397 143 129.921 143.363C130.064 145.322 130.271 147.254 130.556 149.121C134.175 149.757 138.078 149.705 141.269 147.721C141.113 147.098 140.957 146.424 140.828 145.84C140.607 144.738 140.452 143.662 140.296 142.572Z" fill="#CED881"/>
<path d="M189.11 178.526C191.146 174.492 187.501 168.279 182.003 169.888L179.928 171.016C181.51 172.546 182.762 174.383 183.608 176.415C184.453 178.447 184.873 180.631 184.843 182.832C186.769 182.003 188.299 180.46 189.11 178.526Z" fill="#CED881"/>
<path d="M178.503 171.743C177.001 172.527 175.418 173.145 173.782 173.584C176.181 177.411 177.764 181.639 177.18 186.205C179.271 185.53 181.294 184.662 183.223 183.611L183.444 183.494C183.367 183.36 183.331 183.207 183.34 183.053C183.417 180.928 183.024 178.811 182.188 176.856C181.351 174.901 180.093 173.155 178.503 171.743Z" fill="#CED881"/>
<path d="M166.362 173.831C165.65 173.721 164.945 173.574 164.248 173.39C163.488 177.701 161.879 181.819 159.515 185.504C162.103 186.339 164.78 186.874 167.49 187.099C168.878 182.91 169.488 177.825 167.166 173.882L166.362 173.831Z" fill="#CED881"/>
<path d="M159.904 171.703C157.921 175.667 155.108 179.157 151.656 181.937C153.693 183.156 155.838 184.185 158.063 185.011L158.128 184.881C160.507 181.252 162.102 177.165 162.809 172.883C161.819 172.547 160.849 172.153 159.904 171.703Z" fill="#CED881"/>
<path d="M143.655 154.376C140.551 156.938 136.562 158.173 132.554 157.813C133.065 159.41 133.667 160.978 134.356 162.507C136.445 162.583 138.526 162.219 140.465 161.44C142.405 160.66 144.158 159.482 145.613 157.981C144.897 156.815 144.244 155.611 143.655 154.376Z" fill="#CED881"/>
<path d="M150.282 181.107C153.781 178.417 156.616 174.961 158.569 171.003C157.471 170.399 156.414 169.723 155.405 168.979C152.94 172.724 149.347 175.586 145.146 177.151C146.041 177.942 146.962 178.72 147.948 179.46C148.7 180.043 149.491 180.588 150.282 181.107Z" fill="#CED881"/>
<path d="M172.2 173.896C171.105 174.055 169.997 174.107 168.893 174.051C170.812 178.137 170.358 182.949 169.009 187.203C169.852 187.203 170.682 187.203 171.512 187.203C172.912 187.142 174.302 186.943 175.662 186.606V186.438C176.376 181.872 174.677 177.722 172.2 173.896Z" fill="#CED881"/>
<path d="M142.488 129.732C139.901 130.875 137.072 131.361 134.253 131.146C131.947 131.046 129.695 130.411 127.677 129.291C127.483 131.055 127.405 133.311 127.418 133.83C127.418 135.49 127.288 136.502 128.715 136.722C130.728 137.02 132.762 137.163 134.797 137.15C138.052 137.15 141.476 137.007 142.423 133.259C142.677 132.099 142.699 130.901 142.488 129.732ZM131.075 136.216C130.323 136.216 129.584 136.009 128.832 135.944C128.352 135.944 128.456 135.166 128.935 135.205C129.688 135.205 130.427 135.412 131.179 135.464C131.672 135.464 131.555 136.216 131.075 136.216Z" fill="#CED881"/>
<path d="M153.588 101.872L149.697 101.664L145.664 101.444C145.327 101.425 144.989 101.425 144.652 101.444C144.872 104.991 144.477 108.55 143.485 111.963C141.475 118.175 132.189 124.933 127.806 116.321C125.796 112.352 125.796 107.994 126.159 103.662C126.25 102.663 126.405 101.664 126.574 100.679C126.846 98.9925 127.002 100.302 125.407 100.069C118.014 99.0185 119.311 105.179 119.519 111.042C119.947 120.627 127.391 130.419 137.675 129.641C150.735 128.629 153.276 112.248 153.588 101.872ZM147.207 103.376C148.667 103.588 150.141 103.683 151.616 103.662C151.674 103.655 151.732 103.662 151.786 103.681C151.84 103.701 151.889 103.732 151.929 103.774C151.969 103.815 151.999 103.865 152.017 103.92C152.035 103.975 152.04 104.033 152.031 104.09C151.824 105.659 151.461 107.203 151.305 108.772C151.305 109.252 150.514 109.148 150.553 108.655C150.709 107.229 151.007 105.828 151.214 104.414C149.839 104.393 148.467 104.293 147.103 104.116C146.61 104.077 146.727 103.325 147.207 103.376ZM132.15 122.533C126.211 121.664 123.773 116.048 123.5 110.562C123.5 110.082 124.226 109.991 124.252 110.484C124.499 115.581 126.613 120.964 132.267 121.781C132.316 121.789 132.364 121.806 132.407 121.832C132.449 121.858 132.486 121.892 132.516 121.932C132.545 121.973 132.567 122.018 132.578 122.067C132.59 122.116 132.592 122.166 132.585 122.215C132.577 122.265 132.56 122.312 132.534 122.355C132.508 122.398 132.474 122.435 132.433 122.464C132.393 122.494 132.347 122.515 132.299 122.527C132.25 122.539 132.2 122.541 132.15 122.533Z" fill="#CED881"/>
<path d="M147.105 104.116C148.468 104.293 149.841 104.393 151.216 104.414C151.008 105.828 150.71 107.228 150.554 108.655C150.554 109.148 151.255 109.251 151.306 108.772C151.462 107.202 151.825 105.659 152.033 104.09C152.041 104.033 152.036 103.975 152.018 103.92C152.001 103.865 151.971 103.815 151.931 103.774C151.89 103.732 151.841 103.701 151.787 103.681C151.733 103.662 151.675 103.655 151.618 103.662C150.143 103.684 148.668 103.588 147.208 103.377C146.729 103.325 146.612 104.077 147.105 104.116Z" fill="#121212"/>
<path d="M132.282 121.781C126.627 120.964 124.5 115.581 124.267 110.484C124.267 109.991 123.502 110.082 123.515 110.562C123.787 116.035 126.225 121.664 132.165 122.533C132.265 122.549 132.367 122.524 132.448 122.464C132.529 122.405 132.584 122.315 132.599 122.216C132.615 122.116 132.59 122.014 132.531 121.932C132.471 121.851 132.381 121.797 132.282 121.781Z" fill="#121212"/>
<path d="M131.179 135.426C130.427 135.426 129.688 135.219 128.935 135.167C128.456 135.167 128.352 135.867 128.832 135.906C129.584 135.906 130.323 136.114 131.075 136.179C131.555 136.217 131.672 135.465 131.179 135.426Z" fill="#121212"/>
<path d="M48.5691 219.551C47.5446 220.251 46.7016 221.159 45.7549 221.937C46.9609 223.158 47.9092 224.61 48.5432 226.204C50.683 230.407 53.4324 236.36 52.9396 241.561C56.0002 235.219 54.0808 223.351 48.5691 219.551Z" fill="#CED881"/>
<path d="M46.6872 225.867C44.7549 222.599 43.4062 222.21 39.6323 221.976C36.2875 221.749 32.9282 221.866 29.6074 222.326C29.6391 224.644 30.212 226.923 31.2804 228.98C33.8741 234.531 37.9074 242.067 43.6915 244.843C46.6483 245.997 48.9438 245.686 50.6427 244.454C53.3143 239.084 49.3847 230.537 46.6872 225.867Z" fill="#CED881"/>
<path d="M47.0897 218.747C43.8994 217.346 39.9439 217.45 36.5591 217.45C32.5387 217.45 30.5675 218.747 29.8672 220.809C33.9995 220.29 38.1787 220.264 42.3172 220.731C43.0111 220.796 43.6947 220.944 44.3533 221.172C44.3533 221.172 44.3533 221.172 44.3533 221.107C44.8909 220.671 45.4019 220.204 45.8836 219.707C46.3115 219.369 46.6876 219.045 47.0897 218.747Z" fill="#CED881"/>
</svg>
