<svg width="200" height="309" viewBox="0 0 200 309" fill="none" xmlns="http://www.w3.org/2000/svg">
<g clip-path="url(#clip0_0_4095)">
<path d="M50.3837 287.415L64.7715 292.829L85.452 282.461V285.96L80.8765 291.909L65.3795 297.772L50.3837 292.829L49.5625 290.112L50.3837 287.415Z" fill="#FED359"/>
<path d="M150.789 287.597L136.401 293.011L115.721 282.643V286.142L120.296 292.08L135.804 297.943L150.789 293.011L151.61 290.304L150.789 287.597Z" fill="#FED359"/>
<path d="M175.981 136.671C175.981 136.671 175.981 136.671 175.917 136.671C175.48 137.741 175.021 138.81 174.53 139.88C178.482 140.051 182.278 141.471 185.377 143.935C185.953 142.117 186.472 140.28 186.934 138.425C186.863 138.434 186.792 138.434 186.721 138.425C183.316 137.045 179.646 136.446 175.981 136.671V136.671Z" fill="#FED359"/>
<path d="M178.552 130.893C178.443 130.913 178.331 130.911 178.223 130.887C178.115 130.863 178.013 130.818 177.923 130.754C177.581 132.059 177.187 133.322 176.75 134.531C176.675 134.713 176.611 134.884 176.547 135.055C180.224 134.938 183.886 135.59 187.298 136.97C187.671 135.323 188.012 133.664 188.29 131.995C185.192 130.793 181.838 130.413 178.552 130.893V130.893Z" fill="#FED359"/>
<path d="M179.288 124.312H179.16C178.953 126.01 178.658 127.696 178.274 129.363C181.73 128.853 185.258 129.221 188.535 130.433C188.78 128.87 188.972 127.308 189.132 125.746C185.972 124.641 182.63 124.154 179.288 124.312V124.312Z" fill="#FED359"/>
<path d="M173.848 141.464C173.07 143.069 172.227 144.674 171.342 146.161C175.459 147.049 179.544 147.83 183.138 150.152C183.767 148.643 184.354 147.124 184.887 145.572C181.81 142.933 177.897 141.476 173.848 141.464Z" fill="#FED359"/>
<path d="M170.425 147.605C169.774 148.675 169.092 149.745 168.388 150.708C172.654 151.586 176.323 154.282 179.725 156.967C180.731 155.235 181.642 153.449 182.456 151.618C178.819 149.221 174.627 148.526 170.446 147.605H170.425Z" fill="#FED359"/>
<path d="M179.576 118.781C179.576 120.097 179.469 121.413 179.352 122.718C182.723 122.582 186.092 123.045 189.302 124.088C189.43 122.579 189.516 121.071 189.58 119.573C186.29 118.898 182.93 118.632 179.576 118.781V118.781Z" fill="#FED359"/>
<path d="M167.385 152.088C166.5 153.265 165.583 154.399 164.623 155.491C169.017 156.775 172.313 160.038 175.395 163.334C176.651 161.737 177.819 160.072 178.894 158.348C175.513 155.662 171.876 152.88 167.524 152.142C167.474 152.136 167.427 152.117 167.385 152.088Z" fill="#FED359"/>
<path d="M152.891 165.088C154.725 169.397 155.807 173.989 156.09 178.666C157.902 177.821 159.665 176.875 161.37 175.83C160.847 171.187 158.255 167.175 156.176 163.087C155.077 163.804 154 164.468 152.891 165.088Z" fill="#FED359"/>
<path d="M163.609 156.871C163.545 156.871 163.503 156.807 163.439 156.786C162.703 157.567 161.935 158.337 161.156 159.065C164.542 162.117 167.271 165.831 169.177 169.978C171.035 168.32 172.774 166.532 174.381 164.628C171.331 161.312 168.078 157.941 163.609 156.871Z" fill="#FED359"/>
<path d="M159.983 160.178C159.983 160.178 159.983 160.178 159.983 160.124C159.172 160.83 158.33 161.515 157.455 162.157C159.588 166.276 162.063 170.299 162.788 174.911L163.918 174.14C165.303 173.185 166.638 172.161 167.918 171.07C166.084 166.909 163.377 163.194 159.983 160.178V160.178Z" fill="#FED359"/>
<path d="M148.037 167.314C148.314 168.651 148.528 170.01 148.816 171.294C149.477 174.215 150.32 177.478 150.863 180.763C152.09 180.335 153.306 179.885 154.49 179.372C154.296 174.72 153.266 170.142 151.45 165.858C150.384 166.383 149.21 166.864 148.037 167.314Z" fill="#FED359"/>
<path d="M179.427 113.955C179.512 115.025 179.565 116.095 179.576 117.165C182.944 117.024 186.317 117.286 189.623 117.946C189.623 116.577 189.623 115.207 189.623 113.848C186.244 113.293 182.794 113.329 179.427 113.955Z" fill="#FED359"/>
<path d="M179.864 110.222L178.979 110.147C179.096 110.896 179.202 111.655 179.277 112.426H179.352C182.74 111.807 186.208 111.76 189.612 112.287C189.612 111.474 189.548 110.682 189.505 109.879C188.652 109.997 187.767 110.018 187.138 110.083C184.727 110.423 182.285 110.47 179.864 110.222V110.222Z" fill="#FED359"/>
<path d="M181.101 102.518C179.015 102.371 176.966 101.891 175.032 101.095L174.947 101.181C174.66 103.334 175.127 105.52 176.269 107.365C177.656 109.302 182.476 108.809 184.588 108.66C186.542 108.539 188.484 108.278 190.401 107.879C191.585 107.622 191.062 102.807 190.86 101.748C190.86 101.598 190.582 100.496 190.38 99.4902C187.751 101.588 184.456 102.663 181.101 102.518ZM189.633 107.119C188.844 107.205 188.065 107.408 187.276 107.493C186.764 107.558 186.775 106.755 187.276 106.702C188.065 106.605 188.844 106.402 189.633 106.316C190.102 106.263 190.092 107.012 189.59 107.119H189.633Z" fill="#FED359"/>
<path d="M196.417 68.5578C195.244 68.6327 194.06 68.729 192.876 68.8253C189.9 69.1891 190.049 67.4879 190.497 69.6064C190.657 70.4195 190.828 71.2327 190.945 72.0565C191.628 76.5717 191.948 81.3543 190.145 85.6662C189.338 87.5182 187.895 89.0178 186.078 89.8917C184.262 90.7656 182.193 90.9558 180.248 90.4275C176.216 89.1756 173.966 85.5592 172.857 81.6218C171.919 78.2345 171.435 74.7373 171.417 71.222L170.478 71.3076L166.681 71.6714L162.01 72.11C162.586 81.3222 164.548 93.8192 173.475 98.6339C184.226 104.422 195.755 96.6438 197.835 85.1954C198.51 81.3515 198.611 77.4281 198.134 73.5545C198.158 71.7393 197.551 69.9726 196.417 68.5578ZM168.974 74.2178C167.531 74.4663 166.074 74.6342 164.612 74.7207C164.889 76.1972 165.284 77.663 165.487 79.1503C165.561 79.6638 164.793 79.8778 164.719 79.3643C164.484 77.7058 164.026 76.0902 163.748 74.4318C163.734 74.3728 163.733 74.3113 163.745 74.2518C163.758 74.1923 163.783 74.1364 163.82 74.0882C163.857 74.0399 163.904 74.0006 163.958 73.973C164.012 73.9455 164.072 73.9304 164.132 73.9289C165.685 73.8915 167.233 73.7305 168.761 73.4475C169.273 73.3726 169.486 74.1429 168.974 74.2178V74.2178ZM185.581 93.1023C185.069 93.1986 184.855 92.4283 185.367 92.332C191.265 91.262 193.356 85.3987 193.356 80.0169C193.371 79.9217 193.42 79.8352 193.493 79.7728C193.567 79.7104 193.66 79.6761 193.756 79.6761C193.852 79.6761 193.945 79.7104 194.018 79.7728C194.091 79.8352 194.14 79.9217 194.156 80.0169C194.177 85.709 191.831 91.9575 185.581 93.1023Z" fill="#FED359"/>
<path d="M198.934 67.4237C198.885 67.2542 198.783 67.1051 198.642 66.999C198.502 66.8928 198.331 66.8354 198.155 66.8353C195.158 67.1348 192.172 67.2739 189.217 67.9052C189.117 67.9325 189.023 67.9793 188.941 68.043C188.859 68.1067 188.79 68.1861 188.739 68.2765C188.687 68.367 188.654 68.4668 188.641 68.5701C188.628 68.6735 188.635 68.7784 188.663 68.8788C190.401 75.5018 191.99 88.7156 182.263 89.2078C174.072 89.593 172.867 76.2722 172.984 70.4731C172.984 70.2602 172.9 70.0561 172.75 69.9056C172.6 69.7552 172.397 69.6706 172.184 69.6706L161.156 70.7406C161.101 70.7519 161.047 70.7699 160.996 70.7941C160.905 70.7994 160.815 70.8232 160.733 70.8641C160.651 70.905 160.577 70.9621 160.518 71.032C160.458 71.1019 160.413 71.1832 160.385 71.271C160.357 71.3588 160.348 71.4513 160.356 71.543C160.964 82.3495 163.897 95.4349 173.507 100.539C173.478 100.604 173.456 100.672 173.443 100.742C173.018 103.712 173.76 106.731 175.512 109.162C176.049 109.72 176.777 110.053 177.549 110.093C179.789 122.173 175.597 135.504 169.859 145.733C164.612 155.106 157.061 162.392 147.686 165.912C147.272 163.885 146.275 162.025 144.817 160.562C143.181 158.958 141.137 157.834 138.909 157.313C136.68 156.793 134.352 156.895 132.178 157.609C127.433 153.903 121.857 151.416 115.934 150.366C116.404 147.156 115.764 143.133 115.369 139.795C121.365 139.137 127.302 138.018 133.127 136.446C136.914 135.376 141.073 134.049 143.931 131.225C148.198 126.945 149.264 119.455 150.117 113.742C152.667 96.3122 151.525 77.6845 148.635 60.3514C146.502 49.9515 128.946 48.3359 120.905 47.3837C117.513 46.9771 114.1 46.6989 110.666 46.5277C110.685 46.4252 110.685 46.3199 110.666 46.2174C109.119 42.1944 104.917 39.5945 100.384 38.7278C100.418 37.5206 100.371 36.3124 100.245 35.1114C100.171 33.239 100.533 30.2538 100.693 27.1938C103.893 25.9634 105.589 23.0103 105.216 19.2762C104.842 15.5421 102.187 11.9257 98.1763 12.3644C93.6008 12.5249 89.1 16.2697 89.2173 21.0737C89.3026 24.5724 91.6917 26.5839 94.55 27.3329C94.55 34.0307 94.4114 31.923 94.4007 38.6208C90.0385 39.3805 86.3589 42.0339 85.655 46.9557C85.6496 46.9983 85.6496 47.0414 85.655 47.0841C80.5782 47.5976 75.5441 48.3359 70.5953 49.2882C64.8679 50.3581 58.8632 51.8667 53.797 54.9268C48.3683 58.2222 48.5496 64.8238 47.7817 70.5908C45.8096 84.7383 45.5625 99.0741 47.0458 113.282C47.7924 120.108 48.2723 127.437 54.1917 131.77C63.0014 138.19 75.1921 139.72 86.1883 140.33C86.0496 142.47 85.943 144.706 85.879 146.899C85.7259 148.496 85.676 150.1 85.7296 151.703C83.1323 152.346 80.5752 153.143 78.0718 154.089C78.0718 154.089 78.0078 154.089 77.9758 154.153C77.9446 154.144 77.9111 154.144 77.8798 154.153C75.5327 155.17 73.3363 156.505 71.3525 158.123C69.215 157.023 66.7986 156.59 64.4136 156.878C62.0286 157.165 59.7838 158.162 57.9673 159.739C55.3542 161.878 54.6396 164.414 53.9997 167.389C51.1937 168.814 48.5172 170.482 46.0005 172.375C45.8866 172.404 45.7796 172.456 45.6862 172.528C45.5927 172.599 45.5146 172.689 45.4566 172.792C37.5289 179.116 31.1085 187.136 26.6639 196.266C22.456 204.725 19.4339 213.726 17.6836 223.015C17.4286 223.055 17.1844 223.146 16.9661 223.284C16.7478 223.422 16.56 223.604 16.4144 223.818C14.7643 226.739 14.095 230.115 14.5052 233.447C12.1856 234.656 10.0548 236.199 8.18058 238.026C1.85592 244.221 0.906685 253.594 0.000114455 261.875C-0.00289175 262.051 0.0533987 262.223 0.159866 262.363C0.266333 262.503 0.41674 262.602 0.586719 262.646C3.57307 263.095 6.49542 263.716 9.51377 263.833C9.72406 263.831 9.9248 263.745 10.0725 263.595C10.2202 263.445 10.303 263.242 10.303 263.031C10.2177 256.708 11.3696 244.778 19.646 244.607C29.4156 244.403 27.5172 259.286 25.9067 265.267C25.8793 265.369 25.8721 265.475 25.8857 265.58C25.8993 265.685 25.9333 265.786 25.9858 265.877C26.0383 265.968 26.1083 266.049 26.1917 266.113C26.2751 266.177 26.3704 266.224 26.472 266.252L37.4255 267.899H37.5641C37.6562 267.926 37.7531 267.933 37.848 267.919C37.943 267.905 38.0337 267.87 38.1138 267.817C38.194 267.764 38.2617 267.694 38.3123 267.612C38.3629 267.53 38.3951 267.438 38.4067 267.343C40.4118 256.708 40.7211 243.248 32.5833 235.972L32.6473 235.897C32.6961 235.834 32.739 235.765 32.7753 235.694C33.6499 233.49 34.4071 228.75 32.5193 226.856C32.0588 226.405 31.5384 226.02 30.9728 225.711C31.7194 213.482 38.9826 201.595 46.9711 193.067C48.1799 191.783 49.4277 190.574 50.7147 189.44C50.7147 189.783 50.7787 190.125 50.8214 190.457C50.9825 191.656 51.5183 192.773 52.3519 193.648C53.1854 194.522 54.2739 195.11 55.4609 195.325C55.3044 197.779 55.2191 200.218 55.2049 202.643C55.2049 205.425 55.1409 208.549 55.3435 211.577L53.925 211.374C53.8023 211.345 53.6745 211.345 53.5517 211.374C50.8214 211.695 51.8133 215.493 52.1652 217.344C52.4372 218.791 52.7933 220.22 53.2318 221.624C53.7224 223.218 59.0658 224.149 61.1456 224.663C62.9374 230.334 66.9796 234.292 72.0778 237.085C70.2525 242.202 68.7947 247.444 67.7156 252.77C66.1477 260.26 65.0918 270.114 66.649 278.032C60.5483 279.776 55.1942 282.814 49.6695 286.538C49.5557 286.617 49.4639 286.723 49.4028 286.848V286.848C49.2981 286.893 49.2073 286.966 49.1398 287.058C49.0723 287.15 49.0305 287.258 49.0189 287.372C48.7482 289.029 48.8318 290.725 49.2642 292.348C49.5522 293.492 51.5466 294.059 52.4639 294.487C56.5563 296.468 61.0103 297.586 65.5505 297.772H65.6998H65.7638C74.5628 296.317 88.6307 292.069 85.975 280.439C85.975 280.439 85.975 280.386 85.975 280.353C85.6017 278.406 83.9912 277.368 81.9434 276.844C80.4502 266.861 82.4127 256.515 85.5483 246.993C86.0887 245.323 86.7038 243.654 87.3935 241.985C90.7378 242.53 94.1098 242.887 97.4937 243.055C102.991 243.335 108.502 243.044 113.94 242.188C114.409 243.323 114.857 244.457 115.273 245.591C118.857 255.285 120.915 266.337 119.379 276.716C117.246 277.176 115.625 278.107 115.369 279.872C115.369 280.022 115.369 280.161 115.369 280.311C115.365 280.343 115.365 280.375 115.369 280.407C112.713 292.037 126.781 296.285 135.634 297.74H135.698H135.847C140.088 297.557 144.255 296.562 148.123 294.808C149.083 294.38 151.76 293.61 152.091 292.455C152.574 290.787 152.673 289.03 152.379 287.319C152.367 287.206 152.326 287.099 152.261 287.007C152.195 286.915 152.107 286.842 152.005 286.794C151.944 286.67 151.852 286.563 151.739 286.484C146.616 282.796 140.943 279.946 134.93 278.042C135.452 274.95 135.026 270.692 135.058 268.306C135.109 263.076 134.645 257.855 133.671 252.717C132.733 247.478 131.355 242.327 129.554 237.32C135.036 234.378 139.153 230.12 140.486 224.064C141.82 223.657 143.153 223.229 144.465 222.769C150.064 220.832 150.405 214.659 150.864 209.266C150.865 209.143 150.838 209.022 150.784 208.911C150.731 208.801 150.652 208.704 150.555 208.63C150.457 208.555 150.344 208.504 150.224 208.481C150.104 208.457 149.979 208.463 149.861 208.496C148.667 208.935 147.462 209.341 146.257 209.726C146.828 204.905 147.088 200.052 147.035 195.197C148.093 194.906 149.049 194.322 149.792 193.512C150.535 192.703 151.036 191.699 151.237 190.617C151.676 187.899 151.676 185.128 151.237 182.411C157.705 180.215 163.711 176.838 168.953 172.449C171.488 170.298 173.819 167.916 175.917 165.334C176.122 165.217 176.275 165.026 176.344 164.799C182.447 156.742 186.694 147.428 188.78 137.527C190.834 128.294 191.602 118.82 191.062 109.376C191.304 109.281 191.523 109.137 191.707 108.953C191.89 108.769 192.034 108.549 192.129 108.306C193.03 105.07 192.865 101.629 191.66 98.4949C193.618 96.7568 195.314 94.742 196.694 92.5139C201.376 84.9708 200.053 75.6516 198.934 67.4237ZM197.814 85.249C195.734 96.6974 184.204 104.508 173.454 98.6875C164.527 93.8728 162.564 81.3758 161.988 72.1636L166.66 71.7249L170.457 71.3611L171.395 71.2755C171.414 74.7908 171.898 78.2881 172.835 81.6754C173.902 85.6128 176.195 89.2292 180.226 90.481C182.174 91.0151 184.248 90.8278 186.07 89.9535C187.891 89.0792 189.338 87.5763 190.145 85.7198C191.948 81.44 191.628 76.6252 190.945 72.1101C190.828 71.2862 190.657 70.4731 190.497 69.6599C190.049 67.52 189.9 69.2426 192.876 68.8788C194.059 68.7826 195.243 68.6863 196.417 68.6114C197.543 70.029 198.142 71.7955 198.112 73.608C198.584 77.4641 198.483 81.369 197.814 85.1955V85.249ZM190.913 101.748C191.116 102.817 191.638 107.622 190.454 107.878C188.538 108.278 186.595 108.539 184.642 108.659C182.509 108.809 177.709 109.301 176.323 107.365C175.151 105.53 174.653 103.343 174.915 101.18L175 101.095C176.935 101.89 178.983 102.371 181.069 102.518C184.431 102.68 187.739 101.616 190.38 99.5221C190.582 100.496 190.828 101.598 190.913 101.748ZM149.435 183.309C149.921 185.999 149.877 188.758 149.307 191.43C149.132 191.985 148.819 192.485 148.397 192.884C147.975 193.283 147.458 193.567 146.896 193.709C146.491 181.726 143.611 169.957 135.74 160.894C135.143 160.208 134.509 159.554 133.842 158.936C138.737 157.866 144.283 159.792 145.574 164.457C147.277 170.645 148.55 176.944 149.382 183.309H149.435ZM144.497 210.261C116.286 218.96 86.1563 215.996 57.2633 211.856C55.5462 192.597 58.0419 167.26 76.248 156.775C77.0101 156.346 77.7972 155.964 78.6051 155.63C81.1061 154.665 83.6635 153.854 86.2629 153.201C88.8226 157.192 97.675 158.187 101.749 158.262C105.653 158.337 113.663 156.475 115.508 152.11C116.574 152.302 117.726 152.516 118.825 152.763C131.143 155.566 139.004 165.345 142.62 176.997C145.862 187.611 145.755 199.209 144.443 210.261H144.497ZM149.136 209.716C148.763 213.642 148.56 219.581 144.347 221.1C131.869 225.583 118.462 227.68 105.28 228.311C94.0489 228.819 82.7989 227.921 71.7898 225.636C69.1981 225.112 66.6383 224.449 64.0893 223.764C63.0227 223.475 55.0449 221.731 54.8209 221.025C54.533 220.094 52.5598 213.075 53.6051 212.926C76.0027 216.2 98.6349 218.874 121.257 216.638C126.236 216.119 131.183 215.316 136.071 214.231C138.652 213.664 148.891 211.738 149.083 209.726L149.136 209.716ZM133.138 274.169C132.957 277.315 133.277 280 129.234 281.455C127.016 282.258 124.488 281.787 122.291 281.22C119.358 280.482 121.139 276.149 121.342 273.848C121.728 269.044 121.56 264.212 120.841 259.447C124.712 258.056 128.722 258.377 132.765 258.152C133.344 263.471 133.455 268.831 133.095 274.169H133.138ZM133.607 291.813C130.262 291.014 127.035 289.78 124.008 288.143C121.576 286.891 113.524 280.931 118.963 278.77H119.113C118.985 279.423 118.846 280.075 118.686 280.717C118.64 280.888 118.65 281.069 118.716 281.233C118.781 281.397 118.898 281.535 119.049 281.627C122.814 283.424 131.314 285.275 134.098 280.557C134.277 280.247 134.417 279.917 134.514 279.572C140.071 280.942 145.019 284.055 149.733 287.233C145.158 289.576 138.311 292.818 133.565 291.813H133.607ZM130.941 248.416C131.644 251.098 132.185 253.821 132.562 256.569C128.498 256.783 124.488 256.494 120.595 257.842C120.211 255.566 119.717 253.295 119.113 251.026C122.739 249.015 126.835 248.951 130.898 248.416H130.941ZM118.675 249.486C117.938 246.898 117.055 244.355 116.03 241.867C120.074 241.127 124.013 239.898 127.762 238.208C128.829 241.119 129.693 244.039 130.493 246.918C126.397 247.421 122.355 247.538 118.633 249.443L118.675 249.486ZM98.8589 241.557C85.8896 241.172 68.0249 238.016 63.1187 225.198C79.725 230.023 97.3551 231.008 114.495 229.264C122.648 228.451 130.711 226.904 138.588 224.641C134.588 239.214 111.786 241.9 98.8163 241.514L98.8589 241.557ZM78.5304 287.565C75.5115 289.355 72.2595 290.716 68.8674 291.609C63.62 293.139 56.5808 289.876 51.6746 287.201C56.4017 283.917 61.5738 281.33 67.033 279.519C67.097 279.786 67.1503 280.065 67.2249 280.321C67.7369 282.172 71.7045 283.082 73.155 283.381C76.28 284.023 79.5543 282.975 82.3487 281.648C82.5027 281.559 82.6229 281.422 82.6905 281.257C82.7581 281.093 82.7691 280.91 82.722 280.739C82.562 280.097 82.4127 279.433 82.2953 278.781C87.3721 280.343 80.8982 285.96 78.4877 287.49L78.5304 287.565ZM80.9088 280.075C81.2288 281.627 75.0321 281.937 74.8615 281.937C69.8487 282.151 68.5368 278.278 68.2275 274.265C67.8053 268.917 67.9304 263.539 68.6008 258.216C72.6964 258.441 76.7706 258.099 80.6848 259.554C79.9718 264.283 79.7395 269.072 79.9916 273.848C80.1273 275.911 80.4197 277.961 80.8662 279.979L80.9088 280.075ZM80.9088 257.992C76.9732 256.579 72.9097 256.922 68.8035 256.665C69.1937 253.921 69.7277 251.199 70.4033 248.512C74.5095 249.058 78.6584 249.1 82.3487 251.176C81.7514 253.348 81.2608 255.627 80.8875 257.874L80.9088 257.992ZM82.7753 249.603C79.0317 247.635 74.9361 247.528 70.7979 246.971C71.5871 243.975 72.5151 240.926 73.6029 237.898C77.3856 239.656 81.3739 240.928 85.4737 241.686C84.4273 244.242 83.5194 246.853 82.754 249.507L82.7753 249.603ZM52.5812 183.309C53.4152 176.933 54.7345 170.631 56.5274 164.457C57.9246 159.225 64.6972 157.449 69.9233 159.439C64.5906 164.382 60.9643 171.208 58.6499 178.088C57.011 183.143 55.9798 188.377 55.5782 193.677C55.1067 193.53 54.6468 193.347 54.2023 193.132C51.1947 191.644 52.3145 185.856 52.5812 183.309ZM50.4481 123.917C48.5283 116.652 48.0483 108.938 47.7604 101.448C47.2271 87.8383 47.7604 73.0409 51.28 59.8271C52.7412 54.2741 63.94 52.3375 68.3448 51.3746C78.4524 49.2182 88.7497 48.0819 99.0829 47.9828C109.366 47.5984 119.659 48.3772 129.768 50.3046C135.527 51.4815 145.659 53.7391 147.088 60.6831C148.804 71.5118 149.671 82.4588 149.68 93.4234C149.765 103.813 149.456 114.961 145.819 124.816C143.324 131.567 137.564 133.536 131.122 135.237C122.749 137.256 114.195 138.431 105.589 138.746C89.8785 139.602 69.1874 140.041 55.5675 130.775C53.1011 129.181 51.2938 126.745 50.4801 123.917H50.4481ZM96.1605 27.6218C96.99 27.7128 97.8268 27.7128 98.6563 27.6218C98.7949 34.1698 98.6563 31.9016 98.6563 38.5031C97.8042 38.4388 96.9486 38.4388 96.0965 38.5031C96.0965 33.8489 96.2459 37.9895 96.2672 33.3139C96.2672 31.3452 96.2139 29.4728 96.1925 27.5897L96.1605 27.6218ZM98.1763 13.9265C104.074 13.2631 105.909 23.6202 100.459 25.4712C96.7151 26.7444 92.6622 26.2415 91.0517 22.1544C89.3879 17.9281 94.4541 14.0763 98.1763 13.9265ZM108.927 46.3458C101.713 46.0642 94.4875 46.2536 87.2975 46.9129C89.1853 37.1871 105.589 38.2463 108.927 46.3458ZM101.611 150.323C96.7444 150.666 91.8719 149.752 87.4575 147.67C87.4575 147.413 87.4575 147.156 87.4575 146.889C87.4575 145.476 87.5215 144.064 87.5854 142.662C95.6699 145.872 106.421 146.942 113.791 141.592C113.876 142.833 113.961 144.085 114.004 145.337C114.004 145.53 114.004 145.722 114.004 145.904C113.843 145.957 113.704 146.062 113.609 146.204C111.327 149.499 105.269 149.927 101.611 150.323V150.323ZM90.9451 140.49C98.3946 140.786 105.856 140.586 113.279 139.891C106.282 145.455 95.5099 144.171 87.6814 140.961C87.6814 140.961 87.6068 140.961 87.5641 140.961C87.5641 140.758 87.5641 140.544 87.5641 140.34L90.9451 140.49ZM103.498 151.703C107.071 151.125 111.306 150.708 113.983 148.119C113.833 150.997 112.916 152.848 109.716 154.753C106.922 156.411 103.466 156.689 100.309 156.636C97.0706 156.496 93.8915 155.715 90.9558 154.335C88.1934 153.105 87.5428 151.639 87.4041 149.349C92.4618 151.632 98.0557 152.447 103.552 151.703H103.498ZM53.4771 169.507C53.4814 169.528 53.4814 169.55 53.4771 169.571L53.3171 170.299C52.5918 173.359 51.8026 176.59 51.2587 179.864C49.6779 177.86 48.2888 175.71 47.1098 173.445C49.1581 171.987 51.3033 170.671 53.5304 169.507H53.4771ZM21.1819 215.076C24.2409 216.53 27.4639 217.608 30.7808 218.286C30.5355 219.356 30.3329 220.426 30.1516 221.432C26.727 221.232 23.3632 220.436 20.2113 219.078C20.4886 217.719 20.8192 216.392 21.1819 215.076ZM31.6234 228.654C32.2682 230.713 32.1815 232.932 31.3781 234.934H31.3248C29.6334 233.698 27.7581 232.738 25.768 232.088C22.5 231.117 18.9906 231.38 15.9024 232.826C16.0116 231.172 16.2146 229.525 16.5104 227.894C16.8623 226.246 16.9263 224.577 18.6435 224.684C20.6213 224.798 22.5887 225.051 24.5308 225.444C26.5253 225.776 30.7915 226.503 31.6234 228.643V228.654ZM36.9562 266.241L32.3273 265.545L28.5624 264.978L27.6238 264.839C28.5849 260.963 28.9126 256.955 28.5944 252.974C27.7838 243.986 17.6089 239.064 12.0415 247.474C9.65242 251.08 9.07648 255.927 8.76718 260.153C8.47921 264.026 9.07648 262.443 4.50097 261.683C-1.18376 260.741 3.72238 248.512 5.37554 244.895C10.175 234.314 23.187 229.499 32.242 237.727C39.7399 244.542 38.652 257.146 36.9988 266.23L36.9562 266.241ZM21.5978 223.347C21.0112 223.272 20.1793 223.079 19.3474 222.994C19.4967 222.202 19.646 221.41 19.8167 220.629C23.0129 221.964 26.4082 222.756 29.8636 222.972V222.972C29.7676 223.668 29.693 224.353 29.629 225.037C27.0264 224.163 24.3312 223.596 21.5978 223.347ZM31.1968 216.702C27.91 216.027 24.7184 214.949 21.6938 213.493C22.1098 212.037 22.5577 210.593 23.0483 209.213C25.8936 210.987 29.0269 212.247 32.306 212.936C31.8794 214.167 31.4848 215.429 31.1435 216.702H31.1968ZM32.9139 211.438H32.7966C29.5144 210.793 26.3838 209.53 23.5709 207.715C24.1042 206.228 24.6375 204.762 25.2774 203.307C28.1726 205.264 31.5083 206.466 34.9831 206.805C34.1298 208.261 33.4792 209.833 32.8606 211.438H32.9139ZM37.7241 202.076C36.9988 203.146 36.3162 204.28 35.6656 205.457C35.5155 205.295 35.3098 205.196 35.0897 205.179C31.8019 204.853 28.6519 203.689 25.9387 201.798V201.798C26.6213 200.247 27.3359 198.717 28.0718 197.208C31.0545 199.361 34.4502 200.869 38.0441 201.638L37.7241 202.076ZM39.036 200.215C35.4219 199.553 32.0005 198.091 29.021 195.935C28.9636 195.893 28.8982 195.864 28.829 195.849C29.7178 194.159 30.6635 192.5 31.6661 190.874C34.0911 194.024 37.4533 196.318 41.265 197.422C40.3798 198.31 39.6652 199.252 38.9826 200.215H39.036ZM42.2356 196.063C38.327 195.077 34.8925 192.734 32.5406 189.451C33.4366 188.081 34.3716 186.74 35.3457 185.428C38.268 188.563 42.0543 190.296 45.8299 192.158C44.518 193.378 43.3342 194.747 42.193 196.063H42.2356ZM46.9284 190.917C43.0889 189.012 39.1959 187.322 36.2629 184.123C37.4945 182.546 38.8082 181.035 40.1985 179.597C42.8542 183.021 45.7446 186.53 49.7015 188.424C48.7309 189.216 47.8244 190.05 46.9284 190.917ZM41.297 178.452C42.7422 177.023 44.2662 175.676 45.8619 174.418C47.2535 177.117 48.973 179.633 50.9813 181.908C50.7477 183.642 50.6301 185.39 50.6294 187.14C46.7151 185.342 43.8994 181.822 41.3077 178.452H41.297ZM51.7813 292.348C50.2774 291.566 50.2454 290.004 50.4801 288.324C54.8423 290.732 59.5991 292.936 64.4412 293.31C64.611 294.24 64.7179 295.18 64.7612 296.124C61.9536 295.879 59.1876 295.282 56.5274 294.348C54.8983 293.809 53.3148 293.14 51.7919 292.348H51.7813ZM66.361 296.017C66.3161 295.127 66.2127 294.241 66.0517 293.364C67.5281 293.35 68.9957 293.134 70.4139 292.722C73.7096 291.759 81.3141 288.966 84.5458 284.943C83.1273 291.994 73.0697 294.819 66.3717 296.017H66.361ZM116.649 284.622C119.486 288.56 126.099 291.117 129.608 292.369C131.378 293.105 133.247 293.578 135.154 293.771C135.03 294.532 134.948 295.3 134.908 296.071C128.093 294.798 117.801 291.898 116.649 284.622ZM150.16 292.016C148.732 292.856 147.225 293.551 145.659 294.092C142.729 295.239 139.645 295.942 136.508 296.178C136.544 295.346 136.633 294.516 136.775 293.696C137.29 293.618 137.795 293.482 138.279 293.289C142.428 291.556 146.811 290.432 150.779 288.357C150.928 289.501 151.024 291.417 150.16 291.962V292.016ZM150.864 180.816C150.32 177.532 149.478 174.268 148.816 171.347C148.528 170.064 148.315 168.705 148.038 167.367C149.211 166.918 150.352 166.436 151.472 165.88C153.284 170.176 154.307 174.765 154.49 179.426C153.306 179.886 152.091 180.335 150.864 180.763V180.816ZM156.047 178.677C155.764 174 154.682 169.407 152.848 165.099C153.914 164.478 155.034 163.815 156.047 163.098C158.181 167.185 160.719 171.198 161.242 175.841C159.565 176.89 157.831 177.844 156.047 178.698V178.677ZM163.929 174.151L162.799 174.921C162.042 170.31 159.524 166.287 157.466 162.167C158.341 161.525 159.183 160.841 159.994 160.134C159.994 160.134 159.994 160.134 159.994 160.188C163.384 163.206 166.087 166.921 167.918 171.08C166.641 172.167 165.31 173.188 163.929 174.14V174.151ZM169.177 169.989C167.271 165.841 164.542 162.128 161.156 159.075C161.935 158.348 162.703 157.577 163.439 156.796C163.503 156.796 163.545 156.86 163.609 156.882C168.078 157.952 171.331 161.322 174.382 164.585C172.776 166.504 171.037 168.306 169.177 169.978V169.989ZM175.395 163.344C172.312 160.049 168.995 156.786 164.623 155.502C165.582 154.432 166.5 153.276 167.385 152.099C167.426 152.128 167.474 152.146 167.524 152.153C171.875 152.891 175.512 155.673 178.893 158.358C177.818 160.079 176.65 161.74 175.395 163.334V163.344ZM179.725 156.978C176.323 154.293 172.675 151.628 168.388 150.719C169.091 149.713 169.774 148.675 170.425 147.616C174.605 148.536 178.797 149.232 182.434 151.628C181.627 153.455 180.723 155.238 179.725 156.967V156.978ZM183.095 150.163C179.501 147.841 175.416 147.06 171.299 146.172C172.184 144.642 173.027 143.08 173.806 141.475C177.833 141.482 181.728 142.919 184.802 145.53C184.311 147.124 183.725 148.643 183.095 150.152V150.163ZM185.378 143.978C182.279 141.513 178.482 140.094 174.531 139.923C175.021 138.853 175.48 137.783 175.917 136.713C175.917 136.713 175.917 136.713 175.981 136.713C179.646 136.485 183.316 137.081 186.722 138.457C186.792 138.466 186.864 138.466 186.935 138.457C186.48 140.319 185.961 142.156 185.378 143.968V143.978ZM187.297 136.949C183.883 135.579 180.222 134.938 176.547 135.066C176.611 134.894 176.675 134.723 176.749 134.541C177.187 133.332 177.581 132.07 177.922 130.764C178.013 130.828 178.115 130.874 178.223 130.898C178.331 130.921 178.443 130.924 178.552 130.904C181.821 130.421 185.16 130.789 188.247 131.973V131.973C188.012 133.632 187.713 135.29 187.297 136.97V136.949ZM188.535 130.39C185.258 129.178 181.73 128.81 178.274 129.32C178.658 127.653 178.953 125.968 179.16 124.27H179.288C182.627 124.094 185.969 124.563 189.132 125.65C188.972 127.255 188.78 128.817 188.535 130.379V130.39ZM189.292 124.088C186.082 123.045 182.713 122.581 179.341 122.718C179.458 121.413 179.544 120.097 179.565 118.781C182.916 118.632 186.272 118.898 189.559 119.573C189.505 121.06 189.42 122.569 189.292 124.131V124.088ZM189.623 117.957C186.316 117.297 182.944 117.035 179.576 117.176C179.576 116.106 179.512 115.036 179.426 113.966C182.8 113.337 186.258 113.301 189.644 113.859C189.665 115.207 189.665 116.577 189.623 117.947V117.957ZM189.623 112.233C186.219 111.706 182.751 111.753 179.362 112.372H179.288C179.213 111.602 179.106 110.842 178.989 110.093L179.874 110.168C182.296 110.409 184.739 110.355 187.148 110.008C187.777 109.943 188.663 109.922 189.516 109.804C189.548 110.617 189.591 111.409 189.612 112.222L189.623 112.233Z" fill="#121212"/>
<path d="M168.761 73.4475C167.233 73.7306 165.685 73.8916 164.132 73.929C164.071 73.9304 164.012 73.9455 163.958 73.9731C163.904 74.0006 163.857 74.04 163.82 74.0882C163.783 74.1365 163.757 74.1924 163.745 74.2518C163.733 74.3113 163.734 74.3728 163.748 74.4319C164.025 76.0903 164.484 77.7059 164.718 79.3643C164.793 79.8779 165.561 79.6639 165.486 79.1503C165.284 77.6631 164.889 76.1973 164.612 74.7207C166.074 74.6343 167.53 74.4664 168.974 74.2179C169.486 74.143 169.273 73.3726 168.761 73.4475Z" fill="#121212"/>
<path d="M193.377 79.9744C193.377 85.3242 191.244 91.2516 185.388 92.2895C184.876 92.3858 185.09 93.1561 185.602 93.0599C191.83 91.9899 194.134 85.7093 194.134 79.9744C194.105 79.8975 194.053 79.8313 193.985 79.7846C193.918 79.7379 193.837 79.7129 193.755 79.7129C193.673 79.7129 193.593 79.7379 193.525 79.7846C193.458 79.8313 193.406 79.8975 193.377 79.9744V79.9744Z" fill="#121212"/>
<path d="M189.591 106.316C188.801 106.402 188.023 106.605 187.233 106.701C186.732 106.755 186.722 107.557 187.233 107.493C188.023 107.408 188.801 107.204 189.591 107.119C190.092 107.012 190.102 106.263 189.591 106.316Z" fill="#121212"/>
<path d="M31.5597 190.842C30.5571 192.468 29.6115 194.127 28.7227 195.817C28.7919 195.832 28.8572 195.861 28.9146 195.903C31.8942 198.059 35.3155 199.521 38.9296 200.182V200.182C39.6122 199.219 40.3268 198.278 41.0627 197.358C37.2901 196.244 33.9645 193.963 31.5597 190.842Z" fill="#FED359"/>
<path d="M25.8428 201.787C28.556 203.678 31.706 204.842 34.9938 205.168C35.2139 205.185 35.4196 205.284 35.5697 205.447C36.2203 204.27 36.9029 203.135 37.6282 202.065L37.9375 201.616C34.3436 200.848 30.9479 199.34 27.9652 197.187C27.24 198.706 26.5254 200.236 25.8428 201.787Z" fill="#FED359"/>
<path d="M23.5176 207.672C26.3305 209.487 29.461 210.751 32.7433 211.396H32.8606C33.4792 209.791 34.1724 208.186 34.9297 206.72C31.455 206.381 28.1193 205.178 25.2241 203.221C24.6161 204.719 24.0509 206.185 23.5176 207.672Z" fill="#FED359"/>
<path d="M32.4551 189.397C34.807 192.681 38.2414 195.023 42.15 196.01C43.2913 194.651 44.4751 193.324 45.7017 192.061C41.9261 190.2 38.1398 188.466 35.2174 185.332C34.2718 186.68 33.351 188.035 32.4551 189.397Z" fill="#FED359"/>
<path d="M40.1663 179.586C38.7869 181.025 37.4839 182.536 36.2627 184.112C39.2277 187.322 43.1206 189.001 46.9282 190.906C47.8135 190.039 48.72 189.205 49.6586 188.402C45.7124 186.519 42.822 182.978 40.1663 179.586Z" fill="#FED359"/>
<path d="M21.6299 213.525C24.6545 214.981 27.8461 216.059 31.1329 216.735V216.735C31.4742 215.461 31.8688 214.199 32.2954 212.968C28.9935 212.283 25.8379 211.019 22.9737 209.234C22.4938 210.625 22.0458 212.07 21.6299 213.525Z" fill="#FED359"/>
<path d="M51.0133 181.908C49.0049 179.633 47.2854 177.117 45.8938 174.418C44.292 175.661 42.7608 176.994 41.3076 178.409C43.8993 181.779 46.715 185.299 50.6613 187.086C50.6644 185.354 50.782 183.624 51.0133 181.908V181.908Z" fill="#FED359"/>
<path d="M53.3809 170.299L53.5409 169.572C53.5452 169.55 53.5452 169.529 53.5409 169.507C51.3196 170.69 49.1815 172.023 47.1416 173.498C48.3207 175.764 49.7098 177.913 51.2905 179.918C51.8664 176.558 52.6557 173.348 53.3809 170.299Z" fill="#FED359"/>
<path d="M30.749 218.286C27.4321 217.608 24.209 216.53 21.15 215.076C20.7874 216.403 20.4568 217.73 20.1475 219.056C23.2993 220.415 26.6631 221.211 30.0877 221.41C30.301 220.351 30.5037 219.356 30.749 218.286Z" fill="#FED359"/>
<path d="M29.8633 222.972C26.426 222.75 23.0491 221.958 19.8697 220.629C19.699 221.41 19.5497 222.202 19.4004 222.993C20.2323 223.079 21.0642 223.272 21.6508 223.347C24.391 223.59 27.0934 224.154 29.7033 225.026C29.7673 224.342 29.8419 223.657 29.9379 222.961L29.8633 222.972Z" fill="#FED359"/>
<path d="M24.5308 225.433C22.5887 225.041 20.6213 224.787 18.6434 224.673C16.9369 224.598 16.8729 226.268 16.5103 227.883C16.2145 229.514 16.0115 231.161 15.9023 232.816C18.9906 231.369 22.4999 231.106 25.768 232.077C27.758 232.727 29.6333 233.687 31.3247 234.923H31.378C32.1814 232.921 32.2681 230.702 31.6233 228.643C30.7914 226.503 26.5252 225.775 24.5308 225.433ZM18.5261 225.572C19.3153 225.679 20.1152 225.668 20.9045 225.775C21.4058 225.84 21.4164 226.642 20.9045 226.578C20.1152 226.471 19.3153 226.471 18.5261 226.375C18.0141 226.31 18.0035 225.508 18.5154 225.572H18.5261Z" fill="#FED359"/>
<path d="M5.33318 244.884C3.68002 248.501 -1.22613 260.73 4.4586 261.672C9.08744 262.432 8.49017 264.015 8.77814 260.142C9.08744 255.862 9.66338 251.069 12.0525 247.463C17.6199 239.021 27.7948 243.975 28.6054 252.963C28.9236 256.944 28.5958 260.952 27.6348 264.828L28.5734 264.967L32.3383 265.534L36.9671 266.23C38.6203 257.146 39.7082 244.542 32.1996 237.716C23.1766 229.488 10.1647 234.335 5.33318 244.884ZM19.0917 240.99C13.119 240.562 9.67405 245.815 8.42618 251.015C8.39789 251.117 8.33031 251.204 8.2383 251.256C8.14629 251.308 8.0374 251.322 7.93556 251.293C7.83373 251.265 7.74731 251.197 7.6953 251.105C7.6433 251.013 7.62997 250.903 7.65826 250.801C9.02345 245.259 12.831 239.738 19.1344 240.187C19.6356 240.23 19.6356 241.022 19.1237 240.99H19.0917ZM36.0606 258.548C35.8793 260.217 35.9432 261.886 35.8153 263.555C35.8159 263.616 35.8022 263.677 35.7754 263.732C35.7485 263.788 35.7093 263.836 35.6606 263.873C35.612 263.911 35.5553 263.936 35.4952 263.948C35.435 263.959 35.373 263.957 35.314 263.94C33.7946 263.602 32.25 263.391 30.6958 263.309C30.1839 263.245 30.1839 262.453 30.6958 262.506C32.1531 262.604 33.6029 262.794 35.0367 263.074C35.122 261.554 35.1007 260.046 35.2607 258.548C35.346 258.034 36.1352 258.034 36.0926 258.548H36.0606Z" fill="#FED359"/>
<path d="M30.7277 262.507C30.2158 262.454 30.2158 263.245 30.7277 263.309C32.2819 263.391 33.8266 263.602 35.3459 263.941C35.4049 263.957 35.4669 263.96 35.5271 263.948C35.5872 263.937 35.6439 263.911 35.6925 263.874C35.7412 263.837 35.7805 263.788 35.8073 263.733C35.8341 263.678 35.8478 263.617 35.8472 263.556C35.9752 261.886 35.9112 260.217 36.0925 258.548C36.0925 258.035 35.3459 258.035 35.2926 258.548C35.1326 260.046 35.1539 261.555 35.0686 263.074C33.6348 262.794 32.185 262.605 30.7277 262.507V262.507Z" fill="#121212"/>
<path d="M19.1235 240.188C12.8201 239.738 9.01254 245.259 7.64735 250.802C7.61906 250.904 7.63239 251.013 7.68439 251.105C7.7364 251.198 7.82282 251.265 7.92465 251.294C8.02649 251.322 8.13539 251.309 8.22739 251.257C8.3194 251.205 8.38698 251.118 8.41527 251.016C9.7058 245.816 13.1508 240.562 19.0808 240.99C19.6354 241.022 19.6354 240.231 19.1235 240.188Z" fill="#121212"/>
<path d="M18.5157 226.374C19.305 226.471 20.1049 226.471 20.8941 226.578C21.4061 226.642 21.3954 225.84 20.8941 225.775C20.1049 225.668 19.305 225.679 18.5157 225.572C18.0038 225.508 18.0144 226.31 18.5157 226.374Z" fill="#121212"/>
<path d="M82.6792 280.664C82.7264 280.835 82.7153 281.018 82.6477 281.182C82.5801 281.347 82.4599 281.484 82.3059 281.573C79.5329 282.9 76.2372 283.948 73.1122 283.306C71.6617 283.007 67.6941 282.097 67.1822 280.246C67.1075 279.99 67.0542 279.711 66.9902 279.444C61.531 281.255 56.3589 283.842 51.6318 287.126C56.538 289.801 63.5772 293.064 68.8247 291.534C72.2167 290.641 75.4687 289.28 78.4876 287.49C80.898 285.96 87.372 280.3 82.2526 278.706C82.3699 279.358 82.5192 280.022 82.6792 280.664Z" fill="#FED359"/>
<path d="M73.5921 237.802C72.5256 240.83 71.5764 243.879 70.7871 246.875C74.9253 247.431 79.0209 247.538 82.7645 249.507C83.5197 246.82 84.4205 244.177 85.4629 241.589C81.3631 240.832 77.3748 239.559 73.5921 237.802V237.802Z" fill="#FED359"/>
<path d="M79.9917 273.848C79.7247 269.052 79.9462 264.241 80.6529 259.49C76.7387 258.035 72.6644 258.42 68.5689 258.152C67.8984 263.475 67.7734 268.853 68.1956 274.202C68.5049 278.214 69.8167 282.087 74.8295 281.873C75.0002 281.873 81.2289 281.563 80.8769 280.011C80.4252 277.983 80.1293 275.922 79.9917 273.848V273.848Z" fill="#FED359"/>
<path d="M70.3928 248.416C69.7172 251.103 69.1832 253.825 68.793 256.569C72.8992 256.782 76.9628 256.483 80.8983 257.895C81.2716 255.627 81.7622 253.348 82.3382 251.08C78.6372 249.004 74.4884 248.961 70.3928 248.416Z" fill="#FED359"/>
<path d="M134.012 280.45C131.229 285.222 122.728 283.371 118.963 281.52C118.812 281.428 118.695 281.29 118.63 281.126C118.565 280.962 118.554 280.781 118.601 280.61C118.761 279.968 118.899 279.316 119.027 278.663H118.878C113.438 280.803 121.491 286.784 123.923 288.036C126.949 289.673 130.176 290.907 133.522 291.706C138.268 292.711 145.115 289.469 149.605 287.019C144.891 283.809 139.942 280.728 134.386 279.359C134.311 279.738 134.185 280.105 134.012 280.45V280.45Z" fill="#FED359"/>
<path d="M115.987 241.825C117.012 244.312 117.895 246.855 118.632 249.443C122.355 247.538 126.397 247.421 130.492 246.875C129.693 243.997 128.797 241.076 127.762 238.166C123.999 239.859 120.045 241.087 115.987 241.825V241.825Z" fill="#FED359"/>
<path d="M120.521 257.874C124.414 256.526 128.424 256.804 132.487 256.601C132.111 253.853 131.569 251.13 130.866 248.448C126.803 248.983 122.707 249.047 119.038 251.058C119.664 253.305 120.158 255.577 120.521 257.874Z" fill="#FED359"/>
<path d="M120.798 259.447C121.517 264.212 121.686 269.044 121.3 273.848C121.097 276.149 119.316 280.482 122.249 281.22C124.446 281.787 126.974 282.29 129.192 281.456C133.234 280.001 132.914 277.315 133.096 274.169C133.443 268.819 133.318 263.448 132.722 258.12C128.68 258.377 124.67 258.056 120.798 259.447Z" fill="#FED359"/>
<path d="M138.545 224.599C130.669 226.861 122.605 228.408 114.452 229.221C97.3125 230.965 79.6824 229.98 63.0762 225.155C67.9823 237.994 85.8471 241.129 98.8163 241.514C111.786 241.9 134.589 239.214 138.545 224.599Z" fill="#FED359"/>
<path d="M58.6604 178.088C60.9215 171.208 64.5478 164.382 69.8805 159.439C64.6544 157.449 57.8818 159.225 56.4846 164.457C54.7061 170.632 53.4011 176.935 52.581 183.31C52.3144 185.856 51.1945 191.644 54.2022 193.1C54.6467 193.315 55.1066 193.498 55.5781 193.645C55.9856 188.355 57.0204 183.133 58.6604 178.088V178.088Z" fill="#FED359"/>
<path d="M145.489 164.457C144.23 159.792 138.684 157.867 133.757 158.937C134.424 159.554 135.058 160.208 135.655 160.895C143.526 169.957 146.406 181.726 146.811 193.71C147.373 193.567 147.89 193.283 148.312 192.884C148.734 192.485 149.047 191.985 149.222 191.431C149.792 188.758 149.836 185.999 149.35 183.31C148.501 176.943 147.21 170.644 145.489 164.457V164.457Z" fill="#FED359"/>
<path d="M142.567 176.997C138.951 165.345 131.091 155.598 118.772 152.763C117.705 152.516 116.564 152.302 115.455 152.11C113.61 156.475 105.6 158.337 101.696 158.262C97.6222 158.187 88.7698 157.192 86.2101 153.201C83.6106 153.854 81.0533 154.665 78.5522 155.63C77.7444 155.964 76.9573 156.346 76.1952 156.775C57.9891 167.26 55.4614 192.607 57.2105 211.866C86.1034 216.007 116.234 218.971 144.444 210.272C145.756 199.209 145.862 187.611 142.567 176.997ZM84.4396 156.293C84.5414 156.265 84.6503 156.278 84.7423 156.331C84.8344 156.383 84.9019 156.469 84.9302 156.572C84.9585 156.674 84.9452 156.783 84.8932 156.875C84.8412 156.968 84.7547 157.035 84.6529 157.064C78.2536 158.829 72.2702 162.574 68.9533 168.437C68.8953 168.529 68.8031 168.595 68.6971 168.619C68.5911 168.643 68.4799 168.624 68.388 168.566C68.2961 168.507 68.2309 168.415 68.2069 168.309C68.1829 168.202 68.202 168.091 68.26 167.999C71.6836 161.996 77.859 158.112 84.4396 156.293V156.293Z" fill="#FED359"/>
<path d="M113.641 146.161C113.736 146.02 113.874 145.914 114.036 145.862C114.036 145.68 114.036 145.487 114.036 145.295C114.036 144.043 113.908 142.791 113.822 141.55C106.453 146.9 95.691 145.83 87.6172 142.62C87.5533 144.021 87.4999 145.434 87.4893 146.846C87.4893 147.114 87.4893 147.37 87.4893 147.627C91.8998 149.724 96.7725 150.653 101.642 150.323C105.269 149.927 111.327 149.5 113.641 146.161Z" fill="#FED359"/>
<path d="M87.7875 140.993C95.5627 144.128 106.335 145.455 113.385 139.923C105.962 140.618 98.5008 140.819 91.0512 140.523L87.7662 140.383C87.7662 140.587 87.7662 140.801 87.7662 141.004C87.7129 140.983 87.7449 140.972 87.7875 140.993Z" fill="#FED359"/>
<path d="M91.0407 154.336C93.9764 155.715 97.1555 156.497 100.394 156.636C103.594 156.689 107.007 156.411 109.801 154.753C113.001 152.848 113.886 150.997 114.068 148.119C111.39 150.708 107.156 151.126 103.583 151.703C98.0943 152.443 92.5083 151.628 87.457 149.35C87.6277 151.639 88.2783 153.105 91.0407 154.336Z" fill="#FED359"/>
<path d="M98.6454 38.439C98.6987 31.8802 98.8267 34.1592 98.6454 27.5576C97.8159 27.6486 96.9791 27.6486 96.1496 27.5576C96.1496 29.4407 96.2243 31.3131 96.2136 33.1855C96.2136 37.8612 96.0963 33.7205 96.043 38.3748C96.9108 38.3297 97.7808 38.3511 98.6454 38.439Z" fill="#FED359"/>
<path d="M87.2979 46.9126C94.4879 46.2534 101.713 46.0639 108.928 46.3456C105.589 38.2461 89.1856 37.1869 87.2979 46.9126Z" fill="#FED359"/>
<path d="M66.9688 117.915C66.8595 118.229 66.8136 118.562 66.8337 118.895C66.8539 119.227 66.9396 119.552 67.0861 119.851C66.9296 119.218 66.8899 118.562 66.9688 117.915V117.915Z" fill="#FED359"/>
<path d="M105.589 138.746C114.192 138.427 122.742 137.248 131.111 135.226C137.511 133.525 143.313 131.556 145.808 124.805C149.445 114.951 149.755 103.802 149.669 93.4129C149.66 82.4482 148.793 71.5012 147.078 60.6726C145.648 53.7286 135.516 51.471 129.757 50.2941C119.651 48.3711 109.361 47.5958 99.0826 47.983C88.778 48.0878 78.5096 49.224 68.4299 51.3747C63.9717 52.3912 52.7729 54.2743 51.3651 59.8273C47.8988 73.0411 47.3122 87.8384 47.8454 101.448C48.1334 108.938 48.6134 116.663 50.5332 123.917C51.3496 126.746 53.1609 129.183 55.6313 130.775C69.1978 140.041 89.889 139.602 105.589 138.746ZM57.8604 91.166C57.7044 84.9937 58.61 78.8406 60.5374 72.9769C60.7643 72.5331 61.0805 72.1414 61.466 71.8265C61.8516 71.5116 62.298 71.2803 62.7772 71.1473C67.918 69.0074 73.9547 68.5794 79.4367 68.0231C88.1078 67.135 96.8322 66.6642 105.546 66.6107C112.064 66.4627 118.585 66.7056 125.075 67.3383H125.309C126.28 67.456 127.25 67.5844 128.21 67.7342C130.951 68.1408 136.508 68.5687 137.649 71.7893C138.999 77.1991 139.736 82.7443 139.846 88.3199C139.846 88.3841 139.846 88.459 139.846 88.5232C139.846 88.5874 139.846 88.9405 139.846 89.1438C139.846 92.5569 140.326 99.3617 137.233 101.898C135.1 103.588 131.9 103.834 129.309 104.241C127.677 104.497 126.024 104.722 124.371 104.925C124.301 104.969 124.224 104.997 124.143 105.008C124.062 105.019 123.98 105.013 123.901 104.99C121.057 105.346 118.213 105.639 115.369 105.867C105.941 106.637 96.4589 107.076 87.0093 106.937C79.7994 106.819 71.9922 106.851 65.0276 104.797C58.6603 102.786 57.9564 97.5963 57.8604 91.166ZM66.2541 119.156C66.3288 115.839 68.3873 112.008 72.2588 111.998C80.8766 111.998 89.4303 113.292 98.0908 113.068H99.0293H99.4026C108.437 112.73 117.438 111.779 126.344 110.222C130.119 109.569 133.031 111.859 134.194 115.304C134.204 115.353 134.204 115.404 134.194 115.454C134.194 115.454 134.194 115.518 134.194 115.539C134.578 120.536 131.165 122.633 126.728 123.403C118.423 124.834 110.031 125.696 101.61 125.982C92.5617 126.282 83.5032 126.014 74.4879 125.18C71.1176 124.976 66.1262 123.639 66.2541 119.156Z" fill="#FED359"/>
<path d="M135.164 101.341C138.364 100.207 138.599 94.4932 138.439 90.2241C134.173 94.5895 129.906 98.7837 125.843 103.374C129.016 103.05 132.143 102.368 135.164 101.341V101.341Z" fill="#FED359"/>
<path d="M97.2485 105.268C97.2684 105.108 97.344 104.96 97.4618 104.85C109.653 93.2309 121.225 80.9158 134.791 70.7941C132.946 69.8205 129.885 69.5316 128.563 69.3283C127.496 69.1678 126.429 69.0287 125.363 68.8896C110.751 79.1932 99.275 93.0383 86.4443 105.343H87.0096C90.4226 105.396 93.8569 105.343 97.2485 105.268Z" fill="#FED359"/>
<path d="M123.048 68.6328C117.248 68.0398 111.418 67.779 105.588 67.8517C105.522 67.9517 105.435 68.0357 105.333 68.0978C90.1875 77.5775 77.6021 90.2136 65.4541 103.181C71.5121 104.979 78.1674 105.236 84.5027 105.321C84.5158 105.142 84.5958 104.974 84.7267 104.85C97.4507 92.7172 108.788 79.0968 123.048 68.6328Z" fill="#FED359"/>
<path d="M102.752 67.8945C94.5818 68.0764 86.412 68.7612 78.4982 69.6492C74.5626 70.0879 65.2943 70.0023 62.2013 73.2122C60.6015 74.8706 60.2602 79.7174 59.9615 81.9001C59.4163 85.4783 59.259 89.1051 59.4922 92.7172C59.8335 96.676 59.9189 101.02 63.7585 102.657V102.593C75.7785 89.8926 88.0865 77.4277 102.752 67.8945Z" fill="#FED359"/>
<path d="M138.215 86.5972C137.969 81.7395 137.277 76.9149 136.146 72.1851C136.087 72.0097 135.996 71.8466 135.879 71.7036C135.826 71.8593 135.73 71.9966 135.602 72.0995C122.44 81.9216 111.167 93.8836 99.3389 105.214C104.672 105.043 110.004 104.743 115.337 104.294C117.961 104.069 120.67 103.898 123.496 103.631C128.157 98.2061 133.351 93.2737 138.289 88.0952C138.279 87.5281 138.247 87.0145 138.215 86.5972Z" fill="#FED359"/>
<path d="M115.369 105.856C118.213 105.621 121.057 105.328 123.901 104.979C123.98 105.002 124.062 105.008 124.143 104.997C124.224 104.986 124.301 104.958 124.371 104.915C126.024 104.711 127.677 104.487 129.309 104.23C131.868 103.823 135.153 103.577 137.233 101.887C140.326 99.3508 139.878 92.5459 139.846 89.1328C139.846 88.9295 139.846 88.7155 139.846 88.5123C139.846 88.309 139.846 88.3732 139.846 88.309C139.736 82.7334 138.999 77.1881 137.649 71.7783C136.508 68.5685 130.951 68.1298 128.21 67.7232C127.25 67.5734 126.28 67.445 125.309 67.3273H125.074C118.6 66.6892 112.093 66.4391 105.589 66.5784C96.8748 66.5784 88.1504 67.1027 79.4793 67.9907C73.9972 68.5471 67.9605 68.9858 62.8198 71.1149C62.3406 71.2479 61.8941 71.4792 61.5086 71.7941C61.1231 72.109 60.8069 72.5008 60.58 72.9446C58.6526 78.8083 57.747 84.9613 57.9029 91.1336C57.9989 97.5533 58.6709 102.753 65.0702 104.69C72.0348 106.83 79.8419 106.766 87.0518 106.83C96.4588 107.065 105.94 106.626 115.369 105.856ZM59.4921 92.7171C59.2588 89.105 59.4162 85.4781 59.9614 81.9C60.26 79.7601 60.6013 74.8705 62.2012 73.212C65.2942 70.0022 74.5625 70.0878 78.4981 69.6491C86.4119 68.7611 94.5817 68.0763 102.751 67.8944C88.0864 77.4276 75.7784 89.8925 63.8436 102.593V102.657C59.9187 101.02 59.8334 96.6759 59.4921 92.7171ZM65.4328 103.181C77.6022 90.2135 90.1662 77.5774 105.311 68.0977C105.421 68.0382 105.516 67.954 105.589 67.8516C111.426 67.7781 117.262 68.0389 123.069 68.6327C108.788 79.0967 97.4507 92.7171 84.7054 104.872C84.5745 104.995 84.4945 105.163 84.4814 105.342C78.1461 105.235 71.4588 104.979 65.4328 103.181ZM125.341 68.943C126.408 69.0821 127.474 69.2212 128.541 69.3816C129.863 69.5849 132.924 69.8738 134.769 70.8475C121.246 80.9691 109.673 93.3163 97.4401 104.904C97.3222 105.013 97.2467 105.161 97.2268 105.321C93.8138 105.396 90.4008 105.449 86.9878 105.407H86.4226C99.2745 93.0381 110.751 79.193 125.341 68.8895V68.943ZM135.164 101.394C132.144 102.403 129.021 103.067 125.853 103.374C129.885 98.8372 134.225 94.5895 138.449 90.2242C138.652 94.4932 138.342 100.207 135.164 101.341V101.394ZM115.369 104.347C110.036 104.797 104.703 105.096 99.3705 105.268C111.199 93.9369 122.472 81.9749 135.633 72.1528C135.761 72.0499 135.858 71.9126 135.911 71.7569C136.028 71.8999 136.118 72.063 136.177 72.2384C137.308 76.9682 138.001 81.7928 138.246 86.6505C138.246 87.0678 138.31 87.5814 138.353 88.1485C133.415 93.327 128.221 98.2594 123.56 103.684C120.755 103.898 117.993 104.069 115.369 104.294V104.347Z" fill="#121212"/>
<path d="M86.9561 124.698H87.7987C87.5748 121.264 87.5534 117.82 87.7347 114.384L85.8895 114.309C84.407 114.245 81.6233 113.774 78.861 113.464C78.4977 117.059 78.616 120.686 79.2129 124.249C81.794 124.452 84.3644 124.623 86.9561 124.698Z" fill="#FED359"/>
<path d="M100.779 124.698H101.568C104.586 124.559 107.583 124.377 110.591 124.131C110.547 124.033 110.522 123.928 110.516 123.821C110.407 120.489 110.05 117.17 109.45 113.892C106.357 114.159 103.253 114.362 100.149 114.448C100.501 117.829 100.747 121.253 100.779 124.698Z" fill="#FED359"/>
<path d="M89.3559 124.762C92.6408 124.826 95.9258 124.837 99.2215 124.762C99.2215 121.317 98.9442 117.893 98.6242 114.458C95.5099 114.533 92.3849 114.555 89.2705 114.458C89.0804 117.891 89.1089 121.333 89.3559 124.762V124.762Z" fill="#FED359"/>
<path d="M112.074 123.799C112.08 123.863 112.08 123.928 112.074 123.992C113.45 123.863 114.815 123.735 116.18 123.575C117.727 123.382 119.817 123.296 121.993 123.061C121.993 123.061 121.993 123.061 121.993 122.997C122.091 119.389 121.671 115.785 120.745 112.297C118.399 112.693 116.159 113.207 114.484 113.367L111.082 113.71C111.653 117.045 111.985 120.417 112.074 123.799V123.799Z" fill="#FED359"/>
<path d="M132.828 115.699C131.388 111.601 126.792 111.42 122.248 112.062C123.159 115.592 123.579 119.233 123.496 122.879C128.391 122.215 133.18 120.632 132.828 115.699Z" fill="#FED359"/>
<path d="M77.6133 124.131C77.0713 120.591 76.9674 116.997 77.304 113.432C77.2994 113.41 77.2994 113.389 77.304 113.367C74.339 113.121 71.5127 113.164 70.1795 114.181C68.764 115.09 67.6502 116.401 66.9798 117.947C66.9014 118.583 66.9375 119.228 67.0865 119.851C68.3877 122.58 74.5843 123.789 77.6133 124.131Z" fill="#FED359"/>
<path d="M101.611 126.089C110.032 125.803 118.424 124.941 126.728 123.51C131.207 122.74 134.62 120.643 134.194 115.646C134.194 115.646 134.194 115.593 134.194 115.56C134.194 115.528 134.194 115.56 134.194 115.56C134.204 115.511 134.204 115.46 134.194 115.411C133.031 111.965 130.119 109.676 126.344 110.328C117.435 111.85 108.434 112.765 99.4028 113.068H99.0295H98.0909C89.4305 113.314 80.8767 111.998 72.259 111.998C68.4194 111.998 66.329 115.839 66.2543 119.155C66.1583 123.639 71.1178 124.976 74.4881 125.286C83.5034 126.12 92.5619 126.388 101.611 126.089V126.089ZM78.861 113.485C81.666 113.795 84.407 114.266 85.8895 114.33L87.7347 114.405C87.5534 117.841 87.5748 121.285 87.7987 124.719H86.9561C84.3644 124.644 81.794 124.473 79.2129 124.291C78.6141 120.721 78.4957 117.087 78.861 113.485V113.485ZM98.6242 114.437C98.9441 117.872 99.2001 121.295 99.2214 124.741C95.9258 124.837 92.6408 124.826 89.3558 124.741C89.1116 121.333 89.0831 117.913 89.2705 114.501C92.3848 114.501 95.5098 114.501 98.6242 114.437ZM114.43 113.367C116.105 113.196 118.345 112.682 120.691 112.297C121.617 115.785 122.038 119.388 121.939 122.997C121.939 122.997 121.939 122.997 121.939 123.061C119.806 123.296 117.673 123.382 116.126 123.574C114.761 123.735 113.396 123.863 112.02 123.992C112.026 123.928 112.026 123.863 112.02 123.799C111.906 120.418 111.549 117.05 110.954 113.72L114.43 113.367ZM132.829 115.689C133.18 120.621 128.392 122.205 123.496 122.868C123.579 119.222 123.159 115.582 122.248 112.051C126.792 111.441 131.389 111.602 132.829 115.7V115.689ZM100.181 114.394C103.285 114.309 106.389 114.105 109.482 113.838C110.082 117.116 110.439 120.435 110.548 123.767C110.554 123.874 110.579 123.979 110.623 124.077C107.615 124.323 104.618 124.505 101.6 124.644H100.811C100.811 121.199 100.533 117.775 100.213 114.351L100.181 114.394ZM66.9689 117.904C67.6393 116.358 68.7531 115.047 70.1686 114.137C71.5017 113.068 74.3281 113.067 77.2931 113.324C77.2885 113.345 77.2885 113.367 77.2931 113.388C76.9565 116.954 77.0604 120.548 77.6024 124.088C74.5734 123.735 68.3767 122.526 67.0755 119.808C66.7949 119.215 66.7566 118.535 66.9689 117.914V117.904Z" fill="#121212"/>
<path d="M100.458 25.4927C105.908 23.6417 104.074 13.2846 98.1759 13.9266C94.4536 14.0549 89.3875 17.9068 91.0513 22.1544C92.6618 26.263 96.7147 26.7659 100.458 25.4927ZM98.8585 15.6278C101.397 16.3339 102.357 19.6187 101.28 21.8548C101.056 22.3256 100.373 21.919 100.586 21.459C101.44 19.6829 100.661 16.9545 98.6452 16.3981C98.5948 16.3841 98.5476 16.3602 98.5064 16.3279C98.4652 16.2955 98.4307 16.2554 98.4049 16.2097C98.3792 16.164 98.3627 16.1136 98.3563 16.0615C98.3499 16.0094 98.3539 15.9565 98.3679 15.906C98.3819 15.8554 98.4057 15.8081 98.4379 15.7667C98.4702 15.7253 98.5102 15.6908 98.5558 15.6649C98.6013 15.6391 98.6515 15.6225 98.7035 15.6161C98.7554 15.6098 98.8081 15.6137 98.8585 15.6278V15.6278Z" fill="#FED359"/>
<path d="M98.6454 16.3982C100.661 16.9546 101.44 19.683 100.586 21.4591C100.373 21.9191 101.056 22.3257 101.28 21.8549C102.346 19.6188 101.397 16.334 98.8587 15.6279C98.7568 15.5995 98.6479 15.6129 98.5559 15.665C98.4639 15.7172 98.3963 15.8039 98.3681 15.9061C98.3398 16.0082 98.3531 16.1175 98.4051 16.2098C98.4571 16.3021 98.5435 16.3698 98.6454 16.3982V16.3982Z" fill="#121212"/>
<path d="M85.3246 26.7659C85.8685 27.6326 87.287 26.8943 86.7324 26.0277C84.6633 22.8178 83.9487 18.3669 86.0925 14.9965C86.1857 14.8172 86.2079 14.6091 86.1547 14.414C86.1015 14.2189 85.9768 14.0512 85.8056 13.9443C85.6344 13.8375 85.4293 13.7994 85.2314 13.8378C85.0334 13.8762 84.8572 13.9882 84.738 14.1513C82.2636 17.9603 82.9035 23.0639 85.3246 26.7659Z" fill="#121212"/>
<path d="M78.8184 34.3093C79.469 35.1118 80.6316 34.0097 79.981 33.2394C74.8189 26.8197 76.536 15.1894 80.3756 8.55575C80.8982 7.6677 79.5437 6.81174 79.0317 7.69979C74.7869 14.9968 73.155 27.3119 78.8184 34.3093Z" fill="#121212"/>
<path d="M73.4001 39.6049C66.1048 30.1145 66.2542 14.4612 72.9521 4.54285C73.5387 3.6869 72.1842 2.84164 71.6083 3.6976C64.473 14.258 64.4944 30.6174 72.2375 40.6963C72.8668 41.5308 74.0294 40.4395 73.4001 39.6049Z" fill="#121212"/>
<path d="M108.693 25.5034C108.573 25.6765 108.526 25.8905 108.563 26.0981C108.6 26.3058 108.718 26.4902 108.89 26.6108C109.063 26.7314 109.276 26.7783 109.483 26.7412C109.69 26.7041 109.874 26.586 109.994 26.4129C112.554 22.6467 112.127 17.6073 109.898 13.7769C109.375 12.8888 107.936 13.5736 108.458 14.4616C110.389 17.7998 110.922 22.1759 108.693 25.5034Z" fill="#121212"/>
<path d="M115.412 7.50678C120.339 14.0869 118.195 25.6958 114.089 32.1155C113.545 32.9822 114.846 33.9023 115.401 33.0357C119.902 25.8884 122.024 13.6376 116.628 6.43684C116.009 5.65578 114.793 6.69362 115.412 7.50678Z" fill="#121212"/>
<path d="M121.363 36.3954C120.744 37.2193 122.056 38.1287 122.675 37.3156C130.205 27.119 130.834 10.5669 123.443 0.306173C122.845 -0.528384 121.63 0.509463 122.227 1.37612C129.181 11.0377 128.445 26.8301 121.363 36.3954Z" fill="#121212"/>
<path d="M136.017 214.231C131.129 215.316 126.183 216.12 121.203 216.638C98.5812 218.875 75.9276 216.2 53.5514 212.926C52.4848 213.075 54.4793 220.094 54.7672 221.025C54.9912 221.731 62.9797 223.475 64.0356 223.764C66.5846 224.449 69.1444 225.112 71.7361 225.637C82.7452 227.921 93.9952 228.819 105.226 228.311C118.408 227.68 131.815 225.583 144.294 221.1C148.56 219.581 148.709 213.61 149.082 209.716C148.89 211.738 138.652 213.664 136.017 214.231ZM144.795 216.906C141.31 218.057 137.745 218.947 134.129 219.57C133.617 219.656 133.404 218.875 133.916 218.8C137.531 218.172 141.095 217.281 144.582 216.135C144.683 216.107 144.792 216.12 144.884 216.173C144.976 216.225 145.044 216.312 145.072 216.414C145.101 216.516 145.087 216.625 145.035 216.717C144.983 216.81 144.897 216.877 144.795 216.906V216.906ZM131.399 217.056C135.817 216.602 140.159 215.577 144.315 214.006C144.795 213.814 144.998 214.584 144.528 214.777C140.301 216.363 135.889 217.399 131.399 217.858C130.898 217.912 130.898 217.12 131.399 217.056V217.056ZM144.4 219.196C142.054 219.624 139.825 220.49 137.489 220.929C136.988 221.014 136.774 220.244 137.276 220.148C139.622 219.731 141.841 218.853 144.187 218.425C144.688 218.286 144.902 219.078 144.4 219.174V219.196Z" fill="#FED359"/>
<path d="M131.399 217.858C135.889 217.398 140.302 216.363 144.529 214.777C144.998 214.584 144.795 213.814 144.315 214.006C140.159 215.577 135.818 216.602 131.399 217.056C130.898 217.12 130.898 217.911 131.399 217.858Z" fill="#121212"/>
<path d="M144.582 216.146C141.096 217.292 137.531 218.182 133.917 218.81C133.405 218.885 133.618 219.666 134.13 219.58C137.746 218.957 141.311 218.067 144.795 216.916C144.897 216.888 144.984 216.82 145.036 216.728C145.088 216.636 145.101 216.526 145.073 216.424C145.044 216.322 144.977 216.235 144.885 216.183C144.793 216.131 144.684 216.118 144.582 216.146Z" fill="#121212"/>
<path d="M144.187 218.404C141.841 218.831 139.622 219.709 137.276 220.126C136.775 220.222 136.988 220.993 137.489 220.907C139.825 220.468 142.054 219.602 144.401 219.174C144.902 219.078 144.689 218.286 144.187 218.404Z" fill="#121212"/>
<path d="M68.2593 167.998C68.2219 168.089 68.2184 168.191 68.2497 168.284C68.2809 168.377 68.3447 168.455 68.4293 168.505C68.5138 168.555 68.6134 168.572 68.7096 168.553C68.8058 168.535 68.8921 168.482 68.9526 168.405C72.2696 162.542 78.2956 158.776 84.6523 157.032C84.7541 157.003 84.8405 156.935 84.8925 156.843C84.9445 156.751 84.9578 156.642 84.9296 156.539C84.9013 156.437 84.8337 156.35 84.7417 156.298C84.6497 156.246 84.5408 156.233 84.4389 156.261C77.8583 158.112 71.683 161.996 68.2593 167.998Z" fill="#121212"/>
</g>
<defs>
<clipPath id="clip0_0_4095">
<rect width="200" height="309" fill="white" transform="translate(0 -0.000976562)"/>
</clipPath>
</defs>
</svg>
