<svg width="112" height="57" viewBox="0 0 112 57" fill="none" xmlns="http://www.w3.org/2000/svg">
<path d="M12.6415 24.2244L37.0007 39.6285C37.6348 40.0299 38.0078 40.5669 38.0463 41.1338C38.0847 41.7007 37.7859 42.2564 37.2086 42.6917C36.6313 43.1269 35.8172 43.4102 34.9266 43.4858C34.036 43.5614 33.1332 43.4238 32.396 43.1001L31.9072 42.8457L1.41873 23.5657C0.824661 23.1892 0.458836 22.6928 0.384988 22.1631C0.311141 21.6333 0.533949 21.1037 1.0146 20.6666L1.42537 20.3485L31.9935 1.07237C32.6288 0.66983 33.4796 0.431994 34.378 0.405722C35.2765 0.379449 36.1575 0.566643 36.8474 0.930424C37.5373 1.29421 37.9861 1.80818 38.1054 2.37106C38.2246 2.93394 38.0057 3.50489 37.4917 3.9714L37.0737 4.28949L12.6581 19.685L57.929 19.6844C71.9391 19.6844 85.3928 23.1256 95.4452 29.2804C105.498 35.4351 111.361 43.8209 111.794 52.6645L111.821 53.7641C111.82 54.3667 111.44 54.9446 110.764 55.3707C110.088 55.7968 109.173 56.0362 108.219 56.0362C107.265 56.0362 106.35 55.7968 105.676 55.3707C105.003 54.9447 104.625 54.3668 104.626 53.7642C104.64 46.1147 99.9548 38.7639 91.5559 33.2592C83.157 27.7545 71.6998 24.5253 59.596 24.2512L57.9196 24.2285L12.6415 24.229L37.0007 39.633L12.6415 24.229L12.6415 24.2244Z" fill="#CED881"/>
</svg>
