<svg width="30" height="34" viewBox="0 0 30 34" fill="none" xmlns="http://www.w3.org/2000/svg">
<mask id="path-1-inside-1_0_5984" fill="white">
<path d="M14.9617 16.7387C16.5565 16.7387 17.8549 15.4338 17.8549 13.8309C17.8549 12.228 16.5565 10.9231 14.9617 10.9231C13.3666 10.9231 12.0312 12.1908 12.0312 13.7937C12.0312 15.3969 13.3666 16.7387 14.9617 16.7387V16.7387ZM14.9617 11.6315C16.1488 11.6315 17.1131 12.6007 17.1131 13.7937C17.1131 14.9867 16.1487 15.9559 14.9617 15.9559C13.7747 15.9559 12.773 15.0239 12.773 13.7937C12.773 12.6009 13.7746 11.6315 14.9617 11.6315Z"/>
</mask>
<path d="M14.9617 16.7387C16.5565 16.7387 17.8549 15.4338 17.8549 13.8309C17.8549 12.228 16.5565 10.9231 14.9617 10.9231C13.3666 10.9231 12.0312 12.1908 12.0312 13.7937C12.0312 15.3969 13.3666 16.7387 14.9617 16.7387V16.7387ZM14.9617 11.6315C16.1488 11.6315 17.1131 12.6007 17.1131 13.7937C17.1131 14.9867 16.1487 15.9559 14.9617 15.9559C13.7747 15.9559 12.773 15.0239 12.773 13.7937C12.773 12.6009 13.7746 11.6315 14.9617 11.6315Z" fill="#121212"/>
<path d="M14.9617 16.7387H9.9617V21.7387H14.9617V16.7387ZM14.9617 16.7387H19.9617V11.7387H14.9617V16.7387ZM14.9617 21.7387C19.3417 21.7387 22.8549 18.1715 22.8549 13.8309H12.8549C12.8549 12.6961 13.7714 11.7387 14.9617 11.7387V21.7387ZM22.8549 13.8309C22.8549 9.49033 19.3417 5.9231 14.9617 5.9231V15.9231C13.7714 15.9231 12.8549 14.9657 12.8549 13.8309H22.8549ZM14.9617 5.9231C10.7492 5.9231 7.03125 9.28747 7.03125 13.7937H17.0312C17.0312 15.0941 15.9839 15.9231 14.9617 15.9231V5.9231ZM7.03125 13.7937C7.03125 18.1351 10.5821 21.7387 14.9617 21.7387V11.7387C16.1511 11.7387 17.0312 12.6586 17.0312 13.7937H7.03125ZM9.9617 16.7387V16.7387H19.9617V16.7387H9.9617ZM14.9617 16.6315C13.3636 16.6315 12.1131 15.3383 12.1131 13.7937H22.1131C22.1131 9.8631 18.934 6.63147 14.9617 6.63147V16.6315ZM12.1131 13.7937C12.1131 12.249 13.3636 10.9559 14.9617 10.9559V20.9559C18.9338 20.9559 22.1131 17.7244 22.1131 13.7937H12.1131ZM14.9617 10.9559C16.3909 10.9559 17.773 12.1195 17.773 13.7937H7.77304C7.77304 17.9284 11.1585 20.9559 14.9617 20.9559V10.9559ZM17.773 13.7937C17.773 15.4493 16.4482 16.6315 14.9617 16.6315V6.63147C11.101 6.63147 7.77304 9.75247 7.77304 13.7937H17.773Z" fill="black" mask="url(#path-1-inside-1_0_5984)"/>
<mask id="path-3-inside-2_0_5984" fill="white">
<path d="M15.0003 17.4468C13.0344 17.4468 11.4023 19.0499 11.4023 21.0634V22.7411C11.4023 22.9648 11.5506 23.1141 11.7734 23.1141H18.1904C18.4129 23.1141 18.5614 22.965 18.5614 22.7411V21.0634C18.5614 20.094 18.1904 19.1992 17.5228 18.5282C16.855 17.8197 15.9647 17.4468 15.0004 17.4468H15.0003ZM17.8566 22.3685H12.1441V21.0634C12.1441 19.4974 13.4052 18.1924 15.0003 18.1924C15.7794 18.1924 16.4839 18.4907 17.0032 19.0127C17.5225 19.5346 17.8193 20.2803 17.8193 21.0259V22.3684L17.8566 22.3685Z"/>
</mask>
<path d="M15.0003 17.4468C13.0344 17.4468 11.4023 19.0499 11.4023 21.0634V22.7411C11.4023 22.9648 11.5506 23.1141 11.7734 23.1141H18.1904C18.4129 23.1141 18.5614 22.965 18.5614 22.7411V21.0634C18.5614 20.094 18.1904 19.1992 17.5228 18.5282C16.855 17.8197 15.9647 17.4468 15.0004 17.4468H15.0003ZM17.8566 22.3685H12.1441V21.0634C12.1441 19.4974 13.4052 18.1924 15.0003 18.1924C15.7794 18.1924 16.4839 18.4907 17.0032 19.0127C17.5225 19.5346 17.8193 20.2803 17.8193 21.0259V22.3684L17.8566 22.3685Z" fill="#121212"/>
<path d="M17.5228 18.5282L13.8844 21.9577L13.9307 22.0068L13.9782 22.0546L17.5228 18.5282ZM17.8566 22.3685V27.3685L17.8655 17.3685L17.8566 22.3685ZM12.1441 22.3685H7.14413V27.3685H12.1441V22.3685ZM17.0032 19.0127L20.5479 15.4863L20.5478 15.4861L17.0032 19.0127ZM17.8193 22.3684H12.8193V27.3594L17.8103 27.3684L17.8193 22.3684ZM15.0003 12.4468C10.2824 12.4468 6.40234 16.2791 6.40234 21.0634H16.4023C16.4023 21.8207 15.7865 22.4468 15.0003 22.4468V12.4468ZM6.40234 21.0634V22.7411H16.4023V21.0634H6.40234ZM6.40234 22.7411C6.40234 23.9805 6.83413 25.4059 7.9588 26.537C9.08614 27.6707 10.5177 28.1141 11.7734 28.1141V18.1141C12.8062 18.1141 14.0523 18.4828 15.0498 19.4859C16.0447 20.4864 16.4023 21.7254 16.4023 22.7411H6.40234ZM11.7734 28.1141H18.1904V18.1141H11.7734V28.1141ZM18.1904 28.1141C19.4446 28.1141 20.8756 27.6716 22.0031 26.5389C23.1287 25.408 23.5614 23.9818 23.5614 22.7411H13.5614C13.5614 21.7243 13.9198 20.4847 14.9156 19.4843C15.9132 18.482 17.1586 18.1141 18.1904 18.1141V28.1141ZM23.5614 22.7411V21.0634H13.5614V22.7411H23.5614ZM23.5614 21.0634C23.5614 18.7833 22.6747 16.6173 21.0674 15.0017L13.9782 22.0546C13.706 21.781 13.5614 21.4048 13.5614 21.0634H23.5614ZM21.1612 15.0986C19.5257 13.3635 17.3082 12.4468 15.0004 12.4468V22.4468C14.8328 22.4468 14.6274 22.4131 14.4126 22.3216C14.1963 22.2294 14.0166 22.098 13.8844 21.9577L21.1612 15.0986ZM15.0004 12.4468H15.0003V22.4468H15.0004V12.4468ZM17.8566 17.3685H12.1441V27.3685H17.8566V17.3685ZM17.1441 22.3685V21.0634H7.14413V22.3685H17.1441ZM17.1441 21.0634C17.1441 22.1919 16.2331 23.1924 15.0003 23.1924V13.1924C10.5773 13.1924 7.14413 16.803 7.14413 21.0634H17.1441ZM15.0003 23.1924C14.4647 23.1924 13.8889 22.9715 13.4587 22.5392L20.5478 15.4861C19.079 14.0099 17.0942 13.1924 15.0003 13.1924V23.1924ZM13.4586 22.5391C13.0054 22.0835 12.8193 21.5435 12.8193 21.0259H22.8193C22.8193 19.017 22.0396 16.9857 20.5479 15.4863L13.4586 22.5391ZM12.8193 21.0259V22.3684H22.8193V21.0259H12.8193ZM17.8103 27.3684L17.8476 27.3685L17.8655 17.3685L17.8283 17.3684L17.8103 27.3684Z" fill="black" mask="url(#path-3-inside-2_0_5984)"/>
<mask id="path-5-inside-3_0_5984" fill="white">
<path d="M29.911 23.4493C29.7254 22.7037 29.2434 22.07 28.5756 21.6971C28.2788 21.5107 27.9451 21.3988 27.6113 21.3242L27.611 12.5262C27.9448 12.4516 28.2416 12.3397 28.5383 12.1907C29.9107 11.3706 30.3187 9.58122 29.5027 8.23915C29.0946 7.56824 28.4641 7.12069 27.7223 6.93422C26.9805 6.74776 26.2014 6.85959 25.5339 7.26968C25.1258 7.53077 24.7921 7.86622 24.5695 8.23889L17.7445 3.69076C17.8187 3.42968 17.8557 3.13167 17.8557 2.87061C17.8557 1.26771 16.5573 0 14.9995 0C13.4417 0 12.1433 1.30492 12.1433 2.87061C12.1433 3.20606 12.1803 3.50433 12.2916 3.8026L5.16975 8.0899C4.94723 7.79163 4.65046 7.53081 4.31668 7.34437C2.94431 6.52422 1.20095 7.00892 0.384913 8.35099C0.0138793 9.02189 -0.097373 9.8049 0.0881372 10.5504C0.273654 11.296 0.755675 11.9297 1.42348 12.3026C1.72025 12.489 2.05402 12.6008 2.42505 12.6755L2.42479 21.4735C2.09101 21.5481 1.79425 21.6599 1.49747 21.8464C0.125104 22.6666 -0.282917 24.4559 0.533124 25.798C0.941158 26.4689 1.57172 26.9164 2.31351 27.1029C2.53603 27.1775 2.7958 27.1775 3.01834 27.1775C3.53763 27.1775 4.05694 27.0285 4.50192 26.7675C4.72444 26.6556 4.90995 26.4692 5.0582 26.3202L12.3655 30.2346C12.2542 30.5329 12.2172 30.8311 12.2172 31.1294C12.2172 32.7323 13.5156 34 15.0734 34C16.6313 34 17.9296 32.6951 17.9296 31.1294C17.9296 30.8311 17.8926 30.4957 17.7814 30.2346L25.237 26.283C25.3853 26.432 25.5338 26.5441 25.7193 26.6559C26.1644 26.917 26.6837 27.066 27.1659 27.066C28.1675 27.066 29.0948 26.5441 29.6512 25.6493C29.9847 24.9779 30.0962 24.1949 29.9107 23.4494L29.911 23.4493ZM24.7178 22.5919L21.8246 20.989C22.4921 19.7959 22.9002 18.4541 22.9002 16.9999C22.9002 15.546 22.4921 14.1667 21.8246 13.0109L24.7178 11.408C25.2371 12.1164 26.0162 12.5264 26.8323 12.6011V21.3245C26.684 21.3245 26.5355 21.3617 26.35 21.3991C25.7194 21.5481 25.1259 21.9954 24.7178 22.592L24.7178 22.5919ZM14.9995 24.1948C11.0678 24.1948 7.84062 20.9515 7.84062 16.9998C7.84062 13.0481 11.0676 9.80481 14.9995 9.80481C18.9314 9.80481 22.1955 13.0481 22.1955 16.9998C22.1955 20.9889 18.9685 24.1948 14.9995 24.1948ZM5.24413 22.5919C4.72484 21.8835 3.94575 21.4734 3.12971 21.3988L3.12996 12.6753C3.27822 12.6753 3.42674 12.6382 3.575 12.6007C4.27983 12.4143 4.83609 12.0042 5.24411 11.4076L8.1743 13.0105C7.50677 14.1661 7.09875 15.5454 7.09875 16.9996C7.09875 18.4535 7.50678 19.7956 8.1743 20.9887L5.24413 22.5919ZM25.979 7.8664C26.3128 7.67994 26.6838 7.56812 27.0545 7.56812C27.2401 7.56812 27.3883 7.60531 27.5738 7.64276C28.1301 7.79176 28.5754 8.12747 28.8722 8.61196C29.4658 9.61858 29.169 10.9232 28.1304 11.5569C27.2401 12.1163 26.053 11.8552 25.3855 11.035L27.2401 10.0284C27.4256 9.91659 27.4999 9.69295 27.3884 9.5065C27.2771 9.32005 27.0546 9.24542 26.8691 9.3575L25.0145 10.3641C24.7177 9.46934 25.0887 8.38829 25.979 7.86638L25.979 7.8664ZM24.2726 8.87301C24.2726 8.87301 24.3096 8.87301 24.3468 8.9102C24.1613 9.50674 24.1986 10.1776 24.4211 10.7742L21.4536 12.3771C20.0812 10.4759 17.8926 9.20817 15.4074 9.0964V5.74136C16.2977 5.62954 17.0396 5.10764 17.4846 4.39929L24.2726 8.87301ZM14.9994 0.708754C16.1865 0.708754 17.1138 1.67796 17.1138 2.83383C17.1138 3.87766 16.3347 4.77244 15.3705 4.92143V2.83383C15.3705 2.61019 15.2222 2.46093 14.9994 2.46093C14.7769 2.46093 14.6284 2.60993 14.6284 2.83383V4.92143C13.6268 4.73498 12.885 3.8776 12.885 2.83383C12.885 1.67796 13.8123 0.708754 14.9994 0.708754H14.9994ZM12.6255 4.43673C13.0705 5.10763 13.8126 5.59233 14.6283 5.70417V9.05921C12.1431 9.17103 9.95471 10.4759 8.58215 12.3771L5.5777 10.7367C5.76321 10.2148 5.76321 9.65576 5.65196 9.09636C5.61496 8.98454 5.5777 8.87272 5.5407 8.7609L12.6255 4.43673ZM0.829954 10.3641C0.681695 9.80505 0.755695 9.24568 1.05247 8.76124C1.4605 8.09034 2.16532 7.71741 2.90711 7.71741C3.27814 7.71741 3.6489 7.82923 3.98267 8.01568C4.46495 8.31395 4.83574 8.76121 4.94701 9.3206C5.05827 9.69351 5.02127 10.0661 4.94701 10.4016L3.1294 9.39496C2.94388 9.28314 2.72137 9.35778 2.61012 9.54397C2.49886 9.73042 2.57312 9.95406 2.75837 10.0659L4.61301 11.0725C4.31624 11.4826 3.90818 11.7809 3.42591 11.8926C2.86963 12.0417 2.31306 11.9673 1.83105 11.669C1.31229 11.3707 0.94149 10.9232 0.830013 10.3641L0.829954 10.3641ZM4.01993 26.1335C3.53765 26.4317 2.94437 26.5064 2.42508 26.3945C1.86879 26.2455 1.4235 25.9098 1.1267 25.4253C0.533152 24.4187 0.829921 23.1141 1.86849 22.4804C2.7958 21.9213 3.98291 22.1449 4.61342 22.9651L2.75878 23.9717C2.57326 24.0835 2.499 24.3072 2.61052 24.4936C2.68478 24.6054 2.79604 24.6801 2.94429 24.6801C3.01855 24.6801 3.05555 24.6801 3.12981 24.6429L4.98445 23.6363C5.28123 24.5306 4.91019 25.5743 4.01991 26.1335L4.01993 26.1335ZM5.42952 25.7234C5.83756 24.9778 5.91181 24.083 5.61504 23.2628L8.58253 21.6225C9.9549 23.5237 12.1436 24.8285 14.6287 24.9404V28.2954C13.7757 28.4072 13.0339 28.8919 12.5885 29.5629L5.42952 25.7234ZM14.9995 33.2912C13.8124 33.2912 12.885 32.3219 12.885 31.1661C12.885 30.1222 13.6641 29.2275 14.6284 29.0785V31.1661C14.6284 31.3897 14.7767 31.539 14.9994 31.539C15.222 31.539 15.3705 31.39 15.3705 31.1661V29.0785C16.372 29.2649 17.1138 30.1223 17.1138 31.1661C17.1138 32.3219 16.1865 33.2912 14.9994 33.2912H14.9995ZM15.3705 28.2957V24.9407C17.8557 24.8289 20.0441 23.5614 21.4167 21.66L24.3842 23.3004C24.1987 23.8223 24.1987 24.3814 24.3099 24.9408C24.3842 25.239 24.4954 25.4999 24.6437 25.7609L17.4106 29.5633C16.9656 28.8923 16.2238 28.4076 15.3707 28.2958L15.3705 28.2957ZM28.9464 25.2761C28.3529 26.2828 27.0548 26.6182 26.0163 26.0217C25.534 25.7234 25.1632 25.2761 25.0519 24.7168C24.9406 24.3438 24.9776 23.9712 25.0519 23.6358L26.8695 24.6424C26.9438 24.6796 26.9808 24.6796 27.055 24.6796C27.2033 24.6796 27.3148 24.6049 27.3888 24.4931C27.5001 24.3067 27.4258 24.083 27.2406 23.9712L25.3856 22.9649C25.6824 22.5548 26.0905 22.2565 26.5728 22.1075C26.7583 22.0703 26.9438 22.0329 27.092 22.0329C27.4631 22.0329 27.8338 22.1447 28.1676 22.3311C28.6499 22.6294 29.0207 23.0767 29.1319 23.6361C29.3175 24.1949 29.2432 24.7543 28.9464 25.2762L28.9464 25.2761Z"/>
</mask>
<path d="M29.911 23.4493C29.7254 22.7037 29.2434 22.07 28.5756 21.6971C28.2788 21.5107 27.9451 21.3988 27.6113 21.3242L27.611 12.5262C27.9448 12.4516 28.2416 12.3397 28.5383 12.1907C29.9107 11.3706 30.3187 9.58122 29.5027 8.23915C29.0946 7.56824 28.4641 7.12069 27.7223 6.93422C26.9805 6.74776 26.2014 6.85959 25.5339 7.26968C25.1258 7.53077 24.7921 7.86622 24.5695 8.23889L17.7445 3.69076C17.8187 3.42968 17.8557 3.13167 17.8557 2.87061C17.8557 1.26771 16.5573 0 14.9995 0C13.4417 0 12.1433 1.30492 12.1433 2.87061C12.1433 3.20606 12.1803 3.50433 12.2916 3.8026L5.16975 8.0899C4.94723 7.79163 4.65046 7.53081 4.31668 7.34437C2.94431 6.52422 1.20095 7.00892 0.384913 8.35099C0.0138793 9.02189 -0.097373 9.8049 0.0881372 10.5504C0.273654 11.296 0.755675 11.9297 1.42348 12.3026C1.72025 12.489 2.05402 12.6008 2.42505 12.6755L2.42479 21.4735C2.09101 21.5481 1.79425 21.6599 1.49747 21.8464C0.125104 22.6666 -0.282917 24.4559 0.533124 25.798C0.941158 26.4689 1.57172 26.9164 2.31351 27.1029C2.53603 27.1775 2.7958 27.1775 3.01834 27.1775C3.53763 27.1775 4.05694 27.0285 4.50192 26.7675C4.72444 26.6556 4.90995 26.4692 5.0582 26.3202L12.3655 30.2346C12.2542 30.5329 12.2172 30.8311 12.2172 31.1294C12.2172 32.7323 13.5156 34 15.0734 34C16.6313 34 17.9296 32.6951 17.9296 31.1294C17.9296 30.8311 17.8926 30.4957 17.7814 30.2346L25.237 26.283C25.3853 26.432 25.5338 26.5441 25.7193 26.6559C26.1644 26.917 26.6837 27.066 27.1659 27.066C28.1675 27.066 29.0948 26.5441 29.6512 25.6493C29.9847 24.9779 30.0962 24.1949 29.9107 23.4494L29.911 23.4493ZM24.7178 22.5919L21.8246 20.989C22.4921 19.7959 22.9002 18.4541 22.9002 16.9999C22.9002 15.546 22.4921 14.1667 21.8246 13.0109L24.7178 11.408C25.2371 12.1164 26.0162 12.5264 26.8323 12.6011V21.3245C26.684 21.3245 26.5355 21.3617 26.35 21.3991C25.7194 21.5481 25.1259 21.9954 24.7178 22.592L24.7178 22.5919ZM14.9995 24.1948C11.0678 24.1948 7.84062 20.9515 7.84062 16.9998C7.84062 13.0481 11.0676 9.80481 14.9995 9.80481C18.9314 9.80481 22.1955 13.0481 22.1955 16.9998C22.1955 20.9889 18.9685 24.1948 14.9995 24.1948ZM5.24413 22.5919C4.72484 21.8835 3.94575 21.4734 3.12971 21.3988L3.12996 12.6753C3.27822 12.6753 3.42674 12.6382 3.575 12.6007C4.27983 12.4143 4.83609 12.0042 5.24411 11.4076L8.1743 13.0105C7.50677 14.1661 7.09875 15.5454 7.09875 16.9996C7.09875 18.4535 7.50678 19.7956 8.1743 20.9887L5.24413 22.5919ZM25.979 7.8664C26.3128 7.67994 26.6838 7.56812 27.0545 7.56812C27.2401 7.56812 27.3883 7.60531 27.5738 7.64276C28.1301 7.79176 28.5754 8.12747 28.8722 8.61196C29.4658 9.61858 29.169 10.9232 28.1304 11.5569C27.2401 12.1163 26.053 11.8552 25.3855 11.035L27.2401 10.0284C27.4256 9.91659 27.4999 9.69295 27.3884 9.5065C27.2771 9.32005 27.0546 9.24542 26.8691 9.3575L25.0145 10.3641C24.7177 9.46934 25.0887 8.38829 25.979 7.86638L25.979 7.8664ZM24.2726 8.87301C24.2726 8.87301 24.3096 8.87301 24.3468 8.9102C24.1613 9.50674 24.1986 10.1776 24.4211 10.7742L21.4536 12.3771C20.0812 10.4759 17.8926 9.20817 15.4074 9.0964V5.74136C16.2977 5.62954 17.0396 5.10764 17.4846 4.39929L24.2726 8.87301ZM14.9994 0.708754C16.1865 0.708754 17.1138 1.67796 17.1138 2.83383C17.1138 3.87766 16.3347 4.77244 15.3705 4.92143V2.83383C15.3705 2.61019 15.2222 2.46093 14.9994 2.46093C14.7769 2.46093 14.6284 2.60993 14.6284 2.83383V4.92143C13.6268 4.73498 12.885 3.8776 12.885 2.83383C12.885 1.67796 13.8123 0.708754 14.9994 0.708754H14.9994ZM12.6255 4.43673C13.0705 5.10763 13.8126 5.59233 14.6283 5.70417V9.05921C12.1431 9.17103 9.95471 10.4759 8.58215 12.3771L5.5777 10.7367C5.76321 10.2148 5.76321 9.65576 5.65196 9.09636C5.61496 8.98454 5.5777 8.87272 5.5407 8.7609L12.6255 4.43673ZM0.829954 10.3641C0.681695 9.80505 0.755695 9.24568 1.05247 8.76124C1.4605 8.09034 2.16532 7.71741 2.90711 7.71741C3.27814 7.71741 3.6489 7.82923 3.98267 8.01568C4.46495 8.31395 4.83574 8.76121 4.94701 9.3206C5.05827 9.69351 5.02127 10.0661 4.94701 10.4016L3.1294 9.39496C2.94388 9.28314 2.72137 9.35778 2.61012 9.54397C2.49886 9.73042 2.57312 9.95406 2.75837 10.0659L4.61301 11.0725C4.31624 11.4826 3.90818 11.7809 3.42591 11.8926C2.86963 12.0417 2.31306 11.9673 1.83105 11.669C1.31229 11.3707 0.94149 10.9232 0.830013 10.3641L0.829954 10.3641ZM4.01993 26.1335C3.53765 26.4317 2.94437 26.5064 2.42508 26.3945C1.86879 26.2455 1.4235 25.9098 1.1267 25.4253C0.533152 24.4187 0.829921 23.1141 1.86849 22.4804C2.7958 21.9213 3.98291 22.1449 4.61342 22.9651L2.75878 23.9717C2.57326 24.0835 2.499 24.3072 2.61052 24.4936C2.68478 24.6054 2.79604 24.6801 2.94429 24.6801C3.01855 24.6801 3.05555 24.6801 3.12981 24.6429L4.98445 23.6363C5.28123 24.5306 4.91019 25.5743 4.01991 26.1335L4.01993 26.1335ZM5.42952 25.7234C5.83756 24.9778 5.91181 24.083 5.61504 23.2628L8.58253 21.6225C9.9549 23.5237 12.1436 24.8285 14.6287 24.9404V28.2954C13.7757 28.4072 13.0339 28.8919 12.5885 29.5629L5.42952 25.7234ZM14.9995 33.2912C13.8124 33.2912 12.885 32.3219 12.885 31.1661C12.885 30.1222 13.6641 29.2275 14.6284 29.0785V31.1661C14.6284 31.3897 14.7767 31.539 14.9994 31.539C15.222 31.539 15.3705 31.39 15.3705 31.1661V29.0785C16.372 29.2649 17.1138 30.1223 17.1138 31.1661C17.1138 32.3219 16.1865 33.2912 14.9994 33.2912H14.9995ZM15.3705 28.2957V24.9407C17.8557 24.8289 20.0441 23.5614 21.4167 21.66L24.3842 23.3004C24.1987 23.8223 24.1987 24.3814 24.3099 24.9408C24.3842 25.239 24.4954 25.4999 24.6437 25.7609L17.4106 29.5633C16.9656 28.8923 16.2238 28.4076 15.3707 28.2958L15.3705 28.2957ZM28.9464 25.2761C28.3529 26.2828 27.0548 26.6182 26.0163 26.0217C25.534 25.7234 25.1632 25.2761 25.0519 24.7168C24.9406 24.3438 24.9776 23.9712 25.0519 23.6358L26.8695 24.6424C26.9438 24.6796 26.9808 24.6796 27.055 24.6796C27.2033 24.6796 27.3148 24.6049 27.3888 24.4931C27.5001 24.3067 27.4258 24.083 27.2406 23.9712L25.3856 22.9649C25.6824 22.5548 26.0905 22.2565 26.5728 22.1075C26.7583 22.0703 26.9438 22.0329 27.092 22.0329C27.4631 22.0329 27.8338 22.1447 28.1676 22.3311C28.6499 22.6294 29.0207 23.0767 29.1319 23.6361C29.3175 24.1949 29.2432 24.7543 28.9464 25.2762L28.9464 25.2761Z" fill="#121212" stroke="black" stroke-width="10" mask="url(#path-5-inside-3_0_5984)"/>
</svg>
