<svg width="30" height="32" viewBox="0 0 30 32" fill="none" xmlns="http://www.w3.org/2000/svg">
<path d="M30 19.8974C30 18.3177 28.7224 17.0404 27.1423 17.0404C26.806 17.0404 26.47 17.1077 26.1675 17.242C25.8312 16.8388 25.4279 16.4018 25.0245 15.9985C25.4616 15.5615 25.865 15.0909 26.2348 14.6542C28.3864 11.9991 29.0587 9.64618 28.1174 7.99933C26.9744 6.01638 23.7807 5.61287 19.6791 6.62125C18.5021 2.55427 16.5524 0 14.2662 0C13.7282 0 13.2241 0.1681 12.7196 0.437007C12.2825 0.168094 11.7783 0 11.2403 0C9.66026 0 8.38263 1.27725 8.38263 2.857C8.38263 3.73081 8.78598 4.50397 9.42475 5.04156C9.22307 5.54562 9.05493 6.04993 8.8868 6.62125C4.78531 5.61287 1.59154 6.01638 0.448499 7.99933C-0.526083 9.61257 0.146219 11.9652 2.29783 14.6206C2.66765 15.0576 3.071 15.5281 3.5081 15.9649C3.07099 16.4019 2.66763 16.8724 2.29783 17.3092C0.146231 19.9643 -0.526083 22.3172 0.415241 23.964C0.68422 24.4346 1.08756 24.8043 1.55822 25.0732V25.1405C1.55822 26.7201 2.83579 27.9975 4.41593 27.9975C5.82791 27.9975 7.00463 26.9891 7.20628 25.6448C7.74423 25.544 8.2822 25.4432 8.85366 25.3086C10.0304 29.3756 11.9466 31.9298 14.2663 31.9298C16.5522 31.9298 18.5022 29.3755 19.6789 25.3086C21.1244 25.6783 22.4357 25.8464 23.6123 25.8464C25.7639 25.8464 27.3775 25.2078 28.1171 23.9305C28.3861 23.46 28.5205 22.9559 28.5205 22.3843C29.3945 21.914 29.9998 20.9729 29.9998 19.8973L30 19.8974ZM28.487 19.8974C28.487 20.6368 27.882 21.2417 27.1423 21.2417C26.4027 21.2417 25.7977 20.6368 25.7977 19.8974C25.7977 19.158 26.4027 18.5531 27.1423 18.5531C27.882 18.5531 28.487 19.158 28.487 19.8974ZM26.806 8.73874C27.4111 9.7806 26.7387 11.6292 25.0578 13.6795C24.7215 14.0827 24.3517 14.4862 23.9484 14.923C22.9736 14.0154 21.8641 13.1416 20.6874 12.2679C20.553 10.789 20.3511 9.37739 20.0486 8.10014C23.5115 7.25988 26.0663 7.49503 26.8059 8.7388L26.806 8.73874ZM16.7877 20.3679C15.9136 20.872 15.0732 21.309 14.2327 21.7122C13.3922 21.309 12.5518 20.872 11.7113 20.3679C10.8708 19.8974 10.0639 19.3596 9.29075 18.8555C9.22345 17.948 9.18992 16.9734 9.18992 15.9985C9.18992 14.9901 9.22345 14.0491 9.29075 13.1415C10.0639 12.6037 10.8708 12.0997 11.7113 11.6291C12.5853 11.125 13.4258 10.688 14.2327 10.2848C15.0732 10.6881 15.9136 11.1251 16.7541 11.6291C17.5946 12.0996 18.4015 12.6375 19.1747 13.1415C19.242 14.0491 19.2755 15.0236 19.2755 15.9985C19.2755 16.9731 19.242 17.9479 19.1747 18.8555C18.4685 19.3596 17.6616 19.8639 16.7876 20.3679H16.7877ZM19.0401 20.7712C18.9057 21.7123 18.7711 22.586 18.5695 23.4263C17.7626 23.1574 16.9221 22.8549 16.0481 22.5187C16.5523 22.2498 17.0567 21.9809 17.5609 21.6785C18.0653 21.3763 18.5359 21.0739 19.0401 20.7712H19.0401ZM12.4845 22.4854C11.6104 22.8552 10.77 23.1576 9.92951 23.393C9.76137 22.5527 9.59323 21.6789 9.45886 20.7379C9.92951 21.0403 10.4337 21.3427 10.9381 21.6454C11.4759 21.9476 11.9803 22.2165 12.4845 22.4854H12.4845ZM7.71062 17.679C6.971 17.1077 6.26513 16.5363 5.65987 15.965C6.29869 15.3936 6.971 14.7885 7.71062 14.2509C7.67708 14.8222 7.67708 15.3936 7.67708 15.965C7.67708 16.5363 7.71062 17.1414 7.71062 17.679ZM9.49241 11.1586C9.62678 10.2175 9.76139 9.34377 9.96306 8.50351C10.77 8.77243 11.6104 9.07486 12.4845 9.41105C11.9803 9.67997 11.4758 9.94887 10.9717 10.2513C10.4673 10.5535 9.96306 10.8559 9.49239 11.1586H9.49241ZM16.0481 9.44436C16.9221 9.07464 17.7625 8.77221 18.5695 8.53682C18.7711 9.37708 18.9057 10.2509 19.0401 11.1919C18.5695 10.8895 18.0653 10.5871 17.5608 10.2844C17.0566 9.98218 16.5524 9.71327 16.048 9.44436H16.0481ZM20.8219 14.2508C21.5615 14.8221 22.2674 15.3935 22.8727 15.9648C22.2338 16.5362 21.5615 17.1413 20.8219 17.6789C20.8554 17.1076 20.8554 16.5362 20.8554 15.9648C20.8557 15.3935 20.8219 14.7884 20.8219 14.2508ZM11.2406 1.51243C11.9802 1.51243 12.5852 2.1173 12.5852 2.85673C12.5852 3.59616 11.9802 4.20102 11.2406 4.20102C10.501 4.20102 9.89595 3.59616 9.89595 2.85673C9.89572 2.11754 10.4672 1.51243 11.2406 1.51243ZM10.8035 5.68018C10.9378 5.71371 11.0724 5.71371 11.2406 5.71371C12.8207 5.71371 14.0983 4.43645 14.0983 2.8567C14.0983 2.4197 13.9975 1.98289 13.7958 1.61318C13.9639 1.54589 14.1321 1.51236 14.3 1.51236C15.7119 1.51236 17.2247 3.59615 18.2333 7.02447C16.9895 7.42772 15.6784 7.93201 14.3 8.57067C12.9553 7.93201 11.6104 7.42797 10.3666 7.02447C10.4672 6.55394 10.6353 6.08338 10.8035 5.68017L10.8035 5.68018ZM1.72641 8.73878C2.43253 7.52881 4.98743 7.25987 8.48377 8.10013C8.18126 9.37738 7.97959 10.789 7.84496 12.2679C6.63468 13.1081 5.55901 14.0157 4.58394 14.923C4.18059 14.5197 3.81077 14.0827 3.47452 13.6795C1.79383 11.5954 1.15501 9.74686 1.72653 8.73872L1.72641 8.73878ZM4.41597 26.4851C3.67636 26.4851 3.07134 25.8802 3.07134 25.1408C3.07134 24.4013 3.67636 23.7965 4.41597 23.7965C5.15558 23.7965 5.7606 24.4013 5.7606 25.1408C5.7606 25.88 5.15558 26.4851 4.41597 26.4851ZM7.07173 24.1322C6.66837 23.0565 5.62624 22.3173 4.41597 22.3173C3.44115 22.3173 2.56688 22.8214 2.02892 23.5946C1.89455 23.4938 1.79348 23.3592 1.72641 23.2249C1.12139 22.183 1.79371 20.3344 3.47464 18.2841C3.81092 17.8809 4.18075 17.4774 4.58406 17.0406C5.55888 17.9481 6.66836 18.822 7.84507 19.6957C7.97944 21.1746 8.18135 22.5862 8.48389 23.8634C8.013 23.9643 7.54232 24.0313 7.07172 24.1321L7.07173 24.1322ZM14.2661 30.4173C12.8541 30.4173 11.3414 28.3335 10.3327 24.8717C11.5766 24.4685 12.8877 23.9642 14.2661 23.3255C15.6108 23.9642 16.9557 24.4682 18.1995 24.8379C17.1909 28.3333 15.6781 30.4173 14.2661 30.4173ZM20.0485 23.8297C20.3511 22.5524 20.5527 21.1408 20.6874 19.6619C21.8976 18.8217 22.9733 17.9141 23.9484 17.0068C24.2847 17.3765 24.6207 17.7462 24.9232 18.0825C24.5198 18.5865 24.2844 19.1916 24.2844 19.8638C24.2844 21.3762 25.4612 22.5862 26.9401 22.687C26.9066 22.8551 26.8728 23.0232 26.772 23.1576C26.0661 24.4348 23.5112 24.67 20.0483 23.8297L20.0485 23.8297Z" fill="#121212"/>
</svg>
