<svg width="36" height="26" viewBox="0 0 36 26" fill="none" xmlns="http://www.w3.org/2000/svg">
<path fill-rule="evenodd" clip-rule="evenodd" d="M18.1139 0.105573C17.8324 -0.0351909 17.501 -0.0351909 17.2195 0.105573L0.552786 8.43891C0.214002 8.6083 0 8.95456 0 9.33333C0 9.71211 0.214002 10.0584 0.552786 10.2278L6.66797 13.2854V20.9999C6.66797 21.2651 6.77333 21.5194 6.96086 21.707C9.69084 24.4369 13.7195 25.7499 17.668 25.7499C21.6164 25.7499 25.6451 24.4369 28.3751 21.707C28.5626 21.5194 28.668 21.2651 28.668 20.9999V13.2841L33.3333 10.9514V19.3333C33.3333 19.8856 33.7811 20.3333 34.3333 20.3333C34.8856 20.3333 35.3333 19.8856 35.3333 19.3333V9.33333C35.3333 8.93412 35.0994 8.58955 34.7612 8.42921L18.1139 0.105573ZM26.668 14.2841L18.1139 18.5611C17.8324 18.7019 17.501 18.7019 17.2195 18.5611L8.66797 14.2854V20.5736C10.9374 22.6606 14.2659 23.7499 17.668 23.7499C21.07 23.7499 24.3985 22.6606 26.668 20.5736V14.2841ZM8.15249 11.7915L17.6667 16.5486L32.0973 9.33333L17.6667 2.11803L3.23607 9.33333L8.07589 11.7532C8.10203 11.7649 8.12759 11.7777 8.15249 11.7915Z" fill="black"/>
</svg>
