<svg width="20" height="20" viewBox="0 0 20 20" fill="none" xmlns="http://www.w3.org/2000/svg">
<path d="M10 0C4.47721 0 0 4.47721 0 10C0 15.5228 4.47721 20 10 20C15.5228 20 20 15.5228 20 10C20 4.47721 15.5228 0 10 0ZM12.938 5.73187C12.4627 5.73187 11.9843 5.73187 11.5092 5.73187C11.2084 5.7124 10.8982 5.94196 10.8432 6.2427C10.8367 6.76326 10.84 7.28362 10.84 7.80419C11.5382 7.80743 12.2366 7.80419 12.935 7.80743C12.8833 8.56059 12.7896 9.31072 12.6797 10.0543C12.0622 10.0608 11.4447 10.0543 10.8272 10.0576C10.8207 12.2786 10.8304 14.4963 10.8239 16.7174C9.9057 16.7207 8.99091 16.7142 8.07268 16.7207C8.05646 14.4997 8.07268 12.2788 8.06295 10.0576C7.61681 10.0543 7.16742 10.0608 6.72128 10.0543C6.72453 9.30747 6.72128 8.5608 6.72128 7.81716C7.16742 7.81067 7.61681 7.81716 8.06295 7.81392C8.07592 7.08976 8.04997 6.36235 8.07592 5.63818C8.12439 5.05942 8.34097 4.48086 8.77109 4.08318C9.29165 3.58858 10.0286 3.42047 10.727 3.401C11.4641 3.39451 12.2013 3.39775 12.9382 3.39775C12.9413 4.17687 12.9413 4.95275 12.938 5.73187Z" fill="#FFB33A"/>
</svg>
