<svg width="20" height="20" viewBox="0 0 20 20" fill="none" xmlns="http://www.w3.org/2000/svg">
<path d="M12.6057 4.9624H7.34469C6.02817 4.9624 4.95703 6.03354 4.95703 7.35006V12.6593C4.95703 13.9758 6.02817 15.047 7.34469 15.047H12.6057C13.9222 15.047 14.9933 13.9758 14.9933 12.6593V7.35006C14.9933 6.03354 13.9222 4.9624 12.6057 4.9624ZM9.98522 13.1837C8.20066 13.1837 6.74889 11.7474 6.74889 9.98187C6.74889 8.21638 8.20087 6.78001 9.98522 6.78001C11.7696 6.78001 13.2216 8.21638 13.2216 9.98187C13.2216 11.7474 11.7698 13.1837 9.98522 13.1837ZM13.2791 7.41049C12.8586 7.41049 12.5177 7.0696 12.5177 6.64901C12.5177 6.22842 12.8586 5.88753 13.2791 5.88753C13.6997 5.88753 14.0406 6.22842 14.0406 6.64901C14.0406 7.0696 13.6997 7.41049 13.2791 7.41049Z" fill="#FFB33A"/>
<path d="M10 0C4.47721 0 0 4.47721 0 10C0 15.5228 4.47721 20 10 20C15.5228 20 20 15.5228 20 10C20 4.47721 15.5228 0 10 0ZM16.1744 12.6592C16.1744 14.6271 14.5733 16.2279 12.6057 16.2279H7.34466C5.37678 16.2279 3.77596 14.6269 3.77596 12.6592V7.34994C3.77596 5.38206 5.37699 3.78123 7.34466 3.78123H12.6057C14.5735 3.78123 16.1744 5.38226 16.1744 7.34994V12.6592Z" fill="#FFB33A"/>
<path d="M9.98525 7.9585C8.85063 7.9585 7.92773 8.86598 7.92773 9.98153C7.92773 11.0971 8.85063 12.0046 9.98525 12.0046C11.1199 12.0046 12.0428 11.0971 12.0428 9.98153C12.0428 8.86598 11.1199 7.9585 9.98525 7.9585Z" fill="#FFB33A"/>
</svg>
