<svg width="20" height="20" viewBox="0 0 20 20" fill="none" xmlns="http://www.w3.org/2000/svg">
<path d="M10 0C4.47721 0 0 4.47721 0 10C0 15.5228 4.47721 20 10 20C15.5228 20 20 15.5228 20 10C20 4.47721 15.5228 0 10 0ZM7.32236 14.6626H4.91016V7.40591H7.32236V14.6626ZM6.11636 6.41568H6.10014C5.291 6.41568 4.76659 5.8578 4.76659 5.16122C4.76659 4.44922 5.30662 3.90757 6.13218 3.90757C6.95774 3.90757 7.46532 4.44902 7.48114 5.16122C7.48114 5.85801 6.95794 6.41568 6.11636 6.41568ZM16.0219 14.6626H13.6095V10.7801C13.6095 9.80492 13.2605 9.13936 12.3875 9.13936C11.7209 9.13936 11.3242 9.58793 11.1496 10.0219C11.0859 10.177 11.0695 10.393 11.0695 10.61V14.6626H8.65631C8.65631 14.6626 8.68876 8.08708 8.65631 7.40591H11.0691V8.43446C11.3897 7.94066 11.9622 7.23536 13.2436 7.23536C14.8313 7.23536 16.0215 8.27243 16.0215 10.5015V14.6626H16.0219Z" fill="#FFB33A"/>
</svg>
