<svg width="20" height="20" viewBox="0 0 20 20" fill="none" xmlns="http://www.w3.org/2000/svg">
<path d="M8.86523 11.4633L11.962 9.82048L8.86523 8.21094V11.4633Z" fill="#FFB33A"/>
<path d="M10 0C4.47721 0 0 4.47721 0 10C0 15.5228 4.47721 20 10 20C15.5228 20 20 15.5228 20 10C20 4.47721 15.5228 0 10 0ZM15.5834 12.329C15.4502 13.1727 15.0424 13.6308 14.1848 13.7277C13.2264 13.836 11.0715 13.8859 10.1138 13.8859C9.12273 13.8859 7.11835 13.8443 6.11778 13.761C5.25775 13.6894 4.67087 13.209 4.55264 12.354C4.46666 11.7314 4.4111 10.9914 4.4111 9.81485C4.4111 8.50503 4.45835 7.9508 4.56927 7.35906C4.72765 6.51464 5.1308 6.10561 6.05106 6.0105C7.01675 5.91053 7.92971 5.86064 9.97222 5.86064C10.9708 5.86064 13.1236 5.91235 14.1181 6.00219C14.9866 6.08067 15.4759 6.61198 15.5832 7.45904C15.6581 8.05017 15.7248 8.89641 15.7248 9.80674C15.725 11.4049 15.5834 12.329 15.5834 12.329Z" fill="#FFB33A"/>
</svg>
