<svg width="27" height="27" viewBox="0 0 27 27" fill="none" xmlns="http://www.w3.org/2000/svg">
<path d="M5.625 18.75H1.875V24.375H5.625V18.75ZM15 11.25H11.25V24.375H15V11.25ZM24.375 1.875V24.375H20.625V1.875H24.375ZM20.625 0C20.1277 0 19.6508 0.197544 19.2992 0.549175C18.9475 0.900805 18.75 1.37772 18.75 1.875V24.375C18.75 24.8723 18.9475 25.3492 19.2992 25.7008C19.6508 26.0525 20.1277 26.25 20.625 26.25H24.375C24.8723 26.25 25.3492 26.0525 25.7008 25.7008C26.0525 25.3492 26.25 24.8723 26.25 24.375V1.875C26.25 1.37772 26.0525 0.900805 25.7008 0.549175C25.3492 0.197544 24.8723 0 24.375 0H20.625ZM9.375 11.25C9.375 10.7527 9.57254 10.2758 9.92418 9.92418C10.2758 9.57254 10.7527 9.375 11.25 9.375H15C15.4973 9.375 15.9742 9.57254 16.3258 9.92418C16.6775 10.2758 16.875 10.7527 16.875 11.25V24.375C16.875 24.8723 16.6775 25.3492 16.3258 25.7008C15.9742 26.0525 15.4973 26.25 15 26.25H11.25C10.7527 26.25 10.2758 26.0525 9.92418 25.7008C9.57254 25.3492 9.375 24.8723 9.375 24.375V11.25ZM0 18.75C0 18.2527 0.197544 17.7758 0.549175 17.4242C0.900805 17.0725 1.37772 16.875 1.875 16.875H5.625C6.12228 16.875 6.59919 17.0725 6.95082 17.4242C7.30246 17.7758 7.5 18.2527 7.5 18.75V24.375C7.5 24.8723 7.30246 25.3492 6.95082 25.7008C6.59919 26.0525 6.12228 26.25 5.625 26.25H1.875C1.37772 26.25 0.900805 26.0525 0.549175 25.7008C0.197544 25.3492 0 24.8723 0 24.375V18.75Z" fill="black"/>
</svg>
