<svg width="39" height="39" viewBox="0 0 39 39" fill="none" xmlns="http://www.w3.org/2000/svg">
<path d="M10.9688 8.53125C6.94688 8.53125 3.65625 11.8219 3.65625 15.8438C3.65625 18.2618 4.84697 20.4141 6.66534 21.7474C3.4515 23.3415 1.21875 26.6467 1.21875 30.4688H3.65625C3.65625 26.4176 6.91762 23.1562 10.9688 23.1562C15.0199 23.1562 18.2812 26.4176 18.2812 30.4688H20.7188C20.7188 26.4176 23.9801 23.1562 28.0312 23.1562C32.0824 23.1562 35.3438 26.4176 35.3438 30.4688H37.7812C37.7812 26.6455 35.5485 23.3415 32.3347 21.7474C33.2652 21.0693 34.0226 20.1813 34.5455 19.1556C35.0683 18.1298 35.3418 16.9951 35.3438 15.8438C35.3438 11.8219 32.0531 8.53125 28.0312 8.53125C24.0094 8.53125 20.7188 11.8219 20.7188 15.8438C20.7188 18.2618 21.9095 20.4141 23.7278 21.7474C21.9472 22.6229 20.4732 24.0169 19.5 25.7461C18.5268 24.0169 17.0528 22.6229 15.2722 21.7474C16.2027 21.0693 16.9601 20.1813 17.483 19.1556C18.0058 18.1298 18.2793 16.9951 18.2812 15.8438C18.2812 11.8219 14.9906 8.53125 10.9688 8.53125ZM10.9688 10.9688C13.678 10.9688 15.8438 13.1345 15.8438 15.8438C15.8438 18.553 13.678 20.7188 10.9688 20.7188C8.25947 20.7188 6.09375 18.553 6.09375 15.8438C6.09375 13.1345 8.25947 10.9688 10.9688 10.9688ZM28.0312 10.9688C30.7405 10.9688 32.9062 13.1345 32.9062 15.8438C32.9062 18.553 30.7405 20.7188 28.0312 20.7188C25.322 20.7188 23.1562 18.553 23.1562 15.8438C23.1562 13.1345 25.322 10.9688 28.0312 10.9688Z" fill="black"/>
</svg>
