<svg width="360" height="460" viewBox="0 0 360 460" fill="none" xmlns="http://www.w3.org/2000/svg">
<path d="M355.964 416.09C355.848 416.452 355.602 416.758 355.272 416.948C354.942 417.138 354.553 417.2 354.18 417.12C348.632 415.99 342.925 415.87 337.334 416.765C336.895 416.744 336.478 416.562 336.165 416.253C335.852 415.945 335.665 415.533 335.639 415.095C336.656 406.926 338.226 380.003 322.416 385.917C311.352 390.073 315.278 408.649 317.723 417.12C317.807 417.442 317.763 417.785 317.6 418.076C317.437 418.367 317.168 418.584 316.849 418.683C311.852 420.459 306.731 421.951 301.895 424.242C301.504 424.44 301.052 424.489 300.628 424.377C300.203 424.266 299.834 424.003 299.593 423.638C286.138 403.268 289.368 370.537 308.908 354.572C308.24 353.575 307.723 352.486 307.373 351.339C305.981 346.811 307.373 340.968 311.923 339.032C310.117 335.145 308.648 331.111 307.534 326.974C303.376 310.99 300.289 294.527 294.739 278.935C289.445 264.736 282.377 251.257 273.7 238.816C274.093 243.422 274.449 247.998 274.771 252.544C275.681 265.207 276.555 277.798 278.197 290.389C279.392 299.163 280.517 308.149 279.196 317.028C277.962 326.356 274.66 335.293 269.527 343.193C264.395 351.093 257.561 357.758 249.52 362.705C243.817 366.101 237.792 368.933 231.533 371.159C232.336 379.825 231.533 388.634 231.408 397.301C231.212 406.429 231.622 415.539 231.408 424.65C241.133 429.463 250.306 440.065 246.201 449.939C246.342 450.076 246.431 450.256 246.453 450.45C246.476 450.644 246.431 450.84 246.326 451.005C238.314 464.218 209.298 461.252 199.359 451.538C199.149 451.47 198.969 451.332 198.849 451.148C198.729 450.964 198.676 450.744 198.699 450.525C199.68 439.87 203.749 427.545 213.367 423.407C210.673 408.134 210.048 391.884 208.977 376.398C205.068 376.832 201.132 376.992 197.2 376.877C179.355 376.345 160.939 377.357 142.934 376.007C144.807 384.463 145.741 393.099 145.718 401.758C145.878 408.862 146.824 416.907 145.575 424.028C154.265 428.681 158.066 440.278 158.941 450.525C158.96 450.743 158.906 450.962 158.786 451.145C158.667 451.329 158.489 451.467 158.28 451.538C148.341 461.252 119.325 464.218 111.313 451.005C111.206 450.842 111.158 450.647 111.178 450.453C111.197 450.259 111.283 450.078 111.42 449.939C106.906 439.053 118.558 427.296 129.265 423.3C126.767 415.291 126.445 406.589 125.946 398.295C125.446 390.002 124.59 381.69 123.876 373.432C109.707 370.573 95.3243 365.085 86.6161 352.902C77.3012 339.831 74.8207 323.12 73.6787 307.492C72.7508 294.652 72.0548 281.705 72.1084 268.758C61.5086 285.31 57.0117 303.851 53.2286 322.853C53.3038 322.983 53.3434 323.13 53.3434 323.28C53.3434 323.429 53.3038 323.576 53.2286 323.706C53.1848 323.773 53.1306 323.833 53.068 323.884C52.1223 328.661 51.2836 333.474 50.2664 338.269C49.4223 343.216 48.3264 348.118 46.983 352.956C48.7116 354.462 50.0312 356.378 50.8202 358.525C51.6092 360.673 51.8422 362.984 51.4977 365.245C61.9904 370.697 66.8977 384.78 69.1818 395.56C71.9656 408.684 73.179 423.194 68.7357 436.105C68.6388 436.413 68.4472 436.683 68.188 436.878C67.9287 437.072 67.6148 437.181 67.2903 437.188C60.4137 437.778 53.4917 437.575 46.6618 436.584C45.5911 436.424 45.3948 435.146 45.7517 434.347C48.7703 427.616 50.152 420.272 49.7846 412.911C49.4813 408.56 48.6782 402.895 44.913 399.982C41.6296 397.443 35.4553 395.631 32.1897 399.325C24.7663 407.725 27.6393 423.371 29.1204 433.476C29.2318 433.919 29.1679 434.387 28.942 434.783C28.7161 435.18 28.3455 435.475 27.907 435.608C21.7506 436.62 13.6312 438.058 8.88455 432.837C2.24632 425.627 -0.46608 415.078 0.158485 405.434C1.05072 391.849 5.01225 373.148 18.8597 367.181C18.5725 366.336 18.3576 365.469 18.2173 364.588C17.3429 358.568 19.4129 352.316 25.0162 349.723C25.0126 346.991 25.1974 344.261 25.5694 341.554C27.2873 329.459 29.9604 317.517 33.5638 305.84C38.166 289.582 44.1784 273.752 51.5334 258.529C54.3256 253.182 57.6558 248.13 61.4729 243.451C61.4729 243.451 61.4729 243.363 61.4729 243.309C61.4927 243.204 61.5442 243.106 61.6206 243.03C61.6971 242.954 61.7949 242.903 61.9012 242.883C66.63 236.898 71.6622 231.18 76.1769 224.786C81.1913 198.893 91.0951 173.746 98.3222 148.208L96.8054 147.693C95.6812 148.013 94.3072 147.249 94.8604 145.917C102.355 127.998 113.508 111.215 123.59 94.6459C123.805 94.3041 124.143 94.0579 124.536 93.9586C124.928 93.8594 125.344 93.9147 125.696 94.1131C127.802 95.1077 129.89 96.1377 131.995 97.1678C141.613 84.4521 154.587 72.0916 170.397 69.9072C167.361 67.564 164.665 64.815 162.385 61.7379C161.76 60.9565 161.6 59.4824 162.742 58.9852C168.258 56.4065 173.431 53.1553 178.142 49.3063C173.752 46.5181 168.737 45.0618 163.866 43.055C163.615 42.894 163.409 42.6732 163.267 42.4126C163.124 42.152 163.05 41.86 163.05 41.5633C163.05 41.2665 163.124 40.9745 163.267 40.7139C163.409 40.4534 163.615 40.2325 163.866 40.0715C168.661 38.1729 173.298 35.8985 177.731 33.2696C165.418 34.4418 155.515 8.12242 167.738 1.76457C178.445 -3.7941 189.312 4.7659 190.794 15.4748C192.703 29.0784 179.908 36.2532 169.237 41.3857C173.925 42.7899 178.38 44.8722 182.46 47.5659C182.719 47.7236 182.94 47.937 183.105 48.1905C183.271 48.4441 183.377 48.7313 183.416 49.0311C183.456 49.3308 183.427 49.6356 183.333 49.9229C183.238 50.2103 183.08 50.4729 182.87 50.6916C177.816 54.8348 172.287 58.3696 166.4 61.2228C168.956 64.2639 171.793 67.0585 174.876 69.5697C177.653 69.5386 180.424 69.8186 183.138 70.4044C204.445 74.9863 222.718 92.2839 234.995 109.475C254.285 136.416 263.814 168.17 269.078 200.669C280.909 206.246 288.547 218.588 296.398 228.498C305.321 239.647 312.317 252.197 317.098 265.633C322.833 282.024 327.646 298.72 331.517 315.643C332.909 321.379 335.175 328.856 335.086 335.711C341.546 339.725 340.689 347.077 336.728 352.92C345.025 354.216 352.788 367.856 355.786 374.054C361.978 386.84 360.747 403.126 355.964 416.09Z" fill="#121212"/>
<path d="M136.849 425.627C122.716 426.995 114.204 436.887 113.115 450.153C123.983 459.761 144.968 457.683 156.549 450.153C154.39 440.421 149.019 424.437 136.849 425.627Z" fill="#CED881"/>
<path d="M217.081 425.875C207.32 428.823 203.197 440.917 201.163 450.134C212.744 457.7 233.783 459.777 244.633 450.134C244.187 443.226 242.634 437.081 236.799 432.375C231.874 428.432 223.737 423.868 217.081 425.875Z" fill="#CED881"/>
<path d="M223.147 422.146C225.05 422.365 226.915 422.831 228.697 423.531C227.177 406.288 227.596 388.931 229.946 371.78C223.66 373.95 217.166 375.467 210.566 376.309C214.956 390.801 215.367 407.548 215.616 422.696C218.069 422.04 220.624 421.854 223.147 422.146Z" fill="#CED881"/>
<path d="M142.756 401.829C142.31 393.181 141.578 384.549 140.972 375.901C135.904 375.474 130.872 374.835 125.875 373.912C128.248 381.832 128.659 390.232 129.248 398.437C129.837 406.642 130.764 414.616 131.603 422.697C132.568 422.432 133.552 422.248 134.548 422.146C137.49 421.8 140.474 422.122 143.274 423.087C142.274 416.197 143.059 408.684 142.756 401.829Z" fill="#CED881"/>
<path d="M229.588 308.327C212.493 308.647 195.415 309.144 178.32 309.979C145.646 311.577 111.028 315.857 78.3896 311.577C78.693 314.223 79.0321 316.905 79.4425 319.498C81.1199 330.349 83.6717 341.839 90.4527 350.79C103.158 367.484 126.321 371.124 146.021 372.101C159.226 372.758 172.431 372.19 185.654 372.474C196.236 372.687 206.497 373.22 216.936 370.947C236.922 366.631 259.389 356.313 268.489 336.76C272.691 327.512 274.817 317.464 274.717 307.315C260.334 309.819 244.131 308.043 229.588 308.327Z" fill="#CED881"/>
<path d="M134.726 207.222C120.593 202.907 110.046 213.101 109.975 227.308C109.832 254.658 150.215 245.192 148.502 221.554C147.683 218.167 145.977 215.056 143.557 212.538C141.137 210.021 138.09 208.187 134.726 207.222Z" fill="#121212"/>
<path d="M155.623 213.101C154.677 212.994 155.105 212.994 155.623 213.101V213.101Z" fill="white"/>
<path d="M139.043 253.185H139.186C139.002 253.142 138.823 253.082 138.65 253.006L139.043 253.185Z" fill="white"/>
<path d="M44.2523 299.34C42.5185 297.949 41.2085 296.104 40.4692 294.013C40.4692 294.19 40.3443 294.386 40.2729 294.563C38.0423 301.134 36.0615 307.794 34.2949 314.489C35.014 316.262 36.1081 317.86 37.5029 319.175C38.8978 320.489 40.5607 321.49 42.3786 322.108C44.2182 322.737 46.1674 322.984 48.1067 322.836C48.9633 322.747 49.7663 322.57 50.5693 322.463C51.872 315.644 53.2282 308.256 55.0305 300.921C51.8363 302.697 46.8398 301.454 44.2523 299.34Z" fill="#CED881"/>
<path d="M32.4927 363.115C38.0246 367.679 42.45 357.556 45.555 346.244C43.7263 346.899 41.7666 347.111 39.8391 346.861C37.9116 346.61 36.072 345.906 34.4735 344.805C31.958 343.108 30.0172 340.694 28.9059 337.879C27.2464 346.634 26.14 357.876 32.4927 363.115Z" fill="#CED881"/>
<path d="M31.7983 366.31C26.9802 363.362 25.3207 357.431 25.0173 351.641C21.7517 355.406 19.539 359.686 21.3056 364.996C21.484 365.529 21.6982 366.044 21.9123 366.541C22.0931 366.707 22.2019 366.936 22.2157 367.181C23.4156 369.709 25.279 371.869 27.6094 373.432C29.9398 374.995 32.6508 375.903 35.4565 376.06C41.256 376.185 47.0734 372.935 48.5366 366.985C49.0235 365.043 49.0547 363.016 48.6276 361.061C48.2006 359.105 47.3268 357.273 46.0741 355.708C43.2546 363.789 38.8113 370.573 31.7983 366.31Z" fill="white"/>
<path d="M33.6891 378.991C30.7686 378.471 27.9973 377.322 25.5687 375.626C23.1401 373.93 21.1125 371.727 19.6275 369.171C11.2048 374.711 7.24323 384.071 5.22678 393.838C2.97834 404.867 1.55077 422.253 11.3832 430.405C13.1677 431.985 25.659 434.916 25.427 432.181C25.195 429.446 24.856 426.693 24.731 423.94C24.4455 417.476 24.1065 410.124 26.3192 403.908C29.674 394.531 41.3623 390.322 48.3574 399.45C55.3526 408.579 53.3718 423.479 49.1783 434.045C54.1604 434.741 59.2006 434.931 64.2214 434.614C67.5227 434.383 67.5227 429.819 67.8974 427.19C69.0013 419.151 68.899 410.994 67.594 402.984C65.5062 390.304 61.6161 376.168 50.8557 368.141C48.7143 374.96 42.1118 380.625 33.6891 378.991Z" fill="#CED881"/>
<path d="M181.729 30.1799C184.407 27.8909 186.283 24.8114 187.082 21.389C188.474 14.7292 186.297 5.83179 178.499 3.98482C175.215 3.20341 170.558 2.72391 168.077 5.76076C160.85 14.3385 169.987 33.2522 181.729 30.1799Z" fill="#CED881"/>
<path d="M100.893 146.059C111.064 148.066 121.182 150.286 131.353 152.31C131.663 152.377 131.967 152.466 132.264 152.577C132.327 152.388 132.405 152.204 132.495 152.026C133.941 149.38 135.368 146.698 136.85 144.088C141.168 136.38 145.451 128.637 149.858 121.001C151.482 118.177 153.035 115.3 154.748 112.529C155.016 112.103 155.319 111.695 155.604 111.268L133.994 101.323C131.175 100.027 128.338 98.7304 125.518 97.3984L124.715 98.7304C115.579 113.897 105.407 129.241 98.4121 145.615L99.1081 145.739C99.2247 145.596 99.3779 145.487 99.5515 145.423C99.7251 145.359 99.9129 145.342 100.095 145.375C100.277 145.407 100.448 145.488 100.588 145.608C100.728 145.729 100.833 145.884 100.893 146.059ZM142.756 110.558C143.515 110.558 144.257 110.782 144.888 111.202C145.519 111.621 146.01 112.217 146.301 112.915C146.591 113.613 146.667 114.381 146.519 115.121C146.371 115.862 146.006 116.542 145.469 117.076C144.933 117.61 144.249 117.974 143.505 118.121C142.76 118.269 141.989 118.193 141.288 117.904C140.587 117.615 139.988 117.126 139.566 116.498C139.145 115.87 138.92 115.132 138.92 114.376C138.929 113.367 139.336 112.401 140.054 111.687C140.771 110.973 141.742 110.567 142.756 110.558ZM126.696 102.513C127.491 102.513 128.254 102.827 128.816 103.387C129.378 103.947 129.694 104.705 129.694 105.497C129.694 106.288 129.378 107.047 128.816 107.606C128.254 108.166 127.491 108.48 126.696 108.48C125.901 108.48 125.138 108.166 124.576 107.606C124.014 107.047 123.698 106.288 123.698 105.497C123.698 104.705 124.014 103.947 124.576 103.387C125.138 102.827 125.901 102.513 126.696 102.513ZM126.089 141.264C126.708 141.388 127.264 141.721 127.663 142.206C128.063 142.692 128.281 143.3 128.281 143.928C128.281 144.556 128.063 145.164 127.663 145.65C127.264 146.135 126.708 146.468 126.089 146.592C125.471 146.466 124.916 146.131 124.518 145.644C124.12 145.157 123.904 144.548 123.906 143.921C123.908 143.293 124.128 142.685 124.53 142.201C124.931 141.717 125.488 141.386 126.107 141.264H126.089ZM106.46 137.428C107.099 137.428 107.712 137.681 108.164 138.13C108.615 138.58 108.869 139.19 108.869 139.826C108.869 140.461 108.615 141.071 108.164 141.521C107.712 141.97 107.099 142.223 106.46 142.223C105.821 142.221 105.209 141.966 104.759 141.515C104.309 141.063 104.058 140.452 104.06 139.817C104.062 139.181 104.318 138.572 104.772 138.124C105.225 137.676 105.839 137.426 106.478 137.428H106.46Z" fill="#CED881"/>
<path d="M53.3721 276.343C51.6078 274.181 50.4612 271.586 50.0529 268.831C46.8766 276.077 44.1107 283.518 41.541 290.906C41.8115 292.334 42.3842 293.689 43.221 294.88C44.0579 296.071 45.1397 297.071 46.3948 297.814C48.2074 298.908 50.3694 299.276 52.4441 298.844C53.6397 298.542 54.6747 298.081 55.8525 297.868C57.407 291.714 59.4968 285.706 62.0981 279.913C60.4606 280.081 58.8068 279.842 57.2842 279.22C55.7617 278.597 54.4177 277.609 53.3721 276.343Z" fill="#CED881"/>
<path d="M62.937 258.282C61.6814 255.131 61.0745 251.761 61.1526 248.372C60.0438 249.825 59.0248 251.343 58.1011 252.918C55.6029 257.216 53.3544 261.798 51.2666 266.309C51.9032 268.788 52.9204 271.154 54.2824 273.324C54.8095 274.231 55.5111 275.025 56.347 275.662C57.1829 276.299 58.1368 276.766 59.154 277.036C60.57 277.213 62.0028 277.213 63.4188 277.036C65.5679 272.747 68.241 268.738 71.3776 265.101C67.8086 264.942 64.2397 261.354 62.937 258.282Z" fill="#CED881"/>
<path d="M97.1094 201.539C97.0239 201.628 96.9214 201.699 96.808 201.748C96.6947 201.796 96.5726 201.822 96.4491 201.823C93.2953 206.024 91.0969 210.857 90.0061 215.987C88.9154 221.118 88.9584 226.423 90.1321 231.535C94.3256 251.603 111.778 267.249 133.174 260.802C157.746 253.397 178.374 227.628 156.818 205.322C140.972 188.93 113.848 183.247 97.1094 201.539ZM137.403 195.732C138.038 195.836 138.615 196.16 139.031 196.648C139.448 197.136 139.677 197.756 139.677 198.396C139.677 199.036 139.448 199.656 139.031 200.144C138.615 200.632 138.038 200.956 137.403 201.06C136.768 200.956 136.191 200.632 135.774 200.144C135.358 199.656 135.129 199.036 135.129 198.396C135.129 197.756 135.358 197.136 135.774 196.648C136.191 196.16 136.768 195.836 137.403 195.732ZM117.774 194.436C118.521 194.436 119.238 194.731 119.767 195.257C120.296 195.784 120.593 196.497 120.593 197.242C120.593 197.986 120.296 198.699 119.767 199.226C119.238 199.752 118.521 200.048 117.774 200.048C117.026 200.048 116.309 199.752 115.78 199.226C115.251 198.699 114.954 197.986 114.954 197.242C114.954 196.497 115.251 195.784 115.78 195.257C116.309 194.731 117.026 194.436 117.774 194.436ZM96.9666 218.144C97.821 218.206 98.6203 218.587 99.2036 219.212C99.787 219.836 100.111 220.657 100.111 221.51C100.111 222.362 99.787 223.183 99.2036 223.808C98.6203 224.432 97.821 224.813 96.9666 224.875C96.1122 224.813 95.313 224.432 94.7296 223.808C94.1462 223.183 93.8219 222.362 93.8219 221.51C93.8219 220.657 94.1462 219.836 94.7296 219.212C95.313 218.587 96.1122 218.206 96.9666 218.144ZM100.536 242.475C99.6837 242.475 98.8667 242.138 98.2643 241.538C97.6619 240.939 97.3235 240.126 97.3235 239.278C97.3235 238.43 97.6619 237.617 98.2643 237.017C98.8667 236.418 99.6837 236.081 100.536 236.081C101.387 236.081 102.204 236.418 102.807 237.017C103.409 237.617 103.748 238.43 103.748 239.278C103.748 240.126 103.409 240.939 102.807 241.538C102.204 242.138 101.387 242.475 100.536 242.475ZM102.909 209.211C102.295 209.211 101.694 209.03 101.184 208.691C100.673 208.351 100.275 207.868 100.04 207.304C99.8053 206.739 99.7438 206.118 99.8636 205.518C99.9834 204.919 100.279 204.368 100.713 203.936C101.148 203.504 101.701 203.21 102.303 203.09C102.905 202.971 103.53 203.032 104.097 203.266C104.664 203.5 105.149 203.896 105.491 204.404C105.832 204.913 106.014 205.51 106.014 206.121C106.009 206.939 105.681 207.723 105.099 208.301C104.518 208.88 103.731 209.207 102.909 209.211ZM116.596 258.937C115.858 258.937 115.137 258.72 114.524 258.312C113.91 257.904 113.432 257.324 113.15 256.646C112.868 255.968 112.794 255.222 112.938 254.502C113.082 253.782 113.437 253.12 113.959 252.601C114.48 252.082 115.145 251.729 115.868 251.585C116.592 251.442 117.342 251.516 118.023 251.797C118.705 252.078 119.287 252.553 119.697 253.164C120.107 253.774 120.325 254.492 120.325 255.226C120.325 256.213 119.934 257.161 119.235 257.863C118.537 258.565 117.588 258.964 116.596 258.973V258.937ZM141.346 252.633C141.197 252.742 141.042 252.843 140.882 252.935C141.246 252.685 141.556 252.365 141.793 251.994C141.492 252.427 141.095 252.786 140.633 253.041C140.633 253.041 140.74 253.041 140.775 253.041H140.597C140.271 253.237 139.908 253.364 139.531 253.416C139.153 253.468 138.769 253.443 138.402 253.343C137.93 253.212 137.497 252.967 137.141 252.63C136.786 252.294 136.519 251.875 136.364 251.412C136.209 250.949 136.171 250.455 136.253 249.973C136.334 249.492 136.533 249.038 136.832 248.651C137.132 248.264 137.522 247.956 137.968 247.754C138.415 247.552 138.905 247.462 139.394 247.492C139.884 247.522 140.359 247.671 140.777 247.927C141.195 248.182 141.544 248.536 141.793 248.957C142.161 249.531 142.318 250.215 142.236 250.892C142.155 251.569 141.84 252.196 141.346 252.668V252.633ZM129.48 247.962C113.544 250.697 104.872 238.283 106.531 223.632C108.316 207.986 121.771 198.627 136.867 204.363C145.79 207.755 150.965 215.019 151.143 222.868C154.088 235.921 141.596 245.902 129.48 247.998V247.962ZM155.247 240.45C150.661 240.45 150.661 233.346 155.247 233.346C159.834 233.346 159.851 240.45 155.247 240.45ZM157.353 213.456C158.156 213.811 158.317 214.859 158.424 215.622C158.422 216.09 158.298 216.549 158.063 216.954C157.828 217.359 157.491 217.696 157.085 217.931C156.62 218.231 156.078 218.39 155.524 218.39C154.97 218.39 154.428 218.231 153.963 217.931C153.605 217.715 153.301 217.422 153.073 217.073C152.845 216.724 152.699 216.328 152.646 215.915C152.593 215.502 152.634 215.082 152.766 214.687C152.898 214.292 153.118 213.932 153.409 213.633C153.755 213.277 154.196 213.027 154.68 212.914C155.164 212.8 155.671 212.828 156.14 212.994H156.443C156.689 213.058 156.924 213.16 157.139 213.296L157.353 213.456Z" fill="#CED881"/>
<path d="M39.5786 324.151C36.8236 322.796 34.6554 320.493 33.4757 317.668C32.3337 322.162 31.263 326.655 30.2994 331.166C30.0495 332.32 29.764 333.634 29.4785 335.055C30.7565 338.138 32.9715 340.746 35.8134 342.514C39.3823 344.29 42.6301 344.094 46.2347 343.668C48.0192 336.813 49.2326 329.905 49.9642 325.82C46.4121 326.419 42.7606 325.832 39.5786 324.151Z" fill="#CED881"/>
<path d="M64.24 254.853C64.8749 257.331 66.342 259.518 68.3978 261.051C69.6145 261.679 70.8724 262.225 72.163 262.685C72.3668 251.851 73.3327 241.045 75.0539 230.345C71.8418 235.975 66.881 241.001 62.6875 246.329C62.9153 249.215 63.4354 252.071 64.24 254.853Z" fill="#CED881"/>
<path d="M329.054 320.332C327.841 315.005 326.288 309.677 325.164 304.846C325.003 304.1 324.807 303.372 324.629 302.644C322.493 304.958 319.605 306.449 316.474 306.853C312.79 307.342 309.042 306.832 305.624 305.379C307.034 310.707 308.247 316.319 309.693 321.735C314.903 327.116 323.826 324.985 329.054 320.332Z" fill="#CED881"/>
<path d="M319.865 345.267C324.397 349.991 329.769 345.267 330.572 339.833C331.232 334.299 330.924 328.693 329.662 323.263C327.199 326.531 321.846 327.898 318.134 327.614C315.485 327.507 312.911 326.705 310.675 325.288C311.442 327.898 312.281 330.473 313.262 332.995C314.904 337.08 316.76 341.999 319.865 345.267Z" fill="#CED881"/>
<path d="M315.172 304.26C319.562 303.781 321.417 301.809 323.684 298.932C322.399 294.031 320.918 289.218 319.347 284.405C316.76 291.296 307.195 292.379 300.664 288.863C302.109 293.214 303.466 297.743 304.768 302.236V302.467C308.026 303.936 311.607 304.554 315.172 304.26Z" fill="#CED881"/>
<path d="M218.507 207.152C207.426 206.388 201.323 215.836 201.822 226.101C202.286 235.904 207.658 244.198 217.454 246.631C221.336 246.936 225.222 246.111 228.641 244.257C232.059 242.403 234.862 239.599 236.709 236.188C244.364 222.638 233.479 208.164 218.507 207.152Z" fill="#121212"/>
<path d="M334.889 355.407H334.747C331.392 359.137 326.824 361.765 322.47 361.641C320.124 361.596 317.811 361.087 315.666 360.141C313.521 359.196 311.588 357.834 309.978 356.135C302.198 367.857 294.81 379.329 294.632 394.105C294.329 402.193 296.104 410.225 299.789 417.441C302.091 421.632 304.357 419.572 308.319 418.488C308.676 418.4 314.975 416.713 314.957 416.713C313.03 407.549 308.765 384.497 323.594 383.254C330.071 382.703 335.46 385.634 337.709 391.921C339.126 395.911 339.815 400.121 339.743 404.352C339.743 406.59 339.636 408.81 339.404 411.03C339.154 413.551 338.387 413.285 340.225 413.161C343.268 412.85 346.336 412.85 349.379 413.161C354.233 413.853 354.483 412.29 355.429 407.833C357.292 400.014 357.469 391.891 355.946 384C354.539 377.992 351.909 372.334 348.219 367.377C345.507 363.506 340.403 355.478 334.889 355.407Z" fill="#CED881"/>
<path d="M324.058 358.425C331.196 356.543 341.903 345.052 334.765 338.677C334.467 341.414 333.485 344.033 331.91 346.296C324.236 356.685 317.366 349.634 312.78 340.719C309.996 344.04 307.677 347.272 310.782 351.907C313.44 356.028 318.865 359.793 324.058 358.425Z" fill="white"/>
<path d="M310.872 287.903C312.513 287.353 314.02 286.465 315.293 285.296C316.566 284.127 317.577 282.704 318.259 281.119C316.297 275.241 314.227 269.381 312.228 263.467C311.853 262.348 311.425 261.264 310.997 260.181C309.832 263.965 307.234 267.15 303.752 269.061C302.152 269.952 300.358 270.439 298.525 270.479C296.693 270.519 294.879 270.112 293.241 269.292C295.49 274.477 297.542 279.752 299.433 285.186C302.752 287.424 306.928 289.164 310.872 287.903Z" fill="#CED881"/>
<path d="M242.685 129.633C231.835 109.476 215.668 88.4135 194.504 78.273C170.182 66.6583 149.892 79.4096 134.278 98.2522C142.112 102.124 149.892 106.084 157.708 109.973C157.936 110.113 158.101 110.336 158.168 110.594C158.234 110.853 158.197 111.127 158.065 111.359C149.785 125.761 142.754 140.981 134.885 155.579C134.671 155.935 134.346 156.213 133.96 156.37C133.574 156.527 133.147 156.555 132.743 156.45C121.897 154.601 111.171 152.111 100.623 148.991C97.518 168.117 90.5942 186.41 85.2586 204.986C79.7114 224.228 76.7943 244.125 76.5861 264.142C76.2725 278.845 76.761 293.553 78.0494 308.203C94.7699 308.043 111.455 308.842 128.193 308.203C146.038 307.546 163.882 306.427 181.727 305.539C198.751 304.687 215.793 304.29 232.852 304.349C246.343 304.349 261.404 302.715 274.769 305.024C274.627 292.22 272.271 279.273 271.397 265.687C268.381 219.957 264.759 170.781 242.685 129.633ZM129.317 265.385C106.458 268.493 89.5057 251.48 86.4899 229.742C84.5627 215.712 89.4165 203.618 98.7314 196C100.548 193.882 102.707 192.081 105.12 190.672C125.695 179.022 155.763 190.903 166.22 211.273C179.354 236.74 154.585 261.958 129.317 265.385ZM260.886 226.67C257.728 247.804 235.493 269.701 212.866 267.161C187.545 264.32 175.142 230.826 182.923 208.875C189.793 189.34 211.474 181.1 230.854 185.788C244.112 189.038 253.463 197.189 257.46 207.952C260.647 213.644 261.852 220.225 260.886 226.67Z" fill="#CED881"/>
<path d="M252.215 203.244C248.981 198.776 244.772 195.095 239.905 192.478C235.037 189.86 229.637 188.374 224.11 188.131C203.695 186.745 184.53 199.177 184.655 221.056C184.655 234.198 189.098 251.478 201.054 258.99C210.173 264.727 221.361 264.141 230.837 259.417C251.18 249.258 264.742 225.283 252.251 203.954C252.198 203.844 252.167 203.724 252.161 203.603C252.155 203.481 252.173 203.359 252.215 203.244ZM187.706 217.966C187.706 217.327 187.897 216.702 188.254 216.171C188.611 215.639 189.118 215.225 189.711 214.98C190.305 214.735 190.958 214.671 191.588 214.796C192.218 214.921 192.796 215.229 193.251 215.681C193.705 216.133 194.014 216.709 194.139 217.336C194.265 217.963 194.2 218.613 193.955 219.203C193.709 219.794 193.293 220.299 192.758 220.654C192.224 221.009 191.596 221.198 190.954 221.198C190.096 221.189 189.275 220.846 188.668 220.242C188.061 219.637 187.716 218.821 187.706 217.966ZM192.721 240.663C192.092 240.663 191.478 240.477 190.956 240.13C190.434 239.783 190.027 239.289 189.786 238.711C189.546 238.134 189.483 237.498 189.605 236.885C189.728 236.272 190.03 235.708 190.475 235.266C190.919 234.824 191.485 234.523 192.101 234.401C192.717 234.279 193.356 234.342 193.936 234.581C194.517 234.82 195.013 235.225 195.362 235.745C195.711 236.265 195.897 236.876 195.897 237.502C195.888 238.337 195.55 239.136 194.956 239.727C194.363 240.317 193.56 240.653 192.721 240.663ZM240.901 199.621C245.488 199.621 245.488 206.725 240.901 206.725C236.315 206.725 236.333 199.621 240.901 199.621ZM227.197 192.943C227.776 192.943 228.343 193.115 228.824 193.435C229.306 193.756 229.681 194.212 229.902 194.745C230.123 195.279 230.18 195.865 230.066 196.431C229.951 196.996 229.671 197.515 229.26 197.922C228.849 198.328 228.325 198.604 227.757 198.715C227.188 198.825 226.599 198.765 226.064 198.542C225.53 198.318 225.074 197.942 224.755 197.461C224.435 196.98 224.267 196.415 224.27 195.838C224.272 195.456 224.35 195.077 224.5 194.725C224.649 194.372 224.867 194.053 225.14 193.784C225.413 193.515 225.737 193.302 226.093 193.158C226.449 193.014 226.83 192.941 227.215 192.943H227.197ZM200.43 198.786C200.624 198.148 201.019 197.588 201.557 197.191C202.096 196.793 202.748 196.578 203.419 196.578C204.089 196.578 204.741 196.793 205.28 197.191C205.818 197.588 206.213 198.148 206.408 198.786C206.603 199.319 206.677 199.889 206.625 200.454C206.572 201.019 206.395 201.565 206.104 202.054C205.823 202.509 205.43 202.886 204.961 203.147C204.493 203.408 203.965 203.545 203.428 203.545C202.891 203.545 202.363 203.408 201.894 203.147C201.425 202.886 201.032 202.509 200.751 202.054C200.465 201.564 200.29 201.018 200.238 200.453C200.185 199.889 200.257 199.32 200.447 198.786H200.43ZM208.031 256.593C207.435 256.593 206.852 256.417 206.356 256.087C205.86 255.757 205.474 255.288 205.245 254.74C205.017 254.192 204.957 253.588 205.074 253.006C205.19 252.424 205.477 251.889 205.899 251.469C206.321 251.05 206.858 250.764 207.443 250.648C208.028 250.532 208.634 250.591 209.186 250.819C209.737 251.046 210.208 251.43 210.539 251.924C210.87 252.418 211.047 252.998 211.047 253.592C211.038 254.382 210.72 255.137 210.16 255.697C209.6 256.258 208.843 256.579 208.049 256.593H208.031ZM226.626 255.456C225.979 255.403 225.376 255.109 224.936 254.634C224.497 254.158 224.253 253.536 224.253 252.89C224.253 252.244 224.497 251.622 224.936 251.146C225.376 250.671 225.979 250.377 226.626 250.324C227.272 250.377 227.875 250.671 228.315 251.146C228.754 251.622 228.998 252.244 228.998 252.89C228.998 253.536 228.754 254.158 228.315 254.634C227.875 255.109 227.272 255.403 226.626 255.456ZM215.758 248.761C188.331 246.985 193.613 192.784 224.913 204.842C240.295 210.774 248.932 225.674 238.1 240.112C232.265 247.909 223.592 250.892 215.776 248.761H215.758ZM245.059 244.286C244.349 244.286 243.668 244.005 243.167 243.505C242.665 243.006 242.383 242.328 242.383 241.622C242.383 240.915 242.665 240.238 243.167 239.738C243.668 239.238 244.349 238.958 245.059 238.958C245.769 238.955 246.451 239.234 246.955 239.732C247.458 240.23 247.743 240.906 247.745 241.613C247.747 242.319 247.468 242.998 246.967 243.499C246.467 244 245.787 244.283 245.077 244.286H245.059ZM251.126 223.188C250.801 223.648 250.33 223.986 249.788 224.147H249.592C249.007 224.303 248.392 224.303 247.807 224.147C247.099 223.952 246.474 223.533 246.027 222.953C245.58 222.373 245.336 221.663 245.331 220.932C245.326 220.201 245.561 219.489 246.001 218.903C246.44 218.317 247.06 217.89 247.766 217.687C248.471 217.483 249.224 217.515 249.91 217.776C250.596 218.038 251.178 218.515 251.566 219.136C251.954 219.756 252.129 220.486 252.062 221.214C251.996 221.942 251.692 222.629 251.198 223.17L251.126 223.188Z" fill="#CED881"/>
<path d="M294.564 250.396C299.096 248.07 299.31 244.376 300.042 239.918C297.437 236.082 294.688 232.281 291.708 228.374C290.816 227.185 289.924 225.941 288.996 224.698C288.369 228.299 286.943 231.715 284.82 234.697C283.304 236.775 279.467 239.296 276.647 238.817C279.378 242.955 281.912 247.093 284.249 251.248C287.729 251.142 291.209 252.172 294.564 250.396Z" fill="#CED881"/>
<path d="M304.143 265.012C306.963 262.543 308.016 259.684 309.497 256.469C307.446 251.926 305.06 247.539 302.359 243.345C302.216 245.322 301.545 247.226 300.416 248.858C299.286 250.491 297.739 251.794 295.935 252.633C292.703 254.043 289.11 254.416 285.656 253.699C287.655 257.369 289.517 261.093 291.242 264.87C291.418 264.909 291.582 264.988 291.723 265.1C295.738 268.297 300.182 268.492 304.143 265.012Z" fill="#CED881"/>
<path d="M279.983 236.011C281.847 234.809 283.313 233.085 284.194 231.056C285.154 228.943 285.815 226.708 286.157 224.414C286.282 223.288 286.335 222.155 286.318 221.022C281.464 214.451 276.128 207.827 269.508 203.387C271.06 213.456 272.238 223.615 273.184 233.702L274.665 235.851C276.485 236.188 278.127 237.094 279.983 236.011Z" fill="#CED881"/>
<path d="M105.138 190.635C102.726 192.044 100.566 193.845 98.75 195.963C89.4351 203.546 84.5813 215.64 86.5085 229.706C89.5064 251.443 106.459 268.456 129.336 265.349C154.604 261.921 179.301 236.703 166.257 211.2C155.782 190.866 125.713 178.985 105.138 190.635ZM133.172 260.802C111.759 267.249 94.3245 251.603 90.131 231.535C88.9573 226.423 88.9143 221.118 90.0051 215.987C91.0958 210.857 93.2943 206.024 96.448 201.823C96.5716 201.822 96.6936 201.796 96.807 201.748C96.9203 201.699 97.0228 201.628 97.1083 201.539C113.847 183.247 140.971 188.93 156.817 205.322C178.444 227.628 157.745 253.397 133.172 260.802Z" fill="#121212"/>
<path d="M136.778 204.4C121.77 198.664 108.226 207.952 106.442 223.669C104.782 238.321 113.455 250.734 129.39 247.999C141.507 245.904 153.998 235.923 151 222.905C150.875 215.038 145.682 207.775 136.778 204.4ZM109.975 227.31C109.975 213.102 120.593 202.98 134.726 207.295C138.074 208.249 141.111 210.064 143.53 212.559C145.948 215.053 147.663 218.138 148.502 221.503C150.215 245.069 109.832 254.588 109.975 227.31Z" fill="#121212"/>
<path d="M230.854 185.858C211.475 181.099 189.812 189.41 182.924 208.945C175.143 230.896 187.545 264.39 212.867 267.231C235.494 269.771 257.729 247.874 260.887 226.74C261.836 220.318 260.632 213.765 257.461 208.093C253.392 197.26 244.113 189.108 230.854 185.858ZM230.854 259.417C221.379 264.141 210.19 264.745 201.072 258.991C189.116 251.479 184.744 234.128 184.672 221.057C184.547 199.178 203.713 186.746 224.127 188.131C229.654 188.375 235.054 189.861 239.922 192.478C244.79 195.096 248.998 198.777 252.232 203.244C252.202 203.364 252.195 203.488 252.214 203.61C252.232 203.732 252.275 203.85 252.339 203.955C264.813 225.284 251.18 249.259 230.837 259.417H230.854Z" fill="#121212"/>
<path d="M224.932 204.843C193.632 192.785 188.35 247.057 215.778 248.762C223.594 250.893 232.266 247.91 238.119 240.113C248.951 225.675 240.314 210.775 224.932 204.843ZM236.709 236.188C234.863 239.6 232.06 242.403 228.641 244.257C225.223 246.111 221.336 246.936 217.455 246.631C207.658 244.198 202.287 235.975 201.823 226.101C201.323 215.836 207.426 206.388 218.508 207.152C233.48 208.164 244.365 222.638 236.709 236.188Z" fill="#121212"/>
<path d="M102.908 203.031C102.294 203.031 101.693 203.212 101.183 203.552C100.672 203.892 100.274 204.374 100.039 204.939C99.8041 205.503 99.7426 206.125 99.8624 206.724C99.9822 207.324 100.278 207.874 100.712 208.306C101.146 208.739 101.7 209.033 102.302 209.152C102.904 209.271 103.529 209.21 104.096 208.976C104.663 208.742 105.148 208.346 105.489 207.838C105.831 207.33 106.013 206.733 106.013 206.121C106.008 205.303 105.679 204.52 105.098 203.941C104.517 203.363 103.73 203.036 102.908 203.031Z" fill="#121212"/>
<path d="M96.9669 218.146C96.1125 218.207 95.3133 218.589 94.7299 219.213C94.1465 219.837 93.8223 220.658 93.8223 221.511C93.8223 222.363 94.1465 223.184 94.7299 223.809C95.3133 224.433 96.1125 224.814 96.9669 224.876C97.8214 224.814 98.6206 224.433 99.204 223.809C99.7873 223.184 100.112 222.363 100.112 221.511C100.112 220.658 99.7873 219.837 99.204 219.213C98.6206 218.589 97.8214 218.207 96.9669 218.146Z" fill="#121212"/>
<path d="M100.535 236.081C99.6834 236.081 98.8664 236.418 98.264 237.017C97.6617 237.617 97.3232 238.43 97.3232 239.278C97.3232 240.126 97.6617 240.939 98.264 241.538C98.8664 242.138 99.6834 242.474 100.535 242.474C101.387 242.474 102.204 242.138 102.807 241.538C103.409 240.939 103.747 240.126 103.747 239.278C103.747 238.43 103.409 237.617 102.807 237.017C102.204 236.418 101.387 236.081 100.535 236.081Z" fill="#121212"/>
<path d="M116.595 251.551C115.857 251.551 115.136 251.768 114.523 252.176C113.909 252.584 113.431 253.164 113.149 253.842C112.867 254.52 112.793 255.267 112.937 255.987C113.081 256.707 113.436 257.368 113.958 257.887C114.479 258.406 115.144 258.76 115.867 258.903C116.591 259.046 117.341 258.973 118.022 258.692C118.704 258.411 119.286 257.935 119.696 257.325C120.106 256.714 120.324 255.997 120.324 255.263C120.315 254.281 119.919 253.342 119.222 252.648C118.524 251.954 117.581 251.56 116.595 251.551Z" fill="#121212"/>
<path d="M136.207 250.519C136.209 251.171 136.425 251.804 136.821 252.323C137.217 252.842 137.772 253.219 138.402 253.396C138.769 253.496 139.153 253.521 139.53 253.469C139.908 253.417 140.27 253.29 140.597 253.095H140.775C140.775 253.095 140.775 253.095 140.633 253.095C141.095 252.839 141.492 252.48 141.792 252.047C141.556 252.418 141.246 252.738 140.882 252.988C141.042 252.896 141.197 252.795 141.346 252.686C141.827 252.217 142.133 251.6 142.215 250.935C142.296 250.27 142.147 249.597 141.792 249.028C141.452 248.476 140.942 248.048 140.338 247.809C139.734 247.569 139.068 247.531 138.44 247.698C137.812 247.866 137.255 248.231 136.853 248.74C136.45 249.248 136.224 249.872 136.207 250.519ZM139.044 253.183L138.687 253.006C138.86 253.081 139.039 253.14 139.223 253.183H139.044ZM140.365 253.183H140.49H140.365Z" fill="#121212"/>
<path d="M155.247 233.365C150.661 233.365 150.661 240.469 155.247 240.469C159.833 240.469 159.851 233.365 155.247 233.365Z" fill="#121212"/>
<path d="M156.157 213.102C155.688 212.936 155.181 212.908 154.697 213.022C154.213 213.135 153.772 213.385 153.427 213.741C153.135 214.04 152.915 214.4 152.783 214.795C152.651 215.19 152.61 215.61 152.663 216.023C152.716 216.436 152.862 216.831 153.09 217.181C153.318 217.53 153.622 217.823 153.98 218.039C154.445 218.339 154.987 218.498 155.541 218.498C156.095 218.498 156.638 218.339 157.103 218.039C157.509 217.804 157.846 217.467 158.081 217.062C158.315 216.657 158.44 216.198 158.441 215.73C158.334 214.967 158.173 213.954 157.37 213.564L157.156 213.457C156.942 213.321 156.707 213.219 156.46 213.155L156.157 213.102ZM155.532 213.102C155.104 212.995 154.676 212.995 155.532 212.978V213.102ZM156.835 213.457H156.728H156.835Z" fill="#121212"/>
<path d="M137.402 201.131C138.037 201.028 138.614 200.703 139.03 200.215C139.447 199.727 139.676 199.107 139.676 198.467C139.676 197.827 139.447 197.207 139.03 196.719C138.614 196.231 138.037 195.907 137.402 195.803C136.767 195.907 136.19 196.231 135.773 196.719C135.357 197.207 135.128 197.827 135.128 198.467C135.128 199.107 135.357 199.727 135.773 200.215C136.19 200.703 136.767 201.028 137.402 201.131Z" fill="#121212"/>
<path d="M117.773 200.048C118.52 200.048 119.237 199.752 119.766 199.226C120.295 198.7 120.592 197.986 120.592 197.242C120.592 196.498 120.295 195.784 119.766 195.258C119.237 194.732 118.52 194.436 117.773 194.436C117.025 194.436 116.308 194.732 115.779 195.258C115.25 195.784 114.953 196.498 114.953 197.242C114.953 197.986 115.25 198.7 115.779 199.226C116.308 199.752 117.025 200.048 117.773 200.048Z" fill="#121212"/>
<path d="M227.215 198.751C227.793 198.751 228.359 198.58 228.841 198.26C229.322 197.94 229.697 197.485 229.918 196.953C230.14 196.421 230.198 195.835 230.085 195.27C229.972 194.705 229.693 194.186 229.284 193.779C228.875 193.372 228.353 193.094 227.786 192.982C227.218 192.869 226.629 192.927 226.095 193.147C225.56 193.368 225.103 193.741 224.781 194.22C224.46 194.699 224.288 195.262 224.288 195.838C224.293 196.609 224.603 197.347 225.15 197.893C225.698 198.438 226.44 198.746 227.215 198.751Z" fill="#121212"/>
<path d="M240.901 206.708C245.487 206.708 245.487 199.604 240.901 199.604C236.315 199.604 236.332 206.708 240.901 206.708Z" fill="#121212"/>
<path d="M247.752 217.683C247.057 217.897 246.448 218.327 246.015 218.91C245.583 219.493 245.35 220.199 245.35 220.924C245.35 221.649 245.583 222.355 246.015 222.938C246.448 223.521 247.057 223.951 247.752 224.165C248.337 224.321 248.952 224.321 249.537 224.165H249.822C250.364 224.004 250.836 223.666 251.161 223.206C251.641 222.661 251.934 221.978 251.995 221.256C252.057 220.534 251.885 219.811 251.503 219.194C251.122 218.576 250.553 218.096 249.878 217.824C249.203 217.553 248.458 217.503 247.752 217.683Z" fill="#121212"/>
<path d="M245.077 239.012C244.367 239.012 243.686 239.292 243.184 239.792C242.682 240.292 242.4 240.969 242.4 241.676C242.4 242.382 242.682 243.06 243.184 243.559C243.686 244.059 244.367 244.34 245.077 244.34C245.787 244.34 246.468 244.059 246.97 243.559C247.472 243.06 247.754 242.382 247.754 241.676C247.754 240.969 247.472 240.292 246.97 239.792C246.468 239.292 245.787 239.012 245.077 239.012Z" fill="#121212"/>
<path d="M226.626 250.395C225.979 250.448 225.376 250.742 224.936 251.217C224.497 251.692 224.253 252.315 224.253 252.961C224.253 253.607 224.497 254.229 224.936 254.704C225.376 255.18 225.979 255.473 226.626 255.527C227.273 255.473 227.876 255.18 228.315 254.704C228.755 254.229 228.998 253.607 228.998 252.961C228.998 252.315 228.755 251.692 228.315 251.217C227.876 250.742 227.273 250.448 226.626 250.395Z" fill="#121212"/>
<path d="M208.048 250.592C207.452 250.592 206.868 250.768 206.373 251.098C205.877 251.427 205.49 251.896 205.262 252.445C205.034 252.993 204.974 253.596 205.09 254.179C205.207 254.761 205.494 255.296 205.916 255.715C206.337 256.135 206.875 256.421 207.46 256.537C208.045 256.653 208.651 256.593 209.202 256.366C209.753 256.139 210.224 255.754 210.555 255.261C210.887 254.767 211.064 254.187 211.064 253.593C211.054 252.8 210.734 252.042 210.17 251.481C209.607 250.92 208.845 250.601 208.048 250.592Z" fill="#121212"/>
<path d="M192.719 234.411C192.091 234.411 191.477 234.597 190.955 234.944C190.432 235.291 190.025 235.785 189.785 236.363C189.544 236.94 189.481 237.576 189.604 238.189C189.727 238.802 190.029 239.365 190.473 239.808C190.918 240.25 191.484 240.551 192.1 240.673C192.716 240.795 193.354 240.732 193.935 240.493C194.515 240.254 195.011 239.848 195.36 239.329C195.709 238.809 195.896 238.198 195.896 237.572C195.886 236.737 195.549 235.938 194.955 235.347C194.361 234.756 193.559 234.42 192.719 234.411Z" fill="#121212"/>
<path d="M190.955 221.2C192.748 221.2 194.203 219.753 194.203 217.968C194.203 216.182 192.748 214.735 190.955 214.735C189.161 214.735 187.707 216.182 187.707 217.968C187.707 219.753 189.161 221.2 190.955 221.2Z" fill="#121212"/>
<path d="M206.124 202.054C206.414 201.566 206.592 201.019 206.644 200.454C206.697 199.889 206.623 199.32 206.427 198.786C206.233 198.148 205.838 197.588 205.299 197.191C204.761 196.793 204.108 196.579 203.438 196.579C202.768 196.579 202.115 196.793 201.577 197.191C201.039 197.588 200.643 198.148 200.449 198.786C200.261 199.322 200.193 199.891 200.248 200.455C200.304 201.02 200.482 201.565 200.77 202.054C201.051 202.51 201.445 202.886 201.913 203.147C202.382 203.408 202.91 203.545 203.447 203.545C203.984 203.545 204.512 203.408 204.981 203.147C205.449 202.886 205.843 202.51 206.124 202.054Z" fill="#121212"/>
<path d="M106.477 142.224C107.116 142.224 107.729 141.971 108.181 141.522C108.633 141.072 108.886 140.462 108.886 139.826C108.886 139.19 108.633 138.581 108.181 138.131C107.729 137.681 107.116 137.429 106.477 137.429C105.838 137.429 105.226 137.681 104.774 138.131C104.322 138.581 104.068 139.19 104.068 139.826C104.068 140.462 104.322 141.072 104.774 141.522C105.226 141.971 105.838 142.224 106.477 142.224Z" fill="#121212"/>
<path d="M126.106 146.681C126.725 146.557 127.281 146.224 127.681 145.739C128.08 145.253 128.299 144.645 128.299 144.017C128.299 143.389 128.08 142.781 127.681 142.295C127.281 141.81 126.725 141.477 126.106 141.353C125.488 141.477 124.932 141.81 124.532 142.295C124.132 142.781 123.914 143.389 123.914 144.017C123.914 144.645 124.132 145.253 124.532 145.739C124.932 146.224 125.488 146.557 126.106 146.681Z" fill="#121212"/>
<path d="M142.755 118.177C143.514 118.177 144.257 117.952 144.888 117.532C145.519 117.111 146.011 116.514 146.301 115.815C146.591 115.117 146.666 114.348 146.516 113.607C146.367 112.866 145.999 112.185 145.461 111.652C144.923 111.119 144.238 110.757 143.492 110.611C142.747 110.466 141.975 110.544 141.274 110.836C140.573 111.128 139.975 111.62 139.556 112.25C139.136 112.88 138.914 113.62 138.918 114.376C138.927 115.384 139.335 116.348 140.053 117.059C140.771 117.771 141.742 118.172 142.755 118.177Z" fill="#121212"/>
<path d="M126.696 108.481C127.491 108.481 128.254 108.166 128.816 107.607C129.378 107.047 129.694 106.289 129.694 105.497C129.694 104.706 129.378 103.947 128.816 103.388C128.254 102.828 127.491 102.514 126.696 102.514C125.901 102.514 125.139 102.828 124.576 103.388C124.014 103.947 123.698 104.706 123.698 105.497C123.698 106.289 124.014 107.047 124.576 107.607C125.139 108.166 125.901 108.481 126.696 108.481Z" fill="#121212"/>
<path d="M336.674 352.92C340.636 347.078 341.492 339.725 335.032 335.712C335.175 328.857 332.909 321.38 331.463 315.644C327.593 298.72 322.779 282.024 317.045 265.633C312.263 252.198 305.268 239.648 296.345 228.498C288.493 218.589 280.856 206.246 269.025 200.67C263.761 168.17 254.232 136.416 234.977 109.458C222.7 92.2844 204.427 74.9868 183.12 70.3871C180.412 69.8085 177.646 69.5345 174.876 69.5702C171.773 67.0503 168.917 64.2436 166.346 61.1877C172.234 58.3345 177.762 54.7997 182.817 50.6565C183.027 50.4378 183.185 50.1752 183.279 49.8878C183.374 49.6005 183.402 49.2957 183.363 48.9959C183.324 48.6962 183.217 48.409 183.052 48.1554C182.886 47.9019 182.666 47.6885 182.407 47.5308C178.327 44.8371 173.872 42.7548 169.184 41.3506C179.89 36.2181 192.649 29.0433 190.74 15.4397C189.295 4.7308 178.445 -3.8292 167.738 1.76499C155.532 8.15835 165.436 34.4777 177.785 33.3056C173.351 35.9344 168.715 38.2088 163.919 40.1074C163.669 40.2684 163.463 40.4893 163.321 40.7499C163.178 41.0105 163.103 41.3025 163.103 41.5992C163.103 41.8959 163.178 42.1879 163.321 42.4485C163.463 42.7091 163.669 42.93 163.919 43.091C168.72 45.0978 173.734 46.5541 178.195 49.3423C173.485 53.1912 168.312 56.4424 162.795 59.0211C161.653 59.5184 161.814 60.9924 162.438 61.7738C164.73 64.8533 167.438 67.6025 170.486 69.9431C154.587 72.092 141.614 84.4525 132.049 97.1682C129.943 96.1381 127.855 95.1081 125.75 94.1136C125.397 93.9151 124.982 93.8598 124.589 93.959C124.197 94.0583 123.858 94.3045 123.644 94.6463C113.562 111.216 102.409 127.998 94.914 145.918C94.3608 147.25 95.7348 148.013 96.859 147.693L98.3759 148.209C91.0952 173.746 81.1914 198.894 76.07 224.893C71.6088 231.287 66.5766 237.005 61.7942 242.99C61.6879 243.01 61.5901 243.061 61.5137 243.137C61.4372 243.213 61.3857 243.311 61.3659 243.416C61.3659 243.416 61.3659 243.505 61.3659 243.558C57.5488 248.237 54.2186 253.289 51.4264 258.636C44.0715 273.859 38.059 289.689 33.4568 305.947C29.8534 317.624 27.1804 329.566 25.4624 341.661C25.1135 344.376 24.9525 347.111 24.9806 349.848C19.3773 352.441 17.3073 358.728 18.1817 364.713C18.322 365.593 18.5369 366.461 18.8241 367.306C4.94096 373.255 0.979432 391.955 0.0871961 405.541C-0.537369 415.167 2.17503 425.734 8.81326 432.944C13.6135 438.165 21.6793 436.727 27.8357 435.715C28.2742 435.582 28.6448 435.287 28.8707 434.89C29.0966 434.494 29.1605 434.026 29.0492 433.583C27.568 423.478 24.695 407.832 32.1184 399.432C35.384 395.738 41.5583 397.55 44.8417 400.089C48.607 403.002 49.41 408.667 49.7133 413.018C50.0807 420.379 48.699 427.723 45.6804 434.454C45.3235 435.253 45.5198 436.531 46.5905 436.691C53.4204 437.682 60.3424 437.885 67.219 437.295C67.5435 437.288 67.8574 437.179 68.1167 436.985C68.376 436.79 68.5675 436.52 68.6644 436.212C73.1077 423.301 71.8943 408.791 69.1105 395.667C66.8264 385.012 61.9726 370.804 51.4264 365.352C51.7709 363.091 51.5379 360.78 50.7489 358.632C49.9599 356.485 48.6403 354.569 46.9117 353.062C48.2551 348.225 49.351 343.323 50.1951 338.376C51.1588 333.581 51.9796 328.768 52.9968 323.99C53.0593 323.94 53.1135 323.88 53.1574 323.813C53.2325 323.683 53.2721 323.536 53.2721 323.387C53.2721 323.237 53.2325 323.09 53.1574 322.96C56.9404 303.958 61.4373 285.417 72.0371 268.865C72.0371 281.812 72.6795 294.759 73.6074 307.599C74.7495 323.227 77.1763 339.938 86.5448 353.009C95.2173 365.192 109.636 370.68 123.805 373.539C124.518 381.833 125.393 390.108 125.875 398.402C126.356 406.696 126.695 415.398 129.194 423.407C118.487 427.332 106.888 439.089 111.349 450.046C111.211 450.185 111.126 450.366 111.106 450.56C111.087 450.754 111.135 450.949 111.242 451.112C119.254 464.325 148.27 461.359 158.209 451.645C158.417 451.574 158.595 451.436 158.715 451.252C158.835 451.069 158.889 450.85 158.869 450.632C157.924 440.385 154.194 428.788 145.504 424.135C146.753 417.032 145.807 408.987 145.646 401.865C145.67 393.206 144.736 384.57 142.863 376.114C160.868 377.464 179.195 376.452 197.128 376.984C201.061 377.099 204.996 376.939 208.906 376.505C209.977 391.991 210.69 408.241 213.296 423.514C203.677 427.652 199.609 439.888 198.627 450.632C198.604 450.851 198.657 451.071 198.777 451.255C198.898 451.439 199.078 451.577 199.288 451.645C209.227 461.359 238.243 464.325 246.255 451.112C246.36 450.947 246.405 450.751 246.382 450.557C246.359 450.363 246.27 450.183 246.13 450.046C250.234 440.172 241.062 429.57 231.337 424.757C231.515 415.646 231.105 406.536 231.337 397.408C231.533 388.741 232.265 379.932 231.462 371.266C237.706 369.008 243.712 366.147 249.396 362.724C257.436 357.776 264.27 351.111 269.402 343.211C274.535 335.311 277.838 326.374 279.071 317.047C280.392 308.167 279.268 299.287 278.072 290.408C276.288 277.816 275.556 265.225 274.646 252.562C274.325 248.016 273.968 243.44 273.575 238.834C282.252 251.276 289.32 264.754 294.614 278.953C300.164 294.545 303.251 311.008 307.409 326.992C308.523 331.129 309.992 335.163 311.799 339.05C307.32 340.986 305.856 346.829 307.248 351.358C307.598 352.504 308.115 353.593 308.783 354.59C289.154 370.573 286.013 403.286 299.468 423.656C299.71 424.021 300.078 424.284 300.503 424.396C300.928 424.507 301.379 424.459 301.77 424.26C306.606 421.969 311.727 420.548 316.724 418.701C317.043 418.602 317.312 418.385 317.475 418.094C317.638 417.803 317.682 417.461 317.598 417.138C315.189 408.667 311.228 390.091 322.291 385.935C338.102 380.021 336.567 406.944 335.514 415.114C335.54 415.551 335.728 415.963 336.04 416.272C336.353 416.58 336.77 416.762 337.209 416.783C342.8 415.888 348.507 416.009 354.055 417.138C354.428 417.218 354.817 417.157 355.147 416.966C355.477 416.776 355.724 416.47 355.839 416.108C360.622 403.108 361.853 386.859 355.607 374.072C352.699 367.856 344.972 354.217 336.674 352.92ZM168.006 5.74308C170.486 2.75951 175.144 3.23902 178.427 3.96715C186.225 5.74308 188.402 14.7116 187.011 21.3713C186.211 24.7937 184.336 27.8732 181.657 30.1622C169.987 33.2523 160.85 14.3386 168.006 5.74308ZM28.9064 337.843C30.0177 340.658 31.9585 343.072 34.4739 344.769C36.0725 345.87 37.9121 346.574 39.8396 346.824C41.7671 347.075 43.7268 346.863 45.5555 346.207C42.4505 357.52 38.025 367.643 32.4932 363.079C26.1405 357.875 27.2468 346.634 28.9064 337.878V337.843ZM67.5759 402.877C68.8608 410.902 68.9389 419.072 67.8079 427.119C67.4331 429.747 67.4331 434.311 64.1319 434.542C59.1111 434.86 54.0709 434.669 49.0888 433.974C53.2823 423.318 55.4415 408.756 48.2679 399.379C41.0943 390.002 29.5845 394.46 26.2297 403.836C24.017 410.052 24.356 417.405 24.6415 423.869C24.7664 426.622 25.0341 429.374 25.3375 432.109C25.6408 434.844 13.1674 431.985 11.2937 430.333C1.53262 422.182 2.96019 404.902 5.20863 393.838C7.22508 384.07 11.1866 374.711 19.6272 369.17C21.1141 371.729 23.1444 373.933 25.5763 375.629C28.0082 377.326 30.7829 378.473 33.7066 378.991C42.1293 380.625 48.7319 374.96 50.8554 368.069C61.5979 376.096 65.4881 390.233 67.5759 402.913V402.877ZM48.5356 366.968C47.0723 372.917 41.2549 376.167 35.4554 376.043C32.6497 375.886 29.9387 374.978 27.6083 373.415C25.2779 371.852 23.4145 369.692 22.2146 367.163C22.2008 366.919 22.092 366.69 21.9113 366.524C21.6971 366.027 21.483 365.512 21.3046 364.979C19.5201 359.651 21.7507 355.389 25.0163 351.624C25.3196 357.467 26.9792 363.345 31.7972 366.293C38.8102 370.555 43.2535 363.771 46.073 355.638C47.3339 357.209 48.2123 359.05 48.6395 361.015C49.0667 362.981 49.0312 365.018 48.5356 366.968ZM46.2336 343.668C42.6647 344.094 39.3099 344.378 35.8123 342.513C32.9704 340.746 30.7554 338.138 29.4774 335.055C29.7629 333.634 30.0485 332.32 30.2983 331.165C31.2619 326.654 32.3326 322.161 33.4746 317.668C34.6543 320.492 36.8225 322.795 39.5775 324.15C42.7595 325.832 46.411 326.419 49.9632 325.82C49.2315 329.904 47.9824 336.813 46.2336 343.668ZM50.5699 322.481C49.7669 322.587 48.9639 322.765 48.1073 322.854C46.168 323.002 44.2188 322.754 42.3792 322.126C40.5613 321.508 38.8984 320.507 37.5035 319.193C36.1087 317.878 35.0145 316.28 34.2955 314.507C36.08 307.812 38.0429 301.152 40.2735 294.581C40.2735 294.403 40.3984 294.208 40.4698 294.03C41.2091 296.122 42.5191 297.966 44.2528 299.358C46.8403 301.472 51.8368 302.715 54.9597 300.957C53.2287 308.291 51.8725 315.661 50.5699 322.481ZM55.8162 297.866C54.6385 298.08 53.6035 298.541 52.4079 298.843C50.3445 299.265 48.1971 298.897 46.3942 297.813C45.1458 297.066 44.0708 296.064 43.2403 294.874C42.4098 293.683 41.8425 292.33 41.5761 290.905C44.1458 283.517 46.9296 276.076 50.0881 268.83C50.4964 271.585 51.6429 274.18 53.4072 276.342C54.4512 277.599 55.7902 278.581 57.3059 279.2C58.8216 279.819 60.4673 280.058 62.0976 279.894C59.4831 285.692 57.3813 291.705 55.8162 297.866ZM63.4181 277.124C62.002 277.301 60.5692 277.301 59.1532 277.124C58.1201 276.858 57.1506 276.39 56.3018 275.746C55.453 275.103 54.7419 274.297 54.2102 273.376C52.8499 271.212 51.8328 268.852 51.1944 266.379C53.2823 261.78 55.5307 257.286 58.029 252.989C58.9526 251.413 59.9716 249.895 61.0804 248.442C61.0024 251.831 61.6092 255.201 62.8649 258.352C64.1675 261.424 67.7186 265.012 71.359 265.172C68.2274 268.815 65.5602 272.829 63.4181 277.124ZM72.162 262.756C70.8714 262.297 69.6134 261.751 68.3967 261.122C66.3274 259.571 64.8589 257.357 64.2389 254.853C63.4295 252.078 62.9034 249.228 62.6686 246.347C66.8621 241.125 71.8229 236.046 75.035 230.363C73.314 241.104 72.354 251.952 72.162 262.827V262.756ZM124.715 98.731L125.518 97.399C128.337 98.731 131.174 100.027 133.994 101.324L155.604 111.269C155.318 111.695 155.015 112.104 154.747 112.53C152.963 115.3 151.482 118.177 149.858 121.001C145.45 128.638 141.167 136.381 136.849 144.088C135.368 146.734 133.94 149.416 132.495 152.027C132.404 152.204 132.327 152.388 132.263 152.577C131.966 152.467 131.662 152.378 131.353 152.311C121.181 150.286 111.063 148.066 100.892 146.06C100.837 145.882 100.735 145.723 100.597 145.599C100.458 145.475 100.289 145.39 100.106 145.353C99.9232 145.317 99.7339 145.33 99.5582 145.392C99.3824 145.454 99.2267 145.562 99.1075 145.704L98.4115 145.616C105.407 129.242 115.578 113.897 124.715 98.731ZM156.55 450.135C144.968 457.683 123.983 459.761 113.116 450.135C114.204 436.869 122.716 427.048 136.849 425.609C149.019 424.437 154.39 440.421 156.55 450.135ZM143.291 423.088C140.491 422.122 137.508 421.801 134.565 422.146C133.57 422.249 132.585 422.433 131.621 422.697C130.782 414.616 129.836 406.571 129.265 398.438C128.694 390.304 128.266 381.833 125.892 373.912C130.889 374.835 135.921 375.475 140.989 375.901C141.542 384.55 142.274 393.181 142.773 401.83C143.059 408.685 142.274 416.197 143.291 423.088ZM210.566 376.309C217.159 375.467 223.647 373.949 229.927 371.781C227.578 388.931 227.159 406.289 228.678 423.532C226.896 422.831 225.031 422.366 223.128 422.146C220.612 421.856 218.062 422.043 215.616 422.697C215.384 407.548 214.973 390.801 210.566 376.309ZM236.779 432.393C242.615 437.082 244.167 443.227 244.613 450.153C233.764 459.796 212.725 457.718 201.144 450.153C203.178 440.936 207.3 428.842 217.061 425.894C223.735 423.869 231.872 428.433 236.797 432.393H236.779ZM268.436 336.759C259.335 356.295 236.869 366.631 216.883 370.946C206.443 373.219 196.183 372.722 185.601 372.473C172.378 372.189 159.173 372.758 145.968 372.101C126.339 371.124 103.14 367.483 90.3993 350.789C83.6183 341.91 81.0665 330.348 79.3891 319.497C78.9787 316.869 78.6396 314.17 78.3363 311.577C111.01 315.857 145.629 311.577 178.267 309.978C195.362 309.144 212.439 308.646 229.534 308.327C244.078 308.043 260.281 309.819 274.628 307.314C274.744 317.459 272.637 327.508 268.454 336.759H268.436ZM274.664 305.023C261.316 302.715 246.237 304.384 232.747 304.349C215.711 304.349 198.669 304.745 181.621 305.539C163.777 306.426 145.932 307.545 128.087 308.202C111.349 308.842 94.6642 308.043 77.9437 308.202C76.6553 293.553 76.1668 278.844 76.4804 264.142C76.6886 244.125 79.6056 224.227 85.1529 204.985C90.5063 186.409 97.4122 168.117 100.517 148.99C111.065 152.11 121.791 154.601 132.638 156.449C133.041 156.554 133.468 156.526 133.854 156.369C134.24 156.212 134.565 155.935 134.779 155.579C142.756 140.98 149.786 125.761 157.924 111.322C158.056 111.09 158.093 110.816 158.026 110.558C157.96 110.3 157.795 110.077 157.567 109.937C149.751 106.048 141.97 102.088 134.137 98.216C149.679 79.3733 170.04 66.6221 194.363 78.2367C215.58 88.3773 231.836 109.44 242.543 129.597C264.706 170.781 268.329 219.956 271.255 265.687C272.183 279.272 274.539 292.219 274.682 305.023H274.664ZM273.165 233.702C272.219 223.615 271.041 213.456 269.489 203.387C276.109 207.827 281.445 214.451 286.298 221.022C286.316 222.155 286.263 223.288 286.138 224.414C285.796 226.708 285.135 228.943 284.175 231.056C283.294 233.085 281.828 234.809 279.964 236.011C278.179 237.094 276.395 236.011 274.61 235.851L273.165 233.702ZM276.627 238.781C279.535 239.261 283.283 236.739 284.8 234.661C286.922 231.679 288.349 228.263 288.975 224.662C289.885 225.906 290.76 227.149 291.688 228.339C294.614 232.246 297.416 236.046 300.021 239.882C299.289 244.34 299.075 248.034 294.543 250.36C291.188 252.136 287.708 251.142 284.229 251.248C281.944 247.057 279.375 242.919 276.591 238.781H276.627ZM291.188 264.87C289.463 261.105 287.601 257.381 285.603 253.699C289.057 254.416 292.65 254.043 295.881 252.633C297.686 251.794 299.232 250.491 300.362 248.858C301.491 247.226 302.162 245.322 302.305 243.345C305.006 247.539 307.392 251.926 309.443 256.469C307.998 259.666 306.945 262.543 304.09 265.012C300.128 268.564 295.685 268.297 291.598 265.1C291.484 264.999 291.35 264.921 291.206 264.87H291.188ZM293.222 269.363C294.86 270.183 296.674 270.59 298.506 270.55C300.339 270.51 302.133 270.023 303.733 269.132C307.215 267.221 309.813 264.036 310.978 260.252C311.406 261.336 311.834 262.419 312.209 263.538C314.208 269.452 316.278 275.312 318.241 281.19C317.558 282.775 316.547 284.198 315.274 285.367C314.001 286.536 312.494 287.424 310.853 287.975C306.838 289.235 302.733 287.495 299.414 285.328C297.541 279.823 295.489 274.548 293.24 269.363H293.222ZM304.75 302.182C303.447 297.618 302.091 293.16 300.646 288.809C307.177 292.361 316.706 291.242 319.329 284.352C320.899 289.164 322.381 293.977 323.665 298.879C321.399 301.809 319.543 303.78 315.153 304.207C311.608 304.496 308.047 303.885 304.803 302.431L304.75 302.182ZM305.606 305.379C309.024 306.832 312.772 307.341 316.456 306.853C319.587 306.448 322.475 304.958 324.611 302.644C324.79 303.372 324.986 304.1 325.146 304.846C326.271 309.747 327.823 315.004 329.037 320.332C323.808 325.056 314.886 327.116 309.675 321.735C308.247 316.318 307.034 310.778 305.624 305.45L305.606 305.379ZM310.674 325.287C312.911 326.704 315.484 327.506 318.133 327.613C321.845 327.898 327.199 326.53 329.661 323.262C330.924 328.692 331.232 334.298 330.571 339.832C329.75 345.16 324.379 349.99 319.864 345.266C316.759 341.998 314.904 337.079 313.28 332.994C312.28 330.473 311.46 327.898 310.692 325.287H310.674ZM312.709 340.773C317.295 349.653 324.165 356.756 331.838 346.349C333.454 344.08 334.467 341.441 334.783 338.677C341.92 345.053 331.214 356.543 324.076 358.426C318.883 359.793 313.458 356.028 310.746 351.961C307.623 347.326 309.943 344.094 312.727 340.773H312.709ZM355.429 407.761C354.483 412.254 354.233 413.817 349.38 413.089C346.336 412.778 343.269 412.778 340.225 413.089C338.441 413.213 339.155 413.48 339.404 410.958C339.636 408.738 339.708 406.518 339.743 404.28C339.815 400.049 339.126 395.839 337.709 391.849C335.461 385.562 330.072 382.632 323.594 383.182C308.765 384.426 313.03 407.477 314.957 416.641C314.957 416.641 308.676 418.417 308.319 418.417C304.357 419.5 302.091 421.56 299.789 417.369C296.117 410.138 294.36 402.094 294.686 393.998C294.864 379.222 302.252 367.749 310.032 356.028C311.641 357.727 313.575 359.089 315.72 360.034C317.865 360.979 320.178 361.489 322.523 361.534C326.877 361.658 331.446 359.03 334.8 355.3H334.943C340.457 355.3 345.65 363.398 348.291 367.199C351.981 372.156 354.611 377.814 356.018 383.822C357.538 391.751 357.343 399.912 355.447 407.761H355.429Z" fill="#121212"/>
<path d="M218.507 216.244C218.423 217.759 217.76 219.184 216.653 220.227C215.546 221.27 214.08 221.851 212.555 221.851C211.031 221.851 209.565 221.27 208.458 220.227C207.351 219.184 206.688 217.759 206.604 216.244C206.533 215.509 206.62 214.768 206.858 214.069C207.097 213.371 207.482 212.731 207.989 212.192C208.495 211.652 209.111 211.227 209.795 210.942C210.479 210.658 211.216 210.522 211.958 210.543C215.17 210.543 218.507 212.976 218.507 216.244Z" fill="white"/>
<path d="M128.837 216.244C128.753 217.759 128.09 219.184 126.983 220.227C125.876 221.27 124.41 221.851 122.885 221.851C121.361 221.851 119.895 221.27 118.788 220.227C117.681 219.184 117.018 217.759 116.934 216.244C116.863 215.509 116.95 214.768 117.188 214.069C117.427 213.371 117.812 212.731 118.319 212.192C118.825 211.652 119.441 211.227 120.125 210.942C120.809 210.658 121.547 210.522 122.288 210.543C125.5 210.543 128.837 212.976 128.837 216.244Z" fill="white"/>
<path d="M207.46 105.71C178.016 84.3987 156.603 108.374 175.34 140.323C207.46 204.257 263.1 133.042 204.23 103.739" fill="#CED881"/>
<path d="M172.819 301.462C185.671 300.876 198.276 297.699 209.889 292.118C216.22 289.116 220.407 284.454 218.561 278.612V278.472V278.311C216.081 274.75 211.735 273.529 206.794 275.91C195.204 281.545 182.548 284.602 169.684 284.874H167.818C155.534 284.874 143.628 281.093 132.098 277.231C131.078 276.851 129.989 276.7 128.905 276.789C127.822 276.878 126.771 277.205 125.826 277.746C124.881 278.287 124.065 279.03 123.434 279.923C122.804 280.815 122.374 281.836 122.175 282.914C120.826 288.336 127.553 292.918 132.455 294.679C145.298 299.735 159.044 302.045 172.819 301.462ZM140.631 281.753C143.814 282.969 147.06 284.011 150.355 284.874C151.208 285.075 152.081 285.215 152.955 285.375C152.361 289.698 152.056 294.056 152.042 298.421L150.792 298.201C146.958 297.492 143.173 296.536 139.46 295.339C139.158 290.777 139.553 286.195 140.631 281.753ZM168.414 286.675C168.902 291.021 169.173 295.388 169.227 299.761C164.274 299.802 159.325 299.46 154.423 298.741C154.335 294.4 154.574 290.059 155.138 285.755C159.534 286.394 163.972 286.695 168.414 286.655V286.675ZM183.833 285.235C184.912 289.344 185.668 293.532 186.095 297.76L186.234 298.141C181.773 299.001 177.257 299.542 172.72 299.761H171.529C171.529 295.379 171.093 291.037 170.636 286.675C175.067 286.55 179.481 286.061 183.833 285.215V285.235ZM143.588 297.46C146.485 298.221 149.422 298.881 152.379 299.461C152.265 299.368 152.174 299.249 152.116 299.113C152.057 298.977 152.032 298.829 152.042 298.681C152.032 298.829 152.057 298.977 152.116 299.113C152.174 299.249 152.265 299.368 152.379 299.461C149.417 298.945 146.483 298.277 143.588 297.46ZM153.887 299.601C158.984 300.374 164.134 300.729 169.287 300.662C164.134 300.729 158.984 300.374 153.887 299.601ZM202.963 293.559C199.828 294.679 196.772 295.439 194.51 296.08C192.247 296.72 190.541 297.18 188.556 297.6C188.494 297.796 188.387 297.975 188.244 298.121C188.101 298.267 187.925 298.377 187.731 298.441C187.537 298.506 187.331 298.523 187.13 298.492C186.928 298.46 186.737 298.381 186.572 298.261C186.737 298.381 186.928 298.46 187.13 298.492C187.331 298.523 187.537 298.506 187.731 298.441C187.925 298.377 188.101 298.267 188.244 298.121C188.387 297.975 188.494 297.796 188.556 297.6V297.36C188.068 293.124 187.266 288.93 186.155 284.814C187.743 284.474 189.33 284.094 190.898 283.674C193.813 282.802 196.676 281.76 199.471 280.552C201.327 284.648 202.513 289.02 202.983 293.499C202.996 293.6 203.033 293.698 203.092 293.782C203.151 293.865 203.229 293.933 203.321 293.979C203.233 293.941 203.155 293.884 203.093 293.811C203.031 293.738 202.987 293.652 202.963 293.559ZM216.736 279.452C218.502 285.295 212.171 289.977 205.166 292.738C204.601 288.24 203.343 283.858 201.435 279.752C207.587 277.331 213.68 275.25 216.656 279.452H216.736ZM217.946 279.652C217.863 279.723 217.766 279.775 217.662 279.806C217.558 279.838 217.449 279.847 217.341 279.834C217.233 279.821 217.129 279.785 217.035 279.73C216.941 279.675 216.86 279.6 216.795 279.512C216.974 279.932 217.47 279.872 217.867 279.752L217.946 279.652ZM212.41 289.977C210.028 291.197 207.607 292.298 205.146 293.298C207.607 292.298 210.028 291.177 212.41 289.977C214.121 289.188 215.575 287.924 216.601 286.333C217.627 284.742 218.183 282.89 218.204 280.993C218.176 282.899 217.608 284.757 216.567 286.349C215.527 287.941 214.057 289.199 212.33 289.977H212.41ZM216.696 279.312C216.643 279.097 216.665 278.869 216.759 278.669C216.853 278.468 217.013 278.307 217.212 278.211C216.999 278.293 216.821 278.448 216.712 278.65C216.602 278.852 216.569 279.087 216.617 279.312H216.696ZM211.517 275.53C210.532 275.551 209.555 275.72 208.619 276.03C209.53 275.727 210.479 275.559 211.437 275.53H211.517ZM184.21 284.234C179.698 285.093 175.127 285.595 170.537 285.735C175.127 285.595 179.698 285.093 184.21 284.234ZM140.651 281.333C140.609 281.123 140.514 280.927 140.374 280.766C140.234 280.605 140.054 280.484 139.853 280.415C139.652 280.347 139.437 280.332 139.228 280.374C139.02 280.415 138.826 280.512 138.666 280.653C138.826 280.512 139.02 280.415 139.228 280.374C139.437 280.332 139.652 280.347 139.853 280.415C140.054 280.484 140.234 280.605 140.374 280.766C140.514 280.927 140.609 281.123 140.651 281.333ZM123.307 281.753L123.624 281.333C125.037 280.059 126.765 279.195 128.625 278.832C130.031 278.591 131.474 278.694 132.832 279.132C134.539 279.552 136.523 280.212 138.547 280.933C137.419 285.34 136.938 289.891 137.118 294.439C132.693 292.918 124.061 288.256 123.009 284.054C122.896 283.671 122.865 283.268 122.916 282.872C122.967 282.475 123.1 282.094 123.307 281.753ZM137.198 295.479C137.282 295.79 137.481 296.057 137.754 296.224C138.027 296.392 138.354 296.448 138.666 296.38C138.356 296.462 138.026 296.42 137.746 296.263C137.465 296.107 137.255 295.848 137.158 295.539L137.198 295.479ZM139.44 295.479C139.452 295.608 139.435 295.738 139.391 295.859C139.346 295.981 139.275 296.09 139.182 296.18C139.276 296.094 139.349 295.989 139.397 295.871C139.445 295.753 139.467 295.627 139.46 295.499L139.44 295.479Z" fill="#121212"/>
</svg>
