<svg width="502" height="602" viewBox="0 0 502 602" fill="none" xmlns="http://www.w3.org/2000/svg">
<path d="M247.837 575.958C248.33 577.909 248.698 579.888 248.938 581.886C242.382 581.865 235.866 580.866 229.607 578.922C227.912 578.418 219.614 576.462 219.198 575.217C218.398 572.809 218.016 570.284 218.068 567.748C227.971 572.253 237.785 575.928 247.837 575.958Z" fill="#CED881"/>
<path d="M59.9419 566.652C64.9391 572.969 71.4513 577.93 78.8782 581.079C86.3051 584.228 94.408 585.464 102.44 584.672H102.618H102.886C134.38 578.507 165.756 571.75 197.191 565.23C210.841 562.414 224.521 558.294 233.919 550.411H236.477C229.376 554.435 222.586 558.982 216.165 564.015C215.948 564.171 215.783 564.388 215.689 564.637C215.582 564.746 215.501 564.878 215.451 565.022C215.256 565.162 215.096 565.344 214.983 565.554C214.869 565.765 214.806 565.999 214.797 566.237C214.455 569.691 214.903 573.176 216.105 576.433C216.878 578.567 221.31 579.663 223.302 580.374C232.031 583.752 241.329 585.432 250.692 585.324H250.96C250.96 585.324 250.96 585.324 251.138 585.324C268.298 581.352 295.332 571.513 292.031 550.263C314.514 550.47 336.045 551.063 356.209 551.952C352.224 575.958 381.755 583.546 400.224 586.006C400.458 586.067 400.703 586.067 400.937 586.006C409.713 585.271 418.27 582.888 426.157 578.981C428.238 577.974 433.413 576.344 434.008 573.736C434.806 570.321 434.877 566.777 434.216 563.333C434.188 563.1 434.099 562.879 433.958 562.692C433.817 562.505 433.629 562.358 433.413 562.266C433.3 562.078 433.16 561.909 432.997 561.762C430.32 560.102 427.644 558.502 424.967 556.961C472.075 561.317 501.814 568.253 501.814 575.958C501.814 590.214 399.599 601.743 273.532 601.684C147.466 601.625 45.2505 590.007 45.2505 575.751C45.2505 572.55 50.4847 569.468 59.9419 566.652Z" fill="#CED881"/>
<path d="M251.228 575.81C255.114 575.509 258.934 574.63 262.559 573.202C268.923 570.683 282.99 564.132 288.789 555.804C286.886 570.771 266.187 578.062 252.239 581.5C252.032 579.583 251.694 577.682 251.228 575.81Z" fill="#CED881"/>
<path d="M390.2 575.81C393.051 576.504 395.98 576.823 398.914 576.758C398.663 578.586 398.514 580.427 398.468 582.271C384.312 580.226 362.78 574.891 359.539 559.983C366.409 568.549 382.379 573.854 390.2 575.81Z" fill="#CED881"/>
<path d="M402.305 576.521C412.446 575.424 422.26 570.445 431.212 565.199C431.777 568.43 431.896 571.897 428.951 573.557C426.022 575.26 422.97 576.746 419.821 578.003C414.093 580.26 408.095 581.765 401.977 582.478C401.948 580.487 402.057 578.497 402.305 576.521Z" fill="#CED881"/>
<path d="M124.716 536.51C127.422 554.619 116.567 571.542 101.876 581.501C77.8458 583.605 50.2474 563.718 51.8831 537.044C52.6861 524.24 55.5113 525.04 65.5633 523.232C72.0168 522.077 78.4406 520.773 84.7454 519.024C93.3406 516.86 101.793 514.168 110.054 510.962C117.132 518.164 123.229 526.344 124.716 536.51Z" fill="#CED881"/>
<path d="M161.145 443.122L154.097 445.137C158.202 440.9 162.008 436.384 165.487 431.623C186.305 452.695 211.495 469.559 229.547 492.884C243.049 510.281 251.495 538.882 227.257 551.952C214.261 558.976 199.837 561.081 185.621 564.074C160.164 569.438 134.766 574.892 109.25 579.96C129.205 562.859 136.015 534.999 116.774 513.364C80.0154 471.693 31.3018 439.417 11.2869 385.062C5.55867 370.859 2.80585 355.64 3.19774 340.338C3.67357 331.447 0.0453491 329.313 8.34274 328.809L52.4765 326.26L130.513 321.696C129.74 352.934 131.495 383.669 148.03 410.076C146.334 413.667 144.239 417.057 141.785 420.182C138.759 423.84 135.382 427.195 131.703 430.2C109.785 434.942 87.8964 439.358 65.4132 440.188C63.2422 440.188 63.2422 443.596 65.4132 443.507C87.9559 442.678 110.023 438.321 131.822 433.579L146.097 447.449C127.093 452.814 108.06 457.645 88.1641 458.919C86.0526 459.067 86.0229 462.387 88.1641 462.239C113.592 460.638 137.74 453.347 162.127 446.323C162.553 446.193 162.909 445.9 163.119 445.508C163.328 445.117 163.372 444.658 163.242 444.234C163.112 443.809 162.818 443.454 162.425 443.245C162.031 443.037 161.571 442.992 161.145 443.122ZM113.889 347.155C85.1009 353.082 55.9263 353.853 26.6029 353.883C26.1612 353.883 25.7376 354.058 25.4253 354.369C25.113 354.68 24.9375 355.102 24.9375 355.542C24.9375 355.983 25.113 356.405 25.4253 356.716C25.7376 357.027 26.1612 357.202 26.6029 357.202C56.3426 357.202 85.7254 356.343 114.781 350.356C116.893 349.941 116 346.829 113.889 347.155ZM116.179 367.575C88.0452 374.807 59.3761 373.918 30.588 374.866C28.4468 374.866 28.4468 378.275 30.588 378.215C59.6735 377.237 88.6399 378.215 117.041 370.806C117.471 370.692 117.838 370.412 118.061 370.029C118.284 369.645 118.345 369.189 118.231 368.761C118.117 368.332 117.836 367.967 117.451 367.745C117.066 367.522 116.609 367.461 116.179 367.575ZM121.859 388.589C94.5003 392.99 66.8363 395.24 39.1233 395.316C38.6816 395.316 38.258 395.491 37.9457 395.802C37.6334 396.114 37.4579 396.536 37.4579 396.976C37.4579 397.416 37.6334 397.838 37.9457 398.15C38.258 398.461 38.6816 398.636 39.1233 398.636C67.1352 398.544 95.0969 396.265 122.751 391.819C124.863 391.493 123.971 388.322 121.859 388.589ZM129.562 411.676C129.988 411.559 130.349 411.277 130.567 410.893C130.784 410.51 130.84 410.056 130.722 409.631C130.603 409.207 130.321 408.847 129.936 408.63C129.551 408.413 129.096 408.358 128.67 408.476C103.956 414.818 78.7069 415.233 53.3687 415.766C52.927 415.766 52.5034 415.941 52.191 416.253C51.8787 416.564 51.7032 416.986 51.7032 417.426C51.7032 417.866 51.8787 418.288 52.191 418.6C52.5034 418.911 52.927 419.086 53.3687 419.086C79.034 418.552 104.58 418.108 129.562 411.676ZM189.041 475.487C166.915 480.021 144.848 484.704 122.96 490.306C122.534 490.423 122.172 490.705 121.955 491.089C121.737 491.472 121.681 491.926 121.8 492.351C121.918 492.775 122.201 493.135 122.586 493.352C122.97 493.569 123.426 493.624 123.852 493.506C145.74 487.994 167.807 483.311 189.933 478.688C192.045 478.273 191.123 475.042 189.041 475.487ZM202.692 492.054C181.071 498.9 159.718 506.34 137.056 508.977C134.945 509.244 134.915 512.563 137.056 512.326C160.015 509.629 181.666 502.22 203.584 495.255C205.636 494.514 204.774 491.313 202.692 492.054ZM212.387 513.067C192.289 519.551 171.66 524.272 150.736 527.175C148.625 527.412 148.595 530.731 150.736 530.494C171.931 527.577 192.828 522.817 213.19 516.268C215.331 515.557 214.439 512.326 212.387 512.978V513.067ZM213.814 544.661C215.926 544.187 215.034 540.986 212.922 541.431C193.829 545.61 175.004 551.122 155.257 551.004C154.815 551.004 154.392 551.179 154.079 551.49C153.767 551.801 153.591 552.223 153.591 552.663C153.591 553.104 153.767 553.526 154.079 553.837C154.392 554.148 154.815 554.323 155.257 554.323C175.301 554.293 194.394 548.781 213.814 544.572V544.661ZM105.294 475.546C103.183 475.842 104.075 479.043 106.186 478.747C129.145 475.575 151.183 468.64 173.398 462.327C173.778 462.169 174.087 461.877 174.267 461.508C174.447 461.139 174.486 460.717 174.376 460.322C174.267 459.926 174.017 459.583 173.673 459.358C173.328 459.133 172.914 459.04 172.506 459.097C150.29 465.38 128.253 472.286 105.294 475.457V475.546Z" fill="#CED881"/>
<path d="M208.134 355.276C205.851 347.277 200.926 340.28 194.156 335.418C197.701 333.107 201.364 330.98 205.13 329.046C208.538 331.812 211.303 335.283 213.234 339.218C215.165 343.153 216.215 347.459 216.312 351.838C213.528 352.84 210.798 353.988 208.134 355.276Z" fill="#CED881"/>
<path d="M228.565 331.624C227.165 328.162 225.15 324.979 222.617 322.229C225.432 321.384 228.291 320.692 231.182 320.155C230.438 323.118 229.873 326.082 229.07 329.728C228.862 330.38 228.713 331.002 228.565 331.624Z" fill="#CED881"/>
<path d="M187.585 368.671C184.466 363.701 180.617 359.225 176.165 355.394C175.154 354.416 173.964 353.052 172.656 351.867C174.539 350.207 176.413 348.607 178.277 347.065C182.946 353.171 189.637 357.676 192.492 365.026C190.856 366.211 189.221 367.397 187.585 368.671Z" fill="#CED881"/>
<path d="M205.07 356.876C203.821 357.558 202.542 358.239 201.323 358.98C199.241 360.284 197.219 361.648 195.375 363.041C192.401 355.75 185.68 351.186 181.041 344.962C184.461 342.265 187.881 339.716 191.36 337.375C197.695 342.294 203.524 348.726 205.07 356.876Z" fill="#CED881"/>
<path d="M224.967 349.259C223.153 349.703 221.369 350.177 219.584 350.711C219.101 341.829 215.113 333.498 208.491 327.534C211.872 325.97 215.337 324.595 218.871 323.415C222.948 327.313 225.826 332.289 227.168 337.759C226.395 341.375 225.592 345.287 224.967 349.259Z" fill="#CED881"/>
<path d="M178.068 362.092C182.946 367.367 187.853 373.176 183.273 380.26C181.786 382.478 179.864 384.373 177.622 385.832C175.618 379.912 172.163 374.584 167.57 370.331C163.929 366.74 159.5 364.041 154.634 362.447C157.221 359.483 160.79 355.956 161.652 355.216C164.448 352.844 165.816 351.007 168.195 352.874C171.719 355.69 175.02 358.771 178.068 362.092ZM170.931 357.646C169.712 356.52 168.373 355.542 167.124 354.415C166.351 353.674 165.31 354.978 166.083 355.719C166.857 356.46 168.671 357.824 169.89 358.95C171.109 360.076 171.704 358.387 170.931 357.646Z" fill="#CED881"/>
<path d="M170.187 378.126C188.239 400.888 165.369 429.548 148.923 445.641L142.797 439.713L136.403 433.49L135.659 432.749H135.838C136.097 432.692 136.338 432.571 136.536 432.395C136.735 432.219 136.885 431.996 136.971 431.745C137.058 431.495 137.078 431.227 137.031 430.967C136.983 430.706 136.869 430.463 136.7 430.259C142.051 425.687 146.612 420.27 150.202 414.225C157.012 402.192 154.514 378.66 136.224 381.623C136.016 380.112 135.778 378.66 135.57 377.089C138.008 376.778 140.485 376.974 142.844 377.662C145.203 378.351 147.395 379.518 149.28 381.09C150.142 381.771 151.183 380.467 150.351 379.815C148.3 378.121 145.922 376.862 143.365 376.118C140.808 375.374 138.124 375.159 135.481 375.488C135.064 372.524 134.678 369.353 134.38 366.301C147.406 363.811 161.325 366.982 170.187 378.126ZM149.518 437.965C147.414 435.769 145.19 433.691 142.856 431.741C142.053 431 141.012 432.304 141.786 433.015C144.332 435.065 146.709 437.314 148.893 439.743C148.971 439.842 149.071 439.921 149.184 439.976C149.297 440.031 149.422 440.06 149.548 440.06C149.674 440.06 149.798 440.031 149.911 439.976C150.025 439.921 150.124 439.842 150.202 439.743C152.462 437.076 154.425 434.171 156.745 431.533C157.458 430.733 156.15 429.696 155.436 430.496C153.325 432.926 151.51 435.505 149.518 437.965Z" fill="#CED881"/>
<path d="M156.833 431.563C154.513 434.201 152.551 437.105 150.29 439.772C150.213 439.871 150.113 439.951 150 440.006C149.886 440.061 149.762 440.089 149.636 440.089C149.51 440.089 149.386 440.061 149.273 440.006C149.159 439.951 149.06 439.871 148.982 439.772C146.797 437.344 144.42 435.094 141.874 433.045C141.101 432.334 142.142 431.03 142.945 431.77C145.279 433.721 147.503 435.798 149.606 437.994C151.599 435.534 153.413 432.956 155.554 430.555C156.149 429.814 157.458 430.763 156.833 431.563Z" fill="#121212"/>
<path d="M169.89 358.953C168.67 357.826 167.302 356.848 166.083 355.721C164.864 354.594 166.351 353.675 167.124 354.416C168.373 355.543 169.711 356.522 170.93 357.649C172.15 358.775 170.693 359.695 169.89 358.953Z" fill="#121212"/>
<path d="M428.744 562.769C419.049 568.4 404.417 575.898 393.889 573.29C386.792 571.74 379.939 569.238 373.518 565.851C371.465 564.695 359.718 556.96 359.57 551.655C359.584 551.477 359.584 551.299 359.57 551.121C359.713 550.426 360.044 549.783 360.526 549.261C361.007 548.739 361.623 548.358 362.306 548.157C362.879 547.91 363.464 547.692 364.06 547.505C363.822 548.809 363.614 550.143 363.317 551.417C363.229 551.775 363.257 552.15 363.396 552.49C363.535 552.831 363.777 553.119 364.09 553.314C375.153 557.967 385.8 558.056 395.317 550.351C395.998 549.607 396.443 548.679 396.596 547.683C407.9 551.358 418.7 556.425 428.744 562.769Z" fill="#CED881"/>
<path d="M432.937 561.495C433.1 561.642 433.24 561.811 433.354 561.999C433.57 562.091 433.757 562.238 433.898 562.425C434.039 562.612 434.128 562.833 434.156 563.066C434.817 566.51 434.746 570.054 433.948 573.469C433.354 576.077 428.179 577.707 426.097 578.715C418.211 582.621 409.654 585.005 400.878 585.739C400.644 585.8 400.398 585.8 400.164 585.739C381.696 583.279 352.164 575.692 356.149 551.685C356.149 551.418 356.149 551.151 356.149 550.885C356.506 546.706 359.956 544.453 364.417 543.297C366.222 525.323 364.33 507.17 358.855 489.949C356.552 490.292 354.226 490.46 351.896 490.453C343.748 511.466 312.759 520.951 293.16 524.3C292.724 524.351 292.285 524.231 291.935 523.966C291.586 523.7 291.353 523.31 291.287 522.877C289.978 516.949 288.521 511.022 287.778 504.828C287.735 504.393 287.863 503.959 288.135 503.616C288.406 503.274 288.801 503.049 289.235 502.99C301.725 502.368 318.975 499.671 325.666 487.667C327.067 485.336 327.826 482.678 327.867 479.961C313.501 480.093 299.19 478.177 285.369 474.271C284.357 477.798 283.495 481.384 282.722 485C278.81 502.932 278.637 521.473 282.216 539.474C286.499 540.274 289.949 542.171 291.138 546.054C291.241 546.177 291.321 546.318 291.376 546.469C291.722 547.655 291.99 548.863 292.179 550.084C295.48 571.335 268.387 581.175 251.287 585.146C251.287 585.146 251.287 585.146 251.108 585.146H250.841C241.477 585.254 232.18 583.574 223.451 580.196C221.458 579.485 217.027 578.389 216.254 576.255C215.051 572.998 214.604 569.513 214.945 566.059C214.954 565.82 215.018 565.587 215.131 565.376C215.245 565.166 215.405 564.984 215.599 564.844C215.649 564.7 215.73 564.568 215.837 564.459C215.931 564.209 216.097 563.993 216.313 563.836C222.734 558.804 229.524 554.257 236.625 550.233C241.049 547.802 245.652 545.711 250.395 543.979C249.592 539.356 249.562 533.221 249.205 530.346C247.689 516.735 247.838 502.991 249.651 489.416C250.973 478.67 253.191 468.052 256.283 457.674C251.611 452.777 248.371 446.699 246.915 440.099C244.268 439.298 241.622 438.469 239.004 437.579C226.811 433.43 226.068 421.042 225.027 409.246C225.027 408.99 225.086 408.737 225.2 408.508C225.314 408.278 225.48 408.078 225.684 407.923C225.888 407.768 226.126 407.663 226.378 407.614C226.631 407.566 226.891 407.577 227.138 407.645C229.666 408.534 232.194 409.364 234.722 410.194C233.57 400.259 233.043 390.261 233.146 380.26C224.224 376.733 223.213 365.056 224.61 352.993C211.517 356.796 199.363 363.276 188.923 372.021C189.265 373.383 189.265 374.808 188.923 376.17C187.321 381.291 183.949 385.681 179.406 388.559C179.3 388.699 179.166 388.817 179.013 388.904C178.859 388.99 178.689 389.044 178.514 389.062C181.488 402.429 175.807 416.537 167.332 428.955C171.882 433.697 176.61 438.202 181.309 442.559C202.573 462.179 242.781 487.015 245.934 518.817C247.391 533.458 242.335 543.327 234.038 550.292C224.64 558.116 210.96 562.147 197.309 565.111C165.874 571.631 134.499 578.389 103.005 584.553H102.737H102.559C94.6379 585.264 86.663 584.037 79.326 580.979C71.989 577.922 65.5118 573.125 60.4568 567.007C55.4017 560.889 51.9216 553.633 50.3185 545.871C48.7153 538.108 49.0377 530.072 51.2575 522.462C51.354 522.109 51.5627 521.797 51.8523 521.573C52.1418 521.348 52.4966 521.224 52.8634 521.217C71.6992 520.066 90.1833 515.611 107.466 508.058C103.689 504.383 99.7333 500.915 96.1348 497.537C85.9638 487.993 75.9117 478.361 66.1274 468.403C28.9527 430.703 -6.73492 382.809 1.08661 327.031C1.18848 326.683 1.39948 326.378 1.68857 326.159C1.97769 325.94 2.32959 325.82 2.69254 325.815L132.15 318.287C132.419 318.256 132.693 318.304 132.935 318.425C133.178 318.546 133.381 318.735 133.518 318.969C133.73 319.25 133.835 319.596 133.815 319.947C133.181 334.165 133.609 348.411 135.094 362.566C140.39 360.995 145.981 360.68 151.421 361.647C154.841 356.105 159.926 350.415 165.666 348.933C166.398 348.777 167.153 348.768 167.888 348.905C168.623 349.042 169.324 349.324 169.949 349.733C186.841 334.41 206.856 319.384 229.785 316.124L232.432 315.798C233.914 311.738 236.523 308.182 239.956 305.543C243.237 302.885 247.152 301.117 251.32 300.411C255.489 299.705 259.77 300.084 263.748 301.512C273.719 293.765 285.458 288.593 297.919 286.456C297.343 279 297.723 271.5 299.049 264.139C295.153 263.695 291.227 263.22 287.331 262.687C261.577 259.012 237.964 254.685 229.815 227.566C217.919 187.792 222.737 139.305 229.458 98.9974C232.283 86.1939 247.094 80.8591 258.246 77.51C274.818 72.9513 291.91 70.5406 309.101 70.3377C309.048 70.0935 309.048 69.8409 309.101 69.5967C312.343 61.2685 321.146 55.8448 330.662 54.1258C330.608 51.6318 330.717 49.1369 330.989 46.6571C330.989 43.5155 330.365 37.3508 330.038 30.8898C326.741 29.7514 323.96 27.4787 322.194 24.48C320.427 21.4813 319.792 17.9533 320.402 14.5297C321.146 6.82392 326.766 -0.792996 335.272 0.0665001C344.878 0.362878 354.276 8.18725 354.038 18.1752C353.969 21.2975 352.818 24.2999 350.779 26.6719C348.741 29.0438 345.941 30.639 342.856 31.1862C343.034 45.1456 343.242 40.0775 343.183 53.8887C352.313 55.4595 360.015 61.0018 361.443 71.2268C361.473 71.3635 361.473 71.505 361.443 71.6418C373.207 72.7287 384.903 74.4601 396.476 76.8284C408.223 79.2587 427.554 82.7559 434.93 93.7515C440.521 102.02 440.164 115.446 441.443 125.079C444.157 146.621 445.003 168.357 443.971 190.045C443.049 211.028 443.614 237.258 424.253 250.002C406.915 261.442 383.539 263.843 363.525 265.414L360.283 265.621C360.967 272.082 362.93 283.078 361.413 289.539C366.769 290.892 372.042 292.555 377.205 294.518H377.383H377.592C383.157 296.97 388.313 300.258 392.878 304.269C398.974 297.867 410.424 299.438 419.019 306.047C426.291 312.004 431.75 319.867 434.781 328.75C450.632 339.123 458.246 365.856 458.573 381.771C459.227 406.015 447.837 430.318 432.372 448.427C421.041 461.705 404.952 470.003 388.268 475.901C390.695 483.828 392.681 491.882 394.216 500.026C395.746 509.007 396.551 518.095 396.625 527.204C397.068 532.963 397.177 538.742 396.952 544.513C406.711 547.154 416.051 551.144 424.699 556.368C427.376 557.909 430.052 559.509 432.729 561.169L432.937 561.495ZM392.878 543.712C393.926 530.351 393.408 516.913 391.331 503.672C382.707 504.413 374.142 503.938 365.993 507.288C367.435 515.117 368.3 523.042 368.58 530.998C368.669 535.753 368.4 540.508 367.777 545.224C366.261 558.353 391.986 554.501 392.878 543.653V543.712ZM370.96 453.969C369.086 454.71 367.183 455.451 365.22 456.162C367.793 461.44 369.548 467.076 370.424 472.878C370.722 474.271 371.227 475.842 371.554 477.709C373.963 476.998 376.313 476.286 378.632 475.516C376.045 468.343 375.807 460.282 370.96 453.969ZM402.097 429.577C402.16 429.357 402.273 429.153 402.428 428.984C402.582 428.814 402.775 428.682 402.989 428.599C405.671 425.745 408.146 422.705 410.394 419.5C371.733 424.687 333.071 428.184 294.082 425.428C272.672 423.795 251.546 419.534 231.183 412.743C227.584 411.528 228.209 407.823 228.685 413.039C229.108 416.689 229.743 420.311 230.588 423.887C231.778 429.133 233.889 432.334 238.529 433.993C251.622 438.601 265.083 442.101 278.766 444.455C297.949 439.98 322.573 438.35 338.424 449.227C352.912 448.903 367.356 447.506 381.636 445.048C389.223 440.93 396.158 435.716 402.216 429.577H402.097ZM416.075 410.224C418.821 404.93 420.717 399.239 421.696 393.36C421.696 389.685 421.547 385.95 421.339 382.186C417.23 382.986 412.971 382.179 409.443 379.934C401.74 375.429 396.298 356.224 393.264 347.688C389.658 337.214 388.123 326.143 388.744 315.087C388.744 315.087 388.744 314.909 388.744 314.79C381.594 308.025 372.849 303.163 363.316 300.653C363.104 300.594 362.923 300.453 362.814 300.261C362.705 300.07 362.677 299.843 362.737 299.63C362.796 299.418 362.937 299.238 363.129 299.13C363.322 299.021 363.55 298.993 363.763 299.052C373.153 301.547 381.81 306.242 389.012 312.745C389.283 310.667 389.939 308.658 390.945 306.818C386.468 303.02 381.459 299.894 376.075 297.541C370.852 295.548 365.508 293.885 360.075 292.562C354.632 300.86 336.105 302.876 327.54 303.024C318.975 303.172 302.737 299.408 298.87 290.517C296.164 290.961 293.458 291.495 290.811 292.088C263.48 298.46 247.599 321.399 240.67 346.977C237.474 360.157 236.044 373.7 236.417 387.254C236.417 389.863 236.655 401.451 237.25 411.261C294.172 428.777 354.454 424.005 412.922 416.003C414.082 414.047 415.183 412.18 416.194 410.224H416.075ZM434.632 334.529C431.748 330.874 427.541 328.491 422.915 327.89C413.101 325.845 401.919 337.196 408.551 348.014L412.149 351.808C414.524 347.535 417.757 343.796 421.645 340.823C425.534 337.851 429.995 335.708 434.751 334.529H434.632ZM406.35 350.504L405.844 350L405.458 349.259C397.755 335.418 410.394 321.903 425.71 325.074C426.903 325.34 428.075 325.687 429.22 326.112C427.422 322.667 425.436 319.323 423.272 316.094C416.61 306.047 393.532 294.192 392.045 315.087C391.639 325.844 393.139 336.59 396.476 346.829C398.945 354.653 405.785 375.844 414.736 377.978C417.315 378.667 420.008 378.818 422.647 378.422V377.355C422.515 377.033 422.515 376.671 422.647 376.348C420.952 365.441 413.963 358.358 406.469 350.504H406.35ZM433.413 236.043C442.335 219.89 440.61 193.038 440.848 175.018C441.038 153.836 439.406 132.676 435.971 111.771C434.067 99.9162 432.997 93.9886 422.142 88.5057C402.573 78.577 377.829 76.5023 356.357 74.6944C330.509 72.3307 304.473 72.9473 278.766 76.532C264.551 78.6066 236.417 82.667 232.61 99.8866C227.342 131.869 225.865 164.357 228.209 196.684C229.25 210.85 231.183 225.936 237.755 238.74C242.306 247.631 251.584 250.802 260.506 253.558C284.298 260.909 309.934 262.45 334.558 262.924C359.986 263.339 386.632 261.65 410.722 252.936C419.614 249.706 428.684 244.578 433.413 236.043ZM328.58 286.634C338.557 287.212 348.519 285.275 357.547 281.003C357.547 277.506 357.547 274.038 357.309 270.571C340.328 277.239 317.785 279.462 302.32 268.318C302.32 270.63 301.993 272.942 301.874 275.283C301.874 275.965 301.874 276.646 301.874 277.298C302.207 277.42 302.496 277.637 302.707 277.921C307.673 284.915 320.878 285.923 328.58 286.634ZM302.856 264.554C317.517 276.409 340.357 273.771 356.833 267.192H357.131V265.858C339.033 266.881 320.883 266.445 302.856 264.554ZM324.149 289.539C316.417 288.324 307.525 287.434 301.785 281.892C301.737 284.538 302.402 287.149 303.71 289.453C305.017 291.757 306.92 293.669 309.22 294.992C315.346 299.141 323.317 299.882 330.514 299.764C336.22 299.495 341.845 298.304 347.168 296.237C354.305 293.688 356.982 291.287 357.517 284.619C347.065 289.303 335.514 291.006 324.149 289.539ZM235.644 316.865C232.237 329.153 229.625 341.646 227.822 354.268C226.891 359.776 226.821 365.395 227.614 370.924C227.875 372.329 228.53 373.632 229.504 374.682C230.478 375.731 231.73 376.483 233.116 376.852C233.978 352.489 239.778 328.661 255.451 309.663C256.978 307.826 258.617 306.084 260.358 304.447C250.068 302.164 238.499 306.284 235.644 316.865ZM274.305 549.847C282.811 548.069 279.629 543.653 278.588 538.822C277.647 534.051 277.06 529.216 276.833 524.359C276.374 517.449 276.434 510.514 277.012 503.612C268.655 501.152 260.239 502.427 251.644 502.516C251.11 515.64 251.887 528.785 253.964 541.756C259.158 550.114 265.939 552.811 274.305 549.847ZM253.488 572.846C258.841 571.483 300.625 550.44 284.179 543.712L283.019 543.297C283.406 544.72 283.792 546.261 284.239 547.476C284.331 547.833 284.305 548.21 284.166 548.552C284.027 548.894 283.781 549.181 283.465 549.373C274.543 554.115 260.477 557.612 252.12 549.373C251.557 548.728 251.141 547.97 250.9 547.15C239.48 550.796 229.547 557.909 220.12 565.141C229.636 569.319 244.268 575.188 253.577 572.846H253.488ZM254.053 482.036C252.964 487.707 252.209 493.437 251.792 499.196C260.387 499.196 268.833 497.952 277.22 500.263C277.696 495.492 278.41 490.72 279.361 485.919C271.45 482.125 262.796 482.629 254.142 482.036H254.053ZM280.075 482.599C280.759 479.487 281.562 476.375 282.424 473.263C273.922 470.644 266.02 466.385 259.168 460.727C257.473 466.654 255.986 472.789 254.737 478.746C263.54 479.339 272.075 479.072 280.164 482.599H280.075ZM327.212 476.672C323.257 467.78 304.908 466.565 297.086 467.514C292.64 468.088 288.259 469.081 284.001 470.477C298.059 474.601 312.648 476.648 327.302 476.553L327.212 476.672ZM280.491 469.233C278.945 461.942 277.517 454.68 275.822 447.419C267.257 445.789 258.752 443.803 250.424 441.492C254.38 455.125 266.246 463.809 280.581 469.114L280.491 469.233ZM342.945 453.021C343.165 452.744 343.485 452.563 343.837 452.517H342.231L342.945 453.021ZM360.224 451.48C361.234 451.929 362.152 452.562 362.93 453.347C365.696 452.428 368.342 451.391 370.989 450.383C367.599 450.561 364.03 451.035 360.432 451.361L360.224 451.48ZM363.703 488.882C363.009 489.238 362.325 489.623 361.651 490.038C363.019 494.691 364.149 499.374 365.101 504.057C373.309 500.767 381.934 501.093 390.588 500.441C389.715 495.442 388.625 490.503 387.316 485.622L386.781 483.696C380.188 484.354 373.669 485.604 367.302 487.43C366.215 487.978 365.08 488.425 363.911 488.764L363.703 488.882ZM371.822 481.236C371.801 481.726 371.731 482.212 371.614 482.688C376.283 481.68 381.071 481.147 385.889 480.376C385.592 479.339 385.235 478.302 384.937 477.264C380.744 478.628 376.372 479.932 372.03 481.117L371.822 481.236ZM395.078 550.411C385.562 558.087 374.915 557.998 363.852 553.374C363.539 553.179 363.296 552.891 363.157 552.55C363.019 552.21 362.991 551.835 363.079 551.477C363.376 550.203 363.584 548.869 363.822 547.565C363.226 547.752 362.64 547.969 362.067 548.217C361.385 548.418 360.769 548.799 360.287 549.321C359.805 549.843 359.475 550.486 359.331 551.181C359.346 551.359 359.346 551.537 359.331 551.715C359.331 557.049 371.227 564.755 373.279 565.911C379.701 569.298 386.554 571.8 393.651 573.35C404.179 575.958 418.811 568.46 428.506 562.829C418.456 556.463 407.646 551.375 396.328 547.684C396.232 548.633 395.872 549.537 395.287 550.292L395.078 550.411ZM428.952 573.558C431.926 571.898 431.777 568.43 431.212 565.2C422.29 570.446 412.446 575.425 402.305 576.521C402.01 578.484 401.851 580.465 401.829 582.449C407.947 581.736 413.946 580.231 419.673 577.974C422.872 576.733 425.973 575.257 428.952 573.558ZM398.469 582.271C398.515 580.427 398.664 578.586 398.915 576.758C395.981 576.823 393.052 576.504 390.201 575.81C382.38 573.854 366.409 568.549 359.54 559.984C362.722 575.039 384.313 580.226 398.469 582.271ZM362.96 485.207C366.469 484.111 368.759 483.933 368.432 480.91C367.924 476.444 367.069 472.025 365.874 467.691C364 460.756 361.681 453.525 353.235 453.613C350.553 453.699 347.915 454.313 345.473 455.421C349.432 460.271 352.119 466.025 353.294 472.167C354.409 477.142 354.338 482.309 353.086 487.252C356.982 486.66 361.859 485.533 362.96 485.207ZM325.16 494.395C317.874 500.945 308.566 503.524 299.079 505.243C296.878 505.628 294.647 505.835 292.417 506.072C288.699 506.458 291.406 505.361 291.822 509.036C293.815 525.337 306.305 519.202 318.588 515.29C338.87 508.858 355.525 487.341 347.941 465.913C338.246 438.557 301.696 442.559 279.272 447.834C279.867 450.62 280.491 453.406 281.086 456.192C281.681 458.978 282.305 462.12 282.96 464.935C283.168 466.002 283.376 466.684 283.495 467.099C290.962 464.583 298.811 463.379 306.692 463.542C321.264 464.135 341.041 480.199 325.16 494.395ZM288.789 555.805C282.841 564.133 268.923 570.623 262.558 573.202C258.933 574.631 255.114 575.51 251.227 575.81C251.694 577.682 252.032 579.583 252.239 581.501C266.187 578.003 286.885 570.772 288.789 555.805ZM219.287 575.039C219.703 576.284 228.001 578.24 229.696 578.744C235.955 580.689 242.471 581.688 249.027 581.708C248.787 579.711 248.42 577.731 247.926 575.78C237.874 575.78 228.06 572.076 218.187 567.512C218.118 570.065 218.491 572.611 219.287 575.039ZM162.127 446.204C137.741 453.199 113.592 460.519 88.1646 462.12C86.0233 462.268 86.053 458.948 88.1646 458.8C108.06 457.526 127.094 452.695 146.098 447.33L131.822 433.46C109.875 438.202 87.9563 442.559 65.4136 443.388C63.2426 443.388 63.2426 440.128 65.4136 440.069C87.8969 439.239 109.785 434.823 131.703 430.081C135.383 427.076 138.759 423.721 141.785 420.064C144.24 416.938 146.335 413.548 148.031 409.957C131.495 383.55 129.741 352.815 130.514 321.577L52.4769 326.141L8.34311 328.69C0.0457458 329.194 3.67395 331.328 3.19812 340.219C2.73328 355.548 5.4256 370.81 11.1089 385.061C31.1237 439.417 79.8374 471.693 116.596 513.363C135.689 534.999 129.027 562.858 109.072 579.959C134.588 574.891 159.986 569.438 185.443 564.074C199.748 561.11 214.172 558.976 227.079 551.952C251.317 538.881 242.871 510.281 229.369 492.884C211.317 469.559 186.008 452.695 165.309 431.622C161.83 436.383 158.024 440.899 153.919 445.137L160.967 443.122C161.393 442.98 161.858 443.013 162.26 443.213C162.661 443.413 162.967 443.764 163.109 444.189C163.251 444.613 163.218 445.076 163.017 445.477C162.816 445.877 162.464 446.181 162.038 446.323L162.127 446.204ZM139.793 385.358C140.09 386.365 140.328 387.373 140.655 388.321C142.878 394.782 145.873 400.951 149.577 406.697C153.235 396.887 153.681 386.099 139.793 385.358ZM65.4434 523.262C55.3914 525.07 52.5661 524.27 51.7631 537.073C50.1274 563.599 77.7259 583.575 101.756 581.53C116.447 571.572 127.302 554.649 124.596 536.54C123.109 526.522 117.012 518.342 109.934 511.052C101.673 514.257 93.2207 516.95 84.6255 519.113C78.4397 520.684 72.0158 521.988 65.5623 523.144L65.4434 523.262ZM134.112 366.478C134.41 369.442 134.796 372.584 135.213 375.666C137.856 375.337 140.54 375.552 143.097 376.296C145.655 377.04 148.032 378.298 150.083 379.993C150.915 380.645 149.874 381.949 149.012 381.268C147.127 379.696 144.936 378.529 142.576 377.84C140.217 377.152 137.741 376.956 135.302 377.267C135.51 378.778 135.748 380.23 135.956 381.801C154.246 378.837 156.774 402.251 149.934 414.403C146.344 420.448 141.783 425.865 136.432 430.437C136.602 430.641 136.716 430.884 136.763 431.145C136.811 431.405 136.79 431.673 136.703 431.923C136.617 432.173 136.467 432.397 136.268 432.573C136.07 432.748 135.829 432.87 135.57 432.926H135.391L136.135 433.667L142.529 439.891L148.655 445.819C165.101 429.725 187.971 401.066 169.919 378.304C161.324 366.982 147.406 363.811 134.231 366.36L134.112 366.478ZM168.194 352.756C165.815 350.889 164.447 352.756 161.651 355.098C160.789 355.838 157.22 359.365 154.633 362.329C159.5 363.923 163.928 366.622 167.57 370.213C172.162 374.466 175.617 379.794 177.622 385.713C179.863 384.255 181.785 382.36 183.272 380.141C187.852 373.058 182.945 367.249 178.068 361.973C175.019 358.653 171.718 355.572 168.194 352.756ZM172.655 351.748C173.964 352.934 175.153 354.297 176.164 355.275C180.616 359.107 184.466 363.583 187.584 368.553C189.22 367.279 190.856 366.093 192.491 364.908C189.518 357.557 182.945 353.053 178.276 346.947C176.392 348.567 174.519 350.207 172.655 351.867V351.748ZM180.893 344.843C185.532 351.067 192.105 355.631 195.228 362.922C197.22 361.529 199.242 360.166 201.176 358.862C202.395 358.121 203.674 357.439 204.923 356.757C203.376 348.607 197.547 342.175 191.064 337.256C187.733 339.716 184.313 342.264 180.893 344.961V344.843ZM205.131 329.046C201.367 330.941 197.704 333.028 194.157 335.299C200.927 340.161 205.852 347.158 208.135 355.157C210.801 353.909 213.531 352.801 216.313 351.837C216.215 347.458 215.165 343.152 213.234 339.217C211.304 335.282 208.539 331.812 205.131 329.046ZM208.491 327.416C215.114 333.38 219.101 341.711 219.584 350.593C221.369 350.059 223.153 349.585 224.967 349.14C225.592 345.169 226.395 341.257 227.168 337.641C225.826 332.171 222.948 327.195 218.871 323.296C215.334 324.515 211.869 325.93 208.491 327.534V327.416ZM222.529 322.111C225.062 324.861 227.077 328.043 228.477 331.506C228.477 330.883 228.774 330.261 228.893 329.668C229.696 326.171 230.261 323.029 231.004 320.095C228.143 320.655 225.314 321.367 222.529 322.229V322.111ZM315.198 70.1895H325.488C336.313 70.1895 347.168 70.6044 357.993 71.5232C354.246 51.0435 319.659 53.3849 312.61 70.1895V70.3377L315.198 70.1895ZM339.287 31.8975C337.666 32.0754 336.03 32.0754 334.409 31.8975C334.409 45.5012 334.647 40.0182 334.588 53.6813C336.28 53.5479 337.981 53.5479 339.673 53.6813C339.673 44.3157 339.406 54.0665 339.168 44.7899C339.079 40.3442 339.198 36.106 339.287 31.8975ZM335.272 3.47485C322.811 2.11151 318.975 23.7767 330.365 27.5111C338.246 30.1785 346.722 29.1412 350.112 20.6055C353.502 12.0698 342.974 3.74159 335.272 3.47485ZM437.428 337.522L437.041 337.107C436.806 337.346 436.506 337.51 436.179 337.582C431.559 338.624 427.23 340.675 423.501 343.586C419.773 346.497 416.739 350.196 414.617 354.416C417.164 357.13 419.408 360.111 421.309 363.307C428.119 355.987 436.179 350.148 446.38 348.785C443.753 344.762 440.756 340.991 437.428 337.522ZM451.822 360.432C450.918 357.491 449.733 354.642 448.283 351.926H447.926C437.666 353.023 429.696 359.069 423.004 366.508C423.967 368.754 424.714 371.086 425.235 373.473C432.878 367.042 443.465 365.234 453.339 365.678C452.803 363.989 452.357 362.211 451.822 360.432ZM453.904 369.116C444.119 368.553 432.907 370.183 425.8 377.415C425.8 378.008 425.978 378.571 426.038 379.134C426.216 380.734 426.275 382.305 426.305 383.905C436.015 383.062 445.797 384.129 455.093 387.047C455.396 381.044 454.997 375.027 453.904 369.116ZM454.855 390.396H454.528C445.385 387.384 435.708 386.324 426.127 387.284C426.001 389.593 425.713 391.891 425.264 394.16C434.928 396.095 444.059 400.088 452.03 405.867C453.447 400.808 454.393 395.629 454.855 390.396ZM448.907 415.173C449.71 413.247 450.424 411.261 451.078 409.246C443.304 403.328 434.268 399.272 424.67 397.391C424.017 400.082 423.183 402.725 422.171 405.304C431.611 408.404 439.811 414.426 445.577 422.494C446.647 420.123 447.748 417.722 448.788 415.173H448.907ZM433.829 440.751C437.63 436.083 440.985 431.072 443.852 425.784C438.387 417.581 430.31 411.453 420.922 408.386C419.821 410.938 418.549 413.414 417.116 415.796C416.61 416.655 416.045 417.455 415.51 418.315C423.985 423.501 431.629 430.881 433.71 440.751H433.829ZM430.855 444.189C429.874 433.815 422.32 426.406 413.666 421.071C411.527 424.187 409.182 427.157 406.647 429.963C414.782 434.74 420.805 442.405 423.51 451.42C426.058 449.143 428.481 446.729 430.766 444.189H430.855ZM420.565 453.91C419.514 449.409 417.529 445.176 414.738 441.486C411.946 437.795 408.41 434.728 404.357 432.482C402.246 434.675 400.045 436.779 397.755 438.735C405.032 443.892 409.979 451.696 411.525 460.46C414.624 458.438 417.613 456.252 420.476 453.91H420.565ZM408.253 462.416C407.719 458.084 406.255 453.918 403.961 450.2C401.667 446.482 398.597 443.3 394.96 440.869C392.637 442.691 390.214 444.383 387.703 445.937C393.27 452.141 396.571 460.036 397.071 468.343C400.9 466.564 404.632 464.585 408.253 462.416ZM393.859 469.736C393.145 461.645 390.885 453.347 384.699 447.656C383.45 448.368 382.201 449.079 380.922 449.701C378.692 450.768 376.461 451.746 374.231 452.665C378.722 459.215 379.108 467.158 381.904 474.39C386.038 472.997 390.023 471.455 393.859 469.766V469.736Z" fill="#121212"/>
<path d="M387.524 485.385C388.832 490.325 389.923 495.264 390.795 500.204C382.141 500.915 373.516 500.53 365.308 503.82C364.356 499.137 363.226 494.454 361.858 489.801C362.552 489.386 363.236 489.001 363.91 488.645C365.159 488.243 366.365 487.716 367.509 487.074C373.876 485.248 380.396 483.998 386.988 483.34L387.524 485.385Z" fill="#CED881"/>
<path d="M386.096 480.2C381.278 480.971 376.49 481.505 371.821 482.513C371.938 482.037 372.007 481.55 372.029 481.06C376.371 479.874 380.743 478.569 385.144 477.086C385.441 478.183 385.828 479.221 386.096 480.2Z" fill="#CED881"/>
<path d="M367.777 545.224C368.4 540.508 368.669 535.753 368.58 530.998C368.3 523.042 367.435 515.117 365.993 507.287C374.142 503.938 382.707 504.323 391.331 503.671C393.407 516.913 393.926 530.351 392.878 543.712C391.986 554.5 366.261 558.353 367.777 545.224Z" fill="#CED881"/>
<path d="M250.991 547.032C251.232 547.851 251.648 548.61 252.21 549.254C260.567 557.612 274.544 554.115 283.556 549.254C283.872 549.063 284.117 548.775 284.256 548.433C284.396 548.092 284.421 547.715 284.329 547.358C283.883 545.994 283.496 544.601 283.11 543.179L284.269 543.594C300.715 550.321 258.931 571.364 253.578 572.727C244.269 575.069 229.786 569.201 220.21 564.903C229.638 557.79 239.571 550.677 250.991 547.032Z" fill="#CED881"/>
<path d="M277.31 500.263C268.923 497.951 260.477 499.077 251.882 499.196C252.299 493.437 253.054 487.707 254.143 482.036C262.797 482.629 271.451 482.036 279.451 485.918C278.5 490.72 277.786 495.491 277.31 500.263Z" fill="#CED881"/>
<path d="M282.514 473.263C281.651 476.375 280.848 479.487 280.164 482.599C272.075 479.072 263.54 479.338 254.826 478.746C256.075 472.818 257.562 466.891 259.257 460.726C266.11 466.384 274.012 470.644 282.514 473.263Z" fill="#CED881"/>
<path d="M251.644 502.516C260.239 502.516 268.655 501.152 277.012 503.612C276.434 510.514 276.374 517.448 276.834 524.359C277.061 529.216 277.647 534.05 278.588 538.822C279.629 543.653 282.811 548.069 274.306 549.847C265.939 552.91 259.158 550.213 253.964 541.756C251.888 528.785 251.11 515.64 251.644 502.516Z" fill="#CED881"/>
<path d="M250.513 441.254C258.84 443.684 267.346 445.67 275.911 447.181C277.457 454.443 278.885 461.704 280.58 468.995C266.246 463.808 254.379 455.124 250.513 441.254Z" fill="#CED881"/>
<path d="M360.432 451.362C364.03 451.036 367.599 450.65 371.197 450.176C368.55 451.273 365.904 452.311 363.138 453.142C362.352 452.389 361.435 451.786 360.432 451.362Z" fill="#CED881"/>
<path d="M344.193 452.339C343.842 452.385 343.522 452.567 343.301 452.844L342.706 452.339H344.193Z" fill="#CED881"/>
<path d="M297.176 467.395C304.998 466.446 323.347 467.632 327.303 476.553C312.671 476.591 298.113 474.494 284.091 470.329C288.35 468.942 292.732 467.96 297.176 467.395Z" fill="#CED881"/>
<path d="M255.45 309.662C239.778 328.66 233.978 352.489 233.116 376.851C231.73 376.483 230.478 375.73 229.504 374.681C228.53 373.632 227.875 372.329 227.614 370.924C226.82 365.394 226.891 359.775 227.822 354.267C229.624 341.646 232.237 329.152 235.644 316.864C238.618 306.284 250.067 302.045 260.357 304.446C258.616 306.083 256.978 307.825 255.45 309.662Z" fill="#CED881"/>
<path d="M237.13 411.113C236.535 401.303 236.297 389.715 236.297 387.106C235.963 373.547 237.433 360.003 240.669 346.829C247.598 321.251 263.479 298.312 290.81 291.94C293.457 291.347 296.163 290.813 298.87 290.369C302.736 299.26 319.39 303.291 327.568 303.143C335.747 302.995 354.661 300.979 360.104 292.681C365.537 294.004 370.88 295.667 376.103 297.66C381.487 300.013 386.497 303.138 390.973 306.936C389.968 308.776 389.312 310.786 389.04 312.864C381.839 306.36 373.182 301.666 363.791 299.171C363.578 299.112 363.351 299.14 363.158 299.249C362.966 299.357 362.824 299.537 362.765 299.749C362.706 299.961 362.734 300.188 362.843 300.38C362.951 300.572 363.132 300.713 363.345 300.772C372.876 303.243 381.631 308.063 388.802 314.79C388.802 314.79 388.802 314.998 388.802 315.087C388.181 326.143 389.716 337.214 393.323 347.688C396.297 356.135 401.799 375.429 409.501 379.934C413.029 382.18 417.289 382.986 421.397 382.187C421.605 385.951 421.724 389.685 421.754 393.36C420.776 399.239 418.879 404.93 416.133 410.224C415.122 412.18 414.022 414.047 412.862 415.855C354.453 423.887 294.171 428.629 237.13 411.113Z" fill="#CED881"/>
<path d="M302.558 277.921C302.348 277.636 302.058 277.42 301.726 277.298C301.726 276.646 301.726 275.964 301.726 275.283C301.726 272.941 302.023 270.63 302.172 268.318C317.636 279.462 340.179 277.209 357.161 270.57C357.309 274.038 357.398 277.506 357.398 281.003C348.371 285.275 338.409 287.212 328.432 286.634C320.878 285.923 307.674 284.915 302.558 277.921Z" fill="#CED881"/>
<path d="M356.833 267.193C340.357 273.775 317.517 276.532 302.855 264.554C320.853 266.431 338.974 266.857 357.041 265.829V267.163L356.833 267.193Z" fill="#CED881"/>
<path d="M347.168 296.237C341.883 298.292 336.299 299.483 330.633 299.764C323.436 299.764 315.465 299.142 309.339 294.992C307.039 293.669 305.136 291.757 303.829 289.453C302.521 287.149 301.857 284.538 301.904 281.892C307.644 287.434 316.536 288.324 324.268 289.539C335.558 290.953 347.021 289.24 357.398 284.589C356.863 291.287 354.187 293.688 347.168 296.237Z" fill="#CED881"/>
<path d="M388.803 212.926C386.686 211.039 384.096 209.758 381.308 209.22C384.096 209.758 386.686 211.039 388.803 212.926Z" fill="#CED881"/>
<path d="M389.725 217.075C389.809 215.848 389.637 214.616 389.22 213.458C389.569 213.986 389.796 214.584 389.883 215.21C389.971 215.836 389.917 216.473 389.725 217.075Z" fill="#CED881"/>
<path d="M318.439 219.387C311.562 219.18 304.71 218.436 297.949 217.164C304.71 218.436 311.562 219.18 318.439 219.387Z" fill="#CED881"/>
<path d="M374.943 209.664C372.386 210.287 369.412 211.266 366.378 212.334C369.412 211.266 372.386 210.287 374.943 209.664Z" fill="#CED881"/>
<path d="M363.227 212.84C363.289 212.529 363.432 212.239 363.642 211.999C363.852 211.76 364.121 211.581 364.422 211.478C364.724 211.376 365.047 211.355 365.359 211.416C365.671 211.478 365.962 211.621 366.201 211.83C365.962 211.621 365.671 211.478 365.359 211.416C365.047 211.355 364.724 211.376 364.422 211.478C364.121 211.581 363.852 211.76 363.642 211.999C363.432 212.239 363.289 212.529 363.227 212.84Z" fill="#CED881"/>
<path d="M365.488 234.858C365.35 234.725 365.243 234.562 365.176 234.383C365.109 234.203 365.084 234.01 365.102 233.819C365.084 234.01 365.109 234.203 365.176 234.383C365.243 234.562 365.35 234.725 365.488 234.858Z" fill="#CED881"/>
<path d="M368.461 233.879C368.335 234.34 368.036 234.736 367.627 234.984C367.218 235.233 366.729 235.315 366.26 235.215C366.729 235.315 367.218 235.233 367.627 234.984C368.036 234.736 368.335 234.34 368.461 233.879Z" fill="#CED881"/>
<path d="M368.58 232.456C375.182 230.203 388.119 223.298 389.725 217.074C388.148 223.298 375.212 230.203 368.58 232.456Z" fill="#CED881"/>
<path d="M298.482 218.645C296.877 224.722 295.754 230.916 295.122 237.168C295.754 230.916 296.877 224.722 298.482 218.645Z" fill="#CED881"/>
<path d="M269.844 230.945C269.825 231.096 269.769 231.24 269.681 231.365C269.593 231.489 269.475 231.59 269.338 231.658C269.475 231.59 269.593 231.489 269.681 231.365C269.769 231.24 269.825 231.096 269.844 230.945Z" fill="#CED881"/>
<path d="M261.488 204.983C260.086 204.522 258.622 204.272 257.146 204.241C258.622 204.272 260.086 204.522 261.488 204.983Z" fill="#CED881"/>
<path d="M294.557 237.912C294.309 238.09 294.022 238.208 293.72 238.254C293.418 238.301 293.109 238.275 292.819 238.18C292.529 238.084 292.266 237.921 292.051 237.704C291.836 237.487 291.675 237.223 291.583 236.932C291.675 237.223 291.836 237.487 292.051 237.704C292.266 237.921 292.529 238.084 292.819 238.18C293.109 238.275 293.418 238.301 293.72 238.254C294.022 238.208 294.309 238.09 294.557 237.912Z" fill="#CED881"/>
<path d="M247.511 210.495C248.106 210.822 248.85 210.911 249.236 210.287C249.14 210.418 249.018 210.528 248.877 210.611C248.737 210.693 248.581 210.746 248.419 210.765C248.257 210.785 248.093 210.771 247.937 210.724C247.781 210.678 247.636 210.6 247.511 210.495Z" fill="#CED881"/>
<path d="M288.135 216.425C283.766 215.133 279.476 213.588 275.287 211.799C279.476 213.588 283.766 215.133 288.135 216.425Z" fill="#CED881"/>
<path d="M255.809 225.639C259.377 227.419 263.006 229.08 266.693 230.562C263.006 229.08 259.377 227.448 255.809 225.639Z" fill="#CED881"/>
<path d="M249.385 209.846C249.465 209.527 249.432 209.189 249.291 208.892C249.15 208.594 248.91 208.354 248.612 208.213C248.91 208.354 249.15 208.594 249.291 208.892C249.432 209.189 249.465 209.527 249.385 209.846Z" fill="#CED881"/>
<path d="M255.809 225.64C253.244 224.471 251.065 222.599 249.528 220.243C247.99 217.887 247.157 215.143 247.125 212.333C247.157 215.143 247.99 217.887 249.528 220.243C251.065 222.599 253.244 224.471 255.809 225.64Z" fill="#CED881"/>
<path d="M345.651 239.541C345.823 239.403 345.958 239.226 346.046 239.024C346.134 238.823 346.172 238.603 346.157 238.384C346.172 238.603 346.134 238.823 346.046 239.024C345.958 239.226 345.823 239.403 345.651 239.541Z" fill="#CED881"/>
<path d="M320.402 241.471C328.125 241.57 335.843 241.044 343.48 239.896C335.843 241.044 328.125 241.57 320.402 241.471Z" fill="#CED881"/>
<path d="M334.467 262.954C309.843 262.569 284.059 260.939 260.416 253.588C251.494 250.802 242.215 247.661 237.665 238.77C231.181 225.936 229.159 210.851 228.208 196.684C225.893 164.354 227.4 131.866 232.698 99.8866C236.416 82.6671 264.549 78.6067 278.765 76.532C304.491 72.9428 330.547 72.3262 356.415 74.6945C377.887 76.5024 402.631 78.577 422.2 88.5057C432.965 93.9887 434.095 99.9755 436.029 111.771C439.459 132.647 441.09 153.777 440.906 174.93C440.668 192.949 442.512 219.801 433.471 235.954C428.683 244.49 419.612 249.617 410.631 252.877C386.542 261.68 359.895 263.369 334.467 262.954ZM406.973 163.489C407.295 150.609 405.404 137.768 401.382 125.523C400.916 124.577 400.258 123.738 399.449 123.059C398.64 122.381 397.698 121.877 396.683 121.582C385.917 117.165 373.248 116.217 361.768 115.061C343.598 113.194 325.308 112.097 307.047 112.097C293.379 111.786 279.704 112.291 266.096 113.609H265.62C263.598 113.846 261.546 114.113 259.672 114.409C253.962 115.298 242.274 116.158 239.895 122.856C237.021 134.172 235.425 145.773 235.137 157.443V157.888C235.137 158.303 235.137 158.718 235.137 159.162C235.137 166.275 234.126 180.442 240.609 185.836C244.981 189.363 251.851 189.867 257.204 190.727C260.654 191.26 264.103 191.734 267.553 192.149C267.878 192.278 268.24 192.278 268.564 192.149C274.512 192.861 280.46 193.483 286.408 193.957C306.155 195.587 326.021 196.506 345.887 196.21C360.966 195.972 377.352 196.032 391.954 191.645C405.367 187.644 406.646 176.856 406.973 163.489ZM391.181 215.178C390.883 213.582 390.24 212.07 389.295 210.748C388.35 209.426 387.126 208.326 385.71 207.524C384.294 206.722 382.719 206.238 381.095 206.107C379.472 205.975 377.839 206.198 376.311 206.761C358.913 212.481 341.07 218.082 322.78 218.082H319.984C300.706 217.679 281.74 213.151 264.371 204.805C256.966 201.278 250.453 203.086 246.735 208.361V208.598V208.806C243.97 217.46 250.245 224.366 259.732 228.811C277.135 237.078 296.025 241.784 315.285 242.652C336.019 243.553 356.713 240.131 376.044 232.605C383.122 229.878 393.203 223.21 391.181 215.178Z" fill="#CED881"/>
<path d="M358.826 236.724C354.488 237.934 350.091 238.924 345.651 239.689C350.142 238.829 354.484 237.851 358.826 236.724Z" fill="#CED881"/>
<path d="M244.922 184.591C238.26 182.22 237.755 170.306 238.082 161.444C247.004 170.513 255.926 179.227 264.461 188.829C257.812 188.133 251.26 186.712 244.922 184.591Z" fill="#CED881"/>
<path d="M324.417 192.711C324.361 192.386 324.205 192.086 323.971 191.852C298.424 167.638 274.187 141.972 245.845 120.899C250.022 119.262 254.424 118.263 258.9 117.935L265.562 117.017C296.105 138.563 320.164 167.401 347.049 192.978H345.889C338.722 193.067 331.554 192.948 324.417 192.711Z" fill="#CED881"/>
<path d="M270.349 116.484C282.532 115.265 294.774 114.731 307.018 114.884L307.523 115.387C339.256 135.126 365.605 161.474 391.092 188.474C378.393 192.208 364.326 192.742 351.151 192.92C351.125 192.551 350.967 192.204 350.705 191.942C323.969 166.661 300.148 138.297 270.349 116.484Z" fill="#CED881"/>
<path d="M312.909 114.972C330.039 115.358 347.169 116.78 363.734 118.618C372.001 119.537 391.422 119.359 397.905 126.057C401.236 129.495 401.949 139.601 402.574 144.166C403.761 151.612 404.13 159.165 403.674 166.69C402.961 174.93 402.782 183.999 394.604 187.437C369.414 160.733 343.63 134.83 312.909 114.972Z" fill="#CED881"/>
<path d="M238.559 153.857C239.068 143.746 240.522 133.705 242.901 123.863C243.03 123.507 243.221 123.176 243.466 122.885C243.577 123.206 243.785 123.486 244.06 123.685C271.599 144.136 295.242 169.002 320.016 192.712C308.804 192.356 297.592 191.734 286.44 190.756C280.908 190.282 275.138 189.926 269.339 189.392C259.555 178.071 248.521 167.816 238.321 157.028C238.41 155.813 238.499 154.746 238.559 153.857Z" fill="#CED881"/>
<path d="M286.439 193.986C280.491 193.512 274.543 192.89 268.595 192.178C268.271 192.307 267.909 192.307 267.584 192.178C264.135 191.763 260.685 191.289 257.235 190.756C251.882 189.896 245.012 189.392 240.64 185.866C234.157 180.59 235.109 166.423 235.168 159.192C235.168 158.747 235.168 158.332 235.168 157.917V157.443C235.418 145.828 236.964 134.278 239.778 123.004C242.157 116.306 253.845 115.446 259.555 114.557C261.577 114.261 263.629 113.994 265.503 113.757H265.978C279.586 112.439 293.261 111.934 306.93 112.245C325.19 112.245 343.48 113.342 361.651 115.209C373.131 116.365 385.8 117.313 396.565 121.729C397.57 122.012 398.505 122.497 399.313 123.154C400.122 123.812 400.786 124.628 401.264 125.553C405.287 137.798 407.178 150.638 406.855 163.519C406.647 176.885 405.249 187.673 391.986 191.704C377.383 196.091 360.997 196.031 345.919 196.268C326.053 196.535 306.186 195.676 286.439 193.986ZM403.673 166.69C404.166 159.178 403.837 151.635 402.692 144.195C402.067 139.631 401.354 129.376 398.023 126.086C391.539 119.388 372.119 119.566 363.852 118.647C347.287 116.78 330.157 115.357 313.027 114.972C343.748 134.829 369.532 160.733 394.543 187.259C402.662 183.998 402.841 174.929 403.673 166.69ZM391.212 188.474C365.725 161.474 339.376 135.126 307.644 115.387L307.138 114.883C294.895 114.73 282.652 115.265 270.469 116.483C300.209 138.297 324.001 166.66 350.766 191.941C351.028 192.203 351.186 192.551 351.212 192.919C364.447 192.712 378.394 192.208 391.093 188.474H391.212ZM265.562 117.017L258.9 117.936C254.424 118.263 250.022 119.263 245.845 120.899C274.187 142.061 298.424 167.727 323.971 191.941C324.205 192.175 324.361 192.475 324.417 192.801C331.554 192.801 338.722 193.068 345.889 192.979H347.168C320.164 167.342 296.105 138.564 265.562 117.017ZM244.923 184.591C251.26 186.712 257.813 188.133 264.462 188.829C256.016 179.375 246.915 170.513 238.083 161.444C237.755 170.306 238.261 182.22 244.923 184.591ZM286.558 190.726C297.711 191.704 308.923 192.327 320.134 192.682C295.361 168.972 271.718 144.136 244.179 123.685C243.903 123.486 243.696 123.206 243.584 122.885C243.34 123.176 243.149 123.507 243.019 123.863C240.641 133.705 239.187 143.746 238.677 153.857C238.677 154.746 238.677 155.813 238.439 156.998C248.789 167.786 259.674 178.041 269.458 189.363C275.138 189.896 280.908 190.252 286.439 190.726H286.558Z" fill="#121212"/>
<path d="M348.031 237.791L346.157 238.117C346.136 231.653 345.679 225.197 344.789 218.793C346.098 218.556 347.406 218.349 348.685 218.052C353.622 216.783 358.486 215.249 363.258 213.458C364.916 220.041 365.548 226.838 365.131 233.612C359.527 235.37 353.815 236.766 348.031 237.791Z" fill="#CED881"/>
<path d="M316.953 240.132H315.169C308.37 239.808 301.602 239.005 294.916 237.732L295.124 237.169C295.764 230.966 296.887 224.822 298.485 218.793C305.009 220.027 311.623 220.731 318.262 220.897C317.607 227.151 317.042 233.582 316.953 240.132Z" fill="#CED881"/>
<path d="M342.646 238.651C335.28 239.71 327.843 240.205 320.401 240.133C320.461 233.637 320.848 227.148 321.561 220.691C328.236 220.762 334.907 220.326 341.516 219.387C342.382 225.77 342.76 232.21 342.646 238.651Z" fill="#CED881"/>
<path d="M275.287 211.681C279.473 213.509 283.763 215.093 288.134 216.423C290.484 217.045 292.863 217.608 295.242 218.112C293.578 224.208 292.375 230.42 291.644 236.695V237.05C288.67 236.428 285.696 235.657 282.722 234.798C279.748 233.938 274.752 232.723 270.053 231.064C270.725 224.361 272.493 217.814 275.287 211.681Z" fill="#CED881"/>
<path d="M272.133 210.494C269.31 216.602 267.463 223.112 266.661 229.788C256.163 225.698 246.676 218.763 249.322 210.109C253.783 203.826 262.913 206.908 272.133 210.494Z" fill="#CED881"/>
<path d="M368.58 232.456C368.851 225.719 368.13 218.978 366.439 212.45C369.413 211.383 372.387 210.405 375.004 209.782C377.04 209.134 379.202 208.981 381.309 209.338C384.085 209.842 386.673 211.081 388.803 212.924L389.279 213.547C389.685 214.676 389.857 215.876 389.785 217.073C388.119 223.297 375.183 230.203 368.58 232.456Z" fill="#CED881"/>
<path d="M315.019 242.652C295.759 241.784 276.869 237.078 259.465 228.811C249.978 224.366 243.703 217.46 246.469 208.806V208.598V208.361C250.187 203.086 256.7 201.278 264.105 204.805C281.474 213.151 300.44 217.679 319.718 218.083H322.514C340.922 218.083 358.766 212.481 376.045 206.761C377.573 206.198 379.206 205.975 380.829 206.107C382.453 206.239 384.027 206.722 385.444 207.524C386.86 208.326 388.083 209.426 389.029 210.748C389.974 212.07 390.617 213.582 390.915 215.178C392.937 223.21 382.855 229.997 375.51 232.605C356.263 240.095 335.663 243.516 315.019 242.652ZM363.257 213.459C358.486 215.26 353.622 216.803 348.685 218.083C347.406 218.379 346.097 218.586 344.789 218.823C345.678 225.227 346.135 231.683 346.157 238.147L348.03 237.821C353.776 236.771 359.448 235.356 365.012 233.583C365.464 226.825 364.873 220.038 363.257 213.459ZM321.621 220.75C320.89 227.187 320.483 233.656 320.402 240.133C327.825 240.193 335.242 239.687 342.588 238.622C342.719 232.192 342.362 225.762 341.517 219.387C334.929 220.333 328.278 220.779 321.621 220.72V220.75ZM298.514 218.616C296.897 224.702 295.763 230.906 295.123 237.169L294.915 237.732C301.601 239.006 308.369 239.808 315.168 240.133H316.952C316.952 233.642 317.607 227.211 318.291 220.75C311.65 220.564 305.036 219.84 298.514 218.586V218.616ZM358.826 236.725C354.484 237.851 350.082 238.829 345.651 239.688C345.823 239.551 345.958 239.374 346.046 239.172C346.134 238.971 346.172 238.752 346.157 238.533C346.172 238.752 346.134 238.971 346.046 239.172C345.958 239.374 345.823 239.551 345.651 239.688C350.09 238.923 354.487 237.934 358.826 236.725ZM343.391 239.896C335.754 241.041 328.036 241.566 320.313 241.467C328.036 241.566 335.754 241.041 343.391 239.896ZM269.845 230.945C274.543 232.605 279.123 233.731 282.514 234.68C285.904 235.628 288.462 236.31 291.436 236.932C291.528 237.222 291.689 237.487 291.903 237.703C292.118 237.92 292.382 238.082 292.672 238.178C292.962 238.273 293.271 238.299 293.573 238.252C293.875 238.206 294.162 238.089 294.41 237.91C294.162 238.089 293.875 238.206 293.573 238.252C293.271 238.299 292.962 238.273 292.672 238.178C292.382 238.082 292.118 237.92 291.903 237.703C291.689 237.487 291.528 237.222 291.436 236.932V236.577C292.167 230.301 293.37 224.089 295.034 217.994C292.655 217.49 290.276 216.927 287.926 216.304C283.557 215.013 279.268 213.469 275.079 211.681C272.297 217.747 270.519 224.223 269.815 230.856C269.796 231.007 269.74 231.151 269.652 231.276C269.564 231.4 269.446 231.5 269.309 231.568C269.441 231.512 269.558 231.427 269.65 231.319C269.743 231.211 269.81 231.083 269.845 230.945ZM249.205 210.051C246.558 218.705 256.045 225.64 266.543 229.73C267.39 223.067 269.276 216.577 272.135 210.495C262.915 206.909 253.785 203.827 249.324 210.051H249.205ZM247.391 210.347C247.516 210.451 247.661 210.529 247.817 210.576C247.973 210.622 248.137 210.636 248.299 210.616C248.46 210.597 248.616 210.544 248.757 210.462C248.898 210.38 249.02 210.271 249.116 210.14C248.848 210.762 248.105 210.673 247.51 210.495L247.391 210.347ZM255.688 225.64C259.257 227.448 262.885 229.078 266.573 230.56C262.885 229.078 259.257 227.418 255.688 225.64C253.124 224.471 250.945 222.599 249.408 220.243C247.87 217.887 247.037 215.143 247.004 212.333C247.047 215.156 247.898 217.909 249.458 220.266C251.017 222.624 253.22 224.488 255.807 225.64H255.688ZM249.265 209.843C249.345 209.524 249.311 209.188 249.17 208.89C249.029 208.593 248.789 208.354 248.491 208.213C248.811 208.333 249.077 208.564 249.241 208.863C249.405 209.162 249.456 209.51 249.384 209.843H249.265ZM257.027 204.242C258.503 204.272 259.966 204.522 261.369 204.983C260.004 204.534 258.582 204.284 257.146 204.242H257.027ZM297.949 217.134C304.71 218.406 311.561 219.149 318.439 219.357C311.561 219.149 304.71 218.406 297.949 217.134ZM363.227 212.837C363.289 212.526 363.433 212.236 363.642 211.998C363.852 211.759 364.121 211.58 364.423 211.478C364.724 211.376 365.047 211.354 365.359 211.416C365.671 211.478 365.962 211.62 366.201 211.829C365.962 211.62 365.671 211.478 365.359 211.416C365.047 211.354 364.724 211.376 364.423 211.478C364.121 211.58 363.852 211.759 363.642 211.998C363.433 212.236 363.289 212.526 363.227 212.837ZM389.22 213.459L388.744 212.837C386.627 210.95 384.037 209.67 381.25 209.132C379.143 208.775 376.98 208.928 374.945 209.576C372.387 210.199 369.413 211.177 366.38 212.244C368.07 218.772 368.792 225.512 368.521 232.249C375.153 229.997 388.09 223.091 389.666 216.867C389.835 216.3 389.882 215.703 389.805 215.116C389.728 214.529 389.529 213.965 389.22 213.459ZM368.402 233.791C368.276 234.251 367.977 234.646 367.568 234.894C367.159 235.142 366.67 235.224 366.201 235.124C366.666 235.245 367.16 235.184 367.581 234.952C368.002 234.72 368.317 234.336 368.461 233.879L368.402 233.791ZM365.041 233.791C365.023 233.981 365.049 234.174 365.116 234.353C365.183 234.533 365.289 234.695 365.428 234.828C365.288 234.701 365.178 234.545 365.106 234.371C365.034 234.196 365.002 234.008 365.012 233.82L365.041 233.791Z" fill="#121212"/>
<path d="M381.783 445.048C367.503 447.506 353.059 448.903 338.571 449.227C322.72 438.35 298.096 439.98 278.914 444.455C265.18 442.118 251.67 438.628 238.527 434.023C233.888 432.363 231.776 429.162 230.587 423.916C229.721 420.332 229.065 416.7 228.624 413.039C228.029 407.823 227.523 411.528 231.122 412.743C251.545 419.528 272.732 423.769 294.2 425.369C333.129 428.184 371.939 424.687 410.512 419.441C408.263 422.645 405.789 425.686 403.107 428.54C402.892 428.623 402.7 428.754 402.545 428.924C402.39 429.094 402.277 429.297 402.214 429.518C396.206 435.666 389.322 440.899 381.783 445.048ZM238.111 429.814C243.018 430.703 247.687 432.541 252.594 433.43C253.635 433.608 254.081 432.007 253.04 431.83C248.133 430.911 243.464 429.103 238.557 428.214C237.486 428.125 237.129 429.814 238.111 429.814ZM237.278 425.072C244.551 427.488 251.997 429.35 259.553 430.644C260.624 430.822 261.07 429.221 259.999 429.044C252.443 427.75 244.997 425.887 237.724 423.472C237.495 423.393 237.245 423.408 237.027 423.514C236.81 423.619 236.643 423.807 236.564 424.035C236.485 424.263 236.501 424.513 236.607 424.729C236.712 424.946 236.901 425.112 237.129 425.191L237.278 425.072ZM265.352 425.428C256.096 424.46 247.001 422.318 238.289 419.056C237.278 418.641 236.832 420.271 237.843 420.656C246.698 423.967 255.944 426.128 265.352 427.088C266.393 427.325 266.393 425.665 265.352 425.546V425.428Z" fill="#CED881"/>
<path d="M265.354 427.211C255.952 426.299 246.707 424.186 237.845 420.925C236.834 420.539 237.28 418.908 238.291 419.323C247.003 422.587 256.098 424.73 265.354 425.699C266.395 425.669 266.395 427.329 265.354 427.211Z" fill="#121212"/>
<path d="M237.726 423.591C244.999 426.008 252.446 427.871 260.001 429.166C261.072 429.344 260.626 430.945 259.555 430.767C251.949 429.48 244.453 427.616 237.132 425.192C236.919 425.113 236.746 424.954 236.651 424.748C236.556 424.542 236.547 424.307 236.626 424.095C236.705 423.883 236.865 423.71 237.071 423.616C237.278 423.521 237.513 423.512 237.726 423.591Z" fill="#121212"/>
<path d="M238.557 428.332C243.464 429.222 248.133 431.031 253.04 431.95C254.081 432.128 253.635 433.73 252.594 433.552C247.687 432.662 243.018 430.823 238.111 429.934C237.13 429.815 237.486 428.125 238.557 428.332Z" fill="#121212"/>
<path d="M422.438 376.466C422.306 376.789 422.306 377.15 422.438 377.473V378.54C419.799 378.936 417.106 378.785 414.528 378.096C405.606 375.962 398.736 354.771 396.267 346.947C392.95 336.704 391.471 325.959 391.896 315.205C393.264 294.311 416.461 306.166 423.122 316.213C425.287 319.441 427.273 322.785 429.07 326.23C427.926 325.805 426.753 325.458 425.561 325.193C410.245 322.022 397.606 335.536 405.308 349.377L405.695 350.118L406.2 350.622C413.963 358.357 420.951 365.441 422.438 376.466Z" fill="#CED881"/>
<path d="M387.702 445.966C390.213 444.413 392.636 442.721 394.958 440.898C398.592 443.326 401.66 446.503 403.954 450.216C406.248 453.928 407.713 458.089 408.252 462.415C404.631 464.585 400.899 466.563 397.07 468.343C396.563 460.046 393.263 452.162 387.702 445.966Z" fill="#CED881"/>
<path d="M406.645 429.992C409.18 427.186 411.525 424.216 413.664 421.1C422.318 426.287 429.872 433.844 430.854 444.218C428.54 446.77 426.088 449.194 423.508 451.479C420.81 442.452 414.786 434.776 406.645 429.992Z" fill="#CED881"/>
<path d="M415.391 418.315C415.926 417.455 416.491 416.655 416.996 415.796C418.43 413.414 419.702 410.938 420.803 408.386C430.191 411.453 438.268 417.581 443.732 425.783C440.866 431.072 437.51 436.083 433.71 440.75C431.628 430.881 423.985 423.501 415.391 418.315Z" fill="#CED881"/>
<path d="M370.544 472.878C369.667 467.076 367.913 461.44 365.339 456.162C367.302 455.451 369.206 454.71 371.079 453.969C375.808 460.282 376.046 468.344 378.752 475.516C376.432 476.287 374.083 476.998 371.674 477.709C371.347 475.961 370.96 474.271 370.544 472.878Z" fill="#CED881"/>
<path d="M381.904 474.42C379.109 467.188 378.722 459.245 374.231 452.695C376.462 451.776 378.692 450.798 380.923 449.731C382.201 449.109 383.45 448.397 384.7 447.686C390.796 453.377 393.146 461.675 393.859 469.766C390.023 471.456 386.038 472.997 381.904 474.42Z" fill="#CED881"/>
<path d="M412.269 351.808L408.67 348.014C402.038 337.196 413.22 325.845 423.034 327.89C427.661 328.491 431.867 330.874 434.752 334.529C430.017 335.723 425.579 337.872 421.712 340.844C417.845 343.816 414.631 347.548 412.269 351.808Z" fill="#CED881"/>
<path d="M421.307 363.455C419.406 360.259 417.162 357.277 414.615 354.564C416.737 350.344 419.771 346.645 423.499 343.734C427.228 340.823 431.557 338.772 436.177 337.73C436.504 337.658 436.804 337.494 437.039 337.255L437.426 337.67C440.751 341.187 443.738 345.007 446.348 349.081C436.385 350.296 428.117 356.134 421.307 363.455Z" fill="#CED881"/>
<path d="M426.305 383.906C426.305 382.306 426.305 380.735 426.038 379.134C426.038 378.571 425.889 378.008 425.8 377.415C432.908 370.184 444.119 368.524 453.904 369.117C454.985 374.979 455.385 380.946 455.093 386.899C445.787 384.032 436.005 383.015 426.305 383.906Z" fill="#CED881"/>
<path d="M426.127 387.254C435.708 386.294 445.385 387.354 454.528 390.366H454.855C454.343 395.594 453.347 400.763 451.881 405.808C443.91 400.029 434.78 396.036 425.116 394.101C425.613 391.845 425.95 389.557 426.127 387.254Z" fill="#CED881"/>
<path d="M397.725 438.705C400.015 436.749 402.216 434.645 404.327 432.452C408.38 434.698 411.916 437.765 414.707 441.456C417.499 445.146 419.484 449.378 420.535 453.88C417.681 456.221 414.703 458.408 411.613 460.43C410.038 451.647 405.047 443.84 397.725 438.705Z" fill="#CED881"/>
<path d="M422.054 405.304C423.065 402.725 423.9 400.082 424.552 397.391C434.151 399.272 443.187 403.328 450.961 409.246C450.307 411.232 449.593 413.217 448.79 415.174C447.749 417.722 446.649 420.123 445.459 422.494C439.693 414.426 431.494 408.404 422.054 405.304Z" fill="#CED881"/>
<path d="M425.115 373.503C424.594 371.116 423.848 368.784 422.884 366.538C429.576 359.099 437.546 353.053 447.806 351.956H448.163C449.654 354.667 450.879 357.516 451.821 360.462C452.356 362.24 452.802 364.019 453.219 365.827C443.345 365.352 432.758 367.16 425.115 373.503Z" fill="#CED881"/>
<path d="M353.292 472.166C352.117 466.025 349.43 460.271 345.471 455.421C347.869 454.297 350.466 453.652 353.114 453.524C361.56 453.524 363.88 460.667 365.753 467.602C366.948 471.935 367.803 476.355 368.311 480.821C368.638 483.784 366.348 484.021 362.839 485.118C361.738 485.444 356.891 486.57 352.965 487.163C354.242 482.257 354.354 477.123 353.292 472.166ZM365.01 481.206C365.188 482.243 366.854 482.065 366.645 480.998C366.348 479.368 366.229 477.709 365.932 476.078C365.723 475.011 364.088 475.189 364.266 476.256C364.474 477.886 364.593 479.576 365.01 481.206Z" fill="#CED881"/>
<path d="M306.81 463.424C298.93 463.261 291.08 464.464 283.613 466.98C283.613 466.565 283.286 465.884 283.078 464.817C282.424 461.853 281.829 458.889 281.204 456.074C280.58 453.258 279.985 450.502 279.39 447.716C301.814 442.44 338.364 438.439 348.059 465.795C355.643 487.223 339.137 508.74 318.706 515.171C306.305 519.084 293.814 525.219 291.94 508.918C291.524 505.361 288.966 506.458 292.535 505.954C294.766 505.717 296.996 505.509 299.197 505.124C308.684 503.405 317.992 500.827 325.279 494.277C341.041 480.199 321.264 464.135 306.81 463.424ZM285.071 449.79C284.944 449.804 284.822 449.847 284.714 449.916C284.606 449.984 284.516 450.077 284.45 450.185C284.384 450.294 284.344 450.417 284.333 450.544C284.322 450.67 284.34 450.798 284.387 450.917C285.284 454.041 285.931 457.233 286.32 460.46C286.498 461.527 288.163 461.349 287.985 460.282C287.576 457.287 286.99 454.318 286.23 451.391C289.383 451.006 292.565 450.857 295.717 450.353C296.758 450.176 296.58 448.516 295.509 448.694C292.059 449.198 288.55 449.316 285.071 449.79ZM314.81 505.361C313.769 505.717 314.394 507.258 315.405 506.932C326.974 503.227 337.621 494.781 336.044 481.592C336.031 481.483 335.996 481.378 335.941 481.282C335.887 481.187 335.814 481.103 335.727 481.035C335.64 480.968 335.541 480.918 335.434 480.889C335.328 480.86 335.217 480.852 335.108 480.866C334.998 480.879 334.893 480.914 334.797 480.968C334.701 481.023 334.617 481.095 334.549 481.182C334.482 481.269 334.432 481.368 334.403 481.474C334.373 481.58 334.365 481.69 334.379 481.799C335.836 494.306 325.546 501.923 314.781 505.361H314.81Z" fill="#CED881"/>
<path d="M295.51 448.635C296.58 448.457 296.759 450.117 295.718 450.295C292.565 450.798 289.383 450.947 286.231 451.332C286.99 454.259 287.576 457.228 287.985 460.223C288.164 461.29 286.498 461.468 286.32 460.401C285.931 457.174 285.285 453.983 284.387 450.858C284.341 450.739 284.322 450.612 284.333 450.485C284.344 450.358 284.384 450.235 284.45 450.127C284.517 450.018 284.607 449.925 284.714 449.857C284.822 449.788 284.944 449.745 285.071 449.731C288.551 449.317 292.06 449.198 295.51 448.635Z" fill="#121212"/>
<path d="M334.349 481.798C334.335 481.689 334.343 481.579 334.373 481.473C334.402 481.367 334.452 481.268 334.519 481.181C334.587 481.094 334.671 481.022 334.767 480.967C334.863 480.913 334.968 480.878 335.078 480.865C335.187 480.851 335.298 480.859 335.404 480.888C335.51 480.917 335.61 480.967 335.697 481.034C335.784 481.102 335.857 481.186 335.911 481.281C335.966 481.377 336.001 481.482 336.014 481.591C337.591 494.78 327.093 503.227 315.375 506.931C314.364 507.257 313.739 505.716 314.78 505.361C325.546 501.922 335.836 494.305 334.349 481.798Z" fill="#121212"/>
<path d="M365.844 476.079C366.142 477.71 366.261 479.371 366.558 481.002C366.766 482.07 365.101 482.247 364.923 481.209C364.595 479.578 364.476 477.888 364.179 476.257C364.001 475.189 365.636 475.011 365.844 476.079Z" fill="#121212"/>
<path d="M114.782 350.355C85.7263 356.283 56.2246 357.172 26.6038 357.201C26.1621 357.201 25.7385 357.027 25.4262 356.715C25.1139 356.404 24.9384 355.982 24.9384 355.542C24.9384 355.101 25.1139 354.679 25.4262 354.368C25.7385 354.057 26.1621 353.882 26.6038 353.882C55.9272 353.882 85.1018 353.082 113.89 347.154C116.001 346.828 116.894 349.94 114.782 350.355Z" fill="#121212"/>
<path d="M117.041 370.805C88.6397 378.096 59.6732 377.237 30.5877 378.215C28.4465 378.215 28.4465 374.955 30.5877 374.866C59.3758 373.917 88.0449 374.866 116.179 367.575C116.609 367.461 117.066 367.522 117.451 367.744C117.836 367.966 118.116 368.332 118.231 368.76C118.345 369.189 118.284 369.645 118.061 370.028C117.838 370.412 117.471 370.691 117.041 370.805Z" fill="#121212"/>
<path d="M122.751 391.819C95.0963 396.265 67.1346 398.544 39.1227 398.635C38.681 398.635 38.2574 398.461 37.9451 398.149C37.6328 397.838 37.4573 397.416 37.4573 396.976C37.4573 396.536 37.6328 396.114 37.9451 395.802C38.2574 395.491 38.681 395.316 39.1227 395.316C66.8357 395.24 94.4997 392.99 121.859 388.589C123.97 388.322 124.862 391.493 122.751 391.819Z" fill="#121212"/>
<path d="M53.3695 415.766C78.7077 415.232 103.927 414.818 128.67 408.475C129.096 408.357 129.552 408.413 129.937 408.63C130.321 408.846 130.604 409.207 130.722 409.631C130.841 410.055 130.785 410.509 130.567 410.893C130.35 411.276 129.988 411.558 129.563 411.676C104.581 418.107 79.0051 418.552 53.3695 419.085C52.9278 419.085 52.5042 418.91 52.1918 418.599C51.8795 418.288 51.704 417.866 51.704 417.426C51.704 416.985 51.8795 416.563 52.1918 416.252C52.5042 415.941 52.9278 415.766 53.3695 415.766Z" fill="#121212"/>
<path d="M173.399 462.238C151.183 468.55 129.146 475.486 106.187 478.657C104.075 478.953 103.213 475.693 105.295 475.456C128.254 472.285 150.291 465.35 172.506 459.007C172.914 458.95 173.329 459.043 173.673 459.268C174.017 459.494 174.267 459.836 174.377 460.232C174.486 460.627 174.447 461.049 174.267 461.418C174.087 461.788 173.778 462.079 173.399 462.238Z" fill="#121212"/>
<path d="M189.935 478.687C167.809 483.222 145.742 487.904 123.853 493.506C123.428 493.624 122.972 493.568 122.587 493.351C122.202 493.135 121.92 492.774 121.801 492.35C121.683 491.926 121.739 491.472 121.956 491.088C122.174 490.705 122.535 490.423 122.961 490.305C144.85 484.793 166.917 480.11 189.043 475.486C191.125 475.042 192.047 478.272 189.935 478.687Z" fill="#121212"/>
<path d="M203.584 495.165C181.666 502.13 160.015 509.539 137.056 512.236C134.915 512.473 134.945 509.273 137.056 508.887C159.718 506.25 181.071 498.81 202.692 491.964C204.773 491.312 205.636 494.513 203.584 495.165Z" fill="#121212"/>
<path d="M213.338 516.179C192.977 522.727 172.079 527.488 150.885 530.405C148.744 530.642 148.774 527.441 150.885 527.085C171.808 524.182 192.437 519.462 212.535 512.978C214.439 512.326 215.331 515.556 213.338 516.179Z" fill="#121212"/>
<path d="M155.257 550.915C175.004 550.915 193.919 545.521 212.922 541.342C215.034 540.897 215.896 544.098 213.814 544.572C194.394 548.781 175.153 554.353 155.257 554.234C154.815 554.234 154.392 554.059 154.079 553.748C153.767 553.437 153.591 553.015 153.591 552.574C153.591 552.134 153.767 551.712 154.079 551.401C154.392 551.09 154.815 550.915 155.257 550.915Z" fill="#121212"/>
</svg>
