<svg width="274" height="450" viewBox="0 0 274 450" fill="none" xmlns="http://www.w3.org/2000/svg">
<g clip-path="url(#clip0_0_5511)">
<path d="M266.612 42.6042C266.474 42.2431 266.204 41.9481 265.856 41.7788C269.296 38.1229 271.239 33.3115 271.301 28.2943C271.127 18.797 263.668 10.683 253.848 11.6246C250.532 11.9501 245.423 13.7054 244.434 17.3555C243.445 21.0056 247.774 25.8299 250.555 27.7363C250.776 27.8708 251.029 27.942 251.288 27.942C251.547 27.942 251.8 27.8708 252.021 27.7363C252.137 27.6665 252.766 27.1086 252.894 27.1318C253.452 26.2018 254.057 26.6785 254.848 28.5616C257.362 29.9101 257.176 31.4678 254.395 33.2115C253.619 35.9859 252.033 36.8577 249.636 35.827C249.305 35.9677 248.95 36.0388 248.591 36.0358C248.232 36.0328 247.878 35.9557 247.55 35.8095C247.222 35.6632 246.928 35.451 246.686 35.1859C246.445 34.9209 246.26 34.6089 246.145 34.2693C245.364 33.232 244.672 32.1317 244.074 30.9796C242.91 29.2475 240.467 26.4925 238.139 26.8063C235.475 27.1667 233.264 30.8866 232.647 33.1882C231.658 36.943 232.927 40.6047 234.823 43.8364C234.879 43.9595 234.954 44.0733 235.044 44.1735C235.126 44.2982 235.224 44.4116 235.335 44.5106C239.489 49.7417 245.4 51.2296 251.241 50.2183C254.686 54.9846 257.076 60.429 258.251 66.1894C259.427 71.9497 259.362 77.8942 258.06 83.6274C255.733 93.4502 248.437 105.796 238.151 109.062C237.977 103.25 236.394 98.6696 231.356 99.9367C230.309 96.4493 228.063 94.1244 223.746 94.4499L223.676 93.9268C222.792 88.5446 219.441 87.3356 214.891 88.1145C214.24 87.1225 213.457 86.2231 212.564 85.4408C208.166 81.535 201.871 80.6864 196.274 80.4887C185.976 80.1284 175.632 81.6512 165.323 81.8721C164.624 81.8721 163.915 81.8721 163.205 81.8721C163.234 81.7068 163.234 81.5375 163.205 81.3722C162.842 79.1091 162.729 76.8131 162.867 74.5253C170.873 72.7468 177.54 69.55 177.633 59.9365C177.71 49.4989 175.318 39.1908 170.652 29.852C174.759 26.8877 177.447 30.038 181.392 32.886C181.723 33.0813 182.119 33.1371 182.492 33.0413C182.865 32.9454 183.185 32.7056 183.381 32.3745C188.036 24.7023 194.703 16.5883 196.89 7.76522C197.17 6.60276 195.843 5.34731 194.749 6.12615L182.322 14.9609C180.903 15.9722 178.587 18.4482 176.574 17.2858C175.318 16.5418 174.957 11.2294 174.748 9.89253C174.686 9.67988 174.578 9.48382 174.43 9.31906C174.282 9.1543 174.099 9.02513 173.894 8.94123C173.689 8.85734 173.468 8.8209 173.247 8.83466C173.026 8.84842 172.811 8.91202 172.618 9.02068C168.394 11.613 164.31 14.3564 160.307 17.2509C144.157 4.31272 120.106 6.06803 104.456 19.6921C102.149 16.8524 100.034 13.8621 98.1257 10.7411C97.4276 9.63679 96.9622 8.4162 95.4611 8.34645C92.9711 8.27671 90.5741 12.6011 88.9451 15.4723C85.3225 10.5435 81.7193 5.60305 78.1354 0.650966C77.952 0.346199 77.6638 0.118532 77.3246 0.010446C76.9855 -0.0976397 76.6185 -0.0787595 76.2923 0.0635637C75.9661 0.205887 75.7028 0.46193 75.5517 0.783916C75.4005 1.1059 75.3718 1.47183 75.4708 1.81343C78.0413 11.2432 81.4124 20.4368 85.5474 29.294C85.662 29.4895 85.8201 29.656 86.0094 29.7806C86.1988 29.9052 86.4143 29.9847 86.6393 30.0128C86.8643 30.0409 87.0927 30.0169 87.3069 29.9426C87.5211 29.8684 87.7154 29.7459 87.8746 29.5846L92.7384 23.8421C93.9019 25.6555 95.0655 27.4224 96.2291 29.1545C95.7869 29.8403 95.3448 30.5262 94.9375 31.2469C88.4331 42.8483 83.7788 62.9356 97.8116 71.3053C100.516 72.8426 103.457 73.9191 106.515 74.4905C105.929 77.2016 105.811 79.993 106.166 82.7439C98.2072 82.5347 90.3065 81.3722 82.3592 81.3025C74.412 81.2327 69.2573 84.2784 66.0109 89.3118C60.6003 87.6611 56.8884 88.4051 55.3874 94.1477C55.3874 94.3569 55.306 94.5661 55.2594 94.7754C50.9891 94.1709 48.6154 96.4145 47.3703 99.9018C42.4484 98.5418 40.6099 102.947 40.1096 108.62C30.2424 104.935 23.7264 92.6248 21.725 83.0462C20.5692 77.1782 20.7063 71.1292 22.127 65.3196C23.5476 59.5099 26.2177 54.0791 29.9515 49.4046C29.9869 49.3529 30.018 49.2985 30.0446 49.2418C35.8625 50.6716 41.9597 49.5092 46.4395 44.2084C46.4733 44.1703 46.5008 44.1272 46.5209 44.0805C46.5735 44.0317 46.6204 43.9771 46.6606 43.9177C48.8714 40.7559 50.3491 37.1987 49.5695 33.258C49.0924 30.9331 47.0795 26.9109 44.345 26.446C41.8084 26.0159 39.3998 29.0034 37.9686 30.7238C35.304 33.8973 33.4772 36.5361 28.66 34.5018C22.4115 31.8514 27.2753 24.3303 30.5333 26.7366C30.7554 26.8675 31.0085 26.9365 31.2664 26.9365C31.5242 26.9365 31.7774 26.8675 31.9994 26.7366C34.4197 25.2486 38.9809 20.5988 38.7715 17.3555C38.469 13.3567 32.9536 11.0434 29.6025 10.5203C20.2589 9.06718 12.3349 16.1233 11.2761 25.2951C10.867 30.5603 12.5377 35.7762 15.9304 39.8259C15.7787 39.8878 15.6409 39.9794 15.525 40.0951C15.4092 40.2109 15.3175 40.3486 15.2555 40.5001C6.88937 58.9832 2.38631 80.8491 8.70456 100.692C12.0353 110.959 17.8786 120.233 25.7045 127.673C25.7502 128.049 25.9268 128.397 26.2032 128.656C26.4797 128.916 26.8386 129.069 27.2171 129.091C32.0023 133.424 37.4559 136.957 43.3676 139.553C45.1712 145.97 48.499 151.364 54.922 147.691C55.8777 148.419 57.0054 148.888 58.1959 149.053C59.3864 149.218 60.5993 149.073 61.7173 148.632C61.9327 148.568 62.1296 148.453 62.2916 148.298C62.4535 148.142 62.5758 147.95 62.6482 147.737C65.2779 149.795 68.6755 150.201 73.0389 147.737C73.1553 148.004 73.26 148.272 73.3764 148.551C79.3106 162.861 85.6522 178.926 96.2989 190.481C99.5391 193.914 103.623 196.439 108.144 197.804C107.858 200.119 107.822 202.457 108.039 204.779C104.898 204.41 101.715 204.846 98.789 206.046C95.4844 207.581 94.6234 210.057 93.7972 213.428C91.765 221.488 90.2454 229.669 89.2476 237.921C88.2237 246.907 92.1682 252.94 98.3235 256.764C95.8684 262.763 95.6822 268.889 100.523 271.679C99.3591 278.2 104.456 283.454 110.681 285C114.121 285.73 117.643 285.992 121.153 285.779C122.138 306.177 123.643 326.539 125.668 346.867C126.102 351.098 126.556 355.322 127.029 359.537C122.666 359.537 116.231 359.456 113.31 362.885C110.192 366.57 109.994 373.406 109.82 377.997C109.378 394.074 112.217 410.604 113.683 426.623C114.02 430.285 113.788 434.76 117.662 436.574C120.99 438.12 129.531 439.247 132.638 436.946C135.965 434.47 135.442 426.193 135.814 422.554C136.461 415.898 136.749 409.212 136.675 402.525C139.249 404.845 142.639 406.049 146.1 405.873C146.263 411.918 146.507 417.963 146.798 423.996C147.008 428.134 146.531 433.667 150.091 436.62C153.652 439.573 159.924 438.666 163.845 437.248C169.174 435.318 169.663 430.924 170.431 425.821C172.653 410.93 174.689 395.748 175.236 380.683C175.434 375.254 175.981 367.675 172.164 363.246C168.348 358.817 162.344 358.852 157.108 359.154C157.108 357.712 157.108 356.282 157.049 354.841C156.832 331.592 157.569 308.385 159.26 285.221C164.264 284.873 169.127 283.873 173.153 281.164C178.378 277.677 181.124 271.365 179.169 265.459C182.171 262.135 183.474 257.857 181.182 253.567C184.267 252.695 187.16 251.252 189.711 249.313C193.342 246.232 191.969 240.99 191.468 236.828C190.717 230.474 189.448 224.191 187.675 218.043C186.511 213.997 185.522 207.034 181.38 204.709C178.564 203.128 175.178 203.349 171.676 204.221C171.536 202.036 171.385 199.862 171.234 197.676C174.863 196.912 178.306 195.443 181.368 193.352C186.314 189.865 188.804 184.482 191.084 179.042C194.808 170.149 198.135 161.082 201.3 151.98C201.94 150.132 202.545 148.283 203.174 146.424C207.421 149.19 210.853 148.969 213.646 147.016C213.713 147.236 213.829 147.438 213.986 147.605C214.144 147.773 214.338 147.901 214.554 147.981C215.64 148.465 216.833 148.664 218.018 148.558C219.204 148.452 220.342 148.046 221.326 147.377C227.539 151.352 231.17 146.214 233.334 139.774C239.304 137.469 244.873 134.236 249.833 130.196C250.224 130.211 250.606 130.08 250.905 129.828C251.204 129.577 251.399 129.223 251.451 128.835C259.243 122.171 265.351 113.764 269.277 104.296C277.352 84.6271 274.152 61.8778 266.612 42.6042Z" fill="#CED881"/>
<path d="M163.705 39.4541C156.339 26.9926 142.562 19.8551 128.204 19.7621C120.433 19.6744 112.779 21.6572 106.03 25.5066C99.2808 29.356 93.6806 34.9328 89.8057 41.6628C85.6634 48.5213 82.8242 56.5191 82.8242 64.5982C82.8242 72.1309 85.803 79.7101 92.7845 83.3719C96.6708 85.3829 101.046 86.0339 105.351 86.4873C110.463 87.022 115.579 87.4676 120.699 87.8241C130.954 88.7528 141.28 88.5384 151.487 87.1848C156.002 86.4873 160.796 85.6619 164.973 83.6974C166.875 82.8038 168.499 81.4122 169.673 79.6704C170.847 77.9286 171.527 75.9016 171.64 73.8048C171.879 69.1321 171.547 64.4477 170.651 59.8553C169.915 55.044 168.619 50.3351 166.788 45.8244C165.907 43.656 164.876 41.5508 163.705 39.5239C163.51 39.1909 163.191 38.9488 162.818 38.8507C162.445 38.7526 162.048 38.8066 161.715 39.0008C161.382 39.195 161.139 39.5136 161.041 39.8863C160.943 40.2591 160.997 40.6556 161.191 40.9886C165.694 48.8003 167.824 57.6931 168.557 66.5627C168.871 70.457 169.604 75.5369 166.835 78.7453C164.065 81.9537 159.551 82.6395 155.816 83.3951C146.44 85.2356 136.868 85.8684 127.331 85.2783C122.549 85.0807 117.778 84.6971 113.019 84.2786C108.677 84.0438 104.353 83.5547 100.068 82.8139C96.1851 82.2014 92.6092 80.3356 89.8872 77.5015C87.7466 74.908 86.3904 71.7587 85.9775 68.4227C84.8139 61.1689 86.9433 53.671 90.1082 47.1845C93.4884 39.9771 98.7549 33.8159 105.351 29.3524C110.915 25.7286 117.275 23.5068 123.887 22.8775C136.814 21.6569 150.137 26.4578 158.329 36.7224C159.379 38.0532 160.336 39.4554 161.191 40.9188C161.386 41.2518 161.705 41.494 162.078 41.5921C162.451 41.6902 162.848 41.6362 163.181 41.442C163.514 41.2477 163.757 40.9292 163.855 40.5564C163.953 40.1836 163.899 39.7871 163.705 39.4541Z" fill="#121212"/>
<path d="M129.786 93.8921C121.431 94.0083 113.088 94.3803 104.734 94.4268C96.775 94.4268 88.9557 93.8339 81.0318 93.1597C75.0742 92.6598 68.372 92.6598 63.4501 96.5541C57.8998 100.96 56.3638 109.271 56.0148 115.944C55.2119 131.556 61.9374 146.621 67.7902 160.722C70.7457 167.848 73.8408 174.939 77.4014 181.797C80.7515 188.628 84.8406 195.072 89.5957 201.013C91.8258 203.791 94.5967 206.089 97.7408 207.767C100.995 209.3 104.484 210.279 108.062 210.661C116.143 211.558 124.275 211.915 132.404 211.731C140.549 211.731 148.81 211.405 156.944 210.568C163.355 209.929 170.15 208.766 175.503 204.93C181.402 200.71 183.939 193.945 186.557 187.493C189.629 179.868 192.48 172.16 195.191 164.407C197.96 156.467 200.578 148.47 203.126 140.46C205.535 132.869 208.176 125.278 210.201 117.571C211.853 111.294 212.668 104.017 208.258 98.6349C204.232 93.7409 197.46 92.4157 191.456 92.1367C183.311 91.7415 175.165 92.8575 167.02 93.2992C158.701 93.7177 150.335 93.6944 141.992 93.7991C137.919 93.7991 133.847 93.8804 129.751 93.9269C129.365 93.9269 128.995 94.08 128.722 94.3525C128.45 94.625 128.296 94.9946 128.296 95.38C128.296 95.7654 128.45 96.135 128.722 96.4075C128.995 96.68 129.365 96.8331 129.751 96.8331C145.517 96.6471 161.296 96.682 177.027 95.5079C188.07 94.6825 208.898 92.6831 208.595 109.085C208.43 112.423 207.816 115.723 206.768 118.897C205.721 122.465 204.581 125.999 203.475 129.556C201.148 137.05 198.759 144.529 196.308 151.992C193.841 159.432 191.281 166.848 188.547 174.206C187.189 177.888 185.781 181.549 184.323 185.192C183.054 188.61 181.605 191.958 179.983 195.224C178.507 198.206 176.327 200.783 173.63 202.733C171.077 204.411 168.249 205.627 165.275 206.325C158.503 208.057 151.312 208.255 144.331 208.569C136.325 208.941 128.312 208.968 120.291 208.65C113.17 208.371 105.164 208.487 98.6833 205.07C92.493 201.792 88.5485 195.363 85.0112 189.574C81.1862 183.208 77.7663 176.608 74.7717 169.812C71.7697 163.151 68.9538 156.386 66.3125 149.585C63.4158 142.632 61.2023 135.414 59.7033 128.034C58.1951 120.766 58.5109 113.238 60.6225 106.121C61.6465 102.971 63.2639 99.9368 66.1263 98.135C68.6439 96.6562 71.5024 95.8552 74.4226 95.8101C77.4665 95.7189 80.5128 95.8666 83.5335 96.2519C87.2918 96.6471 91.0502 96.961 94.8202 97.1121C102.616 97.4143 110.412 97.2051 118.197 96.9958C122.036 96.8912 125.865 96.7866 129.704 96.7285C130.03 96.6663 130.324 96.4951 130.539 96.2432C130.753 95.9912 130.875 95.6736 130.885 95.3429C130.894 95.0122 130.791 94.6881 130.591 94.4243C130.391 94.1605 130.107 93.9727 129.786 93.8921Z" fill="#121212"/>
<path d="M99.2415 32.107C97.5451 30.2571 95.9894 28.2832 94.5872 26.2018C93.9472 25.2485 93.3422 24.2604 92.7604 23.2724C92.3211 22.266 91.724 21.336 90.9917 20.5173C89.0485 18.7736 87.6523 20.9126 86.6167 22.3773L81.9623 29.0033H84.4757L72.3163 12.2755C72.1328 11.9707 71.8446 11.743 71.5054 11.635C71.1663 11.5269 70.7994 11.5458 70.4731 11.6881C70.1469 11.8304 69.8836 12.0864 69.7325 12.4084C69.5813 12.7304 69.5526 13.0963 69.6517 13.4379C72.1749 22.8827 75.5475 32.0803 79.7283 40.9185C79.8429 41.114 80.0009 41.2805 80.1903 41.4051C80.3796 41.5297 80.5951 41.6092 80.8201 41.6373C81.0451 41.6654 81.2735 41.6414 81.4877 41.5671C81.702 41.4929 81.8962 41.3704 82.0554 41.2091L88.1293 34.0367L85.8022 33.7461C87.3769 36.4634 89.1138 39.0837 91.0034 41.5927C92.1669 43.069 94.6337 41.5927 93.5167 40.128C91.6271 37.619 89.8903 34.9987 88.3155 32.2814C88.2043 32.0822 88.0476 31.9119 87.8583 31.7843C87.6689 31.6568 87.4522 31.5756 87.2256 31.5473C86.999 31.519 86.7689 31.5444 86.554 31.6214C86.339 31.6985 86.1452 31.825 85.9883 31.9908L79.9144 39.1516L82.2416 39.4422C78.1769 30.8159 74.9017 21.84 72.4559 12.6242L69.8029 13.7867L81.9274 30.468C82.0619 30.6792 82.2476 30.8531 82.4673 30.9736C82.687 31.0941 82.9335 31.1573 83.1841 31.1573C83.4347 31.1573 83.6812 31.0941 83.9009 30.9736C84.1206 30.8531 84.3063 30.6792 84.4408 30.468L88.1875 25.1672L89.1184 23.842C89.4566 23.4531 89.7566 23.0327 90.0143 22.5865C89.1533 22.4005 88.8507 22.4819 89.1882 22.8422C89.3163 23.0346 89.4291 23.2367 89.5256 23.4467L90.247 24.7371C92.2311 28.1193 94.5715 31.2798 97.2285 34.1646C98.4852 35.5596 100.545 33.4904 99.2881 32.107H99.2415Z" fill="#121212"/>
<path d="M154.861 32.1538C159.166 28.9609 163.619 25.9656 168.219 23.168L166.031 21.9125C166.412 24.9436 167.195 27.9106 168.358 30.7356C168.801 31.7818 169.231 32.9791 170.43 33.3511C171.628 33.7231 172.757 32.7815 173.816 32.0608L190.397 20.2735L188.221 18.5995C187.383 22.889 184.73 26.5507 182.496 30.2241L175.003 42.5346L177.004 42.0231C174.401 40.0791 171.681 38.2972 168.859 36.6874C167.509 35.9318 166.671 36.5014 165.438 37.2802C164.168 38.0939 162.979 39.0282 161.889 40.0702C160.528 41.3489 162.587 43.4064 163.949 42.1161C165.285 40.8661 166.78 39.7954 168.393 38.9309H166.974C169.926 40.6355 172.781 42.5022 175.526 44.5224C175.859 44.7146 176.254 44.7687 176.626 44.6731C176.998 44.5774 177.317 44.3396 177.516 44.0109L185.312 31.2238C187.639 27.4923 190.176 23.7492 191.025 19.39C191.234 18.2275 190.013 16.9488 188.884 17.7509L175.573 27.2133L172.303 29.5383L170.837 30.5612C171.458 30.8092 171.609 30.7278 171.291 30.3171C171.163 30.0381 171.035 29.7475 170.918 29.4453C169.941 27.0206 169.276 24.4816 168.94 21.8893C168.934 21.6363 168.862 21.3893 168.732 21.172C168.602 20.9547 168.419 20.7743 168.199 20.6483C167.98 20.5222 167.731 20.4547 167.478 20.4522C167.225 20.4496 166.975 20.5122 166.753 20.6338C162.16 23.4237 157.708 26.419 153.395 29.6196C151.905 30.724 153.395 33.2465 154.861 32.1305V32.1538Z" fill="#121212"/>
<path d="M103.361 95.0309C102.818 92.1479 102.905 89.1817 103.617 86.3356C103.705 85.9687 103.647 85.5818 103.455 85.257C103.263 84.9321 102.951 84.6947 102.587 84.5951C102.223 84.4954 101.834 84.5412 101.503 84.7229C101.172 84.9046 100.924 85.2078 100.813 85.5684C99.9841 88.9231 99.8967 92.4179 100.557 95.8097C100.66 96.1812 100.907 96.4965 101.243 96.6861C101.579 96.8758 101.977 96.9243 102.349 96.821C102.721 96.7178 103.036 96.4711 103.226 96.1354C103.416 95.7997 103.465 95.4024 103.361 95.0309Z" fill="#121212"/>
<path d="M157.294 92.9968C157.236 92.6713 157.19 92.3458 157.131 92.0204C157.131 91.9157 157.131 91.9157 157.131 92.0204C157.131 91.9157 157.131 91.8111 157.131 91.7181C157.131 91.6251 157.131 91.4159 157.131 91.2531C157.062 90.6254 157.015 89.986 156.992 89.3583C156.937 88.0598 156.965 86.7592 157.073 85.4641C157.07 85.0796 156.916 84.7118 156.644 84.4399C156.372 84.1681 156.004 84.014 155.619 84.011C155.236 84.0199 154.871 84.1758 154.6 84.4464C154.329 84.717 154.173 85.0815 154.164 85.4641C153.95 88.2368 154.087 91.0255 154.572 93.764C154.621 93.9476 154.707 94.1195 154.824 94.2698C154.94 94.4202 155.085 94.546 155.251 94.64C155.416 94.734 155.599 94.7944 155.788 94.8176C155.977 94.8408 156.168 94.8265 156.352 94.7754C156.721 94.6669 157.034 94.4199 157.224 94.0862C157.415 93.7525 157.47 93.3579 157.376 92.9852L157.294 92.9968Z" fill="#121212"/>
<path d="M102.257 91.4393C110.703 92.6086 119.226 93.1293 127.751 92.997C131.986 92.9156 136.233 92.6715 140.446 92.2647C142.517 92.067 144.576 91.8229 146.624 91.5439C148.811 91.082 151.052 90.9372 153.28 91.1138C155.107 91.4044 155.898 88.6029 154.048 88.3123C149.952 87.6613 145.658 88.8238 141.574 89.2423C137.49 89.6607 133.115 89.963 128.88 90.0676C120.241 90.2913 111.599 89.821 103.036 88.661C101.21 88.4169 100.418 91.2184 102.257 91.4742V91.4393Z" fill="#121212"/>
<path d="M60.2038 100.936C58.1117 100.078 55.8127 99.8558 53.5947 100.297C51.1163 101.018 50.0341 103.168 49.6153 105.551C48.5331 111.517 47.8953 117.555 47.707 123.616C47.5256 129.571 47.9467 135.53 48.9637 141.401C49.8829 146.563 51.1279 152.48 54.1416 156.897C55.4219 159.021 57.4586 160.582 59.8431 161.268C63.0546 161.989 65.9054 160.326 68.442 158.559C69.9663 157.502 68.5118 154.979 66.9759 156.048C65.1491 157.327 62.9848 158.931 60.6227 158.466C59.701 158.196 58.8439 157.742 58.1038 157.13C57.3636 156.519 56.7558 155.763 56.3175 154.909C53.8972 151.015 52.8267 146.109 51.9541 141.657C50.2384 131.747 50.1088 121.628 51.5701 111.677C51.7562 110.224 51.9773 108.783 52.21 107.33C52.2474 106.097 52.6043 104.896 53.2456 103.842C54.6768 102.18 57.6672 103.226 59.3777 103.784C61.0882 104.342 61.9259 101.564 60.1573 100.983L60.2038 100.936Z" fill="#121212"/>
<path d="M50.4523 106.575C48.7696 106.026 46.9423 106.128 45.3311 106.86C43.7198 107.592 42.4416 108.9 41.7487 110.527C40.8644 112.724 40.9225 115.316 40.8178 117.641C40.717 120.222 40.717 122.81 40.8178 125.407C40.9722 130.437 41.4659 135.45 42.2956 140.414C42.9238 145.268 44.0947 150.037 45.7863 154.631C47.4968 158.781 51.674 162.268 56.2585 160.141C57.9573 159.35 56.4796 156.839 54.7924 157.63C52.7561 158.572 50.5453 157.084 49.4283 155.445C48.2555 153.408 47.4372 151.187 47.0081 148.877C45.7009 143.806 44.7676 138.646 44.2155 133.439C43.6825 128.284 43.5154 123.099 43.7151 117.92C43.8082 115.735 43.5173 112.55 44.8787 110.713C45.4363 110.026 46.1934 109.529 47.0456 109.289C47.8979 109.05 48.8035 109.08 49.6378 109.376C51.418 109.969 52.1744 107.168 50.4057 106.575H50.4523Z" fill="#121212"/>
<path d="M42.7622 111.945C39.4576 109.702 35.7226 112.677 34.8499 115.956C34.4194 118.085 34.2668 120.262 34.3961 122.43C34.3961 124.872 34.4659 127.313 34.6055 129.742C34.8857 134.654 35.4295 139.547 36.2345 144.401C36.8861 148.423 37.2934 153.305 39.6089 156.781C41.7964 160.083 46.2995 161.698 49.6041 159.001C51.0585 157.839 48.9874 155.781 47.5445 156.956C46.1017 158.13 44.1585 157.374 42.9949 156.351C41.7295 155.006 40.8843 153.321 40.5631 151.504C39.477 146.911 38.6996 142.251 38.2359 137.554C37.6911 132.892 37.3959 128.205 37.3516 123.512C37.1863 121.307 37.284 119.09 37.6425 116.909C38.0032 115.351 39.5275 113.177 41.3426 114.409C42.8902 115.456 44.3447 112.945 42.8088 111.899L42.7622 111.945Z" fill="#121212"/>
<path d="M35.8168 120.756C31.3021 119.826 27.6717 116.258 24.8326 112.863C18.7018 105.652 15.2782 96.532 15.1508 87.0717C15.0233 77.6113 18.2001 68.4024 24.1344 61.0292C25.298 59.5877 23.2501 57.5418 22.0749 58.9716C15.7365 66.6619 12.2437 76.299 12.1844 86.2606C12.125 96.2223 15.5028 105.9 21.7491 113.665C25.1002 117.908 29.5567 122.419 35.0488 123.558C36.8756 123.942 37.6552 121.14 35.8168 120.756Z" fill="#121212"/>
<path d="M40.8412 55.5424C44.332 50.8926 45.5654 43.7899 40.7598 39.5005C39.9686 38.7914 38.7119 37.7684 37.5716 38.0009C36.1547 38.4989 34.8751 39.3232 33.8365 40.4072C32.8257 41.3293 31.9762 42.4137 31.3232 43.6156C30.5319 45.0687 30.0432 46.1497 28.3677 46.7193C27.0679 47.1612 25.6603 47.1737 24.3529 46.755C23.0454 46.3364 21.9074 45.5088 21.1069 44.3944C19.7339 42.3717 19.3383 38.4078 21.5956 36.7571C22.9803 35.7457 23.2363 36.9896 24.0042 37.8265C24.2105 38.041 24.4581 38.2116 24.732 38.3282C25.0059 38.4448 25.3006 38.5049 25.5983 38.5049C25.8961 38.5049 26.1907 38.4448 26.4647 38.3282C26.7386 38.2116 26.9861 38.041 27.1924 37.8265C28.3165 36.6444 29.3621 35.3901 30.3225 34.0718C31.3464 32.8396 32.6496 31.5841 32.9754 29.9567C33.5223 27.2249 30.8577 25.0162 28.74 23.8073C26.5394 22.5874 24.0657 21.9436 21.5491 21.9357C18.9202 21.908 16.3264 22.5393 14.005 23.772C11.6835 25.0047 9.70862 26.7994 8.26098 28.9918C6.81273 31.2852 5.86516 33.858 5.4802 36.5421C5.09523 39.2263 5.28152 41.9615 6.0269 44.5688C7.37914 48.8174 10.0076 52.5473 13.5553 55.2518C21.0953 61.3198 33.7201 64.6677 40.6202 55.833C41.7837 54.38 39.7126 52.3456 38.5606 53.7755C33.7434 59.983 25.4471 59.0414 19.1986 55.5773C12.2986 51.7528 7.10903 44.8827 8.40061 36.6641C8.67034 34.4834 9.45444 32.3979 10.6884 30.579C11.9223 28.7602 13.5709 27.26 15.4985 26.2019C17.3806 25.2325 19.4767 24.752 21.5936 24.8048C23.7105 24.8576 25.78 25.442 27.6113 26.5042C28.4258 27.004 29.7989 27.8991 30.0781 28.8291C30.4272 29.9915 28.5887 31.5609 27.9139 32.3862L26.471 34.1183C26.2145 34.388 25.9774 34.6755 25.7612 34.9785C25.5052 35.49 25.2143 35.1761 25.7612 35.5713C26.5408 36.141 25.6332 34.8855 25.5052 34.7344C25.154 34.3108 24.7074 33.9762 24.202 33.7579C19.6059 31.712 16.8017 37.8149 17.1507 41.465C17.2328 42.6822 17.557 43.8708 18.1045 44.9613C18.652 46.0517 19.4118 47.0221 20.3393 47.8156C21.2668 48.6091 22.3435 49.2097 23.5063 49.5824C24.669 49.955 25.8945 50.0922 27.111 49.9859C28.365 49.9349 29.586 49.5696 30.6617 48.9236C31.7373 48.2777 32.633 47.3717 33.2663 46.2892C34.35 43.8334 36.2775 41.8459 38.7002 40.6862H37.2341C38.3172 41.2067 39.2411 42.0072 39.9102 43.0047C40.5792 44.0022 40.969 45.1603 41.0391 46.359C41.1031 49.1635 40.1669 51.8994 38.3977 54.0777C37.2341 55.5773 39.7475 57.0304 40.8412 55.5424Z" fill="#121212"/>
<path d="M9.43685 52.1244C2.60663 66.9458 -1.303 83.5108 0.395823 99.7853C1.96562 114.295 8.45716 127.832 18.792 138.146C24.3506 143.887 31.0218 148.436 38.3984 151.515C40.1321 152.212 40.8884 149.411 39.178 148.713C26.6462 143.622 16.3718 133.241 9.98373 121.477C2.92079 108.539 1.61758 93.4266 3.99129 79.047C5.4923 70.2435 8.16916 61.6811 11.9502 53.5891C12.7298 51.9035 10.2164 50.4272 9.43685 52.1244Z" fill="#121212"/>
<path d="M7.28383 59.0648C8.16963 61.3011 9.57302 63.296 11.3791 64.8861C13.1852 66.4763 15.3426 67.6165 17.6746 68.2133C18.0419 68.3014 18.4292 68.2432 18.7543 68.0512C19.0795 67.8591 19.3171 67.5482 19.4169 67.1842C19.5167 66.8202 19.4708 66.4317 19.2889 66.1009C19.1071 65.7701 18.8036 65.523 18.4426 65.4118C17.9496 65.2929 17.4639 65.1454 16.9881 64.9701L16.6041 64.8189L16.4412 64.7492L15.8129 64.4469C15.3591 64.2028 14.9286 63.9471 14.5097 63.6681C14.277 63.517 14.0442 63.3542 13.8232 63.1799C13.9861 63.3077 13.8232 63.1799 13.7417 63.1101L13.4275 62.8428C13.0436 62.5056 12.6712 62.1569 12.3221 61.7849L11.8218 61.2037C11.8218 61.2037 11.5425 60.8549 11.7054 61.0642L11.5076 60.7852C11.2041 60.3778 10.9281 59.9506 10.6815 59.5065C10.5537 59.2879 10.4371 59.0628 10.3324 58.8323C10.2626 58.7044 10.2161 58.5765 10.1579 58.4603C10.0997 58.344 10.1579 58.5998 10.0881 58.2859C9.97221 57.9226 9.72314 57.6164 9.39081 57.4288C9.05847 57.2413 8.66745 57.1862 8.29615 57.2746C8.11196 57.3256 7.93965 57.4124 7.78907 57.53C7.63849 57.6477 7.5126 57.7938 7.41858 57.96C7.32456 58.1263 7.26427 58.3094 7.24115 58.499C7.21803 58.6885 7.23253 58.8808 7.28383 59.0648Z" fill="#121212"/>
<path d="M3.68741 73.4789C5.06952 75.032 6.76997 76.2697 8.67329 77.1082C10.5766 77.9466 12.6382 78.366 14.7182 78.338C15.1039 78.338 15.4739 78.1849 15.7466 77.9124C16.0194 77.6399 16.1726 77.2703 16.1726 76.8849C16.1726 76.4995 16.0194 76.1299 15.7466 75.8574C15.4739 75.5849 15.1039 75.4318 14.7182 75.4318C13.0185 75.4594 11.3335 75.1147 9.78156 74.4218C8.22962 73.7289 6.84849 72.7048 5.73532 71.4213C5.46292 71.1516 5.09491 71.0002 4.71137 71.0002C4.32782 71.0002 3.95981 71.1516 3.68741 71.4213C3.41944 71.6969 3.26953 72.0659 3.26953 72.4501C3.26953 72.8343 3.41944 73.2034 3.68741 73.4789Z" fill="#121212"/>
<path d="M2.46582 87.4054C5.59071 88.5586 8.95428 88.9142 12.2515 88.44C12.4357 88.389 12.608 88.3022 12.7586 88.1846C12.9092 88.0669 13.0351 87.9208 13.1291 87.7546C13.2231 87.5883 13.2834 87.4052 13.3065 87.2156C13.3297 87.026 13.3152 86.8338 13.2639 86.6499C13.148 86.2865 12.8989 85.9804 12.5666 85.7928C12.2343 85.6052 11.8432 85.5501 11.4719 85.6385H11.3789H11.053H10.5643C10.1842 85.6385 9.79638 85.6385 9.40076 85.6385C8.69321 85.6404 7.98614 85.6015 7.28305 85.5223C5.8991 85.3283 4.54101 84.9813 3.23379 84.4877C2.86201 84.3874 2.46564 84.4372 2.13035 84.6264C1.79505 84.8157 1.54775 85.1291 1.44187 85.499C1.35053 85.8701 1.40443 86.262 1.59257 86.5947C1.78071 86.9274 2.0889 87.1758 2.45419 87.2892L2.46582 87.4054Z" fill="#121212"/>
<path d="M2.23494 102.506C6.49031 103.596 11.0031 102.996 14.8249 100.832C15.1582 100.638 15.4006 100.319 15.4988 99.9464C15.597 99.5736 15.5429 99.1771 15.3485 98.8442C15.1541 98.5112 14.8352 98.269 14.4621 98.1709C14.0889 98.0728 13.6921 98.1268 13.3588 98.321C10.2161 100.104 6.50398 100.6 3.00291 99.7044C2.63558 99.6163 2.24837 99.6745 1.9232 99.8665C1.59803 100.059 1.36042 100.37 1.26064 100.734C1.16086 101.098 1.20675 101.486 1.38859 101.817C1.57043 102.148 1.87396 102.395 2.23494 102.506Z" fill="#121212"/>
<path d="M6.79544 119.733C12.4182 119.391 17.7839 117.261 22.1082 113.654C22.3761 113.378 22.5261 113.009 22.5261 112.625C22.5261 112.241 22.3761 111.872 22.1082 111.596C21.8296 111.334 21.4612 111.188 21.0784 111.188C20.6956 111.188 20.3272 111.334 20.0486 111.596C16.3041 114.686 11.6773 116.513 6.83035 116.816C4.96862 116.932 4.95699 119.838 6.83035 119.722L6.79544 119.733Z" fill="#121212"/>
<path d="M22.4216 140.356C25.4636 137.852 27.8233 134.621 29.2818 130.963C30.7402 127.306 31.2503 123.339 30.7645 119.431C30.7501 119.051 30.5922 118.689 30.3225 118.42C30.0528 118.15 29.6912 117.993 29.31 117.978C28.9243 117.978 28.5543 118.131 28.2815 118.404C28.0088 118.676 27.8555 119.046 27.8555 119.431C28.3337 122.958 27.8968 126.549 26.5867 129.859C25.2766 133.169 23.1372 136.087 20.3737 138.333C20.103 138.607 19.9512 138.977 19.9512 139.362C19.9512 139.747 20.103 140.116 20.3737 140.39C20.649 140.655 21.0159 140.802 21.3977 140.802C21.7794 140.802 22.1464 140.655 22.4216 140.39V140.356Z" fill="#121212"/>
<path d="M208.13 102.854C209.748 102.413 212.145 101.692 213.681 102.773C215.217 103.854 215.1 107.341 215.263 109.132C215.725 114.112 215.884 119.116 215.74 124.116C215.589 129.198 214.978 134.256 213.913 139.228C213.025 143.928 211.457 148.474 209.259 152.724C208.235 154.526 206.816 156.479 204.768 157.199C202.219 158.095 199.857 156.339 197.937 154.874C196.483 153.712 194.447 155.781 195.878 156.92C197.961 158.536 200.125 160.152 202.859 160.408C203.987 160.444 205.111 160.248 206.16 159.832C207.209 159.416 208.161 158.789 208.957 157.99C212.796 154.386 214.472 148.516 215.822 143.61C219.045 131.916 219.208 119.571 218.009 107.574C217.73 104.865 217.637 101.762 214.984 100.181C212.657 98.8555 209.759 99.4135 207.339 100.064C206.967 100.168 206.652 100.414 206.462 100.75C206.272 101.086 206.223 101.483 206.327 101.855C206.43 102.226 206.677 102.541 207.013 102.731C207.349 102.921 207.747 102.969 208.119 102.866L208.13 102.854Z" fill="#121212"/>
<path d="M217.589 109.004C218.441 108.755 219.35 108.783 220.186 109.081C221.022 109.38 221.742 109.934 222.243 110.666C223.5 112.572 223.058 115.711 223.035 117.885C222.969 123.13 222.518 128.364 221.685 133.543C220.872 138.582 219.705 143.558 218.194 148.434C217.649 150.74 216.725 152.94 215.46 154.944C214.215 156.63 211.969 157.978 209.851 156.885C208.199 156.014 206.733 158.524 208.385 159.396C212.19 161.407 216.321 159.164 218.392 155.781C219.482 153.785 220.33 151.666 220.917 149.469C221.693 147.144 222.348 144.773 222.883 142.355C224.067 137.443 224.911 132.456 225.408 127.429C226.107 122.422 226.24 117.353 225.804 112.317C225.701 111.287 225.375 110.292 224.849 109.401C224.323 108.51 223.608 107.744 222.756 107.157C221.903 106.569 220.933 106.174 219.912 105.999C218.891 105.825 217.844 105.874 216.844 106.144C216.504 106.273 216.223 106.524 216.058 106.849C215.892 107.173 215.854 107.548 215.95 107.899C216.045 108.25 216.269 108.553 216.576 108.749C216.884 108.945 217.253 109.019 217.612 108.957L217.589 109.004Z" fill="#121212"/>
<path d="M225.735 114.491C227.585 113.328 228.981 115.769 229.226 117.292C229.445 119.395 229.425 121.517 229.167 123.616C228.882 128.456 228.323 133.277 227.492 138.054C226.755 142.562 225.749 147.022 224.478 151.41C224.07 153.293 223.101 155.007 221.697 156.327C220.441 157.304 218.404 157.734 217.124 156.583C215.844 155.432 213.634 157.374 215.065 158.629C217.718 161.035 221.779 160.396 224.199 157.967C227.108 155.037 227.829 150.387 228.725 146.551C229.836 141.759 230.698 136.913 231.308 132.032C231.879 127.382 232.6 122.477 232.204 117.85C232.196 116.79 231.953 115.745 231.492 114.79C231.032 113.836 230.365 112.995 229.54 112.328C228.793 111.754 227.892 111.414 226.951 111.352C226.011 111.29 225.073 111.509 224.257 111.98C223.924 112.175 223.682 112.495 223.585 112.869C223.488 113.243 223.543 113.64 223.739 113.973C223.935 114.306 224.256 114.548 224.63 114.645C225.004 114.742 225.402 114.686 225.735 114.491Z" fill="#121212"/>
<path d="M231.436 123.93C236.3 123.174 240.431 119.71 243.758 116.292C247.086 112.884 249.837 108.958 251.903 104.668C255.283 97.6025 256.689 89.7566 255.974 81.9589C255.26 74.1611 252.45 66.701 247.843 60.3664C246.76 58.8668 244.235 60.3664 245.329 61.8311C250.871 69.4546 253.646 78.7381 253.195 88.1492C252.677 97.0891 249.221 105.609 243.363 112.386C240.081 116.188 235.799 120.326 230.633 121.128C228.783 121.407 229.574 124.209 231.401 123.93H231.436Z" fill="#121212"/>
<path d="M231.68 54.3101C230.009 52.0643 229.211 49.2882 229.435 46.4984C229.568 45.3653 229.989 44.2849 230.656 43.3593C231.324 42.4338 232.217 41.6938 233.251 41.2092L232.088 41.0581C234.231 42.1677 235.924 43.9827 236.882 46.1962C237.279 47.2249 237.903 48.1505 238.71 48.9035C239.516 49.6565 240.482 50.2173 241.536 50.5438C243.637 51.2243 245.913 51.1293 247.95 50.2761C249.987 49.4229 251.65 47.868 252.637 45.8939C254.266 42.4066 253.8 36.1293 249.367 34.9087C248.382 34.645 247.334 34.7525 246.423 35.2109C246.041 35.4072 245.702 35.6757 245.422 36.0014C245.25 36.1649 245.108 36.3578 245.003 36.571L244.759 36.9779L245.737 36.8849C245.876 36.6291 243.316 33.6416 243.037 33.258C242.351 32.3396 240.791 30.9331 241.28 29.6892C241.99 27.8874 245.143 26.818 246.842 26.446C250.095 25.7686 253.484 26.3722 256.303 28.1309C259.121 29.8896 261.151 32.6675 261.969 35.8852C263.158 40.0546 262.652 44.5248 260.561 48.3235C258.71 51.3739 256.132 53.9181 253.055 55.7283C246.598 59.704 236.696 61.6104 231.669 54.4264C230.622 52.7873 228.062 54.2404 229.225 55.7981C234.822 63.7958 245.236 63.1797 253.067 59.0181C257.027 56.9856 260.388 53.9565 262.818 50.2299C264.161 47.9982 265.037 45.5181 265.395 42.939C265.753 40.3598 265.585 37.735 264.901 35.2225C264.242 32.6191 262.937 30.2234 261.107 28.2567C259.276 26.29 256.98 24.8157 254.429 23.9699C249.623 22.4122 243.607 23.133 239.907 26.8063C238.957 27.6441 238.376 28.8218 238.29 30.0845C238.29 31.7817 239.453 33.1301 240.431 34.4088C241.408 35.6875 242.397 37.2569 243.514 38.5356C243.683 38.7915 243.902 39.01 244.159 39.1776C244.416 39.3451 244.704 39.458 245.007 39.5092C245.309 39.5605 245.619 39.549 245.916 39.4755C246.214 39.402 246.494 39.268 246.737 39.0819C247.156 38.7332 247.284 38.1519 247.68 37.8148C247.947 37.639 248.27 37.5668 248.587 37.6118C248.904 37.6567 249.194 37.8157 249.402 38.059C249.88 38.5767 250.245 39.1883 250.473 39.8548C250.702 40.5213 250.789 41.228 250.728 41.9299C250.709 43.3011 250.234 44.627 249.379 45.6998C248.524 46.7727 247.337 47.5319 246.004 47.8585C244.432 48.2579 242.767 48.0416 241.35 47.254C239.779 46.3589 239.546 44.7431 238.674 43.29C237.858 41.9459 236.8 40.7637 235.555 39.8026C234.24 38.7797 233.158 37.966 231.529 38.7564C230.222 39.4593 229.096 40.4546 228.238 41.6646C227.38 42.8745 226.814 44.2663 226.584 45.7312C226.159 49.2997 227.103 52.8966 229.225 55.7981C230.203 57.3325 232.716 55.8795 231.68 54.3101Z" fill="#121212"/>
<path d="M257.989 54.9959C263.807 69.6429 266.821 85.8127 264.366 101.494C262.169 115.156 255.396 127.669 245.155 136.984C239.616 142.223 233.051 146.26 225.874 148.841C224.117 149.446 224.874 152.259 226.654 151.643C240.024 146.993 251.334 136.984 258.769 125.069C266.914 111.945 269.241 96.2516 267.612 81.035C266.561 71.8254 264.268 62.8003 260.793 54.2054C260.107 52.485 257.303 53.229 257.989 54.9727V54.9959Z" fill="#121212"/>
<path d="M259.84 59.797C259.016 61.6321 257.743 63.231 256.14 64.4469L256.035 64.5282L255.732 64.7375C255.523 64.8886 255.29 65.0281 255.069 65.1676C254.638 65.435 254.191 65.6757 253.731 65.8883L253.335 66.0627H253.207L252.463 66.3301C251.956 66.492 251.439 66.6202 250.915 66.7137C250.731 66.7648 250.559 66.8517 250.408 66.9693C250.258 67.087 250.132 67.2331 250.038 67.3993C249.944 67.5655 249.884 67.7486 249.86 67.9382C249.837 68.1277 249.852 68.3199 249.903 68.5039C249.954 68.6878 250.041 68.8599 250.159 69.0103C250.276 69.1606 250.423 69.2864 250.589 69.3803C250.755 69.4742 250.939 69.5344 251.128 69.5576C251.318 69.5807 251.511 69.5663 251.695 69.5152C253.994 69.0519 256.153 68.0609 258.003 66.6204C259.853 65.1799 261.342 63.3295 262.353 61.2152C262.516 60.8829 262.551 60.5019 262.45 60.1456C262.349 59.7893 262.12 59.483 261.806 59.2855C261.641 59.1893 261.459 59.1265 261.27 59.1007C261.08 59.0749 260.888 59.0867 260.703 59.1352C260.518 59.1838 260.345 59.2683 260.193 59.3838C260.041 59.4994 259.913 59.6437 259.816 59.8086L259.84 59.797Z" fill="#121212"/>
<path d="M263.307 73.4558C262.147 74.6496 260.747 75.5846 259.199 76.1992C258.367 76.5093 257.506 76.7351 256.628 76.8734C256.628 76.8734 256.372 76.8734 256.535 76.8734H256.209H255.569C255.085 76.9026 254.599 76.9026 254.115 76.8734C253.729 76.8734 253.359 77.0265 253.086 77.299C252.813 77.5715 252.66 77.9411 252.66 78.3265C252.66 78.7119 252.813 79.0815 253.086 79.354C253.359 79.6265 253.729 79.7796 254.115 79.7796C256.183 79.9209 258.258 79.6173 260.199 78.8894C262.14 78.1614 263.902 77.0261 265.366 75.5599C265.64 75.287 265.793 74.9169 265.793 74.5311C265.793 74.1452 265.64 73.7752 265.366 73.5023C265.231 73.3672 265.071 73.26 264.894 73.1869C264.717 73.1138 264.528 73.0762 264.337 73.0762C263.95 73.0762 263.58 73.2295 263.307 73.5023V73.4558Z" fill="#121212"/>
<path d="M265.086 86.7197C263.76 87.1596 262.384 87.4292 260.99 87.5218C260.269 87.5624 259.547 87.5624 258.826 87.5218L257.744 87.4288C257.655 87.4373 257.565 87.4373 257.476 87.4288L256.813 87.3241C256.626 87.2668 256.431 87.2474 256.237 87.2671C256.043 87.2869 255.855 87.3454 255.684 87.4391C255.513 87.5328 255.363 87.6599 255.242 87.8127C255.122 87.9656 255.033 88.1411 254.981 88.3289C254.93 88.5167 254.917 88.7129 254.943 88.9059C254.969 89.0989 255.033 89.2847 255.132 89.4523C255.231 89.6199 255.363 89.7659 255.52 89.8815C255.677 89.9972 255.855 90.0802 256.045 90.1257C259.315 90.7585 262.691 90.5627 265.865 89.5561C266.05 89.5049 266.222 89.4181 266.372 89.3004C266.523 89.1828 266.649 89.0367 266.743 88.8704C266.837 88.7042 266.897 88.5211 266.92 88.3316C266.943 88.1421 266.929 87.9498 266.878 87.7659C266.827 87.5819 266.74 87.4099 266.622 87.2595C266.504 87.1091 266.358 86.9834 266.191 86.8894C266.025 86.7955 265.842 86.7353 265.652 86.7121C265.462 86.689 265.27 86.7034 265.086 86.7545V86.7197Z" fill="#121212"/>
<path d="M264.54 101.82C260.991 102.501 257.315 101.789 254.277 99.8321C253.957 99.7071 253.602 99.7 253.276 99.812C252.95 99.924 252.675 100.148 252.499 100.444C252.323 100.739 252.258 101.088 252.315 101.427C252.372 101.767 252.548 102.075 252.811 102.296C256.518 104.65 260.99 105.483 265.297 104.621C265.658 104.51 265.961 104.263 266.143 103.932C266.325 103.601 266.371 103.213 266.271 102.849C266.171 102.485 265.934 102.174 265.608 101.982C265.283 101.79 264.896 101.732 264.529 101.82H264.54Z" fill="#121212"/>
<path d="M259.851 118.687C255.033 118.112 250.519 116.038 246.947 112.759C245.574 111.492 243.514 113.538 244.899 114.816C249.031 118.616 254.269 120.999 259.851 121.617C260.235 121.614 260.604 121.46 260.876 121.188C261.148 120.916 261.302 120.548 261.305 120.164C261.296 119.781 261.14 119.417 260.869 119.146C260.598 118.875 260.234 118.719 259.851 118.711V118.687Z" fill="#121212"/>
<path d="M245.201 139.379C242.612 137.045 240.659 134.093 239.523 130.8C238.388 127.506 238.107 123.979 238.708 120.547C239.046 118.711 236.241 117.932 235.904 119.768C235.179 123.701 235.467 127.753 236.741 131.544C238.016 135.334 240.234 138.739 243.188 141.437C244.573 142.681 246.679 140.635 245.247 139.379H245.201Z" fill="#121212"/>
<path d="M167.138 264.483C151.71 269.001 135.718 271.307 119.641 271.33C112.461 271.33 105.049 270.655 98.2539 268.156C93.2621 266.319 88.4216 263.03 86.7694 257.694C85.7338 254.404 86.0945 251.091 86.5832 247.732C87.5994 240.819 88.8909 233.953 90.4579 227.133C90.8768 225.308 91.0397 222.983 92.3429 221.507C93.2356 220.608 94.3795 220 95.6242 219.763C98.9753 218.938 102.687 219.414 106.096 219.949C110.146 220.588 114.137 221.553 118.128 222.483C121.243 223.328 124.423 223.916 127.634 224.238C134.405 224.525 141.187 224.265 147.916 223.46C150.437 223.315 152.946 222.988 155.421 222.483C157.259 222.018 159.051 221.379 160.843 220.774C164.427 219.612 168.592 217.81 172.479 218.263C173.158 218.295 173.816 218.508 174.385 218.88C174.954 219.252 175.413 219.77 175.713 220.379C177.032 223.417 178.109 226.554 178.937 229.76C180.865 236.273 182.208 242.945 182.951 249.696C183.125 251.324 183.277 252.963 183.37 254.602C183.451 256.02 183.544 257.415 182.358 258.426C180.396 259.827 178.218 260.899 175.911 261.6C173.061 262.693 170.093 263.611 167.196 264.448C166.835 264.559 166.532 264.806 166.35 265.137C166.168 265.468 166.122 265.856 166.222 266.22C166.322 266.584 166.559 266.895 166.884 267.087C167.21 267.279 167.597 267.338 167.964 267.249C171.187 266.331 174.387 265.32 177.494 264.088C179.771 263.302 181.935 262.22 183.928 260.868C186.581 258.88 186.407 255.962 186.162 252.963C185.883 249.382 185.429 245.814 184.824 242.28C183.636 235.274 181.797 228.393 179.332 221.728C178.564 219.635 177.878 217.531 175.841 216.334C174.291 215.519 172.536 215.171 170.792 215.334C166.335 215.578 162.076 217.322 157.887 218.705C152.733 220.414 147.276 220.693 141.877 221.03C136.478 221.367 130.508 221.925 125.028 220.949C121.083 220.263 117.22 219.217 113.322 218.356C109.125 217.32 104.84 216.674 100.523 216.427C97.2532 216.322 93.5414 216.636 90.935 218.833C89.7913 219.83 88.9795 221.152 88.6078 222.623C87.6304 226.11 86.9439 229.69 86.2806 233.236C85.6174 236.781 84.8727 240.652 84.2909 244.384C83.7933 247.011 83.4629 249.666 83.3019 252.335C83.1957 255.361 83.8697 258.364 85.2594 261.055C86.649 263.746 88.7075 266.035 91.2375 267.703C97.0554 271.69 104.467 273.062 111.367 273.736C120.005 274.445 128.693 274.258 137.292 273.178C145.881 272.214 154.397 270.687 162.786 268.61C164.543 268.168 166.277 267.703 168.034 267.203C168.336 267.042 168.572 266.78 168.7 266.462C168.828 266.144 168.839 265.791 168.732 265.466C168.625 265.141 168.406 264.864 168.115 264.684C167.823 264.504 167.477 264.433 167.138 264.483Z" fill="#121212"/>
<path d="M92.7497 267.761C91.0041 271.279 90.402 275.254 91.0276 279.13C91.6094 282.094 94.0645 283.606 96.8455 284.268C99.6263 284.793 102.452 285.046 105.281 285.024C109.68 285.187 114.078 285.338 118.476 285.454C127.273 285.71 136.105 286.07 144.89 285.803C152.709 285.559 160.947 284.64 168.022 281.153C171.338 279.49 174.503 276.991 175.922 273.469C176.646 271.808 176.872 269.974 176.575 268.188C176.277 266.402 175.469 264.739 174.247 263.402C172.967 262.03 170.919 264.088 172.187 265.448C173.088 266.49 173.642 267.786 173.771 269.157C173.9 270.528 173.599 271.905 172.909 273.097C171.501 275.782 168.801 277.572 166.137 278.851C159.784 281.908 152.395 282.664 145.437 282.908C137.99 283.175 130.52 282.908 123.073 282.71C116.091 282.536 109.005 282.362 101.989 282.025C99.7312 281.92 96.3568 281.874 94.6463 280.141C93.4828 278.979 93.6573 276.863 93.7271 275.399C93.8301 273.274 94.3562 271.191 95.2747 269.272C96.0659 267.587 93.5526 266.111 92.7613 267.796L92.7497 267.761Z" fill="#121212"/>
<path d="M94.9369 282.187C92.7494 287.999 97.3455 293.812 102.605 295.881C105.94 297.007 109.456 297.499 112.972 297.334C116.94 297.334 120.908 297.218 124.864 297.16C133.079 297.032 141.294 296.939 149.509 296.764C155.909 296.625 163.041 296.172 168.289 292.045C173.13 288.232 175.957 281.222 172.757 275.515C172.561 275.182 172.241 274.94 171.867 274.843C171.492 274.746 171.095 274.802 170.762 274.997C170.428 275.193 170.187 275.513 170.089 275.887C169.992 276.261 170.048 276.658 170.244 276.991C172.722 281.397 170.244 286.825 166.544 289.778C161.889 293.463 155.385 293.765 149.753 293.893C142.772 294.044 135.86 294.114 128.925 294.219L118.453 294.393C115.168 294.534 111.879 294.507 108.597 294.312C105.351 294.009 102 293.079 99.696 290.661C98.6653 289.701 97.9329 288.465 97.5863 287.101C97.2397 285.736 97.2934 284.301 97.7411 282.966C98.4044 281.211 95.5885 280.455 94.9369 282.187Z" fill="#121212"/>
<path d="M115.275 296.764C116.182 316.201 117.579 335.606 119.464 354.98C120.41 364.582 121.469 374.176 122.64 383.763C123.408 389.936 123.909 396.201 124.968 402.362C125.735 406.768 127.074 411.662 130.716 414.603C132.612 416.072 134.907 416.938 137.301 417.091C140.21 417.358 144.19 417.009 146.738 415.51C147.47 415.005 148.082 414.346 148.531 413.578C148.979 412.811 149.253 411.954 149.333 411.069C149.763 408.826 150.078 406.57 150.345 404.304C150.915 399.572 151.195 394.806 151.311 390.052C151.555 380.52 151.206 370.987 151.171 361.467C151.102 342.023 151.703 322.594 152.975 303.181C153.126 300.775 153.289 298.38 153.475 295.974C153.603 294.114 150.694 294.126 150.566 295.974C149.193 314.573 148.418 333.227 148.239 351.935C148.169 361.083 148.332 370.22 148.414 379.369C148.661 388.406 148.225 397.448 147.11 406.419C146.959 407.582 146.785 408.64 146.587 409.744C146.511 410.629 146.283 411.494 145.912 412.301C145.039 413.708 142.491 413.882 140.99 414.08C138.637 414.514 136.208 414.243 134.009 413.301C130.18 411.395 128.796 406.908 128.004 403.025C126.841 397.631 126.538 392.051 125.863 386.599C124.7 377.416 123.657 368.217 122.733 359.002C120.639 338.303 119.088 317.557 118.079 296.764C117.986 294.904 115.077 294.893 115.17 296.764H115.275Z" fill="#121212"/>
<path d="M105.2 217.182C105.027 215.872 104.942 214.552 104.944 213.23C104.944 212.579 104.944 211.94 105.014 211.289C105.014 210.975 105.014 210.673 105.095 210.359C105.177 210.045 105.095 210.045 105.153 209.894V209.592C105.153 209.719 105.153 209.696 105.153 209.51C105.242 209.139 105.187 208.749 104.999 208.417C104.811 208.085 104.505 207.836 104.141 207.72C103.768 207.623 103.371 207.676 103.037 207.867C102.702 208.058 102.455 208.373 102.349 208.743C101.924 211.538 101.889 214.378 102.244 217.182C102.256 217.564 102.413 217.927 102.683 218.197C102.954 218.467 103.317 218.624 103.699 218.635C104.409 218.635 105.258 217.996 105.153 217.182H105.2Z" fill="#121212"/>
<path d="M165.985 217.635L165.38 208.731C165.38 208.346 165.226 207.976 164.954 207.704C164.681 207.431 164.311 207.278 163.925 207.278C163.539 207.278 163.169 207.431 162.897 207.704C162.624 207.976 162.471 208.346 162.471 208.731L163.076 217.635C163.076 218.021 163.229 218.39 163.502 218.663C163.775 218.935 164.144 219.089 164.53 219.089C164.916 219.089 165.286 218.935 165.559 218.663C165.831 218.39 165.985 218.021 165.985 217.635Z" fill="#121212"/>
<path d="M104.011 214.195C123.455 220.123 144.085 217.787 163.703 214.079C165.541 213.73 164.762 210.928 162.935 211.277C143.817 214.892 123.722 217.171 104.756 211.393C102.952 210.835 102.184 213.649 103.976 214.195H104.011Z" fill="#121212"/>
<path d="M122.036 371.115C119.61 371.127 117.188 371.301 114.787 371.638C112.669 371.929 110.132 372.15 108.422 373.51C107.024 374.804 106.057 376.496 105.652 378.357C104.978 380.586 104.522 382.875 104.291 385.193C103.127 395.155 104.861 405.431 105.769 415.358L107.188 430.796L107.886 438.503C108.084 440.665 108.038 443.153 108.864 445.141C110.563 449.337 116.09 449.128 119.871 449.314C121.861 449.407 124.444 449.814 126.294 448.861C128.144 447.907 128.494 446.071 128.749 444.211C130.319 433.544 131.019 422.767 130.844 411.987C130.844 411.602 130.691 411.232 130.418 410.96C130.145 410.687 129.775 410.534 129.389 410.534C129.004 410.534 128.634 410.687 128.361 410.96C128.088 411.232 127.935 411.602 127.935 411.987C128.106 420.265 127.718 428.545 126.771 436.771C126.515 439.003 126.232 441.227 125.922 443.444C125.884 444.169 125.743 444.885 125.503 445.571C124.979 446.652 123.734 446.466 122.711 446.454C120.616 446.454 118.51 446.326 116.427 446.129C114.6 445.954 112.262 445.896 111.482 443.92C110.795 442.188 110.912 440.003 110.749 438.189L110.074 430.761L108.91 417.614C108.096 408.767 106.874 399.851 106.909 390.97C106.909 386.529 107.235 381.67 109.004 377.555C109.993 375.23 111.982 374.986 114.228 374.614C116.817 374.19 119.436 373.98 122.059 373.986C122.445 373.986 122.815 373.833 123.087 373.561C123.36 373.288 123.513 372.919 123.513 372.533C123.513 372.148 123.36 371.778 123.087 371.506C122.815 371.233 122.445 371.08 122.059 371.08L122.036 371.115Z" fill="#121212"/>
<path d="M119.373 446.547C118.426 421.949 117.825 397.344 117.569 372.731C117.569 372.346 117.416 371.976 117.143 371.703C116.87 371.431 116.5 371.278 116.115 371.278C115.729 371.278 115.359 371.431 115.086 371.703C114.813 371.976 114.66 372.346 114.66 372.731C114.924 397.336 115.525 421.942 116.464 446.547C116.534 448.407 119.442 448.419 119.373 446.547Z" fill="#121212"/>
<path d="M150.416 373.685C154.57 373.383 159.247 372.999 162.843 375.533C166.438 378.067 166.461 383.356 166.554 387.425C166.787 396.725 165.496 406.129 164.518 415.324C164.053 419.672 163.537 424.019 162.971 428.367C162.389 432.784 161.993 437.353 160.993 441.7C160.859 442.557 160.519 443.368 160.002 444.065C159.485 444.761 158.807 445.322 158.025 445.699C156.334 446.381 154.541 446.774 152.72 446.862C151.001 447.169 149.237 447.113 147.542 446.699C146.684 446.377 145.934 445.821 145.378 445.093C144.823 444.365 144.484 443.495 144.4 442.584C144.068 440.344 143.905 438.083 143.911 435.818C143.795 433.602 143.686 431.382 143.585 429.157C143.391 424.624 143.24 420.086 143.132 415.545C143.132 415.16 142.978 414.79 142.706 414.518C142.433 414.245 142.063 414.092 141.677 414.092C141.291 414.092 140.921 414.245 140.649 414.518C140.376 414.79 140.223 415.16 140.223 415.545C140.323 420.195 140.479 424.806 140.688 429.378C140.886 433.854 140.758 438.527 141.514 442.933C141.751 444.865 142.69 446.643 144.153 447.929C145.616 449.215 147.501 449.919 149.45 449.907C151.44 449.944 153.428 449.777 155.384 449.408C157.345 449.172 159.218 448.462 160.841 447.338C162.378 446.105 163.425 444.366 163.797 442.433C164.367 439.957 164.623 437.364 164.96 434.842C165.674 429.905 166.318 424.953 166.892 419.986C167.474 414.917 167.974 409.837 168.439 404.757C168.94 399.352 169.498 393.935 169.463 388.483C169.463 383.589 169.463 377.323 165.437 373.836C161.411 370.348 155.605 370.349 150.392 370.697C148.542 370.825 148.519 373.731 150.392 373.603L150.416 373.685Z" fill="#121212"/>
<path d="M153.989 446.466C155.606 427.274 156.642 408.047 156.909 388.797C156.987 383.209 157.006 377.625 156.968 372.046C156.968 371.66 156.814 371.291 156.542 371.018C156.269 370.746 155.899 370.593 155.513 370.593C155.127 370.593 154.757 370.746 154.485 371.018C154.212 371.291 154.059 371.66 154.059 372.046C154.183 391.296 153.609 410.535 152.337 429.762C151.976 435.33 151.545 440.898 151.08 446.466C150.929 448.326 153.838 448.315 153.989 446.466Z" fill="#121212"/>
<path d="M152.081 44.1733C137.013 42.4877 120.792 40.093 105.689 40.9998C104.189 40.9441 102.722 41.4452 101.57 42.4063C100.348 43.685 100.325 45.6612 100.407 47.4282C100.375 48.264 100.539 49.0956 100.884 49.8577C101.607 50.8671 102.667 51.5846 103.874 51.8804C109.204 53.7555 114.785 54.8251 120.432 55.0539C130.516 55.7049 140.639 56.0265 150.801 56.0187C152.535 56.0187 154.455 55.9257 155.7 54.7168C157.55 52.915 156.794 49.8461 155.921 47.4165C155.666 46.3715 155.073 45.4398 154.234 44.7661C153.57 44.4086 152.834 44.206 152.081 44.1733Z" fill="#121212"/>
<path d="M117.01 117.409C105.703 115.063 94.1037 114.459 82.6143 115.618C80.4268 115.816 78.0414 116.049 76.4473 117.746C74.8532 119.443 74.8299 121.826 75.2837 123.953C75.9622 126.71 76.7935 129.426 77.7738 132.091L80.4733 140.495L83.2659 149.179C83.9815 151.766 84.8598 154.305 85.8956 156.781C88.0366 161.338 92.5978 162.675 97.2754 163.128C100.08 163.396 102.919 163.535 105.735 163.593C108.118 163.722 110.508 163.569 112.856 163.14C114.975 162.739 116.897 161.638 118.313 160.013C119.678 158.12 120.415 155.847 120.419 153.515C120.605 150.271 120.419 146.97 120.419 143.715V123.14C120.586 121.829 120.418 120.497 119.93 119.269C119.593 118.763 119.152 118.334 118.636 118.012C118.121 117.689 117.543 117.48 116.94 117.397C115.113 116.967 114.345 119.722 116.16 120.199C117.324 120.478 117.51 120.815 117.51 121.989V133.846V149.76C117.51 153.817 117.696 158.583 113.03 160.036C111.188 160.533 109.282 160.749 107.375 160.675C104.757 160.675 102.151 160.548 99.5444 160.373C95.5533 160.094 90.7943 159.827 88.6649 155.886C87.698 153.817 86.9191 151.666 86.3378 149.458L84.0106 142.134L79.2166 127.208C78.6116 125.325 77.5295 123 77.9483 120.966C78.4021 118.722 81.0435 118.641 82.8703 118.501C93.9965 117.372 105.23 117.944 116.184 120.199C118.057 120.605 118.837 117.804 117.01 117.409Z" fill="#121212"/>
<path d="M153.256 119.803C162.781 117.564 172.572 116.66 182.346 117.118C184.739 117.035 187.133 117.234 189.479 117.711C191.806 118.374 191.806 120.536 191.375 122.535C190.293 127.359 188.583 132.114 187.175 136.868C185.767 141.623 184.277 146.679 182.811 151.573C182.171 153.677 181.473 155.909 179.635 157.281C177.975 158.359 176.079 159.021 174.108 159.211C169.548 159.958 164.924 160.23 160.308 160.024C158.413 160.03 156.562 159.458 155.002 158.385C153.291 157.014 152.872 154.735 152.675 152.666C152.314 147.063 152.384 141.414 152.256 135.81L152.046 126.836L151.942 122.5C151.895 121.92 151.895 121.337 151.942 120.757C152.046 120.024 152.57 119.966 153.221 119.803C153.566 119.676 153.85 119.424 154.018 119.097C154.185 118.77 154.224 118.393 154.126 118.039C154.028 117.685 153.8 117.381 153.488 117.187C153.176 116.993 152.803 116.922 152.442 116.99C151.422 117.143 150.5 117.68 149.864 118.49C149.228 119.301 148.926 120.324 149.021 121.349C149.021 124.43 149.172 127.522 149.242 130.649L149.684 149.155C149.789 153.712 149.801 159.002 154.339 161.501C158.527 163.826 164.043 163.047 168.592 162.663C173.142 162.28 178.844 162.21 182.334 158.746C183.966 156.843 185.101 154.567 185.639 152.12L188.222 143.378L193.33 126.162C194.005 123.837 194.808 121.512 194.319 119.094C194.086 118.047 193.554 117.089 192.788 116.336C192.022 115.583 191.055 115.068 190.002 114.851C187.101 114.325 184.153 114.099 181.206 114.177C177.971 114.084 174.736 114.084 171.501 114.247C165.072 114.561 158.687 115.48 152.43 116.99C150.662 117.409 151.43 120.245 153.256 119.803Z" fill="#121212"/>
<path d="M159.959 170.638C149.708 170.696 139.457 170.87 129.206 171.044C124.14 171.137 119.075 171.219 114.009 171.289H110.286C109.198 171.178 108.1 171.257 107.04 171.521C105.189 172.253 105.515 174.323 105.934 175.869C106.192 177.195 106.795 178.43 107.681 179.45C108.567 180.47 109.706 181.239 110.984 181.681C112.498 182.096 114.073 182.245 115.638 182.123C118.128 182.018 120.619 181.844 123.109 181.704L153.362 179.984L161.972 179.496C163.962 179.391 166.266 179.286 167.243 177.229C167.58 176.398 167.656 175.484 167.463 174.608C167.27 173.733 166.816 172.936 166.161 172.323C164.532 170.731 162.1 170.626 159.971 170.626C159.585 170.626 159.215 170.779 158.942 171.052C158.67 171.324 158.516 171.694 158.516 172.079C158.516 172.464 158.67 172.834 158.942 173.107C159.215 173.379 159.585 173.532 159.971 173.532C161.367 173.532 163.59 173.369 164.427 174.776C165.591 176.764 162.542 176.566 161.39 176.624L148.766 177.345L123.341 178.786L117.686 179.112C116.054 179.286 114.408 179.286 112.776 179.112C110.449 178.74 109.285 177.287 108.738 175.113C108.657 174.799 108.575 174.485 108.517 174.171V173.962C108.157 174.311 108.273 174.404 108.89 174.241C109.934 174.357 110.987 174.357 112.031 174.241L118.629 174.137C122.841 174.137 127.042 174.009 131.254 173.927C140.83 173.776 150.418 173.613 159.994 173.555C160.381 173.551 160.751 173.393 161.022 173.116C161.292 172.839 161.442 172.466 161.437 172.079C161.432 171.692 161.274 171.323 160.997 171.053C160.72 170.782 160.347 170.633 159.959 170.638Z" fill="#121212"/>
<path d="M160.132 186.214C149.881 186.284 139.63 186.459 129.378 186.633L114.182 186.865L110.459 186.923C109.372 186.809 108.274 186.884 107.212 187.144C105.362 187.888 105.688 189.946 106.049 191.492C106.307 192.818 106.909 194.053 107.795 195.073C108.682 196.093 109.821 196.862 111.099 197.304C112.613 197.719 114.188 197.868 115.753 197.746C118.243 197.653 120.733 197.467 123.223 197.327L153.476 195.619L162.087 195.13C164.076 195.014 166.38 194.91 167.358 192.806C167.694 191.974 167.771 191.061 167.578 190.185C167.385 189.31 166.931 188.513 166.276 187.9C164.647 186.307 162.215 186.203 160.085 186.203C159.7 186.203 159.33 186.356 159.057 186.628C158.784 186.901 158.631 187.27 158.631 187.656C158.631 188.041 158.784 188.411 159.057 188.683C159.33 188.956 159.7 189.109 160.085 189.109C161.482 189.109 163.704 188.946 164.542 190.353C165.705 192.341 162.657 192.143 161.505 192.201L148.938 192.968L123.526 194.41L117.871 194.724C116.239 194.898 114.592 194.898 112.96 194.724C110.633 194.363 109.47 192.899 108.923 190.725C108.841 190.411 108.76 190.097 108.702 189.783V189.586C108.341 189.923 108.457 190.016 109.074 189.853C110.118 189.975 111.172 189.975 112.216 189.853L118.813 189.76L131.438 189.551C141.014 189.388 150.602 189.225 160.178 189.167C160.57 189.161 160.944 188.999 161.217 188.718C161.489 188.437 161.639 188.059 161.633 187.667C161.627 187.276 161.465 186.903 161.184 186.63C160.902 186.358 160.524 186.208 160.132 186.214Z" fill="#121212"/>
</g>
<defs>
<clipPath id="clip0_0_5511">
<rect width="274" height="450" fill="white"/>
</clipPath>
</defs>
</svg>
