<svg width="274" height="439" viewBox="0 0 274 439" fill="none" xmlns="http://www.w3.org/2000/svg">
<g clip-path="url(#clip0_0_5431)">
<path d="M222.458 398.704C223.056 418.782 176.219 436.498 117.838 438.262C59.4565 440.026 11.6384 425.178 11.0404 405.085C10.4425 384.992 33.8687 366.126 92.296 364.362C150.723 362.598 221.845 378.611 222.458 398.704Z" fill="#FED359"/>
<path d="M244.673 167.478C240.886 178.875 236.931 189.182 230.231 199.244C223.457 209.086 215.548 218.095 206.667 226.086C190.079 241.424 169.872 251.042 148.117 255.981C145.766 251.028 142.849 246.365 139.424 242.084C150.033 240.995 159.355 239.599 169.243 234.86C180.144 229.645 190.707 223.908 199.906 216.07C215.712 202.665 230.752 180.363 234.248 159.748C234.274 159.546 234.227 159.342 234.114 159.172C234.002 159.003 233.832 158.88 233.636 158.825C233.44 158.771 233.231 158.79 233.048 158.878C232.864 158.965 232.719 159.116 232.638 159.303C229.005 168.982 225.616 178.323 220.204 187.204C214.368 196.323 207.579 204.797 199.952 212.481C191.964 220.902 180.497 226.439 170.225 231.501C165.006 234.292 159.466 236.435 153.728 237.881C148.577 239.016 143.318 239.415 138.182 240.581C136.91 239.047 135.576 237.605 134.15 236.194C130.983 233.348 127.525 230.844 123.832 228.724C124.215 227.559 124.215 226.301 123.832 225.135C123.776 224.971 123.659 224.834 123.504 224.754C123.35 224.674 123.171 224.657 123.004 224.706C124.064 223.3 124.759 221.654 125.026 219.914C125.294 218.174 125.126 216.395 124.537 214.736C127.604 212.466 127.297 208.938 125.917 205.84C143.896 203.917 161.2 197.915 176.51 188.293C217.445 162.401 236.502 101.953 213.014 58.8217C200.55 35.9216 177.538 19.0801 153.82 9.32497C139.516 3.40438 124.185 -0.476216 108.455 -0.000727694C107.045 -0.000727694 105.649 0.152656 104.254 0.2907C91.3453 0.888895 78.743 6.57941 67.5512 12.5614C54.719 19.4176 40.3996 28.3292 31.5381 40.1703C11.8528 66.4602 6.31824 107.521 16.2836 138.55C26.2489 169.58 54.3664 192.235 84.4769 201.898C89.4313 203.476 94.508 204.641 99.6549 205.379C99.089 206.143 98.7734 207.063 98.7515 208.013C98.7295 208.964 99.0023 209.898 99.5322 210.687C99.8837 211.245 100.301 211.76 100.774 212.22C99.7112 212.835 98.893 213.798 98.4573 214.947C98.0216 216.095 97.9951 217.359 98.3824 218.524C99.1849 220.645 100.654 222.448 102.568 223.663C101.751 224.522 101.201 225.599 100.984 226.764C100.766 227.929 100.89 229.132 101.341 230.228C93.6757 233.065 86.7613 238.878 81.196 246.363C72.1199 239.737 59.0577 238.97 48.2952 239.676C35.523 240.437 23.2958 245.118 13.2786 253.082C3.95723 260.659 -2.49722 273.727 1.01363 285.706C4.6778 298.667 22.7227 305.232 35.2636 305.14C34.9107 307.314 34.9107 309.531 35.2636 311.705C35.2445 311.746 35.2346 311.79 35.2346 311.835C35.2346 311.88 35.2445 311.925 35.2636 311.965L35.4476 312.395C35.832 314.354 36.7035 316.185 37.9816 317.718C39.2597 319.252 40.9033 320.438 42.7606 321.168C48.7091 324.313 56.5587 323.254 62.9365 318.607C66.1651 316.268 68.5526 312.949 69.7436 309.143C71.4481 313.591 74.023 317.653 77.3172 321.092C76.1936 321.539 75.2715 322.381 74.7239 323.459C74.1764 324.538 74.0409 325.78 74.343 326.951C74.6204 328.075 75.1441 329.122 75.8761 330.019C73.4538 332.657 73.6837 337.857 75.2322 340.755C75.2322 340.878 75.3702 340.97 75.4315 341.078C74.22 341.757 73.285 342.839 72.7891 344.137C72.2933 345.434 72.268 346.865 72.7179 348.179C73.4971 349.807 74.7682 351.148 76.3514 352.014C75.873 353.396 75.8391 354.894 76.2542 356.297C76.6693 357.7 77.5128 358.937 78.6664 359.836C77.875 360.405 77.2131 361.135 76.7243 361.979C76.2354 362.822 75.9307 363.76 75.8301 364.729C75.6603 365.803 75.7086 366.899 75.972 367.953C76.2355 369.007 76.7086 369.998 77.3632 370.865C74.4665 372.362 72.0006 374.576 70.2 377.295C68.3995 380.015 67.324 383.15 67.076 386.402C66.2174 401.649 90.5328 406.097 101.878 398.535C101.921 398.555 101.968 398.566 102.016 398.566C102.064 398.566 102.111 398.555 102.154 398.535L102.522 398.167C104.154 397.028 105.47 395.494 106.347 393.707C107.224 391.92 107.633 389.94 107.535 387.952C107.543 387.89 107.543 387.829 107.535 387.767C108.026 380.359 103.12 372.843 95.1475 369.576C94.6812 369.387 94.2053 369.224 93.7217 369.085C93.9621 367.762 93.9621 366.406 93.7217 365.082C93.6694 363.898 93.3482 362.741 92.7824 361.699C92.2166 360.657 91.421 359.758 90.4561 359.069C90.4561 358.977 90.5941 358.901 90.6554 358.824C91.1283 357.917 91.3753 356.91 91.3753 355.887C91.3753 354.864 91.1283 353.856 90.6554 352.949C90.7254 352.909 90.792 352.863 90.8547 352.811C94.1203 350.434 92.9244 346.446 91.146 343.516C91.609 343.229 92.0452 342.901 92.4492 342.535C93.1976 341.796 93.7346 340.87 94.0042 339.853C94.2738 338.836 94.2663 337.765 93.9823 336.752C95.0076 336.197 95.8536 335.361 96.4211 334.343C96.9886 333.324 97.2541 332.165 97.1865 331C106.278 332.396 116.504 331 125.626 328.684C125.42 329.549 125.537 330.46 125.955 331.245C126.373 332.031 127.062 332.636 127.895 332.948C127.831 333.025 127.784 333.113 127.757 333.209C127.46 334.209 127.379 335.261 127.519 336.295C127.659 337.329 128.017 338.321 128.57 339.206C127.404 342.535 127.205 346.277 130.333 348.578C130.764 348.887 131.24 349.13 131.743 349.299C131.615 349.381 131.514 349.498 131.452 349.636C131.047 350.511 130.927 351.491 131.108 352.438C131.29 353.384 131.764 354.25 132.464 354.913C131.934 355.068 131.445 355.338 131.031 355.703C130.616 356.067 130.286 356.518 130.064 357.024C129.842 357.529 129.734 358.077 129.745 358.629C129.757 359.182 129.89 359.724 130.133 360.22C130.349 360.704 130.611 361.167 130.915 361.6C130.113 362.419 129.579 363.462 129.382 364.591C129.228 365.417 129.242 366.265 129.424 367.085C129.606 367.904 129.951 368.679 130.44 369.361C127.309 370.783 124.616 373.018 122.643 375.835C120.669 378.651 119.486 381.945 119.218 385.375C118.344 400.636 142.674 405.084 154.004 397.523C154.054 397.533 154.106 397.53 154.154 397.514C154.203 397.497 154.246 397.469 154.28 397.431L154.648 397.062C156.283 395.929 157.602 394.398 158.482 392.614C159.362 390.829 159.773 388.85 159.677 386.862V386.678C160.137 379.761 155.89 372.751 148.837 369.177C149.262 368.136 149.516 367.033 149.589 365.91C149.678 364.828 149.534 363.74 149.167 362.718C148.799 361.697 148.216 360.766 147.458 359.99C147.626 359.712 147.78 359.425 147.918 359.131C148.244 358.428 148.426 357.668 148.455 356.893C148.483 356.119 148.356 355.347 148.082 354.623C147.808 353.898 147.392 353.236 146.858 352.675C146.324 352.113 145.684 351.664 144.974 351.354C145.76 349.464 145.999 347.392 145.664 345.372C145.641 345.215 145.568 345.07 145.454 344.959C145.34 344.848 145.193 344.777 145.035 344.759C147.565 341.814 148.194 338.087 143.502 335.556C143.72 334.459 143.696 333.328 143.431 332.242C143.167 331.155 142.667 330.14 141.969 329.267C142.37 328.313 142.577 327.288 142.577 326.253C142.577 325.218 142.37 324.193 141.969 323.239C141.901 323.062 141.784 322.908 141.632 322.794C147.517 319.567 152.093 314.387 154.571 308.146C157.929 299.403 156.288 289.234 155.062 280.246C154.057 272.564 151.993 265.059 148.929 257.944C170.255 256.195 191.06 243.495 206.774 229.737C223.915 214.705 244.014 191.498 246.007 167.678C246.145 166.834 244.903 166.742 244.673 167.478ZM66.524 290.308C65.3727 288.733 64.0109 287.324 62.4766 286.12C55.9302 281.074 48.8931 283.421 43.5885 288.774C33.4699 285.338 17.1881 279.402 29.959 267.638C42.73 255.873 57.8159 258.435 72.8865 260.935C68.8419 270.208 66.6792 280.192 66.524 290.308Z" fill="#121212"/>
<path d="M137.398 241.671L147.486 240.26L161.285 236.686L173.549 231.256L186.458 224.614L197.574 216.562L207.861 206.009L218.838 192.205L225.998 179.75L230.781 167.725L234.047 157.693L237.941 161.052L242.985 164.504L245.928 165.838L244.211 173.323L240.24 184.765L233.985 196.591L226.12 207.712L220.831 213.847L214.944 219.722L207.799 227.069L199.045 233.971L186.581 242.79L176.692 248.036L164.55 252.898L147.042 257.04C145.227 251.161 141.902 245.861 137.398 241.671Z" fill="#FED359"/>
<path d="M130.776 177.832C133.153 177.587 133.751 174.949 133.168 172.97C132.463 170.593 131.068 170.133 128.967 169.903C125.625 171.789 126.116 178.308 130.776 177.832Z" fill="#121212"/>
<path d="M118.297 172.97C117.592 170.593 116.197 170.133 114.096 169.903C110.754 171.728 111.245 178.293 115.905 177.817C118.282 177.587 118.879 174.949 118.297 172.97Z" fill="#121212"/>
<path d="M96.5869 169.918C93.2294 171.743 93.7353 178.308 98.396 177.833C100.757 177.587 101.37 174.949 100.788 172.97C100.082 170.593 98.672 170.133 96.5869 169.918Z" fill="#121212"/>
<path d="M147.18 197.036C166.093 191.482 182.94 180.451 195.596 165.332C188.484 155.601 183.52 144.471 181.031 132.677C165.071 129.609 149.219 133.72 133.152 133.919C107.656 134.226 82.1751 133.812 56.7099 132.385C56.0507 146.957 51.5433 162.862 39.125 169.197C41.0721 171.283 43.1265 173.323 45.3342 175.333C73.7583 200.334 111.09 207.988 147.18 197.036ZM127.694 151.758C127.752 151.571 127.871 151.41 128.031 151.297C131.266 149.089 134.915 152.831 135.436 155.899C135.957 158.967 134.547 162.893 130.836 163.047C123.983 163.323 123.309 153.798 127.694 151.758ZM127.694 168.89C127.747 168.697 127.866 168.529 128.031 168.415C131.266 166.222 134.915 169.949 135.436 173.016C135.957 176.084 134.547 179.995 130.836 180.164C123.983 180.456 123.309 170.93 127.694 168.89ZM112.822 151.758C112.875 151.568 112.995 151.405 113.16 151.297C116.394 149.089 120.043 152.831 120.565 155.899C121.086 158.967 119.675 162.893 115.965 163.047C109.112 163.323 108.438 153.813 112.822 151.758ZM98.3956 180.164C91.6039 180.456 90.9293 170.961 95.3293 168.89C95.3913 168.697 95.5153 168.53 95.682 168.415C98.9015 166.222 102.566 169.949 103.087 173.016C103.608 176.084 102.167 179.995 98.3956 180.164ZM98.3956 163.031C91.6039 163.323 90.9293 153.828 95.3293 151.758C95.3888 151.567 95.5138 151.404 95.682 151.297C98.9015 149.089 102.566 152.831 103.087 155.899C103.608 158.967 102.167 162.878 98.3956 163.031ZM112.822 168.89C112.875 168.697 112.994 168.528 113.16 168.415C116.394 166.222 120.043 169.949 120.565 173.016C121.086 176.084 119.675 179.995 115.965 180.164C109.112 180.456 108.438 170.946 112.822 168.89Z" fill="#FED359"/>
<path d="M115.905 160.7C118.282 160.47 118.879 157.816 118.297 155.853C117.592 153.476 116.197 153 114.096 152.785C110.754 154.611 111.245 161.175 115.905 160.7Z" fill="#121212"/>
<path d="M96.5869 152.801C93.2294 154.61 93.7353 161.175 98.396 160.7C100.757 160.47 101.37 157.816 100.788 155.853C100.082 153.475 98.672 153.015 96.5869 152.801Z" fill="#121212"/>
<path d="M24.1633 270.369C34.0366 256.84 58.5512 250.782 73.2232 260.015C75.1719 255.602 77.5549 251.394 80.3369 247.453C60.667 240.72 38.7893 239.401 20.4378 251.211C10.7331 257.5 -0.612033 270.43 3.06747 283.207C7.43687 298.545 22.9981 299.512 35.7077 303.407C36.7972 298.689 38.9586 294.286 42.0242 290.539C32.5648 288.591 16.3903 280.998 24.1633 270.369Z" fill="#FED359"/>
<path d="M59.4547 287.379C54.5181 284.71 49.6427 286.244 45.7793 289.848C45.8442 289.97 45.8758 290.106 45.8711 290.244C45.8664 290.382 45.8253 290.516 45.7522 290.632C45.6791 290.749 45.5764 290.844 45.4547 290.909C45.3329 290.973 45.1963 291.004 45.0587 290.999H44.6907C38.2363 298.039 35.2314 310.938 40.9192 317.948C47.0517 322.335 56.0665 321.491 62.245 315.816C65.7293 312.501 67.7581 307.94 67.8869 303.131C67.3501 300.766 66.9711 298.368 66.7524 295.953C65.4641 292.29 62.8639 289.235 59.4547 287.379Z" fill="#FED359"/>
<path d="M119.477 224.323C122.927 222.375 122.452 219.2 122.329 215.964C118.686 217.249 114.758 217.493 110.984 216.669C107.643 216.155 104.456 214.914 101.647 213.034C100.114 214.721 99.1635 216.746 100.819 219.016C103.039 221.677 106.063 223.545 109.435 224.338C112.517 225.197 116.518 226.01 119.477 224.323Z" fill="#FED359"/>
<path d="M269.188 117.906C265.922 117.906 263.76 121.479 262.242 123.918C260.117 127.271 258.422 130.878 257.198 134.655C255.41 133.809 253.547 133.131 251.633 132.63C251.892 130.838 251.949 129.021 251.802 127.216C251.992 123.543 251.827 119.86 251.311 116.218C250.652 112.322 248.245 104.531 242.603 105.712C235.106 107.245 239.537 125.329 240.886 132.017L239.844 132.278C239.75 132.239 239.646 132.239 239.552 132.278L239.292 132.416C237.332 132.945 235.542 133.972 234.094 135.396C232.647 136.82 231.591 138.593 231.028 140.545C228.284 147.11 230.491 155.408 236.241 161.374C245.685 171.176 261.859 167.096 268.436 155.96C271.503 150.791 270.107 145.653 266.535 141.435C270.245 137.155 273.434 132.324 274.032 126.572C274.247 123.934 272.898 117.906 269.188 117.906Z" fill="#FED359"/>
<path d="M107.796 226.424C106.289 225.816 104.833 225.088 103.442 224.246C102.17 229.538 105.573 233.342 111.108 233.741C113.825 234.104 116.577 233.388 118.774 231.747C120.905 229.83 121.135 227.59 122.407 225.335C122.005 225.733 121.552 226.073 121.058 226.348C117.164 228.541 111.92 228.081 107.796 226.424Z" fill="#FED359"/>
<path d="M86.7146 100.282C85.9006 99.8975 85.0218 99.6686 84.1237 99.6072C84.0805 99.6791 84.0159 99.7356 83.9388 99.7687C83.8617 99.8017 83.7762 99.8096 83.6944 99.7912L82.9278 99.6378C81.0712 99.9169 79.2976 100.597 77.7305 101.632C73.7137 106.233 74.2197 117.277 80.5361 118.596C82.0572 118.907 83.6316 118.836 85.1183 118.388C86.605 117.941 87.9575 117.131 89.0545 116.032C90.1515 114.933 90.9588 113.579 91.404 112.091C91.8492 110.603 91.9183 109.028 91.6053 107.506C91.3823 106.013 90.8271 104.588 89.9806 103.338C89.1342 102.088 88.0181 101.043 86.7146 100.282Z" fill="#FED359"/>
<path d="M130.776 160.7C133.153 160.47 133.751 157.816 133.168 155.853C132.463 153.476 131.068 153 128.967 152.785C125.625 154.611 126.116 161.175 130.776 160.7Z" fill="#121212"/>
<path d="M42.9274 84.0538C66.8594 82.7932 90.8504 83.2135 114.724 85.3115C137.399 87.1368 160.625 88.5633 183.101 92.2291C187.164 78.4246 194.891 61.9053 209.164 59.2517C202.96 48.6346 194.828 39.2709 185.186 31.6427C169.311 18.9082 150.762 9.93118 130.929 5.38354C109.158 0.536625 89.5344 4.73933 69.9257 14.1417C65.6943 16.5805 61.6622 19.1573 57.8754 21.7035C40.8884 33.0999 28.2554 46.2448 21.8776 66.1847C21.8776 66.3687 21.755 66.5681 21.709 66.7522C30.1764 70.5573 37.4941 76.5243 42.9274 84.0538Z" fill="#FED359"/>
<path d="M101.387 205.625C101.139 205.998 100.967 206.416 100.881 206.855C100.794 207.294 100.795 207.746 100.883 208.185C100.972 208.624 101.145 209.041 101.395 209.412C101.645 209.784 101.965 210.102 102.338 210.35C102.624 210.585 102.915 210.8 103.211 210.994L103.809 210.81C103.901 210.81 103.978 210.917 103.901 210.963L103.579 211.224C106.1 212.633 108.87 213.539 111.736 213.893C115.032 214.476 119.401 214.874 122.467 213.172C125.534 211.469 125.043 208.647 123.878 206.024C116.388 206.687 108.849 206.553 101.387 205.625Z" fill="#FED359"/>
<path d="M211.911 137.523C212.861 135.069 213.751 132.569 214.532 130.008C219.27 114.485 221.661 98.2572 218.273 82.4587C212.064 91.8458 207.281 101.954 207.541 113.55C207.725 121.817 210.746 129.547 211.911 137.523Z" fill="#FED359"/>
<path d="M183.761 103.672C181.844 114.865 182.441 126.344 185.508 137.278C188.299 146.589 192.959 154.795 197.221 163.353C202.536 156.581 206.947 149.146 210.345 141.235C205.01 132.769 203.553 118.535 204.718 108.902C205.749 98.3688 210.436 88.5296 217.965 81.0939C217.474 78.9925 216.891 76.9065 216.186 74.8358C214.441 69.6954 212.218 64.7297 209.548 60.0037C193.649 66.4151 186.306 88.3182 183.761 103.672ZM196.991 93.6406C197.567 93.6438 198.129 93.8167 198.608 94.1378C199.086 94.4589 199.459 94.9139 199.679 95.446C199.9 95.978 199.96 96.5634 199.85 97.1289C199.74 97.6945 199.466 98.2151 199.062 98.6256C198.658 99.0362 198.142 99.3184 197.578 99.437C197.015 99.5557 196.429 99.5054 195.894 99.2926C195.359 99.0798 194.898 98.7139 194.57 98.2406C194.241 97.7673 194.06 97.2076 194.048 96.6316C194.044 96.2416 194.117 95.8546 194.263 95.4929C194.409 95.1311 194.625 94.8019 194.898 94.5239C195.172 94.246 195.497 94.0249 195.857 93.8733C196.216 93.7217 196.602 93.6426 196.991 93.6406ZM190.23 117.246C190.227 116.556 190.429 115.881 190.81 115.306C191.192 114.731 191.735 114.283 192.372 114.017C193.008 113.752 193.709 113.681 194.386 113.815C195.062 113.949 195.684 114.281 196.171 114.769C196.659 115.257 196.991 115.879 197.125 116.555C197.258 117.232 197.188 117.934 196.923 118.57C196.658 119.207 196.209 119.751 195.634 120.132C195.06 120.514 194.385 120.716 193.695 120.713C192.78 120.701 191.906 120.332 191.258 119.684C190.611 119.037 190.242 118.162 190.23 117.246ZM194.707 136.864C190.614 136.864 190.614 130.514 194.707 130.514C198.8 130.514 198.739 136.864 194.707 136.864ZM206.236 75.7254C206.731 75.7375 207.212 75.8957 207.617 76.18C208.023 76.4643 208.336 76.8622 208.516 77.3236C208.697 77.7851 208.737 78.2896 208.632 78.7739C208.527 79.2581 208.281 79.7005 207.926 80.0456C207.57 80.3906 207.121 80.623 206.634 80.7134C206.147 80.8039 205.644 80.7484 205.188 80.554C204.733 80.3596 204.345 80.0349 204.073 79.6207C203.801 79.2064 203.658 78.7211 203.66 78.2256C203.668 77.5624 203.936 76.9288 204.407 76.4612C204.877 75.9936 205.512 75.7294 206.175 75.7254H206.236ZM203.63 146.849C203.63 147.501 203.436 148.139 203.074 148.681C202.712 149.224 202.197 149.646 201.595 149.896C200.993 150.146 200.33 150.211 199.691 150.084C199.051 149.956 198.464 149.642 198.003 149.181C197.542 148.72 197.228 148.132 197.101 147.493C196.974 146.853 197.039 146.19 197.288 145.587C197.538 144.985 197.96 144.47 198.502 144.107C199.044 143.745 199.682 143.552 200.334 143.552C201.195 143.575 202.013 143.932 202.616 144.547C203.22 145.162 203.561 145.988 203.568 146.849H203.63Z" fill="#FED359"/>
<path d="M141.969 100.711C140.884 100.747 139.828 101.064 138.903 101.632C137.213 102.703 135.952 104.334 135.341 106.24C134.73 108.147 134.808 110.207 135.561 112.062C137.646 117.047 143.38 118.074 147.642 114.976C151.904 111.878 151.321 106.555 147.718 103.288C146.202 101.725 144.144 100.803 141.969 100.711Z" fill="#FED359"/>
<path d="M52.1262 115.712C48.5233 96.6315 38.3281 78.5323 20.9578 69.1453C18.6455 76.9173 17.0546 84.886 16.2051 92.9503C24.0473 100.67 29.252 110.671 31.0764 121.526C32.5022 129.532 31.0764 141.465 24.392 147.064C27.8854 154.529 32.4286 161.455 37.8835 167.633C44.0159 160.454 49.3206 154.166 51.6049 144.625C53.8173 135.133 53.9949 125.279 52.1262 115.712ZM25.6951 87.2138L25.6185 87.3672C24.6219 89.5606 21.1417 88.4255 21.2031 86.1708V85.9867C21.2068 85.6185 21.2948 85.2559 21.4605 84.927C21.6262 84.5981 21.8651 84.3117 22.1588 84.0896C22.4525 83.8676 22.7932 83.7159 23.1547 83.6462C23.5162 83.5765 23.8888 83.5908 24.2439 83.6878C24.5991 83.7848 24.9272 83.962 25.2032 84.2058C25.4791 84.4496 25.6955 84.7534 25.8357 85.094C25.9758 85.4346 26.036 85.8027 26.0117 86.1702C25.9873 86.5377 25.879 86.8947 25.6951 87.2138ZM32.1956 94.1621C32.9217 94.2152 33.6008 94.5412 34.0965 95.0747C34.5922 95.6082 34.8678 96.3096 34.8678 97.038C34.8678 97.7664 34.5922 98.4678 34.0965 99.0013C33.6008 99.5348 32.9217 99.8608 32.1956 99.9139C31.4694 99.8608 30.7903 99.5348 30.2946 99.0013C29.7989 98.4678 29.5234 97.7664 29.5234 97.038C29.5234 96.3096 29.7989 95.6082 30.2946 95.0747C30.7903 94.5412 31.4694 94.2152 32.1956 94.1621ZM35.0012 153.813C30.8771 153.813 30.8771 147.401 35.0012 147.401C39.1253 147.401 39.0946 153.813 34.9552 153.813H35.0012ZM39.1253 138.474C38.8154 138.464 38.5073 138.423 38.2054 138.352C37.7935 138.233 37.4185 138.012 37.1155 137.709C36.8124 137.406 36.5914 137.031 36.473 136.619C36.3778 136.28 36.3573 135.925 36.4129 135.578C36.4685 135.231 36.5989 134.901 36.7949 134.609C36.8883 134.451 36.9961 134.302 37.1169 134.164C37.3507 133.878 37.6453 133.646 37.9793 133.487C38.3134 133.328 38.6786 133.245 39.0486 133.244C39.4129 133.216 39.7789 133.264 40.1238 133.385C40.4687 133.505 40.785 133.695 41.0529 133.944C41.3209 134.192 41.5346 134.493 41.6808 134.828C41.827 135.163 41.9024 135.525 41.9024 135.89C41.9024 136.255 41.827 136.617 41.6808 136.952C41.5346 137.287 41.3209 137.588 41.0529 137.836C40.785 138.085 40.4687 138.275 40.1238 138.395C39.7789 138.516 39.4129 138.564 39.0486 138.536L39.1253 138.474ZM39.3093 114.654C38.7028 114.654 38.11 114.474 37.6057 114.137C37.1015 113.8 36.7085 113.321 36.4764 112.76C36.2443 112.2 36.1836 111.583 36.3019 110.988C36.4202 110.393 36.7123 109.846 37.1411 109.417C37.5699 108.988 38.1163 108.696 38.7111 108.578C39.3059 108.459 39.9224 108.52 40.4827 108.752C41.0429 108.984 41.5218 109.378 41.8587 109.882C42.1957 110.387 42.3755 110.98 42.3755 111.586C42.3817 111.997 42.3054 112.405 42.1512 112.785C41.997 113.166 41.768 113.512 41.4778 113.802C41.1875 114.092 40.842 114.321 40.4616 114.476C40.0812 114.63 39.6737 114.706 39.2633 114.7L39.3093 114.654Z" fill="#FED359"/>
<path d="M27.2287 118.105C24.9453 109.801 21.1286 101.997 15.9756 95.0977C14.3089 111.872 16.7995 128.798 23.2273 144.38C24.9903 140.99 27.0754 137.83 27.8266 133.904C28.735 128.654 28.5313 123.271 27.2287 118.105Z" fill="#FED359"/>
<path d="M182.32 94.9597C158.833 93.8094 135.33 89.8367 111.796 88.0882C89.414 86.2098 66.9418 85.626 44.4922 86.3396C50.4788 95.4059 54.3943 105.681 55.96 116.433C56.6303 121.049 56.9226 125.712 56.8338 130.376C83.3722 129.149 109.972 132.217 136.556 130.376C146.506 129.716 156.487 128.183 166.422 128.106C170.776 128.106 176.218 127.738 180.542 129.486C178.816 119.504 179.066 109.279 181.278 99.3925C181.553 98.0019 181.901 96.5243 182.32 94.9597ZM81.2565 121.28C68.9915 119.746 71.3832 98.2728 81.0265 98.3648C86.2545 96.831 91.7584 100.205 93.2915 106.31C95.3766 113.995 89.9493 122.415 81.2565 121.28ZM148.913 117.154C143.547 120.912 135.698 120.053 133.321 113.274C132.632 111.526 132.463 109.616 132.833 107.774C133.203 105.932 134.096 104.236 135.406 102.89C140.818 91.0638 161.684 108.273 148.944 117.154H148.913Z" fill="#FED359"/>
<path d="M242.234 131.91C244.492 131.662 246.773 131.734 249.011 132.125C248.398 128.903 249.455 123.734 249.348 121.388C249.364 118.44 248.909 115.509 247.999 112.706C247.462 111.356 243.645 105.697 242.035 108.902C238.586 115.605 242.556 124.486 242.234 131.91Z" fill="#FED359"/>
<path d="M136.878 342.428C135.573 342.684 134.227 342.628 132.949 342.266C131.67 341.903 130.495 341.244 129.519 340.342C129.365 342.811 129.519 345.956 131.941 347.029C134.205 347.751 136.657 347.592 138.809 346.585C142.765 345.051 147.793 340.649 143.087 337.29C143.022 337.498 142.945 337.703 142.857 337.903C142.278 339.069 141.437 340.085 140.4 340.87C139.362 341.655 138.156 342.188 136.878 342.428Z" fill="#FED359"/>
<path d="M138.595 354.315C140.383 353.827 141.927 352.693 142.927 351.131C143.927 349.57 144.312 347.693 144.007 345.864C142.752 347.017 141.304 347.941 139.73 348.594C137.581 349.552 135.212 349.907 132.877 349.622C132.892 349.692 132.892 349.766 132.877 349.836C132.601 353.441 135.054 355.358 138.595 354.315Z" fill="#FED359"/>
<path d="M139.116 365.497C136.601 365.53 134.159 364.647 132.247 363.012C132.098 363.167 131.964 363.337 131.849 363.518C131.516 364.15 131.323 364.846 131.281 365.558C131.296 366.649 131.404 367.737 131.603 368.81C136.422 366.673 141.878 366.47 146.842 368.242C147.134 367.574 147.365 366.881 147.532 366.172C147.752 364.505 147.418 362.813 146.582 361.355C145.71 362.544 144.591 363.529 143.302 364.244C142.013 364.959 140.585 365.386 139.116 365.497Z" fill="#FED359"/>
<path d="M138.165 356.57C136.58 356.789 134.966 356.487 133.566 355.711C132.692 356.248 131.65 356.984 131.68 357.951C131.712 359.023 132.15 360.043 132.907 360.804C133.785 361.783 134.896 362.525 136.136 362.962C137.377 363.399 138.707 363.517 140.005 363.304C141.316 363.045 142.554 362.498 143.628 361.702C144.701 360.906 145.585 359.882 146.214 358.702C147.564 355.865 146.352 354.285 144.375 352.567C143.717 353.667 142.815 354.601 141.738 355.295C140.661 355.99 139.439 356.426 138.165 356.57Z" fill="#FED359"/>
<path d="M112.855 269.095C112.863 269.134 112.864 269.174 112.856 269.213C112.848 269.252 112.832 269.288 112.809 269.32C112.786 269.352 112.756 269.379 112.721 269.398C112.687 269.418 112.649 269.43 112.609 269.433C98.6118 269.433 102.276 293.867 113.866 292.44C122.007 291.397 126.883 282.931 122.467 275.768C121.501 273.978 120.128 272.442 118.458 271.283C116.788 270.123 114.868 269.374 112.855 269.095Z" fill="#FED359"/>
<path d="M101.188 262.561C97.6004 265.192 94.7702 268.723 92.9828 272.797C91.1955 276.872 90.5142 281.346 91.0077 285.768C92.4029 299.496 107.075 308.914 120.275 304.496C134.227 299.818 141.003 282.195 132.402 269.694C124.568 258.374 112.471 256.871 101.188 262.561ZM114.894 294.864C102.292 297.41 97.2322 277.21 104.928 270.721C110.279 264.003 120.137 268.037 124.139 274.771C129.091 283.176 124.507 292.962 114.848 294.864H114.894Z" fill="#FED359"/>
<path d="M267.178 121.572C263.192 125.345 261.214 130.667 258.133 135.131C260.635 136.38 262.939 137.993 264.971 139.916C267.362 136.373 270.26 132.723 271.103 128.551C271.44 126.449 270.965 117.967 267.178 121.572Z" fill="#FED359"/>
<path d="M252.522 135.652C246.113 133.581 239.168 133.443 234.415 138.045C230.046 144.932 232.07 154.687 239.015 160.362C243.936 164.427 250.682 165.961 256.554 162.816C260.586 160.669 265.753 157.402 266.81 152.524C268.528 144.18 259.313 137.876 252.522 135.652Z" fill="#FED359"/>
<path d="M122.45 389.087C127.188 402.018 151.334 401.711 157.452 390.008C159.276 381.219 152.684 371.74 143.025 369.838C133.765 368.028 118.418 378.09 122.45 389.087Z" fill="#FED359"/>
<path d="M145.648 256.763C140.352 246.32 132.577 237.336 123.004 230.596C122.156 232.198 120.917 233.56 119.401 234.553C116.444 236.291 112.952 236.88 109.589 236.21C107.97 235.92 106.428 235.297 105.062 234.381C103.695 233.465 102.532 232.275 101.648 230.888C84.0476 240.704 73.3923 261.963 71.3686 281.504C69.5135 299.235 74.0976 322.273 94.5188 326.645C107.658 329.452 125.074 327.105 137.232 321.384C145.511 317.503 151.643 311.306 153.115 302.011C155.222 287.028 152.876 271.756 146.369 258.098C146.215 258.094 146.065 258.049 145.934 257.969C145.803 257.888 145.696 257.775 145.623 257.639C145.549 257.504 145.513 257.352 145.518 257.198C145.522 257.044 145.567 256.894 145.648 256.763ZM120.981 307.242C107.06 311.138 89.9041 302.855 88.4016 287.302C87.9024 282.863 88.4776 278.369 90.0785 274.2C91.6795 270.03 94.2593 266.306 97.6004 263.344C97.6193 263.258 97.6682 263.182 97.7384 263.129C100.475 260.719 103.724 258.964 107.24 257.998C110.755 257.032 114.445 256.879 118.028 257.552C121.611 258.225 124.994 259.705 127.92 261.88C130.847 264.056 133.239 266.869 134.917 270.108C141.908 283.621 136.879 302.809 120.981 307.242Z" fill="#FED359"/>
<path d="M136.648 340.235C137.6 340.05 138.498 339.656 139.278 339.08C140.057 338.504 140.699 337.762 141.156 336.906C142.183 334.698 141.37 332.903 141.156 330.771C140.279 331.845 139.185 332.722 137.946 333.343C136.707 333.964 135.35 334.316 133.965 334.375C132.303 334.436 130.646 334.165 129.09 333.578C129.151 337.857 131.849 341.477 136.648 340.235Z" fill="#FED359"/>
<path d="M81.8687 334.835C79.8906 333.778 78.0903 332.417 76.5335 330.802C76.5335 333.608 75.215 336.446 76.9014 339.176C77.6261 340.267 78.5984 341.17 79.7388 341.812C80.8793 342.455 82.1555 342.818 83.4632 342.873C85.9126 343.11 88.3714 342.527 90.4542 341.216C91.1005 340.81 91.6087 340.217 91.9124 339.516C92.2161 338.816 92.301 338.039 92.156 337.29C88.5503 337.628 84.9339 336.765 81.8687 334.835Z" fill="#FED359"/>
<path d="M83.4646 345.25C80.6131 345.128 77.9224 343.895 75.9676 341.815C74.6491 343.64 73.2999 345.68 74.7411 347.843C76.456 349.948 78.8942 351.337 81.5788 351.739C83.9245 352.245 87.1287 352.582 89.2444 351.232C91.7434 349.699 90.7776 346.432 89.781 344.207C87.7976 345.084 85.6243 345.443 83.4646 345.25Z" fill="#FED359"/>
<path d="M78.0224 321.783C76.2133 323.317 74.9561 325.142 76.5812 327.565C78.3082 330.019 80.6579 331.967 83.3883 333.21C85.8413 334.406 89.1375 335.679 91.9125 334.958C94.3502 334.33 94.8561 332.627 94.9788 330.602C93.6026 330.333 92.2454 329.975 90.916 329.529C86.0945 327.941 81.6891 325.294 78.0224 321.783Z" fill="#FED359"/>
<path d="M134.041 331.676C138.273 330.925 141.063 328.302 140.174 323.792C140.174 323.792 140.174 323.792 140.174 323.685C138.199 324.691 136.148 325.543 134.041 326.231C131.803 326.983 129.442 327.765 126.912 328.363C127.648 331.308 131.205 332.182 134.041 331.676Z" fill="#FED359"/>
<path d="M70.3255 390.023C75.0629 402.953 99.2096 402.646 105.327 390.943C107.151 382.154 100.559 372.675 90.9001 370.789C81.64 368.963 66.2781 379.025 70.3255 390.023Z" fill="#FED359"/>
<path d="M84.5391 361.724C82.9338 361.717 81.3546 361.317 79.9397 360.558C78.8318 361.859 78.1378 363.461 77.9466 365.159C77.9293 366.011 78.0832 366.857 78.3993 367.647C78.7153 368.438 79.1871 369.157 79.7864 369.761C83.4508 368.227 87.4721 367.754 91.3921 368.396C91.4734 367.55 91.5041 366.7 91.4841 365.85C91.2135 363.854 90.5182 361.94 89.4451 360.236C88.0289 361.28 86.2966 361.806 84.5391 361.724Z" fill="#FED359"/>
<path d="M84.5368 359.407C85.3527 359.443 86.1655 359.285 86.9089 358.947C87.6522 358.608 88.3051 358.098 88.8142 357.459C89.5347 356.171 88.9215 355.036 88.6609 353.901C86.1554 354.615 83.5007 354.615 80.9952 353.901C79.8581 353.608 78.7498 353.213 77.6837 352.72C77.6112 353.631 77.7401 354.547 78.0614 355.403C78.3826 356.259 78.8882 357.034 79.5423 357.672C80.1965 358.31 80.983 358.797 81.8462 359.097C82.7094 359.397 83.628 359.503 84.5368 359.407Z" fill="#FED359"/>
<path d="M95.6529 168.415C95.4862 168.53 95.3623 168.697 95.3003 168.89C90.9309 170.946 91.6055 180.455 98.3666 180.164C102.138 179.995 103.564 176.268 102.966 173.016C102.368 169.764 98.8725 166.221 95.6529 168.415ZM98.3972 177.832C93.7979 178.308 93.2306 171.697 96.5881 169.918C98.6732 170.133 100.084 170.593 100.789 172.986C101.371 174.949 100.758 177.587 98.3972 177.832Z" fill="#121212"/>
<path d="M120.566 173.017C120.044 169.949 116.395 166.222 113.16 168.415C112.995 168.528 112.876 168.697 112.823 168.891C108.438 170.946 109.113 180.456 115.889 180.164C119.676 179.995 121.117 176.268 120.566 173.017ZM114.096 169.949C116.196 170.164 117.591 170.624 118.296 173.017C118.879 174.995 118.296 177.618 115.905 177.879C111.244 178.308 110.753 171.79 114.096 169.918V169.949Z" fill="#121212"/>
<path d="M130.777 180.164C134.549 179.995 135.975 176.268 135.377 173.016C134.779 169.764 131.207 166.221 127.972 168.415C127.807 168.529 127.688 168.697 127.634 168.89C123.311 170.93 123.986 180.455 130.777 180.164ZM128.968 169.918C131.069 170.133 132.464 170.593 133.169 172.986C133.752 174.964 133.169 177.587 130.777 177.848C126.117 178.308 125.626 171.789 128.968 169.918Z" fill="#121212"/>
<path d="M95.6529 151.297C95.4847 151.404 95.3598 151.567 95.3003 151.757C90.9309 153.828 91.6055 163.322 98.3666 163.031C102.138 162.878 103.564 159.135 102.966 155.883C102.368 152.632 98.8725 149.088 95.6529 151.297ZM98.3972 160.7C93.7979 161.175 93.2306 154.564 96.5881 152.8C98.6732 153.015 100.084 153.475 100.789 155.868C101.371 157.816 100.758 160.469 98.3972 160.7Z" fill="#121212"/>
<path d="M115.906 163.031C119.678 162.877 121.104 159.135 120.506 155.883C119.908 152.631 116.336 149.088 113.101 151.282C112.936 151.389 112.816 151.553 112.763 151.742C108.44 153.812 109.114 163.322 115.906 163.031ZM114.097 152.8C116.198 153 117.593 153.475 118.298 155.868C118.881 157.831 118.298 160.469 115.906 160.715C111.246 161.175 110.755 154.61 114.097 152.8Z" fill="#121212"/>
<path d="M130.777 163.031C134.549 162.877 135.975 159.135 135.377 155.883C134.779 152.631 131.207 149.088 127.972 151.282C127.812 151.394 127.693 151.556 127.634 151.742C123.311 153.797 123.986 163.322 130.777 163.031ZM128.968 152.8C131.069 153 132.464 153.475 133.169 155.868C133.752 157.831 133.169 160.469 130.777 160.715C126.117 161.175 125.626 154.61 128.968 152.8Z" fill="#121212"/>
<path d="M81.0578 98.3648C71.4144 98.1655 69.0994 119.639 81.2571 121.28C89.9192 122.415 95.3465 113.995 93.3381 106.31C91.759 100.205 86.2857 96.8003 81.0578 98.3648ZM80.5365 118.596C74.22 117.277 73.7141 106.325 77.7309 101.632C79.3032 100.619 81.0764 99.9597 82.9282 99.6993L83.6948 99.8527C83.7766 99.8711 83.8621 99.8632 83.9392 99.8301C84.0162 99.7971 84.0809 99.7406 84.124 99.6686C85.0222 99.73 85.901 99.9589 86.715 100.343C88.0185 101.105 89.1346 102.149 89.981 103.4C90.8274 104.65 91.3826 106.074 91.6057 107.568C91.9068 109.085 91.8287 110.653 91.3782 112.132C90.9277 113.612 90.1189 114.957 89.0235 116.048C87.9281 117.139 86.5802 117.943 85.0996 118.388C83.619 118.832 82.0515 118.904 80.5365 118.596Z" fill="#121212"/>
<path d="M135.437 102.859C134.126 104.211 133.235 105.914 132.87 107.762C132.505 109.61 132.684 111.524 133.383 113.273C135.759 120.053 143.609 120.943 148.975 117.154C161.684 108.273 140.818 91.0635 135.437 102.859ZM147.702 114.976C143.44 118.044 137.706 117.047 135.621 112.062C134.869 110.207 134.791 108.147 135.402 106.24C136.013 104.334 137.273 102.703 138.963 101.632C139.888 101.064 140.945 100.747 142.03 100.711C144.216 100.795 146.286 101.718 147.81 103.288C151.351 106.555 151.78 111.97 147.672 115.037L147.702 114.976Z" fill="#121212"/>
<path d="M34.9564 147.401C30.8323 147.401 30.8323 153.813 34.9564 153.813C39.0805 153.813 39.0958 147.401 34.9564 147.401Z" fill="#121212"/>
<path d="M39.0807 133.229C38.7107 133.229 38.3455 133.312 38.0114 133.471C37.6773 133.631 37.3828 133.862 37.149 134.149C37.0282 134.287 36.9204 134.436 36.827 134.594C36.6138 134.886 36.4687 135.222 36.4024 135.578C36.3361 135.934 36.3502 136.3 36.4437 136.649C36.5621 137.061 36.7832 137.436 37.0862 137.739C37.3892 138.043 37.7643 138.264 38.1761 138.382C38.478 138.453 38.7861 138.494 39.096 138.505C39.4603 138.533 39.8263 138.485 40.1712 138.365C40.5161 138.244 40.8324 138.054 41.1003 137.805C41.3683 137.557 41.582 137.256 41.7282 136.921C41.8744 136.586 41.9498 136.225 41.9498 135.859C41.9498 135.494 41.8744 135.132 41.7282 134.797C41.582 134.462 41.3683 134.161 41.1003 133.913C40.8324 133.664 40.5161 133.474 40.1712 133.354C39.8263 133.233 39.4603 133.185 39.096 133.213L39.0807 133.229Z" fill="#121212"/>
<path d="M39.2655 108.534C38.659 108.534 38.0662 108.714 37.562 109.051C37.0577 109.388 36.6647 109.867 36.4326 110.428C36.2005 110.988 36.1398 111.605 36.2581 112.2C36.3764 112.795 36.6685 113.342 37.0973 113.771C37.5261 114.2 38.0725 114.492 38.6673 114.61C39.2621 114.729 39.8786 114.668 40.4389 114.436C40.9992 114.204 41.478 113.81 41.815 113.306C42.1519 112.801 42.3317 112.208 42.3317 111.602C42.3317 110.788 42.0087 110.008 41.4336 109.432C40.8586 108.857 40.0787 108.534 39.2655 108.534Z" fill="#121212"/>
<path d="M32.1956 94.1619C31.4695 94.215 30.7904 94.541 30.2947 95.0745C29.799 95.608 29.5234 96.3094 29.5234 97.0378C29.5234 97.7662 29.799 98.4676 30.2947 99.0011C30.7904 99.5346 31.4695 99.8606 32.1956 99.9137C32.9218 99.8606 33.6009 99.5346 34.0966 99.0011C34.5923 98.4676 34.8678 97.7662 34.8678 97.0378C34.8678 96.3094 34.5923 95.608 34.0966 95.0745C33.6009 94.541 32.9218 94.215 32.1956 94.1619Z" fill="#121212"/>
<path d="M24.2537 83.6707C23.8959 83.5751 23.5211 83.5623 23.1576 83.6334C22.7941 83.7044 22.4516 83.8573 22.156 84.0806C21.8605 84.3038 21.6196 84.5915 21.4518 84.9218C21.284 85.2521 21.1936 85.6163 21.1875 85.9868V86.1709C21.1875 88.4256 24.6064 89.5606 25.6029 87.3672L25.6796 87.2139C25.8609 86.8946 25.9679 86.5385 25.9925 86.1721C26.0171 85.8058 25.9587 85.4386 25.8216 85.0979C25.6845 84.7573 25.4723 84.452 25.2008 84.2049C24.9294 83.9578 24.6056 83.7752 24.2537 83.6707Z" fill="#121212"/>
<path d="M206.174 80.7566C206.671 80.7566 207.157 80.6094 207.57 80.3337C207.983 80.0579 208.305 79.666 208.496 79.2072C208.687 78.7485 208.737 78.2435 208.642 77.7559C208.546 77.2684 208.308 76.8202 207.958 76.4678C207.608 76.1154 207.161 75.8746 206.674 75.7758C206.188 75.677 205.683 75.7247 205.223 75.9127C204.763 76.1007 204.369 76.4208 204.091 76.8324C203.813 77.2441 203.663 77.7289 203.66 78.2257C203.664 78.8931 203.93 79.5322 204.4 80.0055C204.87 80.4788 205.507 80.7485 206.174 80.7566Z" fill="#121212"/>
<path d="M196.991 99.4998C197.572 99.4967 198.139 99.3206 198.62 98.994C199.101 98.6675 199.473 98.2052 199.691 97.6661C199.908 97.1269 199.96 96.5353 199.841 95.9664C199.721 95.3975 199.435 94.8772 199.018 94.4715C198.602 94.0659 198.074 93.7934 197.503 93.6886C196.931 93.5838 196.342 93.6515 195.809 93.8832C195.276 94.1148 194.824 94.4998 194.51 94.9892C194.196 95.4786 194.035 96.0503 194.048 96.6316C194.071 97.398 194.391 98.1252 194.941 98.6602C195.49 99.1952 196.225 99.4962 196.991 99.4998Z" fill="#121212"/>
<path d="M197.175 117.246C197.178 116.557 196.977 115.882 196.596 115.308C196.216 114.733 195.673 114.284 195.037 114.018C194.402 113.753 193.702 113.681 193.025 113.814C192.349 113.947 191.728 114.277 191.24 114.763C190.751 115.25 190.418 115.87 190.283 116.546C190.147 117.222 190.215 117.923 190.478 118.56C190.741 119.197 191.187 119.741 191.76 120.125C192.333 120.508 193.006 120.713 193.695 120.713C194.613 120.705 195.491 120.337 196.142 119.689C196.792 119.041 197.163 118.164 197.175 117.246Z" fill="#121212"/>
<path d="M194.709 130.514C190.615 130.514 190.615 136.864 194.709 136.864C198.802 136.864 198.741 130.514 194.709 130.514Z" fill="#121212"/>
<path d="M196.992 146.849C196.992 147.502 197.186 148.14 197.549 148.683C197.912 149.225 198.427 149.648 199.031 149.897C199.634 150.146 200.297 150.211 200.937 150.082C201.577 149.954 202.164 149.638 202.625 149.175C203.085 148.713 203.398 148.124 203.523 147.483C203.649 146.842 203.581 146.179 203.329 145.576C203.077 144.974 202.653 144.46 202.109 144.1C201.564 143.739 200.926 143.548 200.273 143.551C199.403 143.559 198.571 143.91 197.957 144.527C197.343 145.144 196.996 145.978 196.992 146.849Z" fill="#121212"/>
<path d="M97.8004 263.129C97.7302 263.182 97.6813 263.258 97.6624 263.343C94.3213 266.306 91.7415 270.03 90.1405 274.2C88.5396 278.369 87.9644 282.863 88.4636 287.302C89.9968 302.855 107.122 311.138 121.043 307.242C136.941 302.809 141.97 283.621 135.025 270.108C133.349 266.862 130.954 264.041 128.024 261.86C125.094 259.679 121.706 258.196 118.116 257.523C114.527 256.85 110.831 257.005 107.311 257.977C103.79 258.948 100.538 260.71 97.8004 263.129ZM120.23 304.542C107.03 308.96 92.3578 299.542 90.9626 285.814C90.4657 281.38 91.15 276.894 92.9459 272.81C94.7419 268.726 97.5856 265.19 101.189 262.561C112.518 256.871 124.615 258.374 132.403 269.694C140.958 282.225 134.181 299.818 120.23 304.496V304.542Z" fill="#121212"/>
<path d="M104.883 270.721C97.2176 277.21 102.246 297.41 114.849 294.864C124.507 292.901 129.091 283.176 124.047 274.771C120.092 268.037 110.234 264.003 104.883 270.721ZM113.867 292.394C102.277 293.928 98.5361 269.479 112.61 269.387C112.65 269.384 112.688 269.372 112.722 269.352C112.757 269.333 112.787 269.306 112.81 269.274C112.833 269.242 112.849 269.206 112.857 269.167C112.865 269.128 112.864 269.088 112.855 269.05C114.865 269.323 116.781 270.066 118.451 271.217C120.121 272.367 121.497 273.895 122.468 275.676C126.884 282.885 122.008 291.428 113.867 292.394Z" fill="#121212"/>
<path d="M244.673 167.478C240.886 178.875 236.931 189.182 230.231 199.244C223.457 209.086 215.548 218.095 206.667 226.086C190.079 241.424 169.872 251.042 148.117 255.981C145.766 251.028 142.849 246.365 139.424 242.084C150.033 240.995 159.355 239.599 169.243 234.86C180.144 229.645 190.707 223.908 199.906 216.07C215.712 202.665 230.752 180.363 234.248 159.748C234.274 159.546 234.227 159.342 234.114 159.172C234.002 159.003 233.832 158.88 233.636 158.825C233.44 158.771 233.231 158.79 233.048 158.878C232.864 158.965 232.719 159.116 232.638 159.303C229.005 168.982 225.616 178.323 220.204 187.204C214.368 196.323 207.579 204.797 199.952 212.481C191.964 220.902 180.497 226.439 170.225 231.501C165.006 234.292 159.466 236.435 153.728 237.881C148.577 239.016 143.318 239.415 138.182 240.581C136.91 239.047 135.576 237.605 134.15 236.194C130.983 233.348 127.525 230.844 123.832 228.724C124.215 227.559 124.215 226.301 123.832 225.135C123.776 224.971 123.659 224.834 123.504 224.754C123.35 224.674 123.171 224.657 123.004 224.706C124.064 223.3 124.759 221.654 125.026 219.914C125.294 218.174 125.126 216.395 124.537 214.736C127.604 212.466 127.297 208.938 125.917 205.84C143.896 203.917 161.2 197.915 176.51 188.293C217.445 162.401 236.502 101.953 213.014 58.8217C200.55 35.9216 177.538 19.0801 153.82 9.32497C139.516 3.40438 124.185 -0.476216 108.455 -0.000727694C107.045 -0.000727694 105.649 0.152656 104.254 0.2907C91.3453 0.888895 78.743 6.57941 67.5512 12.5614C54.719 19.4176 40.3996 28.3292 31.5381 40.1703C11.8528 66.4602 6.31824 107.521 16.2836 138.55C26.2489 169.58 54.3664 192.235 84.4769 201.898C89.4313 203.476 94.508 204.641 99.6549 205.379C99.089 206.143 98.7734 207.063 98.7515 208.013C98.7295 208.964 99.0023 209.898 99.5322 210.687C99.8837 211.245 100.301 211.76 100.774 212.22C99.7112 212.835 98.893 213.798 98.4573 214.947C98.0216 216.095 97.9951 217.359 98.3824 218.524C99.1849 220.645 100.654 222.448 102.568 223.663C101.751 224.522 101.201 225.599 100.984 226.764C100.766 227.929 100.89 229.132 101.341 230.228C93.6757 233.065 86.7613 238.878 81.196 246.363C72.1199 239.737 59.0577 238.97 48.2952 239.676C35.523 240.437 23.2958 245.118 13.2786 253.082C3.95723 260.659 -2.49722 273.727 1.01363 285.706C4.6778 298.667 22.7227 305.232 35.2636 305.14C34.9107 307.314 34.9107 309.531 35.2636 311.705C35.2445 311.746 35.2346 311.79 35.2346 311.835C35.2346 311.88 35.2445 311.925 35.2636 311.965L35.4476 312.395C35.832 314.354 36.7035 316.185 37.9816 317.718C39.2597 319.252 40.9033 320.438 42.7606 321.168C48.7091 324.313 56.5587 323.254 62.9365 318.607C66.1651 316.268 68.5526 312.949 69.7436 309.143C71.4481 313.591 74.023 317.653 77.3172 321.092C76.1936 321.539 75.2715 322.381 74.7239 323.459C74.1764 324.538 74.0409 325.78 74.343 326.951C74.6204 328.075 75.1441 329.122 75.8761 330.019C73.4538 332.657 73.6837 337.857 75.2322 340.755C75.2322 340.878 75.3702 340.97 75.4315 341.078C74.22 341.757 73.285 342.839 72.7891 344.137C72.2933 345.434 72.268 346.865 72.7179 348.179C73.4971 349.807 74.7682 351.148 76.3514 352.014C75.873 353.396 75.8391 354.894 76.2542 356.297C76.6693 357.7 77.5128 358.937 78.6664 359.836C77.875 360.405 77.2131 361.135 76.7243 361.979C76.2354 362.822 75.9307 363.76 75.8301 364.729C75.6603 365.803 75.7086 366.899 75.972 367.953C76.2355 369.007 76.7086 369.998 77.3632 370.865C74.4665 372.362 72.0006 374.576 70.2 377.295C68.3995 380.015 67.324 383.15 67.076 386.402C66.2174 401.649 90.5328 406.097 101.878 398.535C101.921 398.555 101.968 398.566 102.016 398.566C102.064 398.566 102.111 398.555 102.154 398.535L102.522 398.167C104.154 397.028 105.47 395.494 106.347 393.707C107.224 391.92 107.633 389.94 107.535 387.952C107.543 387.89 107.543 387.829 107.535 387.767C108.026 380.359 103.12 372.843 95.1475 369.576C94.6812 369.387 94.2053 369.224 93.7217 369.085C93.9621 367.762 93.9621 366.406 93.7217 365.082C93.6694 363.898 93.3482 362.741 92.7824 361.699C92.2166 360.657 91.421 359.758 90.4561 359.069C90.4561 358.977 90.5941 358.901 90.6554 358.824C91.1283 357.917 91.3753 356.91 91.3753 355.887C91.3753 354.864 91.1283 353.856 90.6554 352.949C90.7254 352.909 90.792 352.863 90.8547 352.811C94.1203 350.434 92.9244 346.446 91.146 343.516C91.609 343.229 92.0452 342.901 92.4492 342.535C93.1976 341.796 93.7346 340.87 94.0042 339.853C94.2738 338.836 94.2663 337.765 93.9823 336.752C95.0076 336.197 95.8536 335.361 96.4211 334.343C96.9886 333.324 97.2541 332.165 97.1865 331C106.278 332.396 116.504 331 125.626 328.684C125.42 329.549 125.537 330.46 125.955 331.245C126.373 332.031 127.062 332.636 127.895 332.948C127.831 333.025 127.784 333.113 127.757 333.209C127.46 334.209 127.379 335.261 127.519 336.295C127.659 337.329 128.017 338.321 128.57 339.206C127.404 342.535 127.205 346.277 130.333 348.578C130.764 348.887 131.24 349.13 131.743 349.299C131.615 349.381 131.514 349.498 131.452 349.636C131.047 350.511 130.927 351.491 131.108 352.438C131.29 353.384 131.764 354.25 132.464 354.913C131.934 355.068 131.445 355.338 131.031 355.703C130.616 356.067 130.286 356.518 130.064 357.024C129.842 357.529 129.734 358.077 129.745 358.629C129.757 359.182 129.89 359.724 130.133 360.22C130.349 360.704 130.611 361.167 130.915 361.6C130.113 362.419 129.579 363.462 129.382 364.591C129.228 365.417 129.242 366.265 129.424 367.085C129.606 367.904 129.951 368.679 130.44 369.361C127.309 370.783 124.616 373.018 122.643 375.835C120.669 378.651 119.486 381.945 119.218 385.375C118.344 400.636 142.674 405.084 154.004 397.523C154.054 397.533 154.106 397.53 154.154 397.514C154.203 397.497 154.246 397.469 154.28 397.431L154.648 397.062C156.283 395.929 157.602 394.398 158.482 392.614C159.362 390.829 159.773 388.85 159.677 386.862V386.678C160.137 379.761 155.89 372.751 148.837 369.177C149.262 368.136 149.516 367.033 149.589 365.91C149.678 364.828 149.534 363.74 149.167 362.718C148.799 361.697 148.216 360.766 147.458 359.99C147.626 359.712 147.78 359.425 147.918 359.131C148.244 358.428 148.426 357.668 148.455 356.893C148.483 356.119 148.356 355.347 148.082 354.623C147.808 353.898 147.392 353.236 146.858 352.675C146.324 352.113 145.684 351.664 144.974 351.354C145.76 349.464 145.999 347.392 145.664 345.372C145.641 345.215 145.568 345.07 145.454 344.959C145.34 344.848 145.193 344.777 145.035 344.759C147.565 341.814 148.194 338.087 143.502 335.556C143.72 334.459 143.696 333.328 143.431 332.242C143.167 331.155 142.667 330.14 141.969 329.267C142.37 328.313 142.577 327.288 142.577 326.253C142.577 325.218 142.37 324.193 141.969 323.239C141.901 323.062 141.784 322.908 141.632 322.794C147.517 319.567 152.093 314.387 154.571 308.146C157.929 299.403 156.288 289.234 155.062 280.246C154.057 272.564 151.993 265.059 148.929 257.944C170.255 256.195 191.06 243.495 206.774 229.737C223.915 214.705 244.014 191.498 246.007 167.678C246.145 166.834 244.903 166.742 244.673 167.478ZM122.406 213.202C119.34 214.905 115.032 214.506 111.675 213.923C108.809 213.569 106.039 212.663 103.518 211.254L103.84 210.993C103.84 210.993 103.84 210.825 103.748 210.84L103.15 211.024C102.864 210.83 102.573 210.615 102.277 210.38C101.904 210.132 101.584 209.814 101.334 209.442C101.084 209.071 100.911 208.654 100.822 208.215C100.734 207.776 100.733 207.324 100.819 206.885C100.906 206.446 101.078 206.028 101.326 205.656C108.768 206.579 116.286 206.712 123.756 206.054C124.982 208.6 125.365 211.515 122.406 213.202ZM214.532 130.038C213.75 132.599 212.861 135.099 211.91 137.553C210.745 129.577 207.725 121.847 207.541 113.534C207.28 101.938 212.064 91.8298 218.273 82.4428C221.661 98.2566 219.239 114.485 214.532 130.007V130.038ZM216.172 74.881C216.878 76.9516 217.46 79.0377 217.951 81.139C210.449 88.5697 205.78 98.3903 204.751 108.901C203.585 118.534 205.042 132.768 210.377 141.235C206.979 149.145 202.568 156.58 197.254 163.352C192.991 154.748 188.331 146.48 185.54 137.277C182.463 126.346 181.855 114.866 183.762 103.671C186.307 88.3327 193.651 66.4142 209.58 60.0488C212.235 64.7766 214.442 69.7422 216.172 74.881ZM21.8795 66.1381C28.2573 46.1983 40.8902 33.0994 57.8772 21.657C61.664 19.1108 65.6962 16.534 69.9276 14.0952C89.5822 4.73881 109.16 0.536114 130.931 5.38302C150.756 9.94413 169.294 18.9316 185.157 31.6729C194.799 39.301 202.932 48.6648 209.135 59.2819C194.877 61.9354 187.15 78.3935 183.072 92.2593C160.597 88.5934 137.37 87.167 114.695 85.3417C90.8324 83.2349 66.8518 82.8044 42.9293 84.0533C37.5019 76.5069 30.1836 70.5236 21.7108 66.7057C21.7568 66.5216 21.8181 66.3222 21.8795 66.1381ZM180.481 129.562C176.158 127.814 170.715 128.136 166.361 128.182C156.38 128.258 146.43 129.792 136.496 130.452C109.973 132.216 83.3731 129.148 56.7734 130.452C56.8773 125.789 56.6005 121.126 55.9455 116.509C54.3798 105.757 50.4644 95.4816 44.4777 86.4154C66.9718 85.6709 89.4902 86.2292 111.92 88.0873C135.407 89.8358 158.91 93.8085 182.444 94.9588C182.035 96.5233 181.667 98.0265 181.34 99.4683C179.087 109.347 178.796 119.571 180.481 129.562ZM15.9769 95.1736C21.1299 102.073 24.9467 109.877 27.2301 118.181C28.5137 123.367 28.6913 128.766 27.7513 134.026C27.0768 137.952 24.9917 141.112 23.152 144.502C16.7428 128.899 14.2784 111.956 15.9769 95.1736ZM37.8853 167.632C32.4305 161.455 27.8872 154.528 24.3938 147.063C31.0782 141.403 32.504 129.531 31.0782 121.525C29.2538 110.67 24.0491 100.669 16.2069 92.9495C17.0564 84.8852 18.6474 76.9165 20.9596 69.1444C38.3299 78.5315 48.5252 96.6307 52.128 115.712C53.9745 125.277 53.7759 135.126 51.5454 144.609C49.3224 154.165 43.9564 160.453 37.8853 167.632ZM45.3976 175.163C43.1899 173.2 41.1355 171.16 39.1884 169.028C51.6067 162.754 56.0528 146.848 56.7734 132.216C82.2386 133.749 107.719 134.118 133.215 133.749C149.282 133.55 165.135 129.485 181.094 132.507C183.583 144.301 188.548 155.432 195.659 165.162C183.01 180.353 166.138 191.446 147.182 197.035C111.092 207.987 73.7604 200.333 45.3976 175.163ZM100.82 219.015C99.1643 216.745 100.099 214.72 101.648 213.033C104.457 214.914 107.644 216.155 110.985 216.668C114.758 217.492 118.687 217.248 122.33 215.963C122.452 219.199 122.928 222.374 119.478 224.322C116.504 226.009 112.518 225.197 109.436 224.322C106.066 223.533 103.042 221.671 100.82 219.015ZM122.483 225.335C121.211 227.589 120.95 229.829 118.85 231.746C116.653 233.388 113.901 234.103 111.184 233.74C105.603 233.341 102.2 229.537 103.518 224.246C104.909 225.087 106.365 225.815 107.872 226.424C111.981 228.08 117.24 228.602 121.211 226.347C121.677 226.067 122.105 225.726 122.483 225.335ZM3.06802 283.206C-0.565483 270.429 10.7336 257.499 20.4843 251.21C38.8818 239.4 60.7135 240.719 80.3835 247.452C77.6014 251.393 75.2184 255.601 73.2698 260.015C58.5978 250.812 34.0831 256.84 24.2098 270.368C16.4369 280.997 32.6113 288.59 42.0247 290.538C38.9591 294.285 36.7977 298.689 35.7082 303.407C22.9986 299.511 7.39143 298.56 3.06802 283.206ZM62.2466 315.769C56.1141 321.445 47.0687 322.288 40.9209 317.901C35.233 310.861 38.2379 297.962 44.6923 290.952H45.0603C45.1979 290.957 45.3345 290.926 45.4563 290.862C45.5781 290.798 45.6807 290.702 45.7538 290.586C45.827 290.469 45.868 290.335 45.8727 290.197C45.8775 290.06 45.8458 289.923 45.7809 289.802C49.6443 286.197 54.5197 284.663 59.4563 287.332C62.8569 289.177 65.4559 292.214 66.754 295.86C66.9727 298.276 67.3517 300.674 67.8885 303.039C67.8307 305.427 67.3027 307.781 66.3346 309.966C65.3665 312.15 63.9773 314.123 62.2466 315.769ZM66.524 290.308C65.3727 288.733 64.0109 287.324 62.4766 286.12C55.9302 281.074 48.8931 283.421 43.5885 288.774C33.4699 285.338 17.1881 279.402 29.959 267.638C42.73 255.873 57.8159 258.435 72.8865 260.935C68.8419 270.208 66.6792 280.192 66.524 290.308ZM77.6852 352.643C78.7513 353.135 79.8596 353.531 80.9967 353.824C83.5022 354.537 86.1569 354.537 88.6624 353.824C88.923 354.959 89.5362 356.094 88.8157 357.382C88.3066 358.021 87.6537 358.531 86.9104 358.869C86.167 359.208 85.3542 359.366 84.5383 359.33C83.6295 359.425 82.7109 359.319 81.8477 359.019C80.9845 358.719 80.198 358.233 79.5438 357.595C78.8897 356.956 78.3841 356.182 78.0629 355.326C77.7416 354.47 77.6127 353.554 77.6852 352.643ZM105.281 390.989C99.1489 402.692 75.0176 402.998 70.2802 390.068C66.2327 379.071 81.5947 369.009 90.8547 370.834C100.559 372.721 107.152 382.154 105.327 390.943L105.281 390.989ZM91.3607 365.834C91.3807 366.683 91.35 367.534 91.2687 368.38C87.3771 367.721 83.3789 368.162 79.7242 369.653C79.1249 369.048 78.6532 368.33 78.3371 367.539C78.0211 366.749 77.8672 365.903 77.8845 365.051C78.0756 363.353 78.7697 361.751 79.8776 360.45C81.2925 361.208 82.8717 361.609 84.4769 361.616C86.214 361.667 87.9168 361.126 89.3063 360.082C90.4134 361.808 91.1303 363.755 91.4066 365.788L91.3607 365.834ZM89.2756 351.247C87.1292 352.597 83.925 352.259 81.61 351.753C78.9254 351.352 76.4871 349.962 74.7723 347.857C73.3311 345.694 74.6803 343.654 75.9987 341.829C77.9536 343.91 80.6442 345.143 83.4957 345.265C85.6657 345.463 87.8502 345.104 89.8429 344.222C90.8087 346.431 91.7746 349.713 89.2756 351.247ZM90.5021 341.231C88.4065 342.552 85.9297 343.135 83.4651 342.888C82.1574 342.833 80.8811 342.47 79.7407 341.827C78.6002 341.185 77.6279 340.281 76.9033 339.191C75.2169 336.461 76.474 333.623 76.5353 330.816C78.0922 332.432 79.8924 333.793 81.8706 334.85C84.9487 336.79 88.5829 337.653 92.2039 337.304C92.3411 338.057 92.2476 338.833 91.9357 339.531C91.6237 340.229 91.1079 340.816 90.4561 341.216L90.5021 341.231ZM91.9126 334.973C89.1376 335.694 85.7801 334.421 83.3884 333.224C80.6842 331.966 78.3618 330.013 76.658 327.565C75.1249 325.141 76.29 323.3 78.0991 321.782C81.788 325.303 86.2206 327.95 91.0694 329.528C92.3988 329.974 93.756 330.333 95.1321 330.602C94.8562 332.626 94.3503 334.375 91.9892 334.958L91.9126 334.973ZM126.898 328.377C129.382 327.718 131.789 326.997 134.028 326.245C136.135 325.557 138.185 324.706 140.16 323.699C140.16 323.699 140.16 323.699 140.16 323.807C141.111 328.316 138.32 330.939 134.028 331.691C131.207 332.181 127.65 331.307 126.898 328.362V328.377ZM129.091 333.516C130.647 334.102 132.304 334.374 133.966 334.313C135.322 334.256 136.651 333.919 137.87 333.322C139.089 332.725 140.172 331.883 141.049 330.847C141.341 332.902 142.153 334.697 141.049 336.982C140.593 337.837 139.951 338.58 139.171 339.156C138.392 339.732 137.493 340.126 136.542 340.311C131.85 341.476 129.152 337.857 129.091 333.5V333.516ZM157.454 390.022C151.321 401.725 127.19 402.032 122.452 389.102C118.42 378.104 133.767 368.042 143.027 369.852C152.686 371.739 159.278 381.218 157.454 390.007V390.022ZM147.504 366.248C147.336 366.957 147.105 367.65 146.814 368.318C141.849 366.546 136.394 366.749 131.575 368.886C131.375 367.813 131.267 366.725 131.253 365.634C131.293 364.893 131.497 364.17 131.85 363.518C131.972 363.313 132.116 363.123 132.28 362.95C134.192 364.585 136.633 365.468 139.148 365.435C140.607 365.328 142.026 364.908 143.309 364.204C144.592 363.5 145.709 362.528 146.584 361.355C147.422 362.834 147.746 364.55 147.504 366.232V366.248ZM146.216 358.747C145.587 359.927 144.703 360.952 143.629 361.747C142.555 362.543 141.318 363.09 140.007 363.349C138.709 363.562 137.378 363.444 136.138 363.007C134.897 362.57 133.787 361.828 132.908 360.849C132.152 360.088 131.713 359.068 131.682 357.996C131.682 357.029 132.694 356.293 133.568 355.756C134.968 356.532 136.581 356.834 138.167 356.615C139.424 356.463 140.629 356.026 141.692 355.338C142.755 354.65 143.646 353.728 144.299 352.643C146.354 354.315 147.565 355.848 146.216 358.732V358.747ZM132.878 349.621C135.213 349.907 137.582 349.551 139.731 348.593C141.305 347.94 142.753 347.016 144.008 345.863C144.313 347.692 143.928 349.569 142.928 351.131C141.928 352.692 140.384 353.827 138.596 354.315C135.055 355.373 132.602 353.456 132.893 349.836C132.906 349.759 132.9 349.68 132.878 349.606V349.621ZM142.858 337.918C142.947 337.718 143.023 337.513 143.088 337.304C147.795 340.663 142.766 344.974 138.811 346.599C136.659 347.607 134.206 347.766 131.942 347.044C129.535 345.971 129.367 342.826 129.52 340.357C130.488 341.247 131.648 341.9 132.911 342.265C134.173 342.63 135.503 342.697 136.796 342.461C138.089 342.225 139.31 341.691 140.362 340.903C141.413 340.115 142.268 339.093 142.858 337.918ZM153.115 302.042C151.582 311.337 145.449 317.533 137.232 321.414C125.074 327.135 107.658 329.482 94.5189 326.675C74.0977 322.303 69.5136 299.265 71.3687 281.534C73.3924 262.024 84.0477 240.765 101.648 230.918C102.536 232.3 103.699 233.483 105.066 234.394C106.433 235.305 107.973 235.923 109.59 236.209C112.978 236.882 116.495 236.275 119.463 234.507C120.978 233.513 122.218 232.152 123.066 230.55C132.622 237.309 140.376 246.31 145.649 256.763C145.566 256.89 145.517 257.036 145.508 257.187C145.498 257.338 145.528 257.489 145.595 257.625C145.661 257.761 145.762 257.878 145.887 257.963C146.012 258.049 146.157 258.1 146.308 258.113C152.836 271.765 155.204 287.037 153.115 302.026V302.042Z" fill="#121212"/>
<path d="M269.188 117.906C265.922 117.906 263.76 121.479 262.242 123.918C260.117 127.271 258.422 130.878 257.198 134.655C255.41 133.809 253.547 133.131 251.633 132.63C251.892 130.838 251.949 129.021 251.802 127.216C251.992 123.543 251.827 119.86 251.311 116.218C250.652 112.322 248.245 104.531 242.603 105.712C235.106 107.245 239.537 125.329 240.886 132.017L239.844 132.278C239.75 132.239 239.646 132.239 239.552 132.278L239.292 132.416C237.332 132.945 235.542 133.972 234.094 135.396C232.647 136.82 231.591 138.593 231.028 140.545C228.284 147.11 230.491 155.408 236.241 161.374C245.685 171.176 261.859 167.096 268.436 155.96C271.503 150.791 270.107 145.653 266.535 141.435C270.245 137.155 273.434 132.324 274.032 126.572C274.247 123.934 272.898 117.906 269.188 117.906ZM242.005 108.902C243.615 105.696 247.432 111.356 247.969 112.706C248.879 115.509 249.335 118.44 249.318 121.387C249.426 123.749 248.368 128.918 248.981 132.124C246.754 131.737 244.483 131.665 242.235 131.909C242.557 124.486 238.586 115.605 242.005 108.902ZM266.765 152.493C265.738 157.371 260.541 160.638 256.509 162.785C250.637 165.93 243.891 164.396 238.97 160.331C232.055 154.656 230.031 144.901 234.37 138.014C239.062 133.413 246.068 133.581 252.476 135.652C259.314 137.876 268.528 144.18 266.765 152.493ZM271.027 128.55C270.245 132.722 267.348 136.373 264.895 139.916C262.863 137.993 260.559 136.38 258.057 135.131C261.123 130.667 263.116 125.345 267.103 121.571C271.089 117.798 271.441 126.449 271.043 128.55H271.027Z" fill="#121212"/>
<path d="M97.1242 27.026C101.892 35.0326 102.03 46.7511 88.2168 55.0185C74.4033 63.2858 51.8817 64.927 47.1137 56.9204C42.3457 48.9138 49.6587 35.7382 63.4721 27.4862C77.2856 19.2342 92.3409 19.0348 97.1242 27.026Z" fill="#FED359"/>
</g>
<defs>
<clipPath id="clip0_0_5431">
<rect width="274" height="438.4" fill="white"/>
</clipPath>
</defs>
</svg>
