<svg width="20" height="20" viewBox="0 0 20 20" fill="none" xmlns="http://www.w3.org/2000/svg">
<path d="M10 0C4.47721 0 0 4.47721 0 10C0 15.5228 4.47721 20 10 20C15.5228 20 20 15.5228 20 10C20 4.47721 15.5228 0 10 0ZM13.9228 11.4502C13.1678 12.4207 12.1972 12.906 11.0111 12.906C10.6201 12.906 10.2494 12.8117 9.89901 12.6229C9.54859 12.4341 9.30585 12.2118 9.17099 11.9557C8.8879 13.1151 8.71269 13.8025 8.64536 14.0181C8.42959 14.7998 7.97818 15.6222 7.29052 16.485C7.2096 16.5659 7.15566 16.5524 7.12869 16.4447C6.96686 15.2989 6.97376 14.3484 7.14897 13.5936L8.09925 9.48897C7.93742 9.1789 7.85651 8.78792 7.85651 8.31623C7.85651 7.76363 7.99805 7.30187 8.28115 6.93117C8.56424 6.56047 8.90797 6.37512 9.31234 6.37512C9.63579 6.37512 9.88522 6.47956 10.0604 6.68864C10.2356 6.89751 10.3232 7.16377 10.3232 7.48743C10.3232 7.68961 10.2861 7.93559 10.2121 8.22538C10.1379 8.51517 10.0402 8.85221 9.91888 9.23629C9.79762 9.62058 9.71001 9.9272 9.65607 10.1564C9.56177 10.5473 9.63579 10.8876 9.87853 11.1774C10.1213 11.4672 10.4447 11.6122 10.8491 11.6122C11.5365 11.6122 12.1027 11.2212 12.5477 10.4394C12.9926 9.65769 13.2148 8.7139 13.2148 7.6087C13.2148 6.75941 12.9419 6.0685 12.396 5.53618C11.8501 5.00365 11.0849 4.73739 10.101 4.73739C8.99558 4.73739 8.10249 5.09126 7.42172 5.79899C6.74096 6.50673 6.40067 7.35257 6.40067 8.33671C6.40067 8.91629 6.56919 9.40846 6.90623 9.81282C7.01411 9.94768 7.04778 10.0825 7.00742 10.2172C6.99383 10.2442 6.977 10.3149 6.95693 10.4295C6.93665 10.5441 6.91982 10.625 6.90643 10.6722C6.89305 10.7195 6.86608 10.7903 6.82552 10.8846C6.78516 10.9789 6.73791 11.0227 6.68397 11.016C6.63003 11.0093 6.5627 11.0058 6.48179 11.0058C5.45729 10.5879 4.94504 9.63761 4.94504 8.15481C4.94504 6.96849 5.42363 5.89005 6.3806 4.91949C7.33777 3.94894 8.64536 3.46366 10.3034 3.46366C11.6919 3.46366 12.831 3.8883 13.7206 4.73759C14.6102 5.58688 15.0552 6.59109 15.0552 7.75045C15.0552 9.24603 14.6776 10.4796 13.9228 11.4502Z" fill="#FFB33A"/>
</svg>
