<svg width="118" height="69" viewBox="0 0 118 69" fill="none" xmlns="http://www.w3.org/2000/svg">
<path d="M106.232 58.0231L103.846 57.1074C104.436 55.3523 104.752 53.5169 104.784 51.6654L107.361 51.7242C107.302 53.8686 106.921 55.9919 106.232 58.0231ZM106.543 45.5808L104.038 46.2613C103.574 44.4714 102.822 42.7687 101.812 41.2195L103.994 39.8128C105.128 41.5968 105.987 43.5412 106.543 45.5808ZM99.7796 35.1026L98.1012 37.1952C96.6711 36.0155 95.0804 35.0455 93.3769 34.3145L94.292 31.9289C96.2646 32.7167 98.1129 33.7856 99.7796 35.1026ZM88.0412 32.8138C86.9909 32.7045 85.9329 32.6923 84.8805 32.7774C84.0885 32.8254 83.3006 32.9252 82.5217 33.0762L82.0352 30.5632C84.0984 30.1193 86.2195 30.0094 88.3177 30.2378L88.0412 32.8138ZM77.132 34.7842C75.2781 35.5505 73.4409 36.4874 71.8769 37.2829L70.7009 34.9978C72.307 34.1638 74.1387 33.17 76.1631 32.3871L77.132 34.7842ZM66.5633 40.0054C65.1666 40.715 63.7345 41.3528 62.2726 41.9163C61.8435 42.1074 61.4327 42.2507 60.989 42.4088L60.1429 39.9767L61.3276 39.5283C62.5782 39.0504 63.8745 38.4533 65.4294 37.6817L66.5633 40.0054ZM55.047 43.9869C53.0301 44.3462 50.9874 44.5415 48.939 44.5709L48.8835 42.0043C50.791 41.9773 52.6928 41.7919 54.5696 41.4501L55.047 43.9869ZM42.8229 44.2485C40.7916 44.016 38.781 43.6285 36.8087 43.0895L37.509 40.6215C39.3565 41.1422 41.2398 41.5266 43.1435 41.7716L42.8229 44.2485ZM32.1655 38.5704L31.0119 40.8645C29.1538 40.0125 27.3698 39.0074 25.6784 37.8594L27.1183 35.6753C28.7241 36.7682 30.4114 37.7361 32.1655 38.5704ZM22.7035 32.2018L20.946 34.0724C19.454 32.6619 18.083 31.1286 16.8475 29.4888L18.8713 27.994C20.0466 29.4863 21.3272 30.8925 22.7035 32.2018ZM15.7558 23.1309L13.4768 24.3634C12.4988 22.5679 11.6494 20.7054 10.9348 18.7899L13.3609 17.8874C14.0264 19.6929 14.827 21.4456 15.7558 23.1309ZM11.826 12.3994L9.29505 12.9332C8.8739 10.9195 8.60531 8.87684 8.49158 6.82275L11.0853 6.69622C11.1777 8.61415 11.4254 10.5215 11.826 12.3994Z" fill="#121212"/>
<path d="M116.685 53.3896L115.227 51.2699L104.762 58.5016L98.2955 47.5353L96.0936 48.8522L103.942 62.2098L116.685 53.3896Z" fill="#121212"/>
</svg>
