<svg width="15" height="15" viewBox="0 0 15 15" fill="none" xmlns="http://www.w3.org/2000/svg">
<path d="M14.8316 1.97908C14.6014 1.74072 14.2215 1.73411 13.9832 1.96432C13.9782 1.96913 13.9733 1.97406 13.9684 1.97908L4.19263 11.7549L1.01682 8.5791C0.778464 8.3489 0.398636 8.35551 0.168433 8.59387C-0.0561445 8.82639 -0.0561445 9.195 0.168433 9.42753L3.76843 13.0275C4.00275 13.2618 4.38254 13.2618 4.61682 13.0275L14.8168 2.82751C15.0552 2.59727 15.0618 2.21744 14.8316 1.97908Z" fill="#333333"/>
<path d="M14.8316 1.97908C14.6014 1.74072 14.2215 1.73411 13.9832 1.96432C13.9782 1.96913 13.9733 1.97406 13.9684 1.97908L4.19263 11.7549L1.01682 8.5791C0.778464 8.3489 0.398636 8.35551 0.168433 8.59387C-0.0561445 8.82639 -0.0561445 9.195 0.168433 9.42753L3.76843 13.0275C4.00275 13.2618 4.38254 13.2618 4.61682 13.0275L14.8168 2.82751C15.0552 2.59727 15.0618 2.21744 14.8316 1.97908Z" fill="black" fill-opacity="0.2"/>
</svg>
