<svg width="24" height="18" viewBox="0 0 24 18" fill="none" xmlns="http://www.w3.org/2000/svg">
<path d="M19.0778 17.28C17.9258 17.28 16.9018 16.864 16.0058 16.032C15.1738 15.136 14.7578 14.08 14.7578 12.864C14.7578 12.48 14.8218 11.968 14.9498 11.328C15.1418 10.688 15.3978 9.92 15.7178 9.024C16.0378 8.128 16.4218 7.104 16.8698 5.952C17.3818 4.736 17.9578 3.424 18.5978 2.016C18.7898 1.632 19.0458 1.344 19.3658 1.152C19.6858 0.959995 20.0058 0.863995 20.3258 0.863995C20.9018 0.863995 21.4458 1.056 21.9578 1.44C22.4698 1.76 22.7258 2.24 22.7258 2.88C22.7258 3.2 22.6618 3.488 22.5338 3.744L20.6138 8.64C21.5098 8.96 22.2138 9.504 22.7258 10.272C23.2378 11.04 23.4938 11.904 23.4938 12.864C23.4938 14.08 23.0778 15.136 22.2458 16.032C21.4138 16.864 20.3578 17.28 19.0778 17.28ZM4.67775 17.28C3.52575 17.28 2.50175 16.864 1.60575 16.032C0.70975 15.136 0.26175 14.08 0.26175 12.864C0.26175 12.48 0.32575 11.968 0.45375 11.328C0.64575 10.688 0.90175 9.92 1.22175 9.024C1.54175 8.128 1.92575 7.104 2.37375 5.952C2.88575 4.736 3.49375 3.424 4.19775 2.016C4.32575 1.632 4.54975 1.344 4.86975 1.152C5.25375 0.959995 5.60575 0.863995 5.92575 0.863995C6.43775 0.863995 6.94975 1.056 7.46175 1.44C7.97375 1.76 8.22975 2.24 8.22975 2.88C8.22975 3.2 8.16575 3.488 8.03775 3.744L6.21375 8.64C7.04575 8.96 7.71775 9.504 8.22975 10.272C8.80575 11.04 9.09375 11.904 9.09375 12.864C9.09375 14.08 8.67775 15.136 7.84575 16.032C7.01375 16.864 5.95775 17.28 4.67775 17.28Z" fill="#121212"/>
</svg>
