<svg width="40" height="41" viewBox="0 0 40 41" fill="none" xmlns="http://www.w3.org/2000/svg">
<path d="M38.6078 5.51561H31.8632V3.69487H32.1712C32.8307 3.69487 33.4404 3.34256 33.7704 2.77123C34.1002 2.19958 34.1002 1.49524 33.7704 0.923646C33.4404 0.351997 32.8307 5.48427e-06 32.1712 5.48427e-06H7.82451C7.33432 -0.0011898 6.86389 0.193041 6.51733 0.539678C6.17052 0.886613 5.97636 1.35729 5.97755 1.84734C5.97875 2.3371 6.17381 2.80625 6.51971 3.15255C6.86592 3.49859 7.33489 3.69372 7.82445 3.69491H8.15901V5.51565H1.39199C1.02278 5.51565 0.66881 5.66207 0.40774 5.92324C0.146663 6.18441 0 6.53851 0 6.90785V7.85841C0.00746779 10.5084 0.809209 13.0953 2.30191 15.2844C3.79461 17.4736 5.90948 19.1646 8.37297 20.1388C9.12812 24.0449 11.792 27.3117 15.4656 28.8359V33.6866H12.1155C11.6746 33.6842 11.2477 33.8408 10.9126 34.1274C10.5775 34.4139 10.3564 34.8114 10.2898 35.2474C10.2232 35.6834 10.3155 36.1289 10.55 36.5024C9.79395 36.5499 9.08482 36.8837 8.56597 37.4356C8.04741 37.9878 7.75829 38.7167 7.75767 39.4741C7.75767 39.8662 8.0752 40.1838 8.46681 40.1838H31.4798C31.8714 40.1838 32.1889 39.8662 32.1889 39.4741C32.1884 38.7172 31.8998 37.989 31.3821 37.4371C30.8644 36.8851 30.1562 36.5511 29.4011 36.5023C29.6356 36.1288 29.7279 35.6833 29.6612 35.2473C29.5946 34.8113 29.3736 34.4139 29.0384 34.1273C28.7033 33.8407 28.2761 33.6841 27.8352 33.6865H24.5076V28.8582C28.2044 27.3372 30.8875 24.0562 31.645 20.1297C34.1034 19.1529 36.2132 17.4619 37.7023 15.2748C39.1914 13.0877 39.9917 10.5044 40 7.85834V6.90777C40 6.53843 39.8533 6.18433 39.5923 5.92316C39.3312 5.66199 38.9772 5.51557 38.608 5.51557L38.6078 5.51561ZM6.86952 1.84729C6.86863 1.59269 6.96989 1.34856 7.15061 1.16926C7.32894 0.990268 7.5715 0.890461 7.82421 0.892549H32.1708C32.6981 0.892549 33.1252 1.31986 33.1252 1.84725C33.1228 2.37377 32.6968 2.79988 32.1708 2.80225H7.82421C7.5709 2.80225 7.32805 2.70155 7.14912 2.52256C6.96989 2.34357 6.86953 2.10063 6.86953 1.84723L6.86952 1.84729ZM0.891989 7.85837V6.9078C0.891989 6.63169 1.11573 6.40787 1.39174 6.40787H8.15875V17.8857C8.15965 18.2942 8.18355 18.7024 8.22985 19.1084C6.05197 18.1417 4.19994 16.5652 2.8978 14.569C1.59574 12.5729 0.899092 10.2421 0.89198 7.85866L0.891989 7.85837ZM31.2874 39.2915H8.65756C8.70326 38.7716 8.94193 38.2875 9.32667 37.9349C9.71171 37.582 10.2144 37.3863 10.7363 37.386H29.2085C29.7304 37.3863 30.2331 37.582 30.6179 37.9349C31.0029 38.2875 31.2416 38.7716 31.2873 39.2915H31.2874ZM28.7893 35.5341C28.7893 36.0616 28.3618 36.4892 27.8346 36.4892H12.1146C11.5874 36.4892 11.1603 36.0615 11.1603 35.5341C11.1603 35.0067 11.5874 34.5791 12.1146 34.5791H27.8346C28.0879 34.5791 28.3308 34.6798 28.5097 34.8588C28.689 35.0381 28.7893 35.2811 28.7893 35.5342L28.7893 35.5341ZM23.9048 28.1356H23.8602C23.7088 28.2118 23.6138 28.3675 23.615 28.5372V33.6689H16.3661V28.5593C16.3673 28.3738 16.2538 28.2067 16.0806 28.1401C12.4697 26.7458 9.85841 23.5538 9.20658 19.7375C9.10173 19.1258 9.04946 18.5064 9.05035 17.8857V3.69529H30.9706V17.8857C30.9718 18.5049 30.9183 19.1232 30.8099 19.733C30.1563 23.5588 27.5303 26.7544 23.9045 28.1356L23.9048 28.1356ZM39.1071 7.85821C39.0984 10.2369 38.4039 12.5622 37.1072 14.556C35.8102 16.55 33.9663 18.1273 31.7958 19.099C31.8385 18.6956 31.8609 18.2907 31.8627 17.8852V6.40743H38.6073C38.8833 6.40743 39.1071 6.63124 39.1071 6.90736L39.1071 7.85821Z" fill="black"/>
<path d="M28.1692 10.8789H22.8832C22.7963 10.8795 22.7186 10.8237 22.6914 10.7409L21.059 5.7117C20.9628 5.41557 20.7459 5.17412 20.4615 5.04742C20.1775 4.92072 19.8528 4.92072 19.5687 5.04742C19.2843 5.17411 19.0671 5.41557 18.9712 5.7117L17.3384 10.7409C17.3128 10.8246 17.2345 10.881 17.1467 10.8789H11.8607C11.5494 10.8786 11.2528 11.0104 11.0443 11.2414C10.8358 11.4724 10.7354 11.7814 10.7676 12.0909C10.7999 12.4005 10.9621 12.6817 11.2139 12.8649L15.4918 15.9885C15.5637 16.042 15.5924 16.1358 15.5631 16.2207L13.9303 21.232C13.8371 21.5269 13.8727 21.8475 14.0283 22.115C14.184 22.3821 14.445 22.5716 14.7473 22.6361C15.0496 22.701 15.3654 22.6349 15.6166 22.4547L19.8944 19.3311V19.3308C19.9658 19.2774 20.0641 19.2774 20.1354 19.3308L24.4133 22.4544V22.4547C24.5991 22.5925 24.824 22.6675 25.0555 22.6687C25.2882 22.6675 25.5146 22.5925 25.7022 22.4547C26.089 22.1789 26.2504 21.6826 26.0992 21.232L24.4667 16.2028C24.4371 16.1182 24.4661 16.0241 24.5381 15.9706L28.8159 12.847C29.0678 12.6641 29.23 12.3826 29.2622 12.0731C29.2945 11.7635 29.1938 11.4548 28.9856 11.2235C28.7771 10.9926 28.4802 10.8608 28.1689 10.8614L28.1692 10.8789ZM28.2896 12.1418L24.0162 15.2654L24.0165 15.2657C23.6291 15.5412 23.4663 16.0369 23.6151 16.4884L25.2523 21.5176H25.252C25.2822 21.6031 25.2511 21.6981 25.1761 21.7495C25.1053 21.8045 25.0061 21.8045 24.9354 21.7495L20.6575 18.6259C20.2749 18.3459 19.7554 18.3459 19.3727 18.6259L15.0949 21.7495C15.0241 21.8045 14.9249 21.8045 14.8539 21.7495C14.7804 21.6972 14.7496 21.6031 14.7783 21.5176L16.4017 16.475C16.5505 16.0235 16.3877 15.5277 16.0003 15.2522L11.7269 12.1286C11.6501 12.0808 11.6181 11.9852 11.651 11.9009C11.6758 11.8137 11.7568 11.7548 11.8473 11.7581H17.1467C17.6169 11.7617 18.036 11.4628 18.1863 11.0173L19.8191 5.98359L19.8188 5.98389C19.8451 5.89843 19.9257 5.84135 20.015 5.84554C20.1037 5.84016 20.1838 5.89813 20.2068 5.98389L21.844 11.0173C21.9907 11.4673 22.4104 11.7718 22.8833 11.7715H28.1693C28.2601 11.7682 28.341 11.8271 28.3658 11.9144C28.3987 11.9986 28.3667 12.0943 28.29 12.1421L28.2896 12.1418Z" fill="black"/>
</svg>
