<svg width="30" height="33" viewBox="0 0 30 33" fill="none" xmlns="http://www.w3.org/2000/svg">
<path d="M18.1651 28.4968V24.6811C21.2656 23.2312 23.25 20.0551 23.25 16.4867C23.25 11.5337 19.3822 7.5 14.625 7.5C9.86783 7.5 6 11.5336 6 16.49C6 20.0549 7.98439 23.2308 11.0849 24.6844V28.5H18.1648L18.1651 28.4968ZM7.04641 16.49C7.04641 12.1365 10.447 8.59347 14.6251 8.59347C18.8034 8.59347 22.2038 12.1366 22.2038 16.49C22.2038 19.7315 20.3379 22.6095 17.4468 23.8155L17.1189 23.9537V27.4058H12.1317V23.9537L11.8038 23.8155C8.91607 22.6057 7.04671 19.7313 7.04671 16.49H7.04641Z" fill="#121212"/>
<path d="M19.714 28.2124H10.2864C9.98949 28.2124 9.75 28.4222 9.75 28.6817C9.75 28.9415 9.98974 29.1511 10.2864 29.1511H11.277V30.9317H12.6539V32.7124H17.3461V30.9317H18.723V29.1511H19.7136C20.0105 29.1511 20.25 28.9413 20.25 28.6817C20.2502 28.4222 20.0108 28.2124 19.7139 28.2124H19.714ZM16.2735 31.7739H13.7272V30.9322H16.2735V31.7739ZM17.6504 29.9931H12.3502V29.1513H17.6504V29.9931Z" fill="#121212"/>
<path d="M29.5026 11.3397L26.4719 11.1461C26.2553 10.455 25.971 9.78089 25.6263 9.14156L27.6231 6.92263C27.8077 6.71867 27.7971 6.40767 27.5983 6.21411L23.6155 2.33992C23.4165 2.14633 23.0968 2.13596 22.8871 2.31581L20.6418 4.22714C19.9702 3.87468 19.2669 3.58441 18.5419 3.36309L18.3467 0.484094C18.3288 0.210945 18.0944 0.000241084 17.8138 0.000241084L12.1859 0C11.9051 0 11.6744 0.21071 11.6531 0.483853L11.4613 3.29731C10.7116 3.515 9.97974 3.8019 9.27989 4.16135L7.11265 2.31588C6.90299 2.13627 6.58329 2.14663 6.38431 2.33998L2.40518 6.21085C2.20618 6.40444 2.19552 6.71206 2.3804 6.91936L4.24552 8.9932C3.86188 9.68104 3.5491 10.4067 3.31467 11.1533L0.497387 11.3365C0.216597 11.3539 0 11.582 0 11.8549V17.3294C0 17.6025 0.216603 17.827 0.497387 17.8477L3.31467 18.031C3.54912 18.7776 3.86188 19.5032 4.24552 20.1911L2.3804 22.2682C2.19576 22.4722 2.20642 22.7832 2.40518 22.9767L6.38431 26.8476C6.58332 27.0412 6.89955 27.0516 7.11265 26.8717L9.56069 24.7875C9.78101 24.5975 9.80579 24.2726 9.61051 24.0549C9.41522 23.8405 9.08114 23.8164 8.85736 24.0064L6.78605 25.769L3.51026 22.5823L5.29734 20.5951C5.44654 20.4259 5.47132 20.1838 5.35781 19.9938C4.86761 19.1782 4.4944 18.3072 4.24209 17.4017C4.18162 17.1874 3.9898 17.0352 3.76254 17.0181L1.06942 16.8453L1.06917 12.3421L3.76229 12.1658C3.9898 12.1521 4.18162 11.9966 4.24184 11.7823C4.49413 10.8767 4.87058 10.0023 5.35756 9.19012C5.47479 8.99653 5.45 8.75472 5.29709 8.58886L3.51001 6.60161L6.7858 3.41495L8.85712 5.17754C9.02762 5.32268 9.27272 5.34679 9.47173 5.23974C10.3066 4.78 11.1914 4.43093 12.1044 4.19949C12.3247 4.14429 12.488 3.95407 12.5024 3.733L12.687 1.03717H17.3199L17.5082 3.79181C17.5224 4.00951 17.6788 4.19611 17.8956 4.25493C18.7873 4.50036 19.6472 4.85282 20.4465 5.30555C20.6455 5.41621 20.8941 5.39547 21.0646 5.24673L23.2177 3.41162L26.4935 6.59828L24.582 8.72389C24.4328 8.88976 24.408 9.12819 24.5181 9.32178C24.9657 10.0925 25.3139 10.9185 25.552 11.7722C25.6125 11.9865 25.8043 12.1386 26.0316 12.1523L28.9379 12.3389V16.8457L26.0316 17.0323C25.8041 17.0461 25.6122 17.2016 25.552 17.4125C25.3139 18.2662 24.9659 19.0888 24.5181 19.8629C24.408 20.0529 24.4328 20.2949 24.582 20.4608L26.4935 22.5828L23.2177 25.7695L21.0646 23.9344C20.8442 23.7444 20.5067 23.7685 20.3114 23.9828C20.1161 24.1972 20.1409 24.5255 20.3612 24.7155L22.8908 26.8686C22.9902 26.9549 23.1183 26.9964 23.2425 26.9964C23.381 26.9964 23.5161 26.9446 23.6192 26.8443L27.5983 22.9734C27.7973 22.7798 27.808 22.4722 27.6231 22.2649L25.6263 20.0495C25.9711 19.4068 26.2551 18.7361 26.4719 18.045L29.5026 17.848C29.7834 17.8306 30 17.6026 30 17.3297V11.8583C30 11.5851 29.7831 11.3571 29.5026 11.34L29.5026 11.3397Z" fill="#121212"/>
</svg>
