<svg width="10" height="13" viewBox="0 0 10 13" fill="none" xmlns="http://www.w3.org/2000/svg">
<path d="M5.04328 12.35C4.89928 12.35 4.77328 12.308 4.66528 12.224C4.56928 12.14 4.52128 12.032 4.52128 11.9V2.828L1.65928 5.708C1.58728 5.78 1.49128 5.816 1.37128 5.816C1.27528 5.816 1.17928 5.792 1.08328 5.744C0.999281 5.696 0.927281 5.63 0.867281 5.546C0.819281 5.462 0.795281 5.372 0.795281 5.276C0.795281 5.144 0.837281 5.036 0.921281 4.952L4.66528 1.208C4.79728 1.064 4.92328 0.991999 5.04328 0.991999C5.17528 0.991999 5.30728 1.064 5.43928 1.208L9.18328 4.952C9.26728 5.06 9.30928 5.168 9.30928 5.276C9.30928 5.36 9.27928 5.444 9.21928 5.528C9.17128 5.612 9.09928 5.684 9.00328 5.744C8.91928 5.792 8.82928 5.816 8.73328 5.816C8.61328 5.816 8.51728 5.78 8.44528 5.708L5.58328 2.828V11.9C5.58328 12.032 5.53528 12.14 5.43928 12.224C5.34328 12.308 5.21128 12.35 5.04328 12.35Z" fill="#121212"/>
</svg>
